<svg width="20" height="20" viewBox="0 0 20 20" fill="none" xmlns="http://www.w3.org/2000/svg">
<g clip-path="url(#clip0_195_194)">
<path d="M12.5781 15.6641C14.3012 15.6641 15.7031 17.0659 15.7031 18.7891C15.7031 19.0048 15.878 19.1797 16.0938 19.1797C16.3095 19.1797 16.4844 19.0048 16.4844 18.7891C16.4844 17.0659 17.8863 15.6641 19.6094 15.6641C19.8251 15.6641 20 15.4891 20 15.2734C20 15.0577 19.8251 14.8828 19.6094 14.8828C17.8863 14.8828 16.4844 13.4809 16.4844 11.7578C16.4844 11.5421 16.3095 11.3672 16.0938 11.3672C15.878 11.3672 15.7031 11.5421 15.7031 11.7578C15.7031 13.4809 14.3012 14.8828 12.5781 14.8828C12.3624 14.8828 12.1875 15.0577 12.1875 15.2734C12.1875 15.4891 12.3624 15.6641 12.5781 15.6641ZM16.0938 13.4598C16.4772 14.2486 17.1185 14.89 17.9074 15.2734C17.1186 15.6569 16.4772 16.2982 16.0938 17.0871C15.7103 16.2982 15.069 15.6569 14.2801 15.2734C15.069 14.89 15.7103 14.2487 16.0938 13.4598Z" fill="#09090B"/>
<path d="M0.390625 3.94531C1.46758 3.94531 2.34375 4.82148 2.34375 5.89844C2.34375 6.11414 2.51863 6.28906 2.73438 6.28906C2.95012 6.28906 3.125 6.11414 3.125 5.89844C3.125 4.82148 4.00117 3.94531 5.07812 3.94531C5.29387 3.94531 5.46875 3.77039 5.46875 3.55469C5.46875 3.33898 5.29387 3.16406 5.07812 3.16406C4.00117 3.16406 3.125 2.28789 3.125 1.21094C3.125 0.995234 2.95012 0.820312 2.73438 0.820312C2.51863 0.820312 2.34375 0.995234 2.34375 1.21094C2.34375 2.28789 1.46758 3.16406 0.390625 3.16406C0.174883 3.16406 0 3.33898 0 3.55469C0 3.77039 0.174883 3.94531 0.390625 3.94531ZM2.73438 2.61813C2.96535 3.00133 3.28773 3.32375 3.6709 3.55469C3.2877 3.78562 2.96531 4.10805 2.73438 4.49125C2.5034 4.10805 2.18102 3.78562 1.79785 3.55469C2.18102 3.32375 2.5034 3.00133 2.73438 2.61813Z" fill="#09090B"/>
<path d="M10.8984 11.875C11.1142 11.875 11.2891 11.7001 11.2891 11.4844C11.2891 11.2686 11.1142 11.0938 10.8984 11.0938C10.6827 11.0938 10.5078 11.2686 10.5078 11.4844C10.5078 11.7001 10.6827 11.875 10.8984 11.875Z" fill="#09090B"/>
<path d="M11.9405 10.5935C12.0506 10.779 12.2903 10.8402 12.4758 10.7301C13.4961 10.1247 14.6661 9.80469 15.8594 9.80469C16.0751 9.80469 16.25 9.62977 16.25 9.41406C16.25 9.19836 16.0751 9.02344 15.8594 9.02344C12.1977 9.02344 9.21875 6.04445 9.21875 2.38281C9.21875 2.16711 9.04387 1.99219 8.82812 1.99219C8.61238 1.99219 8.4375 2.16711 8.4375 2.38281C8.4375 6.04445 5.45852 9.02344 1.79688 9.02344C1.58113 9.02344 1.40625 9.19836 1.40625 9.41406C1.40625 9.62977 1.58113 9.80469 1.79688 9.80469C5.45852 9.80469 8.4375 12.7837 8.4375 16.4453C8.4375 16.661 8.61238 16.8359 8.82812 16.8359C9.04387 16.8359 9.21875 16.661 9.21875 16.4453C9.21875 15.252 9.53875 14.082 10.1441 13.0618C10.2542 12.8762 10.1931 12.6366 10.0076 12.5265C9.82191 12.4163 9.58234 12.4775 9.4723 12.663C9.20809 13.1083 8.99254 13.5789 8.82785 14.0666C8.0875 11.8839 6.35754 10.1542 4.1748 9.41406C6.35777 8.67383 8.08789 6.94371 8.82812 4.76074C9.56828 6.94348 11.298 8.67344 13.4806 9.41379C12.9929 9.57848 12.5223 9.79402 12.0771 10.0582C11.8916 10.1684 11.8304 10.408 11.9405 10.5935Z" fill="#09090B"/>
</g>
<defs>
<clipPath id="clip0_195_194">
<rect width="20" height="20" fill="white"/>
</clipPath>
</defs>
</svg>
