<svg width="24" height="24" viewBox="0 0 24 24" fill="none" xmlns="http://www.w3.org/2000/svg">
<path d="M12.8096 16.9575V14.265C12.8096 14.175 12.8171 14.0925 12.8245 14.01C12.412 14.22 11.9395 14.3325 11.4445 14.3325C9.70454 14.3325 8.28703 12.915 8.28703 11.175C8.28703 9.43497 9.70454 8.02501 11.4445 8.02501C13.1846 8.02501 14.5946 9.43497 14.5946 11.175C14.5946 11.49 14.5496 11.79 14.4596 12.075L20.617 9.50999C20.7296 9.45749 20.8495 9.42 20.9696 9.39748C20.1296 4.90498 16.1846 1.5 11.4521 1.5C6.11206 1.5 1.76953 5.84248 1.76953 11.1825C1.76953 16.08 5.42203 20.145 10.1545 20.775C10.1471 20.655 10.1396 20.535 10.1396 20.415C10.1396 18.75 11.2795 17.3625 12.8096 16.9575Z" fill="white"/>
<path d="M11.4521 10.4249C11.0322 10.4249 10.7021 10.7624 10.7021 11.1749C10.7021 11.5875 11.0396 11.9249 11.4597 11.9249C11.8721 11.9249 12.2097 11.5875 12.2097 11.1749C12.2097 10.7624 11.8721 10.4249 11.4597 10.4249H11.4521Z" fill="white"/>
<path d="M21.8954 10.9636C21.6859 10.8245 21.423 10.7988 21.1908 10.8955L14.7711 13.5725C14.4913 13.689 14.3097 13.9622 14.3097 14.2647V18.4144C14.1229 18.3601 13.929 18.3223 13.7245 18.3223C12.575 18.3223 11.6396 19.2612 11.6396 20.4148C11.6396 21.5647 12.575 22.5 13.7245 22.5C14.8781 22.5 15.817 21.5647 15.817 20.4148C15.817 20.3873 15.8134 20.3499 15.8097 20.3123V17.3002L20.7294 15.2537V17.0134C20.5427 16.9584 20.3492 16.9197 20.1449 16.9197C18.995 16.9197 18.0597 17.855 18.0597 19.0049C18.0597 20.1585 18.995 21.0974 20.1449 21.0974C21.2831 21.0974 22.2184 20.165 22.2294 19.0195C22.2294 19.0173 22.2294 19.0071 22.2294 19.0049V14.1346V14.1336V11.5877C22.2294 11.3372 22.1041 11.1028 21.8954 10.9636Z" fill="white"/>
</svg>
