<svg width="20" height="20" viewBox="0 0 20 20" fill="none" xmlns="http://www.w3.org/2000/svg">
<path d="M16.5769 1.875H3.42314C2.22615 1.875 1.25 2.9603 1.25 4.29114V15.7089C1.25 17.0397 2.22615 18.125 3.42314 18.125H16.5769C17.7739 18.125 18.75 17.0397 18.75 15.7089V4.29114C18.75 2.9603 17.7739 1.875 16.5769 1.875ZM17.8666 15.7089C17.8666 16.4995 17.288 17.1428 16.5769 17.1428H3.42314C2.71201 17.1428 2.13339 16.4995 2.13339 15.7089V4.29114C2.13339 3.50049 2.71201 2.85717 3.42314 2.85717H16.5769C17.288 2.85717 17.8666 3.50049 17.8666 4.29114V15.7089Z" fill="#09090B"/>
<path d="M3.04191 13.125H5.70809C6.00614 13.125 6.25 12.8438 6.25 12.5C6.25 12.1562 6.00614 11.875 5.70809 11.875H3.04191C2.74386 11.875 2.5 12.1562 2.5 12.5C2.5 12.8438 2.74386 13.125 3.04191 13.125Z" fill="#09090B"/>
<path d="M17.0489 11.875H7.95106C7.70298 11.875 7.5 12.1562 7.5 12.5C7.5 12.8438 7.70298 13.125 7.95106 13.125H17.0489C17.297 13.125 17.5 12.8438 17.5 12.5C17.5 12.1562 17.297 11.875 17.0489 11.875Z" fill="#09090B"/>
<path d="M10.752 14.375H2.99801C2.7241 14.375 2.5 14.6562 2.5 15C2.5 15.3438 2.7241 15.625 2.99801 15.625H10.752C11.0259 15.625 11.25 15.3438 11.25 15C11.25 14.6562 11.0259 14.375 10.752 14.375Z" fill="#09090B"/>
<path d="M17.0606 14.375H12.9394C12.6977 14.375 12.5 14.6562 12.5 15C12.5 15.3438 12.6977 15.625 12.9394 15.625H17.0606C17.3023 15.625 17.5 15.3438 17.5 15C17.5 14.6562 17.3023 14.375 17.0606 14.375Z" fill="#09090B"/>
</svg>
