<svg width="20" height="20" viewBox="0 0 20 20" fill="none" xmlns="http://www.w3.org/2000/svg">
<path d="M19.3346 4.58138C18.9354 4.16313 18.384 3.91598 17.7567 3.91598H14.6008V3.87796C14.6008 3.40267 14.4106 2.9464 14.0875 2.64221C13.7643 2.31902 13.327 2.12891 12.8517 2.12891H7.14829C6.65399 2.12891 6.21673 2.31902 5.89354 2.64221C5.57034 2.96541 5.38023 3.40267 5.38023 3.87796V3.91598H2.24335C1.61597 3.91598 1.06464 4.16313 0.665399 4.58138C0.26616 4.98062 0 5.55096 0 6.15932V15.627C0 16.2544 0.247148 16.8057 0.665399 17.205C1.06464 17.6042 1.63498 17.8703 2.24335 17.8703H17.7567C18.384 17.8703 18.9354 17.6232 19.3346 17.205C19.7338 16.8057 20 16.2354 20 15.627V6.15932C20 5.53195 19.7529 4.98062 19.3346 4.58138ZM19.0114 15.627H18.9924C18.9924 15.9692 18.8593 16.2734 18.6312 16.5015C18.403 16.7297 18.0989 16.8627 17.7567 16.8627H2.24335C1.90114 16.8627 1.59696 16.7297 1.36882 16.5015C1.14068 16.2734 1.0076 15.9692 1.0076 15.627V6.15932C1.0076 5.81712 1.14068 5.51294 1.36882 5.2848C1.59696 5.05666 1.90114 4.92358 2.24335 4.92358H5.91255C6.19772 4.92358 6.42586 4.69545 6.42586 4.41027V3.85894C6.42586 3.64982 6.5019 3.4597 6.63498 3.32662C6.76806 3.19354 6.95818 3.1175 7.1673 3.1175H12.8517C13.0608 3.1175 13.251 3.19354 13.384 3.32662C13.5171 3.4597 13.5932 3.64982 13.5932 3.85894V4.41027C13.5932 4.69545 13.8213 4.92358 14.1065 4.92358H17.7757C18.1179 4.92358 18.4221 5.05666 18.6502 5.2848C18.8783 5.51294 19.0114 5.81712 19.0114 6.15932V15.627Z" fill="#09090B"/>
<path d="M9.99907 6.21582C8.7063 6.21582 7.52759 6.74814 6.69109 7.58464C5.83557 8.44016 5.32227 9.59985 5.32227 10.8926C5.32227 12.1854 5.85459 13.3641 6.69109 14.2006C7.5466 15.0561 8.7063 15.5694 9.99907 15.5694C11.2918 15.5694 12.4706 15.0371 13.3071 14.2006C14.1626 13.3451 14.6759 12.1854 14.6759 10.8926C14.6759 9.59985 14.1436 8.42114 13.3071 7.58464C12.4706 6.74814 11.2918 6.21582 9.99907 6.21582ZM12.5846 13.4972C11.9192 14.1436 11.0067 14.5618 9.99907 14.5618C8.99147 14.5618 8.07892 14.1436 7.41352 13.4972C6.74812 12.8318 6.34888 11.9192 6.34888 10.9116C6.34888 9.90403 6.76713 8.99149 7.41352 8.32609C8.07892 7.66069 8.99147 7.26145 9.99907 7.26145C11.0067 7.26145 11.9192 7.6797 12.5846 8.32609C13.25 8.99149 13.6493 9.90403 13.6493 10.9116C13.6683 11.9192 13.25 12.8318 12.5846 13.4972Z" fill="#09090B"/>
<path d="M16.7665 8.06063C17.281 8.06063 17.6981 7.64355 17.6981 7.12907C17.6981 6.61458 17.281 6.19751 16.7665 6.19751C16.252 6.19751 15.835 6.61458 15.835 7.12907C15.835 7.64355 16.252 8.06063 16.7665 8.06063Z" fill="#09090B"/>
</svg>
