<svg width="20" height="20" viewBox="0 0 20 20" fill="none" xmlns="http://www.w3.org/2000/svg">
<path d="M12.299 10.8679C12.299 10.9666 12.2598 11.0612 12.1901 11.131C12.1203 11.2008 12.0256 11.2401 11.9269 11.2401H9.48485V13.682C9.48485 13.7808 9.44563 13.8754 9.37582 13.9452C9.30601 14.0151 9.21133 14.0543 9.1126 14.0543C9.01388 14.0543 8.9192 14.0151 8.84939 13.9452C8.77958 13.8754 8.74036 13.7808 8.74036 13.682V11.2401H6.29844C6.19971 11.2401 6.10503 11.2009 6.03522 11.1311C5.96541 11.0613 5.92619 10.9666 5.92619 10.8679C5.92619 10.7691 5.96541 10.6745 6.03522 10.6046C6.10503 10.5348 6.19971 10.4956 6.29844 10.4956H8.74036V8.05367C8.74036 7.95494 8.77958 7.86026 8.84939 7.79045C8.9192 7.72064 9.01388 7.68142 9.1126 7.68142C9.21133 7.68142 9.30601 7.72064 9.37582 7.79045C9.44563 7.86026 9.48485 7.95494 9.48485 8.05367V10.4956H11.9269C12.0256 10.4956 12.1203 10.5349 12.1901 10.6047C12.2598 10.6745 12.299 10.7692 12.299 10.8679ZM17.5196 4.60677V13.6575C17.5189 14.1637 17.3363 14.6527 17.0051 15.0354C16.6739 15.4181 16.2161 15.669 15.7153 15.7423C15.6322 16.2333 15.3781 16.6791 14.9979 17.0008C14.6177 17.3225 14.136 17.4993 13.638 17.5H4.58724C4.02867 17.4994 3.49315 17.2773 3.09818 16.8823C2.70321 16.4873 2.48106 15.9518 2.48047 15.3932V6.34247C2.48114 5.83634 2.66374 5.34732 2.99496 4.96461C3.32617 4.58191 3.78393 4.33102 4.28472 4.25773C4.36783 3.76669 4.62196 3.32089 5.00214 2.9992C5.38232 2.67751 5.86404 2.50068 6.36206 2.5H15.4128C15.9714 2.50059 16.5069 2.72274 16.9019 3.11771C17.2968 3.51268 17.519 4.0482 17.5196 4.60677ZM15.0002 6.34247C14.9999 5.98128 14.8562 5.635 14.6008 5.37959C14.3455 5.12419 13.9992 4.98052 13.638 4.9801H4.58724C4.22607 4.98052 3.87981 5.12417 3.62443 5.37956C3.36905 5.63495 3.2254 5.98121 3.22499 6.34238V15.3932C3.2254 15.7544 3.36905 16.1007 3.62443 16.356C3.87981 16.6114 4.22607 16.7551 4.58724 16.7555H13.638C13.9992 16.7551 14.3454 16.6114 14.6008 16.356C14.8562 16.1007 14.9998 15.7544 15.0002 15.3932V6.34247ZM16.7751 4.60677C16.7747 4.2456 16.631 3.89934 16.3756 3.64395C16.1202 3.38857 15.774 3.24491 15.4128 3.2445H6.36206C6.0656 3.24491 5.77734 3.34187 5.54089 3.52071C5.30445 3.69955 5.13269 3.95054 5.0516 4.2357H13.638C14.1966 4.2363 14.7321 4.45845 15.127 4.85342C15.522 5.24839 15.7441 5.7839 15.7447 6.34247V14.9788C16.0389 14.9045 16.3 14.7342 16.4865 14.4949C16.6731 14.2557 16.7747 13.961 16.7751 13.6576V4.60677Z" fill="#09090B"/>
</svg>
