<svg width="20" height="20" viewBox="0 0 20 20" fill="none" xmlns="http://www.w3.org/2000/svg">
<path d="M5 7.5C6.38071 7.5 7.5 6.38071 7.5 5C7.5 3.61929 6.38071 2.5 5 2.5C3.61929 2.5 2.5 3.61929 2.5 5C2.5 6.38071 3.61929 7.5 5 7.5Z" stroke="#09090B" stroke-linecap="round" stroke-linejoin="round"/>
<path d="M6.76758 6.76636L10.0009 9.99969" stroke="#09090B" stroke-linecap="round" stroke-linejoin="round"/>
<path d="M16.6676 3.33374L6.76758 13.2337" stroke="#09090B" stroke-linecap="round" stroke-linejoin="round"/>
<path d="M5 17.5C6.38071 17.5 7.5 16.3807 7.5 15C7.5 13.6193 6.38071 12.5 5 12.5C3.61929 12.5 2.5 13.6193 2.5 15C2.5 16.3807 3.61929 17.5 5 17.5Z" stroke="#09090B" stroke-linecap="round" stroke-linejoin="round"/>
<path d="M12.334 12.3328L16.6673 16.6661" stroke="#09090B" stroke-linecap="round" stroke-linejoin="round"/>
</svg>
