<svg width="33" height="32" viewBox="0 0 33 32" fill="none" xmlns="http://www.w3.org/2000/svg">
<path d="M19.1655 16.3489L16.0939 18.0292C14.5003 18.901 13.19 20.2114 12.3184 21.8052L10.6391 24.8757L8.95979 21.8052C8.08817 20.2114 6.77792 18.901 5.18432 18.0292L2.11269 16.3489L5.18361 14.6693C6.77765 13.7975 8.08827 12.4869 8.96007 10.8929L10.6391 7.82284L12.3181 10.8929C13.1899 12.4869 14.5006 13.7975 16.0946 14.6693L19.1655 16.3489ZM10.8921 7.36026C10.8921 7.36031 10.892 7.36036 10.892 7.3604L10.8921 7.36026Z" stroke="#09090B"/>
<path d="M17.9532 6.3072L17.797 6.22181L17.9529 6.13659C19.5485 5.26437 20.8603 3.95251 21.7324 2.35682L21.8175 2.20123L21.9049 2.36099C22.7768 3.95407 24.087 5.26386 25.6803 6.13521L25.8384 6.22164L25.6795 6.30859C24.0866 7.17995 22.7769 8.48948 21.9052 10.0821L21.8172 10.2431L21.7315 10.0863C20.8596 8.49104 19.5483 7.17944 17.9532 6.3072Z" stroke="#09090B"/>
<path d="M29.5061 23.2336L30.8493 23.9681L29.5041 24.7042C27.9104 25.5763 26.6001 26.8871 25.7287 28.4812L24.9937 29.8256L24.2578 28.4803C23.3862 26.8867 22.0759 25.5765 20.4823 24.7048L19.1356 23.9681L20.4804 23.233C22.0752 22.3612 23.3864 21.0502 24.2585 19.4557L24.9937 18.1113L25.728 19.4547C26.5999 21.0498 27.9111 22.3614 29.5061 23.2336Z" stroke="#09090B"/>
</svg>
