<svg width="20" height="20" viewBox="0 0 20 20" fill="none" xmlns="http://www.w3.org/2000/svg">
<g clip-path="url(#clip0_195_106)">
<path d="M18.7606 3.72388H11.8825C11.873 3.72388 11.8646 3.71885 11.8607 3.71076L11.1513 2.27185C10.9511 1.86459 10.5284 1.60153 10.0743 1.60153H5.9163C5.25437 1.60153 4.71589 2.14017 4.71589 2.80225V3.97916H3.53852C2.87675 3.97916 2.33826 4.51764 2.33826 5.17957V6.35649H1.16135C0.499421 6.35649 -0.0390625 6.89497 -0.0390625 7.5569V17.2707C-0.0390625 17.9326 0.499421 18.4711 1.16135 18.4711H14.0058C14.6677 18.4711 15.2062 17.9326 15.2062 17.2707V16.0936H16.3832C17.0452 16.0936 17.5837 15.5551 17.5837 14.8933V13.7164H18.7606C19.4225 13.7164 19.961 13.1779 19.961 12.516V4.9246C19.961 4.26252 19.4225 3.72388 18.7606 3.72388ZM14.0058 17.2946H1.16135C1.14823 17.2946 1.13739 17.2839 1.13739 17.2707V7.5569C1.13739 7.54362 1.14823 7.53294 1.16135 7.53294H5.31968C5.32365 7.53294 5.32746 7.53431 5.33082 7.53614C5.33128 7.53645 5.33189 7.5363 5.33235 7.5366C5.33372 7.53752 5.33448 7.5392 5.3357 7.54026C5.33769 7.54225 5.33998 7.54393 5.3412 7.54637L6.05089 8.98573C6.25459 9.39864 6.66719 9.65529 7.12755 9.65529H14.0058C14.009 9.65529 14.0122 9.6559 14.0151 9.65712C14.0236 9.66078 14.0296 9.66933 14.0296 9.67925C14.0296 13.8278 14.0297 17.2328 14.0297 17.2707C14.0297 17.2839 14.019 17.2946 14.0058 17.2946ZM16.4072 14.8933C16.4072 14.9065 16.3965 14.9171 16.3834 14.9171H15.2062V9.67925C15.2062 9.01717 14.6675 8.47868 14.0056 8.47868H7.12755C7.1187 8.47868 7.11015 8.47334 7.10618 8.46525L6.39634 7.02589C6.19279 6.61344 5.78035 6.35649 5.31984 6.35649H3.51472V5.17957C3.51472 5.1663 3.5254 5.15562 3.53852 5.15562H7.69701C7.70616 5.15562 7.7144 5.16065 7.71852 5.1692L8.42836 6.60856C8.63222 7.02146 9.04467 7.27797 9.50487 7.27797H16.3834C16.3965 7.27797 16.4072 7.28865 16.4072 7.30192V14.8933ZM18.7845 12.516C18.7845 12.5293 18.7738 12.54 18.7606 12.54H17.5837V7.30192C17.5837 6.63999 17.0453 6.10151 16.3834 6.10151H9.50487C9.49587 6.10151 9.48748 6.09617 9.48336 6.08793L8.77367 4.64902C8.57027 4.23581 8.15767 3.97916 7.69701 3.97916H5.89235V2.80225C5.89235 2.78882 5.90303 2.77799 5.91615 2.77799H10.0742C10.0832 2.77799 10.0916 2.78302 10.0957 2.79141L10.8055 4.23124C11.0092 4.64384 11.4218 4.90034 11.8825 4.90034H18.7606C18.7737 4.90034 18.7844 4.91117 18.7844 4.92475V12.516H18.7845Z" fill="#09090B"/>
<path d="M10.4124 14.7375C10.0876 14.7375 9.82422 15.0009 9.82422 15.3258V15.6659C9.82422 15.9908 10.0876 16.2541 10.4124 16.2541C10.7373 16.2541 11.0007 15.9908 11.0007 15.6659V15.3258C11.0007 15.0009 10.7373 14.7375 10.4124 14.7375Z" fill="#09090B"/>
<path d="M12.1263 14.7375C11.8015 14.7375 11.5381 15.0009 11.5381 15.3258V15.6659C11.5381 15.9908 11.8015 16.2541 12.1263 16.2541C12.4512 16.2541 12.7145 15.9908 12.7145 15.6659V15.3258C12.7145 15.0009 12.4512 14.7375 12.1263 14.7375Z" fill="#09090B"/>
</g>
<defs>
<clipPath id="clip0_195_106">
<rect width="20" height="20" fill="white"/>
</clipPath>
</defs>
</svg>
