<svg width="20" height="20" viewBox="0 0 20 20" fill="none" xmlns="http://www.w3.org/2000/svg">
<g clip-path="url(#clip0_195_144)">
<path d="M19.0473 9.56347L16.3945 6.80788C16.3066 6.71928 16.1945 6.6586 16.0723 6.63344C15.95 6.60827 15.823 6.61975 15.7073 6.66643C15.5915 6.7131 15.4921 6.79291 15.4215 6.89583C15.3509 6.99876 15.3123 7.12023 15.3104 7.24503L15.3052 8.43797H11.5609L11.5656 4.68797H12.7533C12.8782 4.68615 12.9997 4.64751 13.1026 4.57691C13.2056 4.50631 13.2854 4.40688 13.332 4.2911C13.3787 4.17532 13.3902 4.04834 13.365 3.92608C13.3397 3.80382 13.279 3.69172 13.1903 3.60384L10.4349 0.951094C10.3178 0.837473 10.1611 0.773926 9.9979 0.773926C9.83474 0.773926 9.678 0.837473 9.5609 0.951094L6.80531 3.60384C6.7167 3.69175 6.656 3.80386 6.63083 3.92612C6.60566 4.04837 6.61714 4.17534 6.66382 4.2911C6.7105 4.40686 6.79031 4.50627 6.89324 4.57687C6.99618 4.64747 7.11766 4.68612 7.24247 4.68797L8.4354 4.69316V8.4375L4.6854 8.43278V7.24503C4.68357 7.12022 4.64492 6.99873 4.57432 6.89579C4.50372 6.79284 4.4043 6.71304 4.28852 6.66637C4.17275 6.6197 4.04577 6.60825 3.92351 6.63345C3.80126 6.65865 3.68916 6.71938 3.60128 6.80803L0.94853 9.56347C0.834982 9.6806 0.771484 9.83733 0.771484 10.0005C0.771484 10.1636 0.834982 10.3203 0.94853 10.4375L3.60128 13.1931C3.68919 13.2817 3.8013 13.3423 3.92355 13.3675C4.0458 13.3927 4.17276 13.3812 4.28852 13.3345C4.40427 13.2878 4.50368 13.208 4.57428 13.1051C4.64488 13.0022 4.68354 12.8807 4.6854 12.7559L4.69059 11.563H8.43494L8.43022 15.313H7.24247C7.11765 15.3148 6.99614 15.3534 6.89319 15.424C6.79024 15.4946 6.71043 15.5941 6.66376 15.7098C6.61709 15.8256 6.60564 15.9526 6.63085 16.0749C6.65606 16.1971 6.7168 16.3092 6.80547 16.3971L9.5609 19.0498C9.67804 19.1634 9.83477 19.2269 9.9979 19.2269C10.161 19.2269 10.3178 19.1634 10.4349 19.0498L13.1905 16.3971C13.2791 16.3092 13.3398 16.1971 13.365 16.0748C13.3901 15.9526 13.3787 15.8256 13.332 15.7098C13.2853 15.5941 13.2055 15.4947 13.1026 15.4241C12.9996 15.3535 12.8781 15.3148 12.7533 15.313L11.5604 15.3078V11.5634L15.3104 11.5682V12.7559C15.3122 12.8807 15.3509 13.0022 15.4215 13.1052C15.4921 13.2081 15.5915 13.2879 15.7073 13.3346C15.8231 13.3812 15.95 13.3927 16.0723 13.3675C16.1946 13.3423 16.3066 13.2816 16.3945 13.1929L19.0473 10.4375C19.1608 10.3203 19.2243 10.1636 19.2243 10.0005C19.2243 9.83733 19.1608 9.6806 19.0473 9.56347ZM18.5973 10.0041L15.9354 12.7559V11.5682C15.9352 11.4011 15.8687 11.2409 15.7506 11.1228C15.6325 11.0046 15.4723 10.9382 15.3052 10.938H11.2479C11.165 10.938 11.0855 10.9709 11.0269 11.0295C10.9683 11.0881 10.9354 11.1676 10.9354 11.2505V15.3078C10.9356 15.4749 11.0021 15.635 11.1202 15.7532C11.2383 15.8713 11.3985 15.9378 11.5656 15.938L12.757 15.947L9.99425 18.5997L7.24247 15.938H8.43022C8.59729 15.9378 8.75746 15.8713 8.8756 15.7532C8.99374 15.635 9.0602 15.4749 9.0604 15.3078V11.2505C9.0604 11.1676 9.02748 11.0881 8.96888 11.0295C8.91027 10.9709 8.83078 10.938 8.7479 10.938H4.69059C4.52352 10.9382 4.36335 11.0046 4.24521 11.1228C4.12707 11.2409 4.06061 11.4011 4.0604 11.5682L4.0514 12.7596L1.39866 9.99681L4.0604 7.24503V8.43278C4.06061 8.59985 4.12707 8.76003 4.24521 8.87816C4.36335 8.9963 4.52352 9.06276 4.69059 9.06297H8.7479C8.83078 9.06297 8.91027 9.03005 8.96888 8.97144C9.02748 8.91284 9.0604 8.83335 9.0604 8.75047V4.69316C9.0602 4.52608 8.99374 4.36591 8.8756 4.24778C8.75746 4.12964 8.59729 4.06318 8.43022 4.06297L7.23881 4.05397L10.0016 1.40122L12.7533 4.06297H11.5656C11.3985 4.06318 11.2383 4.12964 11.1202 4.24778C11.0021 4.36591 10.9356 4.52608 10.9354 4.69316V8.75047C10.9354 8.83335 10.9683 8.91284 11.0269 8.97144C11.0855 9.03005 11.165 9.06297 11.2479 9.06297H15.3052C15.4723 9.06276 15.6325 8.9963 15.7506 8.87816C15.8687 8.76003 15.9352 8.59985 15.9354 8.43278L15.9444 7.24138L18.5972 9.99681L18.5973 10.0041Z" fill="#09090B"/>
</g>
<defs>
<clipPath id="clip0_195_144">
<rect width="20" height="20" fill="white"/>
</clipPath>
</defs>
</svg>
