<svg width="16" height="16" viewBox="0 0 16 16" fill="none" xmlns="http://www.w3.org/2000/svg">
<path d="M12.0023 0.399902H4.00234C3.04789 0.400961 2.13283 0.780586 1.45793 1.45549C0.783027 2.13039 0.403402 3.04545 0.402344 3.9999V11.9999C0.403402 12.9544 0.783027 13.8694 1.45793 14.5443C2.13283 15.2192 3.04789 15.5988 4.00234 15.5999H12.0023C12.9568 15.5988 13.8719 15.2192 14.5468 14.5443C15.2217 13.8694 15.6013 12.9544 15.6023 11.9999V3.9999C15.6013 3.04545 15.2217 2.13039 14.5468 1.45549C13.8719 0.780586 12.9568 0.400961 12.0023 0.399902ZM4.00234 1.1999H12.0023C12.7449 1.1999 13.4571 1.4949 13.9822 2.02C14.5073 2.54511 14.8023 3.2573 14.8023 3.9999V10.4103C14.177 10.3014 13.5995 10.0051 13.1463 9.5607C12.69 9.07573 12.0668 8.78161 11.4023 8.7375C10.8397 8.77411 10.2933 8.94118 9.80634 9.2255C9.25607 9.54378 8.63736 9.72514 8.00234 9.7543C7.64874 9.7543 7.53754 9.4855 7.36234 8.6231C7.18154 7.7327 6.91434 6.3871 5.23914 6.6591C3.67218 7.03705 2.26148 7.89281 1.20234 9.1079V3.9999C1.20234 3.2573 1.49734 2.54511 2.02244 2.02C2.54755 1.4949 3.25974 1.1999 4.00234 1.1999ZM12.0023 14.7999H4.00234C3.25974 14.7999 2.54755 14.5049 2.02244 13.9798C1.49734 13.4547 1.20234 12.7425 1.20234 11.9999V10.3247C1.57754 9.8511 3.31914 7.7847 5.36714 7.4495C6.18794 7.3135 6.35674 7.7063 6.57754 8.7831C6.72954 9.5311 6.93914 10.5543 8.00234 10.5543C8.759 10.5286 9.49807 10.3194 10.1559 9.9447C10.5357 9.7175 10.9617 9.57835 11.4023 9.5375C11.8762 9.59069 12.3137 9.81687 12.6311 10.1727C13.221 10.7517 13.983 11.1234 14.8023 11.2319V11.9999C14.8023 12.7425 14.5073 13.4547 13.9822 13.9798C13.4571 14.5049 12.7449 14.7999 12.0023 14.7999ZM10.5175 7.5007C10.8748 7.5007 11.2241 7.39476 11.5211 7.19627C11.8182 6.99778 12.0497 6.71566 12.1864 6.38558C12.3232 6.05551 12.3589 5.6923 12.2892 5.34189C12.2195 4.99148 12.0475 4.66961 11.7949 4.41698C11.5422 4.16436 11.2204 3.99231 10.87 3.92261C10.5195 3.85291 10.1563 3.88868 9.82626 4.02541C9.49619 4.16213 9.21407 4.39366 9.01558 4.69072C8.81709 4.98778 8.71114 5.33703 8.71114 5.6943C8.71157 6.17326 8.90202 6.63248 9.24069 6.97115C9.57937 7.30983 10.0386 7.50028 10.5175 7.5007ZM10.5175 4.6879C10.7166 4.6879 10.9112 4.74693 11.0767 4.85751C11.2422 4.9681 11.3712 5.12527 11.4473 5.30917C11.5235 5.49307 11.5434 5.69542 11.5046 5.89064C11.4658 6.08586 11.3699 6.26519 11.2292 6.40593C11.0884 6.54668 10.9091 6.64253 10.7139 6.68136C10.5187 6.7202 10.3163 6.70027 10.1324 6.62409C9.94851 6.54792 9.79134 6.41893 9.68075 6.25343C9.57017 6.08793 9.51114 5.89335 9.51114 5.6943C9.51135 5.42745 9.61745 5.17159 9.80614 4.9829C9.99484 4.79421 10.2507 4.68811 10.5175 4.6879Z" fill="#09090B"/>
</svg>
