<svg width="20" height="20" viewBox="0 0 20 20" fill="none" xmlns="http://www.w3.org/2000/svg">
<path d="M18.7424 7.11952V3.19355C18.7424 2.12189 17.8706 1.25 16.7989 1.25H3.19355C2.12185 1.25 1.25 2.12189 1.25 3.19355V16.7989C1.25 17.8706 2.12185 18.7424 3.19355 18.7424H16.7989C17.8706 18.7424 18.7424 17.8706 18.7424 16.7989V7.29551C18.7474 7.2669 18.75 7.23751 18.75 7.2075C18.75 7.17749 18.7474 7.14813 18.7424 7.11952ZM13.1594 2.27484H16.7989C17.3055 2.27484 17.7176 2.68698 17.7176 3.19355V6.69511H13.1594V2.27484ZM6.55932 17.7176H3.19355C2.68694 17.7176 2.27484 17.3055 2.27484 16.7989V13.2952H6.55932V17.7176ZM6.55932 12.2703H2.27484V7.71995H6.55932V12.2703ZM6.55935 6.69511H2.27484V3.19355C2.27484 2.68698 2.68694 2.27484 3.19355 2.27484H6.55935V6.69511ZM12.1345 17.7176H7.58412V13.2952H12.1345V17.7176ZM12.1345 12.2703H7.58412V7.71995H12.1345V12.2703ZM12.1345 6.69511H7.58412V2.27484H12.1345V6.69511ZM17.7176 16.7989C17.7176 17.3055 17.3055 17.7176 16.7989 17.7176H13.1594V13.2952H17.7176V16.7989ZM17.7176 12.2703H13.1594V7.71995H17.7176V12.2703Z" fill="#09090B"/>
</svg>
