<svg width="16" height="16" viewBox="0 0 16 16" fill="none" xmlns="http://www.w3.org/2000/svg">
<g clip-path="url(#clip0_195_89)">
<path d="M8 0C3.57841 0 0 3.578 0 8C0 12.4215 3.578 16 8 16C12.4216 16 16 12.422 16 8C16 3.57841 12.422 0 8 0ZM8 14.8837C4.20431 14.8837 1.11628 11.7957 1.11628 8C1.11628 4.20428 4.20431 1.11628 8 1.11628C11.7957 1.11628 14.8837 4.20428 14.8837 8C14.8837 11.7957 11.7957 14.8837 8 14.8837Z" fill="#09090B"/>
<path d="M7.76516 10.123C7.32288 10.123 6.96484 10.4916 6.96484 10.9339C6.96484 11.3656 7.31234 11.7447 7.76516 11.7447C8.21797 11.7447 8.57597 11.3656 8.57597 10.9339C8.57597 10.4916 8.20741 10.123 7.76516 10.123Z" fill="#09090B"/>
<path d="M7.89872 3.9834C6.47709 3.9834 5.82422 4.82587 5.82422 5.39449C5.82422 5.80518 6.17172 5.99474 6.45603 5.99474C7.02469 5.99474 6.79303 5.18387 7.86713 5.18387C8.39363 5.18387 8.81488 5.41555 8.81488 5.89996C8.81488 6.46859 8.22516 6.79502 7.87766 7.08987C7.57225 7.35309 7.17212 7.78487 7.17212 8.69049C7.17212 9.23806 7.31956 9.39602 7.75128 9.39602C8.26725 9.39602 8.37256 9.16437 8.37256 8.96424C8.37256 8.41668 8.38309 8.10077 8.96228 7.64796C9.24659 7.42684 10.1417 6.71074 10.1417 5.7209C10.1417 4.73105 9.24659 3.9834 7.89872 3.9834Z" fill="#09090B"/>
</g>
<defs>
<clipPath id="clip0_195_89">
<rect width="16" height="16" fill="white"/>
</clipPath>
</defs>
</svg>
