<svg width="33" height="32" viewBox="0 0 33 32" fill="none" xmlns="http://www.w3.org/2000/svg">
<rect x="0.664062" width="32" height="32" rx="16" fill="#1DA1F2"/>
<path d="M23.6667 10.0067C23.0283 10.457 22.3214 10.8014 21.5733 11.0267C21.1718 10.565 20.6382 10.2378 20.0447 10.0893C19.4511 9.94081 18.8263 9.97817 18.2547 10.1963C17.6831 10.4145 17.1923 10.803 16.8487 11.3092C16.505 11.8154 16.3251 12.4149 16.3333 13.0267V13.6934C15.1617 13.7237 14.0008 13.4639 12.954 12.937C11.9072 12.4101 11.0069 11.6325 10.3333 10.6734C10.3333 10.6734 7.66667 16.6734 13.6667 19.3401C12.2937 20.272 10.6581 20.7393 9 20.6734C15 24.0067 22.3333 20.6734 22.3333 13.0067C22.3327 12.821 22.3149 12.6358 22.28 12.4534C22.9604 11.7824 23.4405 10.9352 23.6667 10.0067Z" stroke="white" stroke-width="1.33333" stroke-linecap="round" stroke-linejoin="round"/>
</svg>
