<svg width="24" height="28" viewBox="0 0 24 28" fill="none" xmlns="http://www.w3.org/2000/svg">
<g clip-path="url(#clip0_824_6790)">
<path d="M3.85312 8.61912C3.70716 7.96165 3.72958 7.27796 3.91828 6.63146C4.10698 5.98496 4.45587 5.39657 4.93259 4.92084C5.40931 4.44512 5.99843 4.09747 6.64533 3.91012C7.29223 3.72277 7.97596 3.70179 8.63312 3.84912C8.99483 3.28342 9.49313 2.81788 10.0821 2.49541C10.671 2.17293 11.3317 2.00391 12.0031 2.00391C12.6746 2.00391 13.3352 2.17293 13.9242 2.49541C14.5131 2.81788 15.0114 3.28342 15.3731 3.84912C16.0313 3.70114 16.7162 3.72203 17.3641 3.90983C18.012 4.09764 18.602 4.44626 19.079 4.92327C19.556 5.40029 19.9046 5.99019 20.0924 6.63812C20.2802 7.28605 20.3011 7.97095 20.1531 8.62912C20.7188 8.99083 21.1844 9.48912 21.5068 10.0781C21.8293 10.667 21.9983 11.3277 21.9983 11.9991C21.9983 12.6706 21.8293 13.3312 21.5068 13.9202C21.1844 14.5091 20.7188 15.0074 20.1531 15.3691C20.3005 16.0263 20.2795 16.71 20.0921 17.3569C19.9048 18.0038 19.5571 18.5929 19.0814 19.0697C18.6057 19.5464 18.0173 19.8953 17.3708 20.084C16.7243 20.2727 16.0406 20.2951 15.3831 20.1491C15.0219 20.717 14.5232 21.1845 13.9332 21.5084C13.3433 21.8324 12.6811 22.0022 12.0081 22.0022C11.3351 22.0022 10.6729 21.8324 10.083 21.5084C9.49304 21.1845 8.99436 20.717 8.63312 20.1491C7.97596 20.2965 7.29223 20.2755 6.64533 20.0881C5.99843 19.9008 5.40931 19.5531 4.93259 19.0774C4.45587 18.6017 4.10698 18.0133 3.91828 17.3668C3.72958 16.7203 3.70716 16.0366 3.85312 15.3791C3.28308 15.0184 2.81354 14.5193 2.48817 13.9283C2.16281 13.3374 1.99219 12.6737 1.99219 11.9991C1.99219 11.3245 2.16281 10.6609 2.48817 10.0699C2.81354 9.47895 3.28308 8.97988 3.85312 8.61912Z" stroke="#22C55E" stroke-width="2" stroke-linecap="round" stroke-linejoin="round"/>
<path d="M16 8H10C9.46957 8 8.96086 8.21071 8.58579 8.58579C8.21071 8.96086 8 9.46957 8 10C8 10.5304 8.21071 11.0391 8.58579 11.4142C8.96086 11.7893 9.46957 12 10 12H14C14.5304 12 15.0391 12.2107 15.4142 12.5858C15.7893 12.9609 16 13.4696 16 14C16 14.5304 15.7893 15.0391 15.4142 15.4142C15.0391 15.7893 14.5304 16 14 16H8" stroke="#22C55E" stroke-width="2" stroke-linecap="round" stroke-linejoin="round"/>
<path d="M12 18V6" stroke="#22C55E" stroke-width="2" stroke-linecap="round" stroke-linejoin="round"/>
</g>
<defs>
<clipPath id="clip0_824_6790">
<rect width="24" height="24" fill="white"/>
</clipPath>
</defs>
</svg>
