<svg width="16" height="16" viewBox="0 0 16 16" fill="none" xmlns="http://www.w3.org/2000/svg">
<path d="M8 5.33203C11.3137 5.33203 14 4.4366 14 3.33203C14 2.22746 11.3137 1.33203 8 1.33203C4.68629 1.33203 2 2.22746 2 3.33203C2 4.4366 4.68629 5.33203 8 5.33203Z" stroke="#020817" stroke-width="1.33333" stroke-linecap="round" stroke-linejoin="round"/>
<path d="M2 3.33203V12.6654C2 13.1958 2.63214 13.7045 3.75736 14.0796C4.88258 14.4547 6.4087 14.6654 8 14.6654C9.5913 14.6654 11.1174 14.4547 12.2426 14.0796C13.3679 13.7045 14 13.1958 14 12.6654V3.33203" stroke="#020817" stroke-width="1.33333" stroke-linecap="round" stroke-linejoin="round"/>
<path d="M2 8C2 8.53043 2.63214 9.03914 3.75736 9.41421C4.88258 9.78929 6.4087 10 8 10C9.5913 10 11.1174 9.78929 12.2426 9.41421C13.3679 9.03914 14 8.53043 14 8" stroke="#020817" stroke-width="1.33333" stroke-linecap="round" stroke-linejoin="round"/>
</svg>
