<svg width="80" height="81" viewBox="0 0 80 81" fill="none" xmlns="http://www.w3.org/2000/svg">
<rect y="0.5" width="80" height="80" rx="40" fill="#EAF3FE"/>
<path d="M23.4844 37.1696V43.8362C23.4844 47.1696 25.151 48.8362 28.4844 48.8362H30.8677C31.4844 48.8362 32.101 49.0196 32.6344 49.3362L37.501 52.3862C41.701 55.0196 45.151 53.1029 45.151 48.1529V32.8529C45.151 27.8862 41.701 25.9862 37.501 28.6196L32.6344 31.6696C32.101 31.9862 31.4844 32.1696 30.8677 32.1696H28.4844C25.151 32.1696 23.4844 33.8362 23.4844 37.1696Z" stroke="#0080FF" stroke-width="2.3"/>
<path d="M50.1484 33.8398C53.1151 37.7898 53.1151 43.2232 50.1484 47.1732" stroke="#0080FF" stroke-width="2.3" stroke-linecap="round" stroke-linejoin="round"/>
<path d="M53.1953 29.6602C58.012 36.0768 58.012 44.9102 53.1953 51.3268" stroke="#0080FF" stroke-width="2.3" stroke-linecap="round" stroke-linejoin="round"/>
</svg>
