<svg width="18" height="18" viewBox="0 0 18 18" fill="none" xmlns="http://www.w3.org/2000/svg">
<path d="M12 9.75002L15.9172 12.3615C15.9737 12.3991 16.0393 12.4207 16.1071 12.4239C16.1748 12.4271 16.2422 12.4119 16.302 12.3799C16.3618 12.3479 16.4118 12.3003 16.4467 12.2421C16.4815 12.1839 16.5 12.1173 16.5 12.0495V5.90252C16.5 5.83653 16.4826 5.77171 16.4496 5.7146C16.4165 5.65749 16.369 5.61011 16.3118 5.57724C16.2546 5.54437 16.1897 5.52718 16.1237 5.52741C16.0577 5.52763 15.993 5.54526 15.936 5.57852L12 7.87502" stroke="#71717A" stroke-width="1.5" stroke-linecap="round" stroke-linejoin="round"/>
<path d="M10.5 4.5H3C2.17157 4.5 1.5 5.17157 1.5 6V12C1.5 12.8284 2.17157 13.5 3 13.5H10.5C11.3284 13.5 12 12.8284 12 12V6C12 5.17157 11.3284 4.5 10.5 4.5Z" stroke="#71717A" stroke-width="1.5" stroke-linecap="round" stroke-linejoin="round"/>
</svg>
