<svg width="17" height="16" viewBox="0 0 17 16" fill="none" xmlns="http://www.w3.org/2000/svg">
<path d="M10.763 14V12.6667C10.763 11.9594 10.4821 11.2811 9.98197 10.781C9.48188 10.281 8.8036 10 8.09635 10H4.09635C3.38911 10 2.71083 10.281 2.21074 10.781C1.71064 11.2811 1.42969 11.9594 1.42969 12.6667V14" stroke="white" stroke-width="1.33333" stroke-linecap="round" stroke-linejoin="round"/>
<path d="M6.09635 7.33333C7.56911 7.33333 8.76302 6.13943 8.76302 4.66667C8.76302 3.19391 7.56911 2 6.09635 2C4.62359 2 3.42969 3.19391 3.42969 4.66667C3.42969 6.13943 4.62359 7.33333 6.09635 7.33333Z" stroke="white" stroke-width="1.33333" stroke-linecap="round" stroke-linejoin="round"/>
<path d="M12.7578 5.33331V9.33331" stroke="white" stroke-width="1.33333" stroke-linecap="round" stroke-linejoin="round"/>
<path d="M14.7578 7.33331H10.7578" stroke="white" stroke-width="1.33333" stroke-linecap="round" stroke-linejoin="round"/>
</svg>
