<svg width="62" height="62" viewBox="0 0 62 62" fill="none" xmlns="http://www.w3.org/2000/svg">
<rect width="62" height="62" rx="31" fill="#EAF3FE"/>
<path d="M36.168 32.2949L42.9154 36.7932C43.0127 36.8579 43.1257 36.895 43.2424 36.9006C43.3591 36.9062 43.4751 36.88 43.5781 36.8249C43.6811 36.7697 43.7673 36.6877 43.8273 36.5875C43.8874 36.4872 43.9191 36.3726 43.9192 36.2558V25.6676C43.9192 25.554 43.8893 25.4423 43.8323 25.3439C43.7754 25.2456 43.6936 25.1639 43.595 25.1073C43.4964 25.0507 43.3847 25.0211 43.2711 25.0215C43.1574 25.0219 43.0459 25.0522 42.9477 25.1095L36.168 29.0652" stroke="#0080FF" stroke-width="2.58345" stroke-linecap="round" stroke-linejoin="round"/>
<path d="M33.5845 23.2502H20.6658C19.2388 23.2502 18.082 24.407 18.082 25.834V36.1689C18.082 37.5959 19.2388 38.7527 20.6658 38.7527H33.5845C35.0114 38.7527 36.1682 37.5959 36.1682 36.1689V25.834C36.1682 24.407 35.0114 23.2502 33.5845 23.2502Z" stroke="#0080FF" stroke-width="2.58345" stroke-linecap="round" stroke-linejoin="round"/>
</svg>
