<svg width="17" height="17" viewBox="0 0 17 17" fill="none" xmlns="http://www.w3.org/2000/svg">
<path d="M7.04033 3.83301C6.70905 3.83303 6.38964 3.95637 6.14433 4.17901L1.92566 8.00567C1.85681 8.06816 1.80179 8.14437 1.76413 8.22938C1.72648 8.3144 1.70703 8.40636 1.70703 8.49934C1.70703 8.59232 1.72648 8.68428 1.76413 8.7693C1.80179 8.85432 1.85681 8.93052 1.92566 8.99301L6.14433 12.8203C6.38964 13.043 6.70905 13.1663 7.04033 13.1663H13.707C14.0606 13.1663 14.3998 13.0259 14.6498 12.7758C14.8999 12.5258 15.0403 12.1866 15.0403 11.833V5.16634C15.0403 4.81272 14.8999 4.47358 14.6498 4.22353C14.3998 3.97348 14.0606 3.83301 13.707 3.83301H7.04033Z" stroke="#F8FAFC" stroke-width="1.33333" stroke-linecap="round" stroke-linejoin="round"/>
<path d="M8.375 6.5L12.375 10.5" stroke="#F8FAFC" stroke-width="1.33333" stroke-linecap="round" stroke-linejoin="round"/>
<path d="M12.375 6.5L8.375 10.5" stroke="#F8FAFC" stroke-width="1.33333" stroke-linecap="round" stroke-linejoin="round"/>
</svg>
