<svg width="31" height="30" viewBox="0 0 31 30" fill="none" xmlns="http://www.w3.org/2000/svg">
<path d="M0.5 15C0.5 6.71573 7.21573 0 15.5 0C23.7843 0 30.5 6.71573 30.5 15C30.5 23.2843 23.7843 30 15.5 30C7.21573 30 0.5 23.2843 0.5 15Z" fill="#0080FF" fill-opacity="0.1"/>
<path d="M19.5833 9.75H11.4167C10.7723 9.75 10.25 10.2723 10.25 10.9167V19.0833C10.25 19.7277 10.7723 20.25 11.4167 20.25H19.5833C20.2277 20.25 20.75 19.7277 20.75 19.0833V10.9167C20.75 10.2723 20.2277 9.75 19.5833 9.75Z" stroke="#0080FF" stroke-width="1.16667" stroke-linecap="round" stroke-linejoin="round"/>
<path d="M12.584 9.75V20.25" stroke="#0080FF" stroke-width="1.16667" stroke-linecap="round" stroke-linejoin="round"/>
<path d="M10.25 12.375H12.5833" stroke="#0080FF" stroke-width="1.16667" stroke-linecap="round" stroke-linejoin="round"/>
<path d="M10.25 15H20.75" stroke="#0080FF" stroke-width="1.16667" stroke-linecap="round" stroke-linejoin="round"/>
<path d="M10.25 17.625H12.5833" stroke="#0080FF" stroke-width="1.16667" stroke-linecap="round" stroke-linejoin="round"/>
<path d="M18.416 9.75V20.25" stroke="#0080FF" stroke-width="1.16667" stroke-linecap="round" stroke-linejoin="round"/>
<path d="M18.416 12.375H20.7493" stroke="#0080FF" stroke-width="1.16667" stroke-linecap="round" stroke-linejoin="round"/>
<path d="M18.416 17.625H20.7493" stroke="#0080FF" stroke-width="1.16667" stroke-linecap="round" stroke-linejoin="round"/>
</svg>
