<svg width="17" height="16" viewBox="0 0 17 16" fill="none" xmlns="http://www.w3.org/2000/svg">
<g clip-path="url(#clip0_545_3821)">
<path d="M1.16406 13.334V9.33398H5.16406" stroke="white" stroke-width="1.33" stroke-linecap="round" stroke-linejoin="round"/>
<path d="M15.8359 2.66602V6.66602H11.8359" stroke="white" stroke-width="1.33" stroke-linecap="round" stroke-linejoin="round"/>
<path d="M2.8374 6.00038C3.17551 5.0449 3.75015 4.19064 4.50771 3.51732C5.26526 2.844 6.18104 2.37355 7.16959 2.14988C8.15813 1.92621 9.18723 1.9566 10.1609 2.23823C11.1345 2.51985 12.0209 3.04352 12.7374 3.76038L15.8307 6.66704M1.16406 9.33371L4.2574 12.2404C4.97389 12.9572 5.86031 13.4809 6.83394 13.7625C7.80756 14.0441 8.83666 14.0745 9.8252 13.8509C10.8138 13.6272 11.7295 13.1568 12.4871 12.4834C13.2446 11.8101 13.8193 10.9559 14.1574 10.0004" stroke="white" stroke-width="1.33" stroke-linecap="round" stroke-linejoin="round"/>
</g>
<defs>
<clipPath id="clip0_545_3821">
<rect width="16" height="16" fill="white" transform="translate(0.5)"/>
</clipPath>
</defs>
</svg>
