<svg width="31" height="30" viewBox="0 0 31 30" fill="none" xmlns="http://www.w3.org/2000/svg">
<path d="M0.5 15C0.5 6.71573 7.21573 0 15.5 0C23.7843 0 30.5 6.71573 30.5 15C30.5 23.2843 23.7843 30 15.5 30C7.21573 30 0.5 23.2843 0.5 15Z" fill="#0080FF" fill-opacity="0.1"/>
<path d="M17.834 15.5831L20.8807 17.6142C20.9247 17.6435 20.9757 17.6602 21.0284 17.6628C21.0811 17.6653 21.1335 17.6535 21.18 17.6286C21.2265 17.6037 21.2654 17.5666 21.2925 17.5214C21.3196 17.4761 21.334 17.4243 21.334 17.3716V12.5906C21.334 12.5393 21.3205 12.4888 21.2948 12.4444C21.2691 12.4 21.2321 12.3632 21.1876 12.3376C21.1431 12.312 21.0926 12.2987 21.0413 12.2988C20.99 12.299 20.9396 12.3127 20.8953 12.3386L17.834 14.1247" stroke="#0080FF" stroke-width="1.16667" stroke-linecap="round" stroke-linejoin="round"/>
<path d="M16.666 11.5H10.8327C10.1884 11.5 9.66602 12.0223 9.66602 12.6667V17.3333C9.66602 17.9777 10.1884 18.5 10.8327 18.5H16.666C17.3103 18.5 17.8327 17.9777 17.8327 17.3333V12.6667C17.8327 12.0223 17.3103 11.5 16.666 11.5Z" stroke="#0080FF" stroke-width="1.16667" stroke-linecap="round" stroke-linejoin="round"/>
</svg>
