<svg width="17" height="16" viewBox="0 0 17 16" fill="none" xmlns="http://www.w3.org/2000/svg">
<path d="M7.12625 10.3322C7.06674 10.1015 6.94648 9.89093 6.778 9.72245C6.60952 9.55397 6.39897 9.43372 6.16825 9.3742L2.07825 8.31953C2.00847 8.29972 1.94706 8.2577 1.90333 8.19983C1.8596 8.14196 1.83594 8.0714 1.83594 7.99886C1.83594 7.92633 1.8596 7.85577 1.90333 7.7979C1.94706 7.74003 2.00847 7.698 2.07825 7.6782L6.16825 6.62286C6.39889 6.5634 6.60938 6.44325 6.77786 6.27489C6.94633 6.10653 7.06663 5.89612 7.12625 5.66553L8.18092 1.57553C8.20053 1.50548 8.24251 1.44376 8.30047 1.39979C8.35843 1.35583 8.42917 1.33203 8.50192 1.33203C8.57467 1.33203 8.64542 1.35583 8.70337 1.39979C8.76133 1.44376 8.80332 1.50548 8.82292 1.57553L9.87692 5.66553C9.93644 5.89625 10.0567 6.1068 10.2252 6.27528C10.3937 6.44376 10.6042 6.56401 10.8349 6.62353L14.9249 7.67753C14.9953 7.69693 15.0573 7.73887 15.1015 7.79692C15.1457 7.85496 15.1696 7.9259 15.1696 7.99886C15.1696 8.07182 15.1457 8.14277 15.1015 8.20081C15.0573 8.25886 14.9953 8.3008 14.9249 8.3202L10.8349 9.3742C10.6042 9.43372 10.3937 9.55397 10.2252 9.72245C10.0567 9.89093 9.93644 10.1015 9.87692 10.3322L8.82225 14.4222C8.80265 14.4923 8.76067 14.554 8.70271 14.5979C8.64475 14.6419 8.574 14.6657 8.50125 14.6657C8.42851 14.6657 8.35776 14.6419 8.2998 14.5979C8.24184 14.554 8.19986 14.4923 8.18025 14.4222L7.12625 10.3322Z" stroke="white" stroke-width="1.33247" stroke-linecap="round" stroke-linejoin="round"/>
<path d="M13.8359 2V4.66667" stroke="white" stroke-width="1.33247" stroke-linecap="round" stroke-linejoin="round"/>
<path d="M15.1667 3.33203H12.5" stroke="white" stroke-width="1.33247" stroke-linecap="round" stroke-linejoin="round"/>
<path d="M3.16406 11.332V12.6645" stroke="white" stroke-width="1.33247" stroke-linecap="round" stroke-linejoin="round"/>
<path d="M3.83247 12H2.5" stroke="white" stroke-width="1.33247" stroke-linecap="round" stroke-linejoin="round"/>
</svg>
