<svg width="14" height="14" viewBox="0 0 14 14" fill="none" xmlns="http://www.w3.org/2000/svg">
<path d="M2 11.3763V2.6263C2 2.23953 2.15365 1.8686 2.42714 1.5951C2.70063 1.32161 3.07156 1.16797 3.45833 1.16797H10.75C10.9047 1.16797 11.0531 1.22943 11.1625 1.33882C11.2719 1.44822 11.3333 1.59659 11.3333 1.7513V12.2513C11.3333 12.406 11.2719 12.5544 11.1625 12.6638C11.0531 12.7732 10.9047 12.8346 10.75 12.8346H3.45833C3.07156 12.8346 2.70063 12.681 2.42714 12.4075C2.15365 12.134 2 11.7631 2 11.3763ZM2 11.3763C2 10.9895 2.15365 10.6186 2.42714 10.3451C2.70063 10.0716 3.07156 9.91797 3.45833 9.91797H11.3333" stroke="#09090B" stroke-width="1.16667" stroke-linecap="round" stroke-linejoin="round"/>
</svg>
