<svg width="32" height="32" viewBox="0 0 32 32" fill="none" xmlns="http://www.w3.org/2000/svg">
<rect width="32" height="32" rx="16" fill="#DBEAFE"/>
<path d="M21.3594 9.25H10.8594C10.0309 9.25 9.35938 9.92157 9.35938 10.75V21.25C9.35938 22.0784 10.0309 22.75 10.8594 22.75H21.3594C22.1878 22.75 22.8594 22.0784 22.8594 21.25V10.75C22.8594 9.92157 22.1878 9.25 21.3594 9.25Z" stroke="#0080FF" stroke-width="1.28626" stroke-linecap="round" stroke-linejoin="round"/>
<path d="M13.8594 15.25C14.6878 15.25 15.3594 14.5784 15.3594 13.75C15.3594 12.9216 14.6878 12.25 13.8594 12.25C13.0309 12.25 12.3594 12.9216 12.3594 13.75C12.3594 14.5784 13.0309 15.25 13.8594 15.25Z" stroke="#0080FF" stroke-width="1.28626" stroke-linecap="round" stroke-linejoin="round"/>
<path d="M22.8594 18.2498L20.5449 15.9353C20.2636 15.6541 19.8821 15.4961 19.4844 15.4961C19.0866 15.4961 18.7052 15.6541 18.4239 15.9353L11.6094 22.7498" stroke="#0080FF" stroke-width="1.28626" stroke-linecap="round" stroke-linejoin="round"/>
</svg>
