<svg width="40" height="41" viewBox="0 0 40 41" fill="none" xmlns="http://www.w3.org/2000/svg">
<rect y="0.5" width="40" height="40" rx="20" fill="#EAF3FE"/>
<path d="M10.5005 25.5C9.80192 22.2033 9.80192 18.7967 10.5005 15.5C10.5923 15.1652 10.7696 14.8601 11.0151 14.6146C11.2606 14.3691 11.5657 14.1918 11.9005 14.1C17.2639 13.2115 22.737 13.2115 28.1005 14.1C28.4353 14.1918 28.7404 14.3691 28.9859 14.6146C29.2314 14.8601 29.4087 15.1652 29.5005 15.5C30.1991 18.7967 30.1991 22.2033 29.5005 25.5C29.4087 25.8348 29.2314 26.1399 28.9859 26.3854C28.7404 26.6309 28.4353 26.8082 28.1005 26.9C22.7371 27.7887 17.2639 27.7887 11.9005 26.9C11.5657 26.8082 11.2606 26.6309 11.0151 26.3854C10.7696 26.1399 10.5923 25.8348 10.5005 25.5Z" stroke="#EF4444" stroke-width="2" stroke-linecap="round" stroke-linejoin="round"/>
<path d="M18 23.5L23 20.5L18 17.5V23.5Z" stroke="#EF4444" stroke-width="2" stroke-linecap="round" stroke-linejoin="round"/>
</svg>
