<svg width="41" height="40" viewBox="0 0 41 40" fill="none" xmlns="http://www.w3.org/2000/svg">
<path d="M8.40741 22.3288C4.40741 22.3288 4.74074 20.3288 5.40741 19.3288C8.24035 16.8288 15.0063 10.5288 19.4062 5.32883C23.8062 0.12883 23.9062 2.16216 23.4062 3.82883C23.2396 4.9955 22.5063 8.12883 20.9062 11.3288C19.3062 14.5288 20.5729 15.3288 21.4062 15.3288H32.4062C36.0063 15.3288 35.5729 16.9955 34.9062 17.8288C32.2396 20.6622 25.9062 27.5288 21.9062 32.3288C17.9062 37.1288 17.2396 35.6622 17.4062 34.3288C17.5729 33.6622 19.4062 27.8288 19.4062 27.8288C20.4062 23.3288 19.5729 22.6622 18.4062 22.3288H8.40741Z" stroke="#0080FF" stroke-width="1.5"/>
</svg>
