<svg width="48" height="49" viewBox="0 0 48 49" fill="none" xmlns="http://www.w3.org/2000/svg">
<rect x="0.5" y="1" width="47" height="47" rx="23.5" fill="white" fill-opacity="0.9"/>
<rect x="0.5" y="1" width="47" height="47" rx="23.5" stroke="#DF2498"/>
<path d="M29 14.5H19C16.2386 14.5 14 16.7386 14 19.5V29.5C14 32.2614 16.2386 34.5 19 34.5H29C31.7614 34.5 34 32.2614 34 29.5V19.5C34 16.7386 31.7614 14.5 29 14.5Z" stroke="#DF2498" stroke-width="2" stroke-linecap="round" stroke-linejoin="round"/>
<path d="M27.9997 23.8703C28.1231 24.7025 27.981 25.5525 27.5935 26.2993C27.206 27.0461 26.5929 27.6517 25.8413 28.03C25.0898 28.4082 24.2382 28.5399 23.4075 28.4062C22.5768 28.2726 21.8095 27.8804 21.2145 27.2855C20.6196 26.6905 20.2274 25.9232 20.0938 25.0925C19.9601 24.2619 20.0918 23.4102 20.47 22.6587C20.8483 21.9072 21.4539 21.294 22.2007 20.9065C22.9475 20.519 23.7975 20.3769 24.6297 20.5003C25.4786 20.6262 26.2646 21.0218 26.8714 21.6286C27.4782 22.2355 27.8738 23.0214 27.9997 23.8703Z" stroke="#DF2498" stroke-width="2" stroke-linecap="round" stroke-linejoin="round"/>
<path d="M29.5 19H29.51" stroke="#DF2498" stroke-width="2" stroke-linecap="round" stroke-linejoin="round"/>
</svg>
