<svg width="41" height="40" viewBox="0 0 41 40" fill="none" xmlns="http://www.w3.org/2000/svg">
<path d="M19.7081 3.82547C19.7811 3.67791 19.8939 3.55369 20.0338 3.46685C20.1737 3.38 20.3351 3.33398 20.4997 3.33398C20.6644 3.33398 20.8258 3.38 20.9657 3.46685C21.1055 3.55369 21.2184 3.67791 21.2914 3.82547L25.1414 11.6238C25.395 12.1371 25.7694 12.5812 26.2325 12.9179C26.6955 13.2546 27.2333 13.474 27.7997 13.5571L36.4097 14.8171C36.5729 14.8408 36.7262 14.9096 36.8522 15.0158C36.9783 15.122 37.0721 15.2614 37.1231 15.4182C37.1741 15.5749 37.1802 15.7428 37.1407 15.9029C37.1012 16.0629 37.0178 16.2087 36.8997 16.3238L30.6731 22.3871C30.2624 22.7873 29.9552 23.2813 29.7778 23.8265C29.6004 24.3718 29.5582 24.952 29.6547 25.5171L31.1247 34.0838C31.1535 34.2469 31.1359 34.4147 31.0739 34.5683C31.0119 34.7218 30.908 34.8548 30.774 34.9521C30.64 35.0494 30.4814 35.1071 30.3162 35.1186C30.151 35.1301 29.9859 35.095 29.8397 35.0171L22.1431 30.9705C21.6359 30.7042 21.0717 30.5651 20.4989 30.5651C19.9261 30.5651 19.3619 30.7042 18.8547 30.9705L11.1597 35.0171C11.0136 35.0945 10.8487 35.1293 10.6838 35.1176C10.5189 35.1058 10.3606 35.0481 10.2269 34.9508C10.0932 34.8536 9.98947 34.7208 9.9275 34.5675C9.86554 34.4142 9.84784 34.2466 9.87641 34.0838L11.3447 25.5188C11.4417 24.9534 11.3997 24.3728 11.2223 23.8272C11.0449 23.2816 10.7374 22.7874 10.3264 22.3871L4.09974 16.3255C3.98073 16.2105 3.8964 16.0645 3.85635 15.9039C3.8163 15.7434 3.82214 15.5748 3.87321 15.4175C3.92428 15.2601 4.01852 15.1202 4.14521 15.0138C4.27189 14.9073 4.42592 14.8386 4.58974 14.8155L13.1981 13.5571C13.7652 13.4746 14.3037 13.2556 14.7674 12.9188C15.231 12.582 15.6059 12.1376 15.8597 11.6238L19.7081 3.82547Z" stroke="#09090B" stroke-width="3.33333" stroke-linecap="round" stroke-linejoin="round"/>
</svg>
