<svg width="33" height="32" viewBox="0 0 33 32" fill="none" xmlns="http://www.w3.org/2000/svg">
<rect x="0.988281" width="32" height="32" rx="16" fill="#DBEAFE"/>
<path d="M20.4102 16.8554L24.3274 19.4669C24.3839 19.5045 24.4495 19.5261 24.5172 19.5293C24.585 19.5325 24.6524 19.5173 24.7122 19.4853C24.772 19.4533 24.822 19.4057 24.8568 19.3475C24.8917 19.2893 24.9101 19.2228 24.9102 19.1549V13.0079C24.9102 12.9419 24.8928 12.8771 24.8597 12.82C24.8267 12.7629 24.7792 12.7155 24.722 12.6826C24.6647 12.6498 24.5999 12.6326 24.5339 12.6328C24.4679 12.633 24.4031 12.6507 24.3462 12.6839L20.4102 14.9804" stroke="#0080FF" stroke-width="1.5" stroke-linecap="round" stroke-linejoin="round"/>
<path d="M18.9102 11.6055H11.4102C10.5817 11.6055 9.91016 12.277 9.91016 13.1055V19.1055C9.91016 19.9339 10.5817 20.6055 11.4102 20.6055H18.9102C19.7386 20.6055 20.4102 19.9339 20.4102 19.1055V13.1055C20.4102 12.277 19.7386 11.6055 18.9102 11.6055Z" stroke="#0080FF" stroke-width="1.5" stroke-linecap="round" stroke-linejoin="round"/>
</svg>
