<svg width="17" height="16" viewBox="0 0 17 16" fill="none" xmlns="http://www.w3.org/2000/svg">
<path d="M10.1693 2.66699H6.83594L5.16927 4.66699H3.16927C2.81565 4.66699 2.47651 4.80747 2.22646 5.05752C1.97641 5.30756 1.83594 5.6467 1.83594 6.00033V12.0003C1.83594 12.3539 1.97641 12.6931 2.22646 12.9431C2.47651 13.1932 2.81565 13.3337 3.16927 13.3337H13.8359C14.1896 13.3337 14.5287 13.1932 14.7787 12.9431C15.0288 12.6931 15.1693 12.3539 15.1693 12.0003V6.00033C15.1693 5.6467 15.0288 5.30756 14.7787 5.05752C14.5287 4.80747 14.1896 4.66699 13.8359 4.66699H11.8359L10.1693 2.66699Z" stroke="white" stroke-width="1.33333" stroke-linecap="round" stroke-linejoin="round"/>
<path d="M8.5 10.667C9.60457 10.667 10.5 9.77156 10.5 8.66699C10.5 7.56242 9.60457 6.66699 8.5 6.66699C7.39543 6.66699 6.5 7.56242 6.5 8.66699C6.5 9.77156 7.39543 10.667 8.5 10.667Z" stroke="white" stroke-width="1.33333" stroke-linecap="round" stroke-linejoin="round"/>
</svg>
