<svg width="33" height="32" viewBox="0 0 33 32" fill="none" xmlns="http://www.w3.org/2000/svg">
<rect x="0.664062" width="32" height="32" rx="16" fill="#E4405F"/>
<path d="M20 9.33203H13.3333C11.4924 9.33203 10 10.8244 10 12.6654V19.332C10 21.173 11.4924 22.6654 13.3333 22.6654H20C21.8409 22.6654 23.3333 21.173 23.3333 19.332V12.6654C23.3333 10.8244 21.8409 9.33203 20 9.33203Z" stroke="white" stroke-width="1.33333" stroke-linecap="round" stroke-linejoin="round"/>
<path d="M19.3357 15.5802C19.418 16.135 19.3233 16.7017 19.0649 17.1995C18.8066 17.6974 18.3978 18.1011 17.8968 18.3533C17.3958 18.6055 16.828 18.6933 16.2743 18.6041C15.7205 18.5151 15.2089 18.2536 14.8123 17.857C14.4157 17.4603 14.1542 16.9488 14.0651 16.395C13.976 15.8412 14.0638 15.2735 14.316 14.7725C14.5681 14.2714 14.9719 13.8627 15.4697 13.6044C15.9676 13.346 16.5343 13.2513 17.0891 13.3335C17.655 13.4175 18.1789 13.6812 18.5835 14.0857C18.9881 14.4903 19.2518 15.0143 19.3357 15.5802Z" stroke="white" stroke-width="1.33333" stroke-linecap="round" stroke-linejoin="round"/>
<path d="M20.3359 12.332H20.3426" stroke="white" stroke-width="1.33333" stroke-linecap="round" stroke-linejoin="round"/>
</svg>
