<svg width="57" height="56" viewBox="0 0 57 56" fill="none" xmlns="http://www.w3.org/2000/svg">
<rect x="0.625" width="56" height="56" rx="28" fill="#FEF3C7"/>
<path d="M28.625 14.668V41.3346" stroke="#D97706" stroke-width="2.66667" stroke-linecap="round" stroke-linejoin="round"/>
<path d="M35.2917 18.668H25.2917C24.054 18.668 22.867 19.1596 21.9918 20.0348C21.1167 20.91 20.625 22.097 20.625 23.3346C20.625 24.5723 21.1167 25.7593 21.9918 26.6345C22.867 27.5096 24.054 28.0013 25.2917 28.0013H31.9583C33.196 28.0013 34.383 28.493 35.2582 29.3681C36.1333 30.2433 36.625 31.4303 36.625 32.668C36.625 33.9056 36.1333 35.0926 35.2582 35.9678C34.383 36.843 33.196 37.3346 31.9583 37.3346H20.625" stroke="#D97706" stroke-width="2.66667" stroke-linecap="round" stroke-linejoin="round"/>
</svg>
