<svg width="24" height="24" viewBox="0 0 24 24" fill="none" xmlns="http://www.w3.org/2000/svg">
<g clip-path="url(#clip0_195_952)">
<rect width="24" height="24" rx="4" transform="matrix(-1 0 0 1 24 0)" fill="white"/>
<g filter="url(#filter0_dd_195_952)">
<mask id="path-3-inside-1_195_952" fill="white">
<path d="M15 17L9 12L15 7"/>
</mask>
<path d="M9 12L8.46651 12.6402L7.69829 12L8.46651 11.3598L9 12ZM14.4665 17.6402L8.46651 12.6402L9.53349 11.3598L15.5335 16.3598L14.4665 17.6402ZM8.46651 11.3598L14.4665 6.35982L15.5335 7.64018L9.53349 12.6402L8.46651 11.3598Z" fill="#0080FF" mask="url(#path-3-inside-1_195_952)"/>
</g>
</g>
<rect x="-0.5" y="0.5" width="23" height="23" rx="3.5" transform="matrix(-1 0 0 1 23 0)" stroke="#0080FF"/>
<defs>
<filter id="filter0_dd_195_952" x="4.83333" y="6.16667" width="14.3333" height="18.3333" filterUnits="userSpaceOnUse" color-interpolation-filters="sRGB">
<feFlood flood-opacity="0" result="BackgroundImageFix"/>
<feColorMatrix in="SourceAlpha" type="matrix" values="0 0 0 0 0 0 0 0 0 0 0 0 0 0 0 0 0 0 127 0" result="hardAlpha"/>
<feMorphology radius="1.66667" operator="erode" in="SourceAlpha" result="effect1_dropShadow_195_952"/>
<feOffset dy="1.66667"/>
<feGaussianBlur stdDeviation="1.66667"/>
<feComposite in2="hardAlpha" operator="out"/>
<feColorMatrix type="matrix" values="0 0 0 0 0 0 0 0 0 0 0 0 0 0 0 0 0 0 0.1 0"/>
<feBlend mode="normal" in2="BackgroundImageFix" result="effect1_dropShadow_195_952"/>
<feColorMatrix in="SourceAlpha" type="matrix" values="0 0 0 0 0 0 0 0 0 0 0 0 0 0 0 0 0 0 127 0" result="hardAlpha"/>
<feMorphology radius="0.833333" operator="erode" in="SourceAlpha" result="effect2_dropShadow_195_952"/>
<feOffset dy="3.33333"/>
<feGaussianBlur stdDeviation="2.5"/>
<feComposite in2="hardAlpha" operator="out"/>
<feColorMatrix type="matrix" values="0 0 0 0 0 0 0 0 0 0 0 0 0 0 0 0 0 0 0.1 0"/>
<feBlend mode="normal" in2="effect1_dropShadow_195_952" result="effect2_dropShadow_195_952"/>
<feBlend mode="normal" in="SourceGraphic" in2="effect2_dropShadow_195_952" result="shape"/>
</filter>
<clipPath id="clip0_195_952">
<rect width="24" height="24" rx="4" transform="matrix(-1 0 0 1 24 0)" fill="white"/>
</clipPath>
</defs>
</svg>
