<svg width="16" height="16" viewBox="0 0 16 16" fill="none" xmlns="http://www.w3.org/2000/svg">
<path d="M2.66406 13.0007V3.00065C2.66406 2.55862 2.83966 2.1347 3.15222 1.82214C3.46478 1.50958 3.8887 1.33398 4.33073 1.33398H12.6641C12.8409 1.33398 13.0104 1.40422 13.1355 1.52925C13.2605 1.65427 13.3307 1.82384 13.3307 2.00065V14.0007C13.3307 14.1775 13.2605 14.347 13.1355 14.4721C13.0104 14.5971 12.8409 14.6673 12.6641 14.6673H4.33073C3.8887 14.6673 3.46478 14.4917 3.15222 14.1792C2.83966 13.8666 2.66406 13.4427 2.66406 13.0007ZM2.66406 13.0007C2.66406 12.5586 2.83966 12.1347 3.15222 11.8221C3.46478 11.5096 3.8887 11.334 4.33073 11.334H13.3307" stroke="#09090B" stroke-width="1.33333" stroke-linecap="round" stroke-linejoin="round"/>
</svg>
