<svg width="45" height="45" viewBox="0 0 45 45" fill="none" xmlns="http://www.w3.org/2000/svg">
<rect x="0.5" y="0.5" width="44" height="44" rx="22" fill="#F3E8FF"/>
<path d="M27.5 19.168C28.8807 19.168 30 18.0487 30 16.668C30 15.2873 28.8807 14.168 27.5 14.168C26.1193 14.168 25 15.2873 25 16.668C25 18.0487 26.1193 19.168 27.5 19.168Z" stroke="#9333EA" stroke-width="1.66667" stroke-linecap="round" stroke-linejoin="round"/>
<path d="M17.5 25C18.8807 25 20 23.8807 20 22.5C20 21.1193 18.8807 20 17.5 20C16.1193 20 15 21.1193 15 22.5C15 23.8807 16.1193 25 17.5 25Z" stroke="#9333EA" stroke-width="1.66667" stroke-linecap="round" stroke-linejoin="round"/>
<path d="M27.5 30.832C28.8807 30.832 30 29.7127 30 28.332C30 26.9513 28.8807 25.832 27.5 25.832C26.1193 25.832 25 26.9513 25 28.332C25 29.7127 26.1193 30.832 27.5 30.832Z" stroke="#9333EA" stroke-width="1.66667" stroke-linecap="round" stroke-linejoin="round"/>
<path d="M19.6602 23.7578L25.3518 27.0745" stroke="#9333EA" stroke-width="1.66667" stroke-linecap="round" stroke-linejoin="round"/>
<path d="M25.3435 17.9258L19.6602 21.2424" stroke="#9333EA" stroke-width="1.66667" stroke-linecap="round" stroke-linejoin="round"/>
</svg>
