<svg width="41" height="40" viewBox="0 0 41 40" fill="none" xmlns="http://www.w3.org/2000/svg">
<path d="M17.0617 25.8334C16.9129 25.2566 16.6123 24.7303 16.1911 24.3091C15.7699 23.8879 15.2435 23.5872 14.6667 23.4384L4.44173 20.8018C4.26728 20.7522 4.11374 20.6472 4.00442 20.5025C3.89509 20.3578 3.83594 20.1814 3.83594 20.0001C3.83594 19.8187 3.89509 19.6424 4.00442 19.4977C4.11374 19.353 4.26728 19.2479 4.44173 19.1984L14.6667 16.5601C15.2433 16.4114 15.7695 16.111 16.1907 15.6902C16.6119 15.2693 16.9127 14.7432 17.0617 14.1668L19.6984 3.94176C19.7474 3.76662 19.8524 3.61233 19.9973 3.50241C20.1422 3.3925 20.319 3.33301 20.5009 3.33301C20.6828 3.33301 20.8596 3.3925 21.0045 3.50241C21.1494 3.61233 21.2544 3.76662 21.3034 3.94176L23.9384 14.1668C24.0872 14.7435 24.3878 15.2699 24.809 15.6911C25.2302 16.1123 25.7566 16.413 26.3334 16.5618L36.5584 19.1968C36.7342 19.2453 36.8893 19.3501 36.9998 19.4952C37.1103 19.6403 37.1701 19.8177 37.1701 20.0001C37.1701 20.1825 37.1103 20.3598 36.9998 20.505C36.8893 20.6501 36.7342 20.7549 36.5584 20.8034L26.3334 23.4384C25.7566 23.5872 25.2302 23.8879 24.809 24.3091C24.3878 24.7303 24.0872 25.2566 23.9384 25.8334L21.3017 36.0584C21.2527 36.2336 21.1478 36.3879 21.0029 36.4978C20.858 36.6077 20.6811 36.6672 20.4992 36.6672C20.3174 36.6672 20.1405 36.6077 19.9956 36.4978C19.8507 36.3879 19.7457 36.2336 19.6967 36.0584L17.0617 25.8334Z" stroke="#09090B" stroke-width="3.33333" stroke-linecap="round" stroke-linejoin="round"/>
<path d="M33.834 5V11.6667" stroke="#09090B" stroke-width="3.33333" stroke-linecap="round" stroke-linejoin="round"/>
<path d="M37.1667 8.33301H30.5" stroke="#09090B" stroke-width="3.33333" stroke-linecap="round" stroke-linejoin="round"/>
<path d="M7.16602 28.333V31.6663" stroke="#09090B" stroke-width="3.33333" stroke-linecap="round" stroke-linejoin="round"/>
<path d="M8.83333 30H5.5" stroke="#09090B" stroke-width="3.33333" stroke-linecap="round" stroke-linejoin="round"/>
</svg>
