<svg width="16" height="16" viewBox="0 0 16 16" fill="none" xmlns="http://www.w3.org/2000/svg">
<path d="M2.56484 5.74669C2.46754 5.30837 2.48248 4.85259 2.60828 4.42158C2.73408 3.99058 2.96667 3.59832 3.28449 3.28117C3.6023 2.96402 3.99505 2.73225 4.42631 2.60735C4.85758 2.48245 5.3134 2.46847 5.75151 2.56669C5.99265 2.18956 6.32484 1.8792 6.71748 1.66421C7.11011 1.44923 7.55054 1.33655 7.99818 1.33655C8.44581 1.33655 8.88624 1.44923 9.27887 1.66421C9.67151 1.8792 10.0037 2.18956 10.2448 2.56669C10.6836 2.46804 11.1402 2.48196 11.5722 2.60717C12.0041 2.73237 12.3974 2.96478 12.7154 3.28279C13.0334 3.6008 13.2658 3.99407 13.391 4.42603C13.5162 4.85798 13.5302 5.31458 13.4315 5.75336C13.8086 5.9945 14.119 6.32669 14.334 6.71932C14.549 7.11196 14.6617 7.55239 14.6617 8.00002C14.6617 8.44766 14.549 8.88809 14.334 9.28072C14.119 9.67335 13.8086 10.0056 13.4315 10.2467C13.5297 10.6848 13.5157 11.1406 13.3908 11.5719C13.2659 12.0032 13.0342 12.3959 12.717 12.7137C12.3999 13.0315 12.0076 13.2641 11.5766 13.3899C11.1456 13.5157 10.6898 13.5307 10.2515 13.4334C10.0107 13.8119 9.67823 14.1236 9.28493 14.3396C8.89162 14.5555 8.45019 14.6687 8.00151 14.6687C7.55282 14.6687 7.11139 14.5555 6.71809 14.3396C6.32479 14.1236 5.99233 13.8119 5.75151 13.4334C5.3134 13.5316 4.85758 13.5176 4.42631 13.3927C3.99505 13.2678 3.6023 13.036 3.28449 12.7189C2.96667 12.4017 2.73408 12.0095 2.60828 11.5785C2.48248 11.1475 2.46754 10.6917 2.56484 10.2534C2.18481 10.0129 1.87178 9.68014 1.65487 9.28617C1.43796 8.89219 1.32422 8.44976 1.32422 8.00002C1.32422 7.55029 1.43796 7.10785 1.65487 6.71388C1.87178 6.31991 2.18481 5.9872 2.56484 5.74669Z" stroke="#020817" stroke-linecap="round" stroke-linejoin="round"/>
<path d="M8 5.33331V7.99998" stroke="#020817" stroke-linecap="round" stroke-linejoin="round"/>
<path d="M8 10.6667H8.00667" stroke="#020817" stroke-linecap="round" stroke-linejoin="round"/>
</svg>
