<svg width="25" height="25" viewBox="0 0 25 25" fill="none" xmlns="http://www.w3.org/2000/svg">
<path d="M14.6667 4.87335H9.66875L7.16979 7.8721H4.17104C3.64083 7.8721 3.13233 8.08273 2.75742 8.45764C2.3825 8.83256 2.17188 9.34106 2.17188 9.87127V18.8675C2.17188 19.3977 2.3825 19.9062 2.75742 20.2811C3.13233 20.6561 3.64083 20.8667 4.17104 20.8667H20.1644C20.6946 20.8667 21.2031 20.6561 21.578 20.2811C21.9529 19.9062 22.1635 19.3977 22.1635 18.8675V9.87127C22.1635 9.34106 21.9529 8.83256 21.578 8.45764C21.2031 8.08273 20.6946 7.8721 20.1644 7.8721H17.1656L14.6667 4.87335Z" stroke="#0080FF" stroke-width="1.99943" stroke-linecap="round" stroke-linejoin="round"/>
<path d="M12.1671 16.8691C13.8235 16.8691 15.1662 15.5264 15.1662 13.87C15.1662 12.2136 13.8235 10.8708 12.1671 10.8708C10.5107 10.8708 9.16797 12.2136 9.16797 13.87C9.16797 15.5264 10.5107 16.8691 12.1671 16.8691Z" stroke="#0080FF" stroke-width="1.99943" stroke-linecap="round" stroke-linejoin="round"/>
</svg>
