<svg width="40" height="41" viewBox="0 0 40 41" fill="none" xmlns="http://www.w3.org/2000/svg">
<rect y="0.5" width="40" height="40" rx="4" fill="#F4F4F5"/>
<path d="M23.5 21.25L27.4172 23.8615C27.4737 23.899 27.5393 23.9206 27.6071 23.9238C27.6748 23.9271 27.7422 23.9119 27.802 23.8799C27.8618 23.8478 27.9118 23.8002 27.9467 23.742C27.9815 23.6838 28 23.6173 28 23.5495V17.4025C28 17.3365 27.9826 17.2717 27.9496 17.2145C27.9165 17.1574 27.869 17.11 27.8118 17.0772C27.7546 17.0443 27.6897 17.0271 27.6237 17.0273C27.5577 17.0276 27.493 17.0452 27.436 17.0785L23.5 19.375" stroke="#71717A" stroke-width="1.5" stroke-linecap="round" stroke-linejoin="round"/>
<path d="M22 16H14.5C13.6716 16 13 16.6716 13 17.5V23.5C13 24.3284 13.6716 25 14.5 25H22C22.8284 25 23.5 24.3284 23.5 23.5V17.5C23.5 16.6716 22.8284 16 22 16Z" stroke="#71717A" stroke-width="1.5" stroke-linecap="round" stroke-linejoin="round"/>
</svg>
