<svg width="16" height="16" viewBox="0 0 16 16" fill="none" xmlns="http://www.w3.org/2000/svg">
<path d="M10.6693 14V12.6667C10.6693 11.9594 10.3883 11.2811 9.88822 10.781C9.38813 10.281 8.70985 10 8.0026 10H4.0026C3.29536 10 2.61708 10.281 2.11699 10.781C1.61689 11.2811 1.33594 11.9594 1.33594 12.6667V14" stroke="#09090B" stroke-width="1.33333" stroke-linecap="round" stroke-linejoin="round"/>
<path d="M6.0026 7.33333C7.47536 7.33333 8.66927 6.13943 8.66927 4.66667C8.66927 3.19391 7.47536 2 6.0026 2C4.52984 2 3.33594 3.19391 3.33594 4.66667C3.33594 6.13943 4.52984 7.33333 6.0026 7.33333Z" stroke="#09090B" stroke-width="1.33333" stroke-linecap="round" stroke-linejoin="round"/>
<path d="M14.6641 13.9993V12.6659C14.6636 12.0751 14.467 11.5011 14.105 11.0341C13.743 10.5672 13.2361 10.2336 12.6641 10.0859" stroke="#09090B" stroke-width="1.33333" stroke-linecap="round" stroke-linejoin="round"/>
<path d="M10.6641 2.08594C11.2377 2.2328 11.7461 2.5664 12.1092 3.03414C12.4722 3.50188 12.6693 4.07716 12.6693 4.66927C12.6693 5.26138 12.4722 5.83666 12.1092 6.3044C11.7461 6.77214 11.2377 7.10574 10.6641 7.2526" stroke="#09090B" stroke-width="1.33333" stroke-linecap="round" stroke-linejoin="round"/>
</svg>
