<svg width="16" height="26" viewBox="0 0 16 26" fill="none" xmlns="http://www.w3.org/2000/svg">
<path d="M11.923 13.0314H4.10156V9.37457C4.10156 7.21821 5.85585 5.46387 8.01221 5.46387C10.1686 5.46387 11.923 7.21821 11.923 9.37457V13.0314ZM5.67606 11.4569H10.3485V9.37457C10.3485 8.0864 9.30039 7.03836 8.01221 7.03836C6.72404 7.03836 5.67606 8.0864 5.67606 9.37457V11.4569Z" fill="#71717A"/>
<path d="M8.006 5.4668C7.7361 5.4668 7.47289 5.49381 7.21875 5.54554C8.95969 5.90314 10.2823 7.4191 10.3407 9.24785C10.343 9.29057 10.343 9.3333 10.343 9.37602V13.0334H11.9175V9.37602C11.9175 7.22119 10.1631 5.4668 8.006 5.4668Z" fill="#71717A"/>
<path d="M13.6722 13.3037V18.4523C13.6722 19.6032 12.7391 20.5362 11.5882 20.5362H4.4355C3.28457 20.5362 2.35156 19.6032 2.35156 18.4523V13.3037C2.35156 12.1527 3.28457 11.2197 4.4355 11.2197H11.5882C12.7391 11.2197 13.6722 12.1527 13.6722 13.3037Z" fill="#FFB73F"/>
<path d="M13.6604 13.3048V18.4534C13.6604 19.6028 12.7269 20.5362 11.5776 20.5362H9.89062C11.04 20.5362 11.9734 19.6028 11.9734 18.4534V13.3048C11.9734 12.1532 11.04 11.2197 9.89062 11.2197H11.5776C12.7269 11.2197 13.6604 12.1532 13.6604 13.3048Z" fill="#F59E0B"/>
<path d="M8.68505 15.7057L8.9873 17.6902C9.0042 17.8012 8.91833 17.9011 8.80611 17.9011H7.2186C7.10638 17.9011 7.02051 17.8012 7.03741 17.6902L7.33962 15.7057C7.10797 15.5143 6.96094 15.2243 6.96094 14.8981C6.96094 14.2699 7.50977 13.7731 8.15186 13.8557C8.60934 13.9145 8.98539 14.2813 9.05199 14.7377C9.10897 15.1282 8.954 15.4835 8.68505 15.7057Z" fill="#71717A"/>
</svg>
