<svg width="16" height="17" viewBox="0 0 16 17" fill="none" xmlns="http://www.w3.org/2000/svg">
<path d="M2 8.5C2 9.68669 2.35189 10.8467 3.01118 11.8334C3.67047 12.8201 4.60754 13.5892 5.7039 14.0433C6.80026 14.4974 8.00666 14.6162 9.17054 14.3847C10.3344 14.1532 11.4035 13.5818 12.2426 12.7426C13.0818 11.9035 13.6532 10.8344 13.8847 9.67054C14.1162 8.50666 13.9974 7.30026 13.5433 6.2039C13.0892 5.10754 12.3201 4.17047 11.3334 3.51118C10.3467 2.85189 9.18669 2.5 8 2.5C6.32263 2.50631 4.71265 3.16082 3.50667 4.32667L2 5.83333" stroke="#09090B" stroke-width="1.33333" stroke-linecap="round" stroke-linejoin="round"/>
<path d="M2 2.5V5.83333H5.33333" stroke="#09090B" stroke-width="1.33333" stroke-linecap="round" stroke-linejoin="round"/>
<path d="M8 5.16699V8.50033L10.6667 9.83366" stroke="#09090B" stroke-width="1.33333" stroke-linecap="round" stroke-linejoin="round"/>
</svg>
