<svg width="17" height="16" viewBox="0 0 17 16" fill="none" xmlns="http://www.w3.org/2000/svg">
<g clip-path="url(#clip0_328_2250)">
<path d="M10.5115 2.66992H7.18034L5.51476 4.66862H3.51606C3.16267 4.66862 2.82375 4.80901 2.57386 5.05889C2.32398 5.30878 2.18359 5.6477 2.18359 6.00109V11.9972C2.18359 12.3506 2.32398 12.6895 2.57386 12.9394C2.82375 13.1893 3.16267 13.3297 3.51606 13.3297H14.1758C14.5292 13.3297 14.8681 13.1893 15.118 12.9394C15.3679 12.6895 15.5083 12.3506 15.5083 11.9972V6.00109C15.5083 5.6477 15.3679 5.30878 15.118 5.05889C14.8681 4.80901 14.5292 4.66862 14.1758 4.66862H12.1771L10.5115 2.66992Z" stroke="#64748B" stroke-width="1.33247" stroke-linecap="round" stroke-linejoin="round"/>
<path d="M8.84636 10.6648C9.95021 10.6648 10.8451 9.76991 10.8451 8.66606C10.8451 7.56221 9.95021 6.66736 8.84636 6.66736C7.7425 6.66736 6.84766 7.56221 6.84766 8.66606C6.84766 9.76991 7.7425 10.6648 8.84636 10.6648Z" stroke="#64748B" stroke-width="1.33247" stroke-linecap="round" stroke-linejoin="round"/>
</g>
<defs>
<clipPath id="clip0_328_2250">
<rect width="15.99" height="15.99" fill="white" transform="translate(0.851562 0.00500488)"/>
</clipPath>
</defs>
</svg>
