<svg width="16" height="16" viewBox="0 0 16 16" fill="none" xmlns="http://www.w3.org/2000/svg">
<path d="M7.32813 3.13308C7.328 3.04028 7.30038 2.9496 7.24876 2.87249C7.19714 2.79537 7.12383 2.73527 7.03809 2.69978C6.95235 2.66428 6.85801 2.65498 6.76699 2.67305C6.67597 2.69112 6.59234 2.73574 6.52665 2.80129L4.27212 5.05516C4.18511 5.14269 4.0816 5.21208 3.96758 5.25931C3.85356 5.30654 3.7313 5.33068 3.60788 5.33032H1.99826C1.82157 5.33032 1.65211 5.40051 1.52717 5.52545C1.40222 5.65039 1.33203 5.81985 1.33203 5.99655V9.99395C1.33203 10.1706 1.40222 10.3401 1.52717 10.465C1.65211 10.59 1.82157 10.6602 1.99826 10.6602H3.60788C3.7313 10.6598 3.85356 10.684 3.96758 10.7312C4.0816 10.7784 4.18511 10.8478 4.27212 10.9353L6.52599 13.1899C6.59168 13.2557 6.67543 13.3005 6.76662 13.3187C6.85782 13.3369 6.95236 13.3276 7.03827 13.292C7.12418 13.2564 7.19758 13.1961 7.24918 13.1187C7.30078 13.0413 7.32826 12.9504 7.32813 12.8574V3.13308Z" stroke="#09090B" stroke-width="1.33247" stroke-linecap="round" stroke-linejoin="round"/>
<path d="M10.6602 5.99609C11.0926 6.57271 11.3264 7.27403 11.3264 7.99479C11.3264 8.71556 11.0926 9.41688 10.6602 9.99349" stroke="#09090B" stroke-width="1.33247" stroke-linecap="round" stroke-linejoin="round"/>
<path d="M12.9023 12.2337C13.4591 11.6769 13.9008 11.0159 14.2022 10.2884C14.5035 9.56096 14.6586 8.78124 14.6586 7.99382C14.6586 7.20639 14.5035 6.42668 14.2022 5.69919C13.9008 4.9717 13.4591 4.3107 12.9023 3.75391" stroke="#09090B" stroke-width="1.33247" stroke-linecap="round" stroke-linejoin="round"/>
</svg>
