<svg width="16" height="16" viewBox="0 0 16 16" fill="none" xmlns="http://www.w3.org/2000/svg">
<g clip-path="url(#clip0_328_666)">
<path d="M13.125 10.0625V14.8125" stroke="black" stroke-miterlimit="10" stroke-linecap="round" stroke-linejoin="round"/>
<path d="M10.75 12.4375H15.375" stroke="black" stroke-miterlimit="10" stroke-linecap="round" stroke-linejoin="round"/>
<path d="M13.125 7.5625V3.0625C13.125 2.02697 12.2855 1.1875 11.25 1.1875H2.5C1.46447 1.1875 0.625 2.02697 0.625 3.0625V10.5625C0.625 11.598 1.46447 12.4375 2.5 12.4375H8.375" stroke="black" stroke-miterlimit="10" stroke-linecap="round" stroke-linejoin="round"/>
<path d="M0.625 9.9375L4.74113 5.82138C5.22928 5.33322 6.02075 5.33322 6.50891 5.82138L10.625 9.9375" stroke="black" stroke-miterlimit="10" stroke-linecap="round" stroke-linejoin="round"/>
<path d="M10.3333 5.66667C11.0697 5.66667 11.6667 5.06971 11.6667 4.33333C11.6667 3.59695 11.0697 3 10.3333 3C9.59695 3 9 3.59695 9 4.33333C9 5.06971 9.59695 5.66667 10.3333 5.66667Z" stroke="#020817" stroke-linecap="round" stroke-linejoin="round"/>
</g>
<defs>
<clipPath id="clip0_328_666">
<rect width="16" height="16" fill="white"/>
</clipPath>
</defs>
</svg>
