<svg width="18" height="18" viewBox="0 0 18 18" fill="none" xmlns="http://www.w3.org/2000/svg">
<path d="M7.70312 15.75C7.83478 15.978 8.02414 16.1674 8.25216 16.299C8.48018 16.4306 8.73883 16.4999 9.00213 16.4999C9.26542 16.4999 9.52407 16.4306 9.75209 16.299C9.98011 16.1674 10.1695 15.978 10.3011 15.75" stroke="#09090B" stroke-width="1.5" stroke-linecap="round" stroke-linejoin="round"/>
<path d="M2.44595 11.4945C2.34798 11.6019 2.28332 11.7354 2.25984 11.8789C2.23637 12.0223 2.25509 12.1695 2.31373 12.3025C2.37237 12.4356 2.4684 12.5487 2.59014 12.6281C2.71188 12.7075 2.85409 12.7499 2.99945 12.75H14.9995C15.1448 12.7501 15.287 12.7079 15.4089 12.6286C15.5307 12.5493 15.6268 12.4363 15.6856 12.3034C15.7444 12.1705 15.7633 12.0233 15.74 11.8798C15.7167 11.7364 15.6523 11.6028 15.5545 11.4952C14.557 10.467 13.4995 9.37425 13.4995 6C13.4995 4.80653 13.0253 3.66193 12.1814 2.81802C11.3375 1.97411 10.1929 1.5 8.99945 1.5C7.80598 1.5 6.66139 1.97411 5.81747 2.81802C4.97356 3.66193 4.49945 4.80653 4.49945 6C4.49945 9.37425 3.4412 10.467 2.44595 11.4945Z" stroke="#09090B" stroke-width="1.5" stroke-linecap="round" stroke-linejoin="round"/>
</svg>
