<svg width="16" height="17" viewBox="0 0 16 17" fill="none" xmlns="http://www.w3.org/2000/svg">
<path d="M6.66797 9.16697C6.95427 9.54972 7.31954 9.86642 7.739 10.0956C8.15846 10.3248 8.62231 10.461 9.09907 10.4952C9.57583 10.5293 10.0544 10.4605 10.5022 10.2935C10.95 10.1264 11.3567 9.86502 11.6946 9.52697L13.6946 7.52697C14.3018 6.8983 14.6378 6.05629 14.6302 5.1823C14.6226 4.30831 14.2721 3.47227 13.654 2.85424C13.036 2.23621 12.2 1.88565 11.326 1.87806C10.452 1.87046 9.60998 2.20644 8.9813 2.81364L7.83464 3.95364" stroke="#71717A" stroke-width="1.33333" stroke-linecap="round" stroke-linejoin="round"/>
<path d="M9.33347 7.83381C9.04716 7.45106 8.68189 7.13435 8.26243 6.90518C7.84297 6.67601 7.37913 6.53973 6.90237 6.50559C6.4256 6.47144 5.94708 6.54023 5.49924 6.70729C5.0514 6.87435 4.64472 7.13576 4.3068 7.47381L2.3068 9.47381C1.69961 10.1025 1.36363 10.9445 1.37122 11.8185C1.37881 12.6925 1.72938 13.5285 2.3474 14.1465C2.96543 14.7646 3.80147 15.1151 4.67546 15.1227C5.54945 15.1303 6.39146 14.7943 7.02013 14.1871L8.16013 13.0471" stroke="#71717A" stroke-width="1.33333" stroke-linecap="round" stroke-linejoin="round"/>
</svg>
