<svg width="36" height="36" viewBox="0 0 36 36" fill="none" xmlns="http://www.w3.org/2000/svg">
<g filter="url(#filter0_d_824_6556)">
<rect x="3" y="2" width="30" height="30" rx="15" fill="white"/>
<rect x="3.5" y="2.5" width="29" height="29" rx="14.5" stroke="#E4E4E7"/>
<rect x="8" y="7" width="20" height="20" rx="10" fill="url(#paint0_linear_824_6556)"/>
<path d="M19.376 16.5837L17.7775 15.5177C17.7021 15.4674 17.6145 15.4385 17.524 15.4342C17.4335 15.4298 17.3435 15.4501 17.2637 15.493C17.1838 15.5358 17.1171 15.5995 17.0707 15.6773C17.0242 15.7551 16.9998 15.8441 17 15.9347V18.0662C17 18.1567 17.0245 18.2455 17.0711 18.3232C17.1176 18.4008 17.1843 18.4644 17.2641 18.5071C17.3439 18.5498 17.4338 18.57 17.5243 18.5657C17.6147 18.5613 17.7022 18.5324 17.7775 18.4822L19.376 17.4162C19.4445 17.3705 19.5006 17.3086 19.5395 17.2361C19.5783 17.1635 19.5986 17.0825 19.5986 17.0002C19.5986 16.9179 19.5783 16.8368 19.5395 16.7643C19.5006 16.6917 19.4445 16.6293 19.376 16.5837Z" stroke="white" stroke-linecap="round" stroke-linejoin="round"/>
<path d="M22.5 17C22.5 17.5909 22.3836 18.1761 22.1575 18.7221C21.9313 19.268 21.5998 19.7641 21.182 20.182C20.7641 20.5998 20.268 20.9313 19.7221 21.1575C19.1761 21.3836 18.5909 21.5 18 21.5C17.4091 21.5 16.8239 21.3836 16.2779 21.1575C15.732 20.9313 15.2359 20.5998 14.818 20.182C14.4002 19.7641 14.0687 19.268 13.8425 18.7221C13.6164 18.1761 13.5 17.5909 13.5 17C13.5 15.8065 13.9741 14.6619 14.818 13.818C15.6619 12.9741 16.8065 12.5 18 12.5C19.1935 12.5 20.3381 12.9741 21.182 13.818C22.0259 14.6619 22.5 15.8065 22.5 17Z" stroke="white" stroke-linecap="round" stroke-linejoin="round"/>
</g>
<defs>
<filter id="filter0_d_824_6556" x="0" y="0" width="36" height="36" filterUnits="userSpaceOnUse" color-interpolation-filters="sRGB">
<feFlood flood-opacity="0" result="BackgroundImageFix"/>
<feColorMatrix in="SourceAlpha" type="matrix" values="0 0 0 0 0 0 0 0 0 0 0 0 0 0 0 0 0 0 127 0" result="hardAlpha"/>
<feOffset dy="1"/>
<feGaussianBlur stdDeviation="1.5"/>
<feComposite in2="hardAlpha" operator="out"/>
<feColorMatrix type="matrix" values="0 0 0 0 0 0 0 0 0 0 0 0 0 0 0 0 0 0 0.1 0"/>
<feBlend mode="normal" in2="BackgroundImageFix" result="effect1_dropShadow_824_6556"/>
<feBlend mode="normal" in="SourceGraphic" in2="effect1_dropShadow_824_6556" result="shape"/>
</filter>
<linearGradient id="paint0_linear_824_6556" x1="8" y1="17" x2="28" y2="17" gradientUnits="userSpaceOnUse">
<stop stop-color="#4ADE80"/>
<stop offset="1" stop-color="#22C55E"/>
</linearGradient>
</defs>
</svg>
