<svg width="17" height="16" viewBox="0 0 17 16" fill="none" xmlns="http://www.w3.org/2000/svg">
<path d="M6.65016 10.3263C6.59068 10.0958 6.4705 9.88537 6.30213 9.717C6.13376 9.54863 5.92335 9.42845 5.69278 9.36897L1.60544 8.31499C1.53571 8.2952 1.47433 8.2532 1.43063 8.19536C1.38693 8.13753 1.36328 8.06702 1.36328 7.99453C1.36328 7.92204 1.38693 7.85153 1.43063 7.7937C1.47433 7.73586 1.53571 7.69387 1.60544 7.67407L5.69278 6.61943C5.92326 6.56 6.13362 6.43992 6.30199 6.27168C6.47035 6.10343 6.59058 5.89316 6.65016 5.66271L7.70414 1.57537C7.72373 1.50536 7.76569 1.44369 7.82361 1.39975C7.88153 1.35581 7.95223 1.33203 8.02493 1.33203C8.09763 1.33203 8.16833 1.35581 8.22625 1.39975C8.28417 1.44369 8.32613 1.50536 8.34572 1.57537L9.39904 5.66271C9.45852 5.89328 9.5787 6.10369 9.74707 6.27206C9.91544 6.44043 10.1259 6.56061 10.3564 6.62009L14.4438 7.67341C14.514 7.69279 14.576 7.73471 14.6202 7.79271C14.6644 7.85072 14.6883 7.92162 14.6883 7.99453C14.6883 8.06744 14.6644 8.13834 14.6202 8.19635C14.576 8.25436 14.514 8.29627 14.4438 8.31566L10.3564 9.36897C10.1259 9.42845 9.91544 9.54863 9.74707 9.717C9.5787 9.88537 9.45852 10.0958 9.39904 10.3263L8.34506 14.4137C8.32546 14.4837 8.28351 14.5454 8.22559 14.5893C8.16767 14.6332 8.09696 14.657 8.02427 14.657C7.95157 14.657 7.88086 14.6332 7.82294 14.5893C7.76502 14.5454 7.72307 14.4837 7.70347 14.4137L6.65016 10.3263Z" stroke="#F59E0B" stroke-width="1.33247" stroke-linecap="round" stroke-linejoin="round"/>
<path d="M13.3555 2V4.66493" stroke="#F59E0B" stroke-width="1.33247" stroke-linecap="round" stroke-linejoin="round"/>
<path d="M14.6884 3.33203H12.0234" stroke="#F59E0B" stroke-width="1.33247" stroke-linecap="round" stroke-linejoin="round"/>
<path d="M2.69531 11.3242V12.6567" stroke="#F59E0B" stroke-width="1.33247" stroke-linecap="round" stroke-linejoin="round"/>
<path d="M3.36372 11.9922H2.03125" stroke="#F59E0B" stroke-width="1.33247" stroke-linecap="round" stroke-linejoin="round"/>
</svg>
