<svg width="35" height="34" viewBox="0 0 35 34" fill="none" xmlns="http://www.w3.org/2000/svg">
<rect x="0.671875" width="34" height="34" rx="17" fill="#E0E7FF"/>
<path d="M18.6328 13.25C18.8399 13.25 19.0078 13.0821 19.0078 12.875C19.0078 12.6679 18.8399 12.5 18.6328 12.5C18.4257 12.5 18.2578 12.6679 18.2578 12.875C18.2578 13.0821 18.4257 13.25 18.6328 13.25Z" fill="#6366F1" stroke="#6366F1" stroke-width="1.5" stroke-linecap="round" stroke-linejoin="round"/>
<path d="M21.6328 16.25C21.8399 16.25 22.0078 16.0821 22.0078 15.875C22.0078 15.6679 21.8399 15.5 21.6328 15.5C21.4257 15.5 21.2578 15.6679 21.2578 15.875C21.2578 16.0821 21.4257 16.25 21.6328 16.25Z" fill="#6366F1" stroke="#6366F1" stroke-width="1.5" stroke-linecap="round" stroke-linejoin="round"/>
<path d="M14.8828 14C15.0899 14 15.2578 13.8321 15.2578 13.625C15.2578 13.4179 15.0899 13.25 14.8828 13.25C14.6757 13.25 14.5078 13.4179 14.5078 13.625C14.5078 13.8321 14.6757 14 14.8828 14Z" fill="#6366F1" stroke="#6366F1" stroke-width="1.5" stroke-linecap="round" stroke-linejoin="round"/>
<path d="M13.3828 17.75C13.5899 17.75 13.7578 17.5821 13.7578 17.375C13.7578 17.1679 13.5899 17 13.3828 17C13.1757 17 13.0078 17.1679 13.0078 17.375C13.0078 17.5821 13.1757 17.75 13.3828 17.75Z" fill="#6366F1" stroke="#6366F1" stroke-width="1.5" stroke-linecap="round" stroke-linejoin="round"/>
<path d="M17.5078 9.5C13.3828 9.5 10.0078 12.875 10.0078 17C10.0078 21.125 13.3828 24.5 17.5078 24.5C18.2023 24.5 18.7438 23.9405 18.7438 23.234C18.7438 22.9063 18.6088 22.6078 18.4161 22.3903C18.1986 22.1735 18.0876 21.9013 18.0876 21.5465C18.0847 21.3814 18.1151 21.2175 18.177 21.0644C18.2389 20.9114 18.3309 20.7723 18.4476 20.6556C18.5644 20.5388 18.7034 20.4468 18.8565 20.3849C19.0095 20.3231 19.1735 20.2927 19.3386 20.2955H20.8356C23.1238 20.2955 25.0018 18.4183 25.0018 16.13C24.9816 12.509 21.6036 9.5 17.5078 9.5Z" stroke="#6366F1" stroke-width="1.5" stroke-linecap="round" stroke-linejoin="round"/>
</svg>
