<svg width="17" height="16" viewBox="0 0 17 16" fill="none" xmlns="http://www.w3.org/2000/svg">
<path d="M3.66894 9.33377C3.54278 9.3342 3.41909 9.29882 3.31224 9.23175C3.20539 9.16468 3.11976 9.06867 3.06531 8.95487C3.01085 8.84107 2.9898 8.71416 3.00461 8.58887C3.01941 8.46359 3.06946 8.34507 3.14894 8.2471L9.74894 1.4471C9.79845 1.38996 9.86591 1.35134 9.94026 1.33759C10.0146 1.32384 10.0914 1.33578 10.1581 1.37144C10.2248 1.4071 10.2773 1.46437 10.3072 1.53384C10.337 1.60331 10.3423 1.68087 10.3223 1.75377L9.04227 5.7671C9.00453 5.86812 8.99185 5.97678 9.00533 6.08377C9.01881 6.19076 9.05805 6.29289 9.11967 6.38139C9.18129 6.46988 9.26346 6.54211 9.35912 6.59187C9.45479 6.64164 9.5611 6.66745 9.66894 6.6671H14.3356C14.4618 6.66667 14.5855 6.70205 14.6923 6.76912C14.7992 6.83619 14.8848 6.9322 14.9392 7.046C14.9937 7.1598 15.0147 7.28671 14.9999 7.412C14.9851 7.53728 14.9351 7.6558 14.8556 7.75377L8.25561 14.5538C8.2061 14.6109 8.13863 14.6495 8.06429 14.6633C7.98994 14.677 7.91312 14.6651 7.84645 14.6294C7.77978 14.5938 7.72722 14.5365 7.69738 14.467C7.66755 14.3976 7.66222 14.32 7.68227 14.2471L8.96227 10.2338C9.00002 10.1328 9.01269 10.0241 8.99921 9.9171C8.98573 9.81011 8.9465 9.70798 8.88488 9.61948C8.82326 9.53099 8.74109 9.45876 8.64542 9.40899C8.54976 9.35923 8.44344 9.33342 8.33561 9.33377H3.66894Z" stroke="#D97706" stroke-width="1.33333" stroke-linecap="round" stroke-linejoin="round"/>
</svg>
