<svg width="16" height="16" viewBox="0 0 16 16" fill="none" xmlns="http://www.w3.org/2000/svg">
<path d="M7.68714 1.53058C7.71635 1.47155 7.76148 1.42187 7.81744 1.38713C7.87339 1.35239 7.93794 1.33398 8.0038 1.33398C8.06966 1.33398 8.13421 1.35239 8.19017 1.38713C8.24612 1.42187 8.29126 1.47155 8.32047 1.53058L9.86047 4.64991C9.96192 4.85523 10.1117 5.03285 10.2969 5.16755C10.4821 5.30225 10.6972 5.38999 10.9238 5.42325L14.3678 5.92725C14.4331 5.9367 14.4944 5.96423 14.5448 6.00671C14.5952 6.0492 14.6328 6.10495 14.6532 6.16765C14.6735 6.23036 14.676 6.29752 14.6602 6.36154C14.6444 6.42556 14.611 6.48388 14.5638 6.52991L12.0731 8.95525C11.9089 9.11531 11.786 9.3129 11.715 9.531C11.6441 9.7491 11.6272 9.98117 11.6658 10.2072L12.2538 13.6339C12.2653 13.6991 12.2583 13.7663 12.2335 13.8277C12.2087 13.8891 12.1671 13.9423 12.1135 13.9812C12.0599 14.0202 11.9965 14.0432 11.9304 14.0478C11.8643 14.0524 11.7983 14.0384 11.7398 14.0072L8.66114 12.3886C8.45828 12.2821 8.23259 12.2264 8.00347 12.2264C7.77435 12.2264 7.54866 12.2821 7.3458 12.3886L4.2678 14.0072C4.20936 14.0382 4.1434 14.0521 4.07744 14.0474C4.01147 14.0427 3.94815 14.0196 3.89467 13.9807C3.84119 13.9418 3.79969 13.8887 3.77491 13.8274C3.75012 13.7661 3.74304 13.699 3.75447 13.6339L4.3418 10.2079C4.3806 9.98174 4.36379 9.74951 4.29283 9.53128C4.22187 9.31304 4.09888 9.11535 3.93447 8.95525L1.4438 6.53058C1.3962 6.4846 1.36247 6.42618 1.34645 6.36196C1.33043 6.29775 1.33276 6.23033 1.35319 6.16737C1.37362 6.10442 1.41132 6.04847 1.46199 6.0059C1.51266 5.96333 1.57427 5.93585 1.6398 5.92658L5.08314 5.42325C5.30998 5.39025 5.5254 5.30262 5.71086 5.1679C5.89632 5.03319 6.04627 4.85543 6.1478 4.64991L7.68714 1.53058Z" stroke="#09090B" stroke-width="1.33333" stroke-linecap="round" stroke-linejoin="round"/>
</svg>
