<svg width="33" height="32" viewBox="0 0 33 32" fill="none" xmlns="http://www.w3.org/2000/svg">
<rect x="0.664062" width="32" height="32" rx="16" fill="#0077B5"/>
<path d="M19.3359 13.332C20.3968 13.332 21.4142 13.7535 22.1643 14.5036C22.9145 15.2538 23.3359 16.2712 23.3359 17.332V21.9987H20.6693V17.332C20.6693 16.9784 20.5288 16.6393 20.2787 16.3892C20.0287 16.1392 19.6895 15.9987 19.3359 15.9987C18.9823 15.9987 18.6432 16.1392 18.3931 16.3892C18.1431 16.6393 18.0026 16.9784 18.0026 17.332V21.9987H15.3359V17.332C15.3359 16.2712 15.7573 15.2538 16.5075 14.5036C17.2577 13.7535 18.2751 13.332 19.3359 13.332Z" stroke="white" stroke-width="1.33333" stroke-linecap="round" stroke-linejoin="round"/>
<path d="M12.6667 14H10V22H12.6667V14Z" stroke="white" stroke-width="1.33333" stroke-linecap="round" stroke-linejoin="round"/>
<path d="M11.3333 11.9987C12.0697 11.9987 12.6667 11.4017 12.6667 10.6654C12.6667 9.92898 12.0697 9.33203 11.3333 9.33203C10.597 9.33203 10 9.92898 10 10.6654C10 11.4017 10.597 11.9987 11.3333 11.9987Z" stroke="white" stroke-width="1.33333" stroke-linecap="round" stroke-linejoin="round"/>
</svg>
