<svg width="19" height="19" viewBox="0 0 19 19" fill="none" xmlns="http://www.w3.org/2000/svg">
<path d="M14.75 2.75H4.25C3.42157 2.75 2.75 3.42157 2.75 4.25V14.75C2.75 15.5784 3.42157 16.25 4.25 16.25H14.75C15.5784 16.25 16.25 15.5784 16.25 14.75V4.25C16.25 3.42157 15.5784 2.75 14.75 2.75Z" stroke="#0080FF" stroke-width="1.5" stroke-linecap="round" stroke-linejoin="round"/>
<path d="M7.25 8.75C8.07843 8.75 8.75 8.07843 8.75 7.25C8.75 6.42157 8.07843 5.75 7.25 5.75C6.42157 5.75 5.75 6.42157 5.75 7.25C5.75 8.07843 6.42157 8.75 7.25 8.75Z" stroke="#0080FF" stroke-width="1.5" stroke-linecap="round" stroke-linejoin="round"/>
<path d="M16.25 11.75L13.9355 9.43552C13.6542 9.15431 13.2727 8.99634 12.875 8.99634C12.4773 8.99634 12.0958 9.15431 11.8145 9.43552L5 16.25" stroke="#0080FF" stroke-width="1.5" stroke-linecap="round" stroke-linejoin="round"/>
</svg>
