<svg width="17" height="17" viewBox="0 0 17 17" fill="none" xmlns="http://www.w3.org/2000/svg">
<path d="M3.16797 1.83301V15.1663L4.5013 14.4997L5.83464 15.1663L7.16797 14.4997L8.5013 15.1663L9.83464 14.4997L11.168 15.1663L12.5013 14.4997L13.8346 15.1663V1.83301L12.5013 2.49967L11.168 1.83301L9.83464 2.49967L8.5013 1.83301L7.16797 2.49967L5.83464 1.83301L4.5013 2.49967L3.16797 1.83301Z" stroke="#71717A" stroke-linecap="round" stroke-linejoin="round"/>
<path d="M11.1654 5.83301H7.16536C6.81174 5.83301 6.4726 5.97348 6.22256 6.22353C5.97251 6.47358 5.83203 6.81272 5.83203 7.16634C5.83203 7.51996 5.97251 7.8591 6.22256 8.10915C6.4726 8.3592 6.81174 8.49967 7.16536 8.49967H9.83203C10.1857 8.49967 10.5248 8.64015 10.7748 8.8902C11.0249 9.14025 11.1654 9.47939 11.1654 9.83301C11.1654 10.1866 11.0249 10.5258 10.7748 10.7758C10.5248 11.0259 10.1857 11.1663 9.83203 11.1663H5.83203" stroke="#71717A" stroke-linecap="round" stroke-linejoin="round"/>
<path d="M8.5 12.1663V4.83301" stroke="#71717A" stroke-linecap="round" stroke-linejoin="round"/>
</svg>
