<svg width="20" height="21" viewBox="0 0 20 21" fill="none" xmlns="http://www.w3.org/2000/svg">
<path d="M15.8333 6.33333V3.83333C15.8333 3.61232 15.7455 3.40036 15.5893 3.24408C15.433 3.0878 15.221 3 15 3H4.16667C3.72464 3 3.30072 3.17559 2.98816 3.48816C2.67559 3.80072 2.5 4.22464 2.5 4.66667C2.5 5.10869 2.67559 5.53262 2.98816 5.84518C3.30072 6.15774 3.72464 6.33333 4.16667 6.33333H16.6667C16.8877 6.33333 17.0996 6.42113 17.2559 6.57741C17.4122 6.73369 17.5 6.94565 17.5 7.16667V10.5M17.5 10.5H15C14.558 10.5 14.1341 10.6756 13.8215 10.9882C13.5089 11.3007 13.3333 11.7246 13.3333 12.1667C13.3333 12.6087 13.5089 13.0326 13.8215 13.3452C14.1341 13.6577 14.558 13.8333 15 13.8333H17.5C17.721 13.8333 17.933 13.7455 18.0893 13.5893C18.2455 13.433 18.3333 13.221 18.3333 13V11.3333C18.3333 11.1123 18.2455 10.9004 18.0893 10.7441C17.933 10.5878 17.721 10.5 17.5 10.5Z" stroke="#0080FF" stroke-width="1.33333" stroke-linecap="round" stroke-linejoin="round"/>
<path d="M2.5 4.66699V16.3337C2.5 16.7757 2.67559 17.1996 2.98816 17.5122C3.30072 17.8247 3.72464 18.0003 4.16667 18.0003H16.6667C16.8877 18.0003 17.0996 17.9125 17.2559 17.7562C17.4122 17.6 17.5 17.388 17.5 17.167V13.8337" stroke="#0080FF" stroke-width="1.33333" stroke-linecap="round" stroke-linejoin="round"/>
</svg>
