<svg width="57" height="57" viewBox="0 0 57 57" fill="none" xmlns="http://www.w3.org/2000/svg">
<rect x="0.25" y="0.5" width="56" height="56" rx="16" fill="#F1F5F9"/>
<path d="M28.2487 45.1663C37.4534 45.1663 44.9154 37.7044 44.9154 28.4997C44.9154 19.2949 37.4534 11.833 28.2487 11.833C19.044 11.833 11.582 19.2949 11.582 28.4997C11.582 37.7044 19.044 45.1663 28.2487 45.1663Z" stroke="#0080FF" stroke-width="3.33333" stroke-linecap="round" stroke-linejoin="round"/>
<path d="M28.2487 35.1663C31.9306 35.1663 34.9154 32.1816 34.9154 28.4997C34.9154 24.8178 31.9306 21.833 28.2487 21.833C24.5668 21.833 21.582 24.8178 21.582 28.4997C21.582 32.1816 24.5668 35.1663 28.2487 35.1663Z" stroke="#0080FF" stroke-width="3.33333" stroke-linecap="round" stroke-linejoin="round"/>
<path d="M43.5333 21.833H28.25" stroke="#0080FF" stroke-width="3.33333" stroke-linecap="round" stroke-linejoin="round"/>
<path d="M14.832 18.5996L22.482 31.8329" stroke="#0080FF" stroke-width="3.33333" stroke-linecap="round" stroke-linejoin="round"/>
<path d="M26.3828 45.0663L34.0161 31.833" stroke="#0080FF" stroke-width="3.33333" stroke-linecap="round" stroke-linejoin="round"/>
</svg>
