<svg width="18" height="19" viewBox="0 0 18 19" fill="none" xmlns="http://www.w3.org/2000/svg">
<path d="M12 10.25L15.9172 12.8615C15.9737 12.8991 16.0393 12.9207 16.1071 12.9239C16.1748 12.9271 16.2422 12.9119 16.302 12.8799C16.3618 12.8479 16.4118 12.8003 16.4467 12.7421C16.4815 12.6839 16.5 12.6173 16.5 12.5495V6.40252C16.5 6.33653 16.4826 6.27171 16.4496 6.2146C16.4165 6.15749 16.369 6.11011 16.3118 6.07724C16.2546 6.04437 16.1897 6.02718 16.1237 6.02741C16.0577 6.02763 15.993 6.04526 15.936 6.07852L12 8.37502" stroke="#0080FF" stroke-width="1.5" stroke-linecap="round" stroke-linejoin="round"/>
<path d="M10.5 5H3C2.17157 5 1.5 5.67157 1.5 6.5V12.5C1.5 13.3284 2.17157 14 3 14H10.5C11.3284 14 12 13.3284 12 12.5V6.5C12 5.67157 11.3284 5 10.5 5Z" stroke="#0080FF" stroke-width="1.5" stroke-linecap="round" stroke-linejoin="round"/>
</svg>
