<svg width="21" height="21" viewBox="0 0 21 21" fill="none" xmlns="http://www.w3.org/2000/svg">
<g opacity="0.8">
<path d="M2.22006 10.7898C2.15061 10.6027 2.15061 10.3969 2.22006 10.2098C2.89647 8.56969 4.04465 7.16735 5.51903 6.18056C6.99341 5.19378 8.72759 4.66699 10.5017 4.66699C12.2759 4.66699 14.01 5.19378 15.4844 6.18056C16.9588 7.16735 18.107 8.56969 18.7834 10.2098C18.8528 10.3969 18.8528 10.6027 18.7834 10.7898C18.107 12.4299 16.9588 13.8323 15.4844 14.8191C14.01 15.8058 12.2759 16.3326 10.5017 16.3326C8.72759 16.3326 6.99341 15.8058 5.51903 14.8191C4.04465 13.8323 2.89647 12.4299 2.22006 10.7898Z" stroke="#09090B" stroke-width="1.66667" stroke-linecap="round" stroke-linejoin="round"/>
<path d="M10.5 13C11.8807 13 13 11.8807 13 10.5C13 9.11929 11.8807 8 10.5 8C9.11929 8 8 9.11929 8 10.5C8 11.8807 9.11929 13 10.5 13Z" stroke="#09090B" stroke-width="1.66667" stroke-linecap="round" stroke-linejoin="round"/>
</g>
</svg>
