<svg width="24" height="24" viewBox="0 0 24 24" fill="none" xmlns="http://www.w3.org/2000/svg">
<path d="M11.5555 3.2696C11.5987 3.19124 11.662 3.12589 11.7391 3.08038C11.8161 3.03487 11.9039 3.01086 11.9933 3.01086C12.0828 3.01086 12.1706 3.03487 12.2476 3.08038C12.3246 3.12589 12.388 3.19124 12.4311 3.2696L15.3819 8.87127C15.4523 9.00097 15.5505 9.11349 15.6695 9.20075C15.7885 9.288 15.9254 9.34782 16.0702 9.37591C16.2151 9.40401 16.3644 9.39968 16.5074 9.36324C16.6504 9.3268 16.7835 9.25915 16.8973 9.16514L21.1725 5.50267C21.2546 5.43592 21.3557 5.39693 21.4613 5.39132C21.567 5.3857 21.6717 5.41375 21.7604 5.47143C21.849 5.52911 21.9171 5.61343 21.9548 5.71227C21.9925 5.81111 21.9979 5.91937 21.9702 6.02145L19.1374 16.2632C19.0795 16.4728 18.955 16.6578 18.7825 16.7902C18.6101 16.9226 18.3992 16.9951 18.1817 16.9969H5.80591C5.58833 16.9954 5.3772 16.9229 5.20455 16.7905C5.0319 16.6581 4.90718 16.4729 4.84931 16.2632L2.01749 6.02245C1.98975 5.92037 1.99512 5.81211 2.03282 5.71327C2.07053 5.61443 2.13862 5.5301 2.2273 5.47243C2.31598 5.41475 2.42068 5.3867 2.52632 5.39232C2.63195 5.39793 2.73309 5.43692 2.81515 5.50367L7.08937 9.16614C7.20312 9.26015 7.33628 9.3278 7.47927 9.36424C7.62227 9.40068 7.77156 9.40501 7.91643 9.37691C8.0613 9.34882 8.19815 9.289 8.31715 9.20175C8.43616 9.11449 8.53437 9.00197 8.60474 8.87227L11.5555 3.2696Z" stroke="#0080FF" stroke-width="1.99943" stroke-linecap="round" stroke-linejoin="round"/>
<path d="M4.99609 20.9962H18.9903" stroke="#0080FF" stroke-width="1.99943" stroke-linecap="round" stroke-linejoin="round"/>
</svg>
