<svg width="18" height="19" viewBox="0 0 18 19" fill="none" xmlns="http://www.w3.org/2000/svg">
<path d="M16.2954 14L10.2954 3.50005C10.1645 3.2692 9.97482 3.07719 9.74557 2.9436C9.51631 2.81001 9.25571 2.73962 8.99037 2.73962C8.72503 2.73962 8.46444 2.81001 8.23518 2.9436C8.00592 3.07719 7.8162 3.2692 7.68537 3.50005L1.68537 14C1.55313 14.2291 1.48379 14.489 1.48438 14.7534C1.48496 15.0179 1.55546 15.2775 1.68871 15.5059C1.82196 15.7343 2.01323 15.9235 2.24314 16.0542C2.47305 16.1848 2.73343 16.2524 2.99787 16.25H14.9979C15.261 16.2498 15.5195 16.1803 15.7473 16.0485C15.9751 15.9167 16.1643 15.7274 16.2958 15.4994C16.4272 15.2714 16.4964 15.0128 16.4963 14.7497C16.4963 14.4865 16.427 14.228 16.2954 14Z" stroke="#EF4444" stroke-width="1.5" stroke-linecap="round" stroke-linejoin="round"/>
<path d="M9 7.25V10.25" stroke="#EF4444" stroke-width="1.5" stroke-linecap="round" stroke-linejoin="round"/>
<path d="M9 13.25H9.0075" stroke="#EF4444" stroke-width="1.5" stroke-linecap="round" stroke-linejoin="round"/>
</svg>
