<svg width="40" height="41" viewBox="0 0 40 41" fill="none" xmlns="http://www.w3.org/2000/svg">
<rect y="0.5" width="40" height="40" rx="20" fill="#EAF3FE"/>
<path d="M20 30.5C25.5228 30.5 30 26.0228 30 20.5C30 14.9772 25.5228 10.5 20 10.5C14.4772 10.5 10 14.9772 10 20.5C10 26.0228 14.4772 30.5 20 30.5Z" stroke="#60A5FA" stroke-width="2" stroke-linecap="round" stroke-linejoin="round"/>
<path d="M20 24.5C22.2091 24.5 24 22.7091 24 20.5C24 18.2909 22.2091 16.5 20 16.5C17.7909 16.5 16 18.2909 16 20.5C16 22.7091 17.7909 24.5 20 24.5Z" stroke="#60A5FA" stroke-width="2" stroke-linecap="round" stroke-linejoin="round"/>
<path d="M29.17 16.5H20" stroke="#60A5FA" stroke-width="2" stroke-linecap="round" stroke-linejoin="round"/>
<path d="M11.9492 14.5596L16.5392 22.4996" stroke="#60A5FA" stroke-width="2" stroke-linecap="round" stroke-linejoin="round"/>
<path d="M18.8789 30.44L23.4589 22.5" stroke="#60A5FA" stroke-width="2" stroke-linecap="round" stroke-linejoin="round"/>
</svg>
