<svg width="17" height="17" viewBox="0 0 17 17" fill="none" xmlns="http://www.w3.org/2000/svg">
<path d="M8.625 2.5H3.95833C3.60471 2.5 3.26557 2.64048 3.01552 2.89052C2.76548 3.14057 2.625 3.47971 2.625 3.83333V13.1667C2.625 13.5203 2.76548 13.8594 3.01552 14.1095C3.26557 14.3595 3.60471 14.5 3.95833 14.5H13.2917C13.6453 14.5 13.9844 14.3595 14.2345 14.1095C14.4845 13.8594 14.625 13.5203 14.625 13.1667V8.5" stroke="#09090B" stroke-width="1.33333" stroke-linecap="round" stroke-linejoin="round"/>
<path d="M12.8764 2.25015C13.1416 1.98493 13.5013 1.83594 13.8764 1.83594C14.2514 1.83594 14.6111 1.98493 14.8764 2.25015C15.1416 2.51537 15.2906 2.87508 15.2906 3.25015C15.2906 3.62522 15.1416 3.98493 14.8764 4.25015L8.8677 10.2595C8.7094 10.4176 8.51383 10.5334 8.29903 10.5962L6.3837 11.1562C6.32633 11.1729 6.26552 11.1739 6.20764 11.1591C6.14975 11.1442 6.09692 11.1141 6.05466 11.0719C6.01241 11.0296 5.98229 10.9768 5.96746 10.9189C5.95263 10.861 5.95363 10.8002 5.97036 10.7428L6.53036 8.82748C6.59338 8.61285 6.70939 8.41752 6.8677 8.25948L12.8764 2.25015Z" stroke="#09090B" stroke-width="1.33333" stroke-linecap="round" stroke-linejoin="round"/>
</svg>
