<svg width="65" height="64" viewBox="0 0 65 64" fill="none" xmlns="http://www.w3.org/2000/svg">
<rect x="0.5" width="64" height="64" rx="32" fill="#0080FF" fill-opacity="0.5"/>
<path d="M37.8281 33.335L44.7921 37.9777C44.8925 38.0445 45.0092 38.0828 45.1296 38.0885C45.2501 38.0943 45.3698 38.0673 45.4761 38.0104C45.5824 37.9535 45.6713 37.8688 45.7333 37.7653C45.7953 37.6619 45.8281 37.5436 45.8281 37.423V26.495C45.8282 26.3777 45.7972 26.2625 45.7385 26.1609C45.6798 26.0594 45.5953 25.9752 45.4935 25.9167C45.3918 25.8583 45.2765 25.8277 45.1592 25.8281C45.0419 25.8285 44.9268 25.8599 44.8255 25.919L37.8281 30.0017" stroke="white" stroke-width="2.66667" stroke-linecap="round" stroke-linejoin="round"/>
<path d="M35.1719 24H21.8385C20.3658 24 19.1719 25.1939 19.1719 26.6667V37.3333C19.1719 38.8061 20.3658 40 21.8385 40H35.1719C36.6446 40 37.8385 38.8061 37.8385 37.3333V26.6667C37.8385 25.1939 36.6446 24 35.1719 24Z" stroke="white" stroke-width="2.66667" stroke-linecap="round" stroke-linejoin="round"/>
</svg>
