<svg width="33" height="33" viewBox="0 0 33 33" fill="none" xmlns="http://www.w3.org/2000/svg">
<rect x="0.5" y="0.5" width="32" height="32" rx="16" fill="#F3E8FF"/>
<path d="M19.168 17.1665L22.65 19.4879C22.7002 19.5213 22.7585 19.5404 22.8187 19.5433C22.8789 19.5462 22.9388 19.5327 22.992 19.5042C23.0451 19.4758 23.0896 19.4334 23.1206 19.3817C23.1516 19.33 23.1679 19.2708 23.168 19.2105V13.7465C23.168 13.6879 23.1525 13.6302 23.1232 13.5795C23.0938 13.5287 23.0515 13.4866 23.0007 13.4574C22.9498 13.4282 22.8922 13.4129 22.8335 13.4131C22.7749 13.4133 22.7173 13.429 22.6666 13.4585L19.168 15.4999" stroke="#0080FF" stroke-width="1.33333" stroke-linecap="round" stroke-linejoin="round"/>
<path d="M17.832 12.5H11.1654C10.429 12.5 9.83203 13.097 9.83203 13.8333V19.1667C9.83203 19.903 10.429 20.5 11.1654 20.5H17.832C18.5684 20.5 19.1654 19.903 19.1654 19.1667V13.8333C19.1654 13.097 18.5684 12.5 17.832 12.5Z" stroke="#0080FF" stroke-width="1.33333" stroke-linecap="round" stroke-linejoin="round"/>
</svg>
