<svg width="16" height="16" viewBox="0 0 16 16" fill="none" xmlns="http://www.w3.org/2000/svg">
<path d="M10.6641 8.66749L14.1461 10.9888C14.1963 11.0222 14.2546 11.0414 14.3148 11.0443C14.375 11.0472 14.4349 11.0336 14.4881 11.0052C14.5412 10.9767 14.5857 10.9344 14.6167 10.8827C14.6476 10.8309 14.664 10.7718 14.6641 10.7115V5.24749C14.6641 5.18884 14.6486 5.13123 14.6192 5.08046C14.5899 5.02969 14.5476 4.98758 14.4968 4.95836C14.4459 4.92914 14.3882 4.91387 14.3296 4.91406C14.2709 4.91426 14.2134 4.92993 14.1627 4.95949L10.6641 7.00083" stroke="#09090B" stroke-width="1.33333" stroke-linecap="round" stroke-linejoin="round"/>
<path d="M9.33594 4H2.66927C1.93289 4 1.33594 4.59695 1.33594 5.33333V10.6667C1.33594 11.403 1.93289 12 2.66927 12H9.33594C10.0723 12 10.6693 11.403 10.6693 10.6667V5.33333C10.6693 4.59695 10.0723 4 9.33594 4Z" stroke="#09090B" stroke-width="1.33333" stroke-linecap="round" stroke-linejoin="round"/>
</svg>
