<svg width="41" height="41" viewBox="0 0 41 41" fill="none" xmlns="http://www.w3.org/2000/svg">
<rect x="0.667969" y="0.5" width="40" height="40" rx="20" fill="#EAF3FE"/>
<path d="M26.1662 27.5H17.6662C16.368 27.4997 15.0956 27.1384 13.991 26.4565C12.8863 25.7746 11.9931 24.7989 11.411 23.6386C10.829 22.4783 10.5811 21.179 10.695 19.8858C10.8089 18.5927 11.2801 17.3567 12.056 16.316C12.8319 15.2753 13.882 14.4708 15.0888 13.9925C16.2956 13.5142 17.6116 13.3809 18.8898 13.6075C20.168 13.8341 21.3581 14.4116 22.3269 15.2756C23.2958 16.1396 24.0053 17.256 24.3762 18.5H26.1662C27.3597 18.5 28.5042 18.9741 29.3482 19.818C30.1921 20.6619 30.6662 21.8065 30.6662 23C30.6662 24.1935 30.1921 25.3381 29.3482 26.182C28.5042 27.0259 27.3597 27.5 26.1662 27.5Z" stroke="#22C55E" stroke-width="2" stroke-linecap="round" stroke-linejoin="round"/>
</svg>
