<svg width="41" height="41" viewBox="0 0 41 41" fill="none" xmlns="http://www.w3.org/2000/svg">
<rect x="0.332031" y="0.5" width="40" height="40" rx="20" fill="#EAF3FE"/>
<path d="M25.8302 27.5H17.3302C16.0321 27.4997 14.7596 27.1384 13.655 26.4565C12.5504 25.7746 11.6572 24.7989 11.0751 23.6386C10.4931 22.4783 10.2451 21.179 10.359 19.8858C10.4729 18.5927 10.9442 17.3567 11.7201 16.316C12.496 15.2753 13.546 14.4708 14.7528 13.9925C15.9596 13.5142 17.2757 13.3809 18.5539 13.6075C19.8321 13.8341 21.0221 14.4116 21.991 15.2756C22.9598 16.1396 23.6693 17.256 24.0402 18.5H25.8302C27.0237 18.5 28.1683 18.9741 29.0122 19.818C29.8561 20.6619 30.3302 21.8065 30.3302 23C30.3302 24.1935 29.8561 25.3381 29.0122 26.182C28.1683 27.0259 27.0237 27.5 25.8302 27.5Z" stroke="#0080FF" stroke-width="2" stroke-linecap="round" stroke-linejoin="round"/>
</svg>
