<svg width="16" height="16" viewBox="0 0 16 16" fill="none" xmlns="http://www.w3.org/2000/svg">
<path d="M13.8864 13.3474L10.7881 10.2986C11.5995 9.41713 12.098 8.25134 12.098 6.96851C12.0976 4.2243 9.83725 2 7.04879 2C4.26032 2 2 4.2243 2 6.96851C2 9.71272 4.26032 11.937 7.04879 11.937C8.25359 11.937 9.35862 11.5203 10.2266 10.8275L13.3369 13.8883C13.4884 14.0376 13.7345 14.0376 13.886 13.8883C14.0379 13.739 14.0379 13.4967 13.8864 13.3474ZM7.04879 11.1726C4.68944 11.1726 2.77683 9.29036 2.77683 6.96851C2.77683 4.64666 4.68944 2.76443 7.04879 2.76443C9.40815 2.76443 11.3207 4.64666 11.3207 6.96851C11.3207 9.29036 9.40815 11.1726 7.04879 11.1726Z" fill="#09090B"/>
</svg>
