<svg width="16" height="16" viewBox="0 0 16 16" fill="none" xmlns="http://www.w3.org/2000/svg">
<g clip-path="url(#clip0_195_4573)">
<path d="M10.2067 5.79681C9.99977 5.79681 9.83203 5.96455 9.83203 6.17152V13.2535C9.83203 13.4603 9.99977 13.6282 10.2067 13.6282C10.4137 13.6282 10.5814 13.4603 10.5814 13.2535V6.17152C10.5814 5.96455 10.4137 5.79681 10.2067 5.79681Z" fill="#71717A"/>
<path d="M5.78486 5.79681C5.5779 5.79681 5.41016 5.96455 5.41016 6.17152V13.2535C5.41016 13.4603 5.5779 13.6282 5.78486 13.6282C5.99183 13.6282 6.15957 13.4603 6.15957 13.2535V6.17152C6.15957 5.96455 5.99183 5.79681 5.78486 5.79681Z" fill="#71717A"/>
<path d="M2.56227 4.76329V13.9953C2.56227 14.5409 2.76236 15.0534 3.11189 15.421C3.45981 15.7898 3.944 15.9991 4.45073 15.9999H11.5403C12.0472 15.9991 12.5314 15.7898 12.8791 15.421C13.2287 15.0534 13.4288 14.5409 13.4288 13.9953V4.76329C14.1236 4.57887 14.5738 3.90762 14.4809 3.19465C14.3878 2.48183 13.7805 1.94861 13.0615 1.94846H11.143V1.48008C11.1452 1.0862 10.9895 0.707978 10.7107 0.429729C10.4318 0.151627 10.053 -0.00323193 9.65915 -1.18018e-05H6.33187C5.93799 -0.00323193 5.55919 0.151627 5.28036 0.429729C5.00152 0.707978 4.84578 1.0862 4.84798 1.48008V1.94846H2.92951C2.21055 1.94861 1.60326 2.48183 1.51017 3.19465C1.41722 3.90762 1.86746 4.57887 2.56227 4.76329ZM11.5403 15.2505H4.45073C3.81007 15.2505 3.31169 14.7002 3.31169 13.9953V4.79623H12.6793V13.9953C12.6793 14.7002 12.181 15.2505 11.5403 15.2505ZM5.59739 1.48008C5.5949 1.28497 5.6716 1.09717 5.81007 0.959441C5.94839 0.821707 6.13662 0.746034 6.33187 0.7494H9.65915C9.8544 0.746034 10.0426 0.821707 10.181 0.959441C10.3194 1.09703 10.3961 1.28497 10.3936 1.48008V1.94846H5.59739V1.48008ZM2.92951 2.69787H13.0615C13.434 2.69787 13.736 2.99983 13.736 3.37234C13.736 3.74485 13.434 4.04681 13.0615 4.04681H2.92951C2.557 4.04681 2.25504 3.74485 2.25504 3.37234C2.25504 2.99983 2.557 2.69787 2.92951 2.69787Z" fill="#71717A"/>
<path d="M7.9958 5.79681C7.78883 5.79681 7.62109 5.96455 7.62109 6.17152V13.2535C7.62109 13.4603 7.78883 13.6282 7.9958 13.6282C8.20277 13.6282 8.37051 13.4603 8.37051 13.2535V6.17152C8.37051 5.96455 8.20277 5.79681 7.9958 5.79681Z" fill="#71717A"/>
</g>
<defs>
<clipPath id="clip0_195_4573">
<rect width="16" height="16" fill="white"/>
</clipPath>
</defs>
</svg>
