<svg width="52" height="53" viewBox="0 0 52 53" fill="none" xmlns="http://www.w3.org/2000/svg">
<rect y="0.5" width="52" height="52" rx="26" fill="#C8E1FF"/>
<path d="M26.9261 18.0455L26.7045 30.4801H24.3438L24.1222 18.0455H26.9261ZM25.5284 35.6619C25.0568 35.6619 24.6534 35.4972 24.3182 35.1676C23.983 34.8324 23.8182 34.429 23.8239 33.9574C23.8182 33.4915 23.983 33.0937 24.3182 32.7642C24.6534 32.429 25.0568 32.2614 25.5284 32.2614C25.9886 32.2614 26.3864 32.429 26.7216 32.7642C27.0568 33.0937 27.2273 33.4915 27.233 33.9574C27.2273 34.2699 27.1449 34.5568 26.9858 34.8182C26.8324 35.0739 26.6278 35.2784 26.3722 35.4318C26.1165 35.5852 25.8352 35.6619 25.5284 35.6619Z" fill="#0080FF"/>
</svg>
