<svg width="16" height="16" viewBox="0 0 16 16" fill="none" xmlns="http://www.w3.org/2000/svg">
<path d="M11.332 2.66797H9.9987C9.63051 2.66797 9.33203 2.96645 9.33203 3.33464V12.668C9.33203 13.0362 9.63051 13.3346 9.9987 13.3346H11.332C11.7002 13.3346 11.9987 13.0362 11.9987 12.668V3.33464C11.9987 2.96645 11.7002 2.66797 11.332 2.66797Z" stroke="#09090B" stroke-width="1.33363" stroke-linecap="round" stroke-linejoin="round"/>
<path d="M5.99609 2.66797H4.66276C4.29457 2.66797 3.99609 2.96645 3.99609 3.33464V12.668C3.99609 13.0362 4.29457 13.3346 4.66276 13.3346H5.99609C6.36428 13.3346 6.66276 13.0362 6.66276 12.668V3.33464C6.66276 2.96645 6.36428 2.66797 5.99609 2.66797Z" stroke="#09090B" stroke-width="1.33363" stroke-linecap="round" stroke-linejoin="round"/>
</svg>
