<svg width="16" height="16" viewBox="0 0 16 16" fill="none" xmlns="http://www.w3.org/2000/svg">
<g clip-path="url(#clip0_328_15)">
<path d="M6.66797 16C5.29004 16 4.16797 14.8787 4.16797 13.5C4.16797 13.224 4.39197 13 4.66797 13C4.94397 13 5.16797 13.224 5.16797 13.5C5.16797 14.3274 5.84131 15 6.66797 15C7.49463 15 8.16797 14.3274 8.16797 13.5C8.16797 13.224 8.39197 13 8.66797 13C8.94397 13 9.16797 13.224 9.16797 13.5C9.16797 14.8787 8.04602 16 6.66797 16Z" fill="black"/>
<path d="M12.1666 14H1.16663C0.523315 14 0 13.4767 0 12.8334C0 12.4919 0.148682 12.1687 0.407959 11.9466C0.424683 11.932 0.442627 11.9187 0.461304 11.9066C1.43994 11.0526 2 9.82397 2 8.5266V6.66662C2 4.49535 3.47131 2.63134 5.578 2.13329C5.84729 2.07128 6.1167 2.23595 6.18005 2.50536C6.24329 2.77404 6.07666 3.04333 5.80872 3.10668C4.15466 3.49731 3 4.9613 3 6.66662V8.5266C3 10.1373 2.29395 11.6614 1.0647 12.7073C1.05469 12.7153 1.04602 12.7226 1.03528 12.73C1.01733 12.7527 1 12.7873 1 12.8334C1 12.9239 1.07605 13 1.16663 13H12.1666C12.2573 13 12.3334 12.9239 12.3334 12.8334C12.3334 12.7866 12.316 12.7527 12.2974 12.73C12.2874 12.7226 12.278 12.7153 12.2687 12.7073C11.6714 12.198 11.2 11.5834 10.868 10.88C10.7494 10.6306 10.856 10.3326 11.106 10.214C11.358 10.0953 11.6533 10.2034 11.7714 10.4526C12.0353 11.01 12.4053 11.4994 12.8733 11.9087C12.8906 11.9206 12.9087 11.9333 12.924 11.9466C13.1847 12.1687 13.3334 12.4919 13.3334 12.8334C13.3334 13.4767 12.8101 14 12.1666 14Z" fill="black"/>
<path d="M11.6653 8.66661C9.276 8.66661 7.33203 6.72264 7.33203 4.33336C7.33203 1.94395 9.276 -1.52588e-05 11.6653 -1.52588e-05C14.0547 -1.52588e-05 15.9987 1.94395 15.9987 4.33336C15.9987 6.72264 14.0547 8.66661 11.6653 8.66661ZM11.6653 0.999985C9.82727 0.999985 8.33203 2.49535 8.33203 4.33336C8.33203 6.17137 9.82727 7.66661 11.6653 7.66661C13.5033 7.66661 14.9987 6.17137 14.9987 4.33336C14.9987 2.49535 13.5033 0.999985 11.6653 0.999985Z" fill="black"/>
<path d="M11.8334 6.33337C11.5574 6.33337 11.3334 6.10938 11.3334 5.83337V3.66663H11C10.724 3.66663 10.5 3.44263 10.5 3.16663C10.5 2.89062 10.724 2.66663 11 2.66663H11.8334C12.1094 2.66663 12.3334 2.89062 12.3334 3.16663V5.83337C12.3334 6.10938 12.1094 6.33337 11.8334 6.33337Z" fill="black"/>
</g>
<defs>
<clipPath id="clip0_328_15">
<rect width="16" height="16" fill="white"/>
</clipPath>
</defs>
</svg>
