<svg width="16" height="17" viewBox="0 0 16 17" fill="none" xmlns="http://www.w3.org/2000/svg">
<path d="M12.0026 14.9679H2.66927C2.31565 14.9679 1.97651 14.8275 1.72646 14.5774C1.47641 14.3274 1.33594 13.9882 1.33594 13.6346V4.30127" stroke="#0080FF" stroke-width="1.33333" stroke-linecap="round" stroke-linejoin="round"/>
<path d="M14.6693 8.9717L13.8053 8.1077C13.504 7.80645 13.0953 7.63721 12.6693 7.63721C12.2432 7.63721 11.8346 7.80645 11.5333 8.1077L7.33594 12.305" stroke="#0080FF" stroke-width="1.33333" stroke-linecap="round" stroke-linejoin="round"/>
<path d="M8.00521 6.96794C8.74159 6.96794 9.33854 6.37098 9.33854 5.6346C9.33854 4.89822 8.74159 4.30127 8.00521 4.30127C7.26883 4.30127 6.67188 4.89822 6.67188 5.6346C6.67188 6.37098 7.26883 6.96794 8.00521 6.96794Z" stroke="#0080FF" stroke-width="1.33333" stroke-linecap="round" stroke-linejoin="round"/>
<path d="M13.3411 1.63721H5.34115C4.60477 1.63721 4.00781 2.23416 4.00781 2.97054V10.9705C4.00781 11.7069 4.60477 12.3039 5.34115 12.3039H13.3411C14.0775 12.3039 14.6745 11.7069 14.6745 10.9705V2.97054C14.6745 2.23416 14.0775 1.63721 13.3411 1.63721Z" stroke="#0080FF" stroke-width="1.33333" stroke-linecap="round" stroke-linejoin="round"/>
</svg>
