<svg width="17" height="17" viewBox="0 0 17 17" fill="none" xmlns="http://www.w3.org/2000/svg">
<path d="M10.3763 1.83301H4.3763C4.02268 1.83301 3.68354 1.97348 3.43349 2.22353C3.18344 2.47358 3.04297 2.81272 3.04297 3.16634V13.833C3.04297 14.1866 3.18344 14.5258 3.43349 14.7758C3.68354 15.0259 4.02268 15.1663 4.3763 15.1663H12.3763C12.7299 15.1663 13.0691 15.0259 13.3191 14.7758C13.5692 14.5258 13.7096 14.1866 13.7096 13.833V5.16634L10.3763 1.83301Z" stroke="#09090B" stroke-width="1.33333" stroke-linecap="round" stroke-linejoin="round"/>
<path d="M9.70703 1.83301V4.49967C9.70703 4.8533 9.84751 5.19244 10.0976 5.44248C10.3476 5.69253 10.6867 5.83301 11.0404 5.83301H13.707" stroke="#09090B" stroke-width="1.33333" stroke-linecap="round" stroke-linejoin="round"/>
<path d="M7.04036 6.5H5.70703" stroke="#09090B" stroke-width="1.33333" stroke-linecap="round" stroke-linejoin="round"/>
<path d="M11.0404 9.16699H5.70703" stroke="#09090B" stroke-width="1.33333" stroke-linecap="round" stroke-linejoin="round"/>
<path d="M11.0404 11.833H5.70703" stroke="#09090B" stroke-width="1.33333" stroke-linecap="round" stroke-linejoin="round"/>
</svg>
