<svg width="16" height="16" viewBox="0 0 16 16" fill="none" xmlns="http://www.w3.org/2000/svg">
<path d="M5.00078 7.25093H3.80078C2.34878 7.25093 1.55078 6.45293 1.55078 5.00093V3.80093C1.55078 2.34893 2.34878 1.55093 3.80078 1.55093H5.00078C6.45278 1.55093 7.25078 2.34893 7.25078 3.80093V5.00093C7.25078 6.45293 6.45278 7.25093 5.00078 7.25093ZM3.80078 2.45093C2.85278 2.45093 2.45078 2.85293 2.45078 3.80093V5.00093C2.45078 5.94893 2.85278 6.35093 3.80078 6.35093H5.00078C5.94878 6.35093 6.35078 5.94893 6.35078 5.00093V3.80093C6.35078 2.85293 5.94878 2.45093 5.00078 2.45093H3.80078Z" fill="#101010"/>
<path d="M12.2 7.25093H11C9.548 7.25093 8.75 6.45293 8.75 5.00093V3.80093C8.75 2.34893 9.548 1.55093 11 1.55093H12.2C13.652 1.55093 14.45 2.34893 14.45 3.80093V5.00093C14.45 6.45293 13.652 7.25093 12.2 7.25093ZM11 2.45093C10.052 2.45093 9.65 2.85293 9.65 3.80093V5.00093C9.65 5.94893 10.052 6.35093 11 6.35093H12.2C13.148 6.35093 13.55 5.94893 13.55 5.00093V3.80093C13.55 2.85293 13.148 2.45093 12.2 2.45093H11Z" fill="#101010"/>
<path d="M12.2 14.4509H11C9.548 14.4509 8.75 13.6529 8.75 12.2009V11.0009C8.75 9.54892 9.548 8.75092 11 8.75092H12.2C13.652 8.75092 14.45 9.54892 14.45 11.0009V12.2009C14.45 13.6529 13.652 14.4509 12.2 14.4509ZM11 9.65092C10.052 9.65092 9.65 10.0529 9.65 11.0009V12.2009C9.65 13.1489 10.052 13.5509 11 13.5509H12.2C13.148 13.5509 13.55 13.1489 13.55 12.2009V11.0009C13.55 10.0529 13.148 9.65092 12.2 9.65092H11Z" fill="#101010"/>
<path d="M5.00078 14.4509H3.80078C2.34878 14.4509 1.55078 13.6529 1.55078 12.2009V11.0009C1.55078 9.54892 2.34878 8.75092 3.80078 8.75092H5.00078C6.45278 8.75092 7.25078 9.54892 7.25078 11.0009V12.2009C7.25078 13.6529 6.45278 14.4509 5.00078 14.4509ZM3.80078 9.65092C2.85278 9.65092 2.45078 10.0529 2.45078 11.0009V12.2009C2.45078 13.1489 2.85278 13.5509 3.80078 13.5509H5.00078C5.94878 13.5509 6.35078 13.1489 6.35078 12.2009V11.0009C6.35078 10.0529 5.94878 9.65092 5.00078 9.65092H3.80078Z" fill="#101010"/>
</svg>
