<svg width="16" height="16" viewBox="0 0 16 16" fill="none" xmlns="http://www.w3.org/2000/svg">
<path d="M10.6693 13.334V2.66732C10.6693 2.3137 10.5288 1.97456 10.2787 1.72451C10.0287 1.47446 9.68956 1.33398 9.33594 1.33398H6.66927C6.31565 1.33398 5.97651 1.47446 5.72646 1.72451C5.47641 1.97456 5.33594 2.3137 5.33594 2.66732V13.334" stroke="#09090B" stroke-width="1.33333" stroke-linecap="round" stroke-linejoin="round"/>
<path d="M13.3359 4H2.66927C1.93289 4 1.33594 4.59695 1.33594 5.33333V12C1.33594 12.7364 1.93289 13.3333 2.66927 13.3333H13.3359C14.0723 13.3333 14.6693 12.7364 14.6693 12V5.33333C14.6693 4.59695 14.0723 4 13.3359 4Z" stroke="#09090B" stroke-width="1.33333" stroke-linecap="round" stroke-linejoin="round"/>
</svg>
