<svg width="16" height="16" viewBox="0 0 16 16" fill="none" xmlns="http://www.w3.org/2000/svg">
<path d="M8.55363 1.45331C8.37993 1.37407 8.19123 1.33307 8.0003 1.33307C7.80938 1.33307 7.62068 1.37407 7.44697 1.45331L1.73363 4.05331C1.61533 4.10547 1.51475 4.19091 1.44414 4.29921C1.37353 4.40752 1.33594 4.53402 1.33594 4.66331C1.33594 4.7926 1.37353 4.9191 1.44414 5.0274C1.51475 5.13571 1.61533 5.22114 1.73363 5.27331L7.45363 7.87997C7.62734 7.95921 7.81604 8.00021 8.00697 8.00021C8.19789 8.00021 8.38659 7.95921 8.5603 7.87997L14.2803 5.27997C14.3986 5.22781 14.4992 5.14237 14.5698 5.03407C14.6404 4.92576 14.678 4.79926 14.678 4.66997C14.678 4.54068 14.6404 4.41418 14.5698 4.30588C14.4992 4.19757 14.3986 4.11214 14.2803 4.05997L8.55363 1.45331Z" stroke="#020817" stroke-linecap="round" stroke-linejoin="round"/>
<path d="M1.33203 8C1.33172 8.12751 1.36798 8.25244 1.43651 8.35997C1.50505 8.46749 1.60298 8.55311 1.7187 8.60667L7.45203 11.2133C7.62483 11.2916 7.81234 11.3321 8.00203 11.3321C8.19172 11.3321 8.37923 11.2916 8.55203 11.2133L14.272 8.61333C14.39 8.56029 14.4901 8.47406 14.5599 8.36516C14.6297 8.25625 14.6664 8.12937 14.6654 8" stroke="#020817" stroke-linecap="round" stroke-linejoin="round"/>
<path d="M1.33203 11.3333C1.33172 11.4608 1.36798 11.5858 1.43651 11.6933C1.50505 11.8008 1.60298 11.8864 1.7187 11.94L7.45203 14.5466C7.62483 14.6249 7.81234 14.6654 8.00203 14.6654C8.19172 14.6654 8.37923 14.6249 8.55203 14.5466L14.272 11.9466C14.39 11.8936 14.4901 11.8074 14.5599 11.6985C14.6297 11.5896 14.6664 11.4627 14.6654 11.3333" stroke="#020817" stroke-linecap="round" stroke-linejoin="round"/>
</svg>
