<svg width="41" height="41" viewBox="0 0 41 41" fill="none" xmlns="http://www.w3.org/2000/svg">
<rect x="0.667969" y="0.5" width="40" height="40" rx="20" fill="#EAF3FE"/>
<path d="M25.668 10.5H15.668C12.9065 10.5 10.668 12.7386 10.668 15.5V25.5C10.668 28.2614 12.9065 30.5 15.668 30.5H25.668C28.4294 30.5 30.668 28.2614 30.668 25.5V15.5C30.668 12.7386 28.4294 10.5 25.668 10.5Z" stroke="#EC4899" stroke-width="2" stroke-linecap="round" stroke-linejoin="round"/>
<path d="M24.6677 19.8703C24.7911 20.7025 24.6489 21.5525 24.2614 22.2993C23.8739 23.0461 23.2608 23.6517 22.5093 24.03C21.7578 24.4082 20.9061 24.5399 20.0755 24.4062C19.2448 24.2726 18.4774 23.8804 17.8825 23.2855C17.2876 22.6905 16.8954 21.9232 16.7617 21.0925C16.6281 20.2619 16.7597 19.4102 17.138 18.6587C17.5163 17.9072 18.1219 17.294 18.8687 16.9065C19.6155 16.519 20.4654 16.3769 21.2977 16.5003C22.1466 16.6262 22.9325 17.0218 23.5394 17.6286C24.1462 18.2355 24.5418 19.0214 24.6677 19.8703Z" stroke="#EC4899" stroke-width="2" stroke-linecap="round" stroke-linejoin="round"/>
<path d="M26.168 15H26.178" stroke="#EC4899" stroke-width="2" stroke-linecap="round" stroke-linejoin="round"/>
</svg>
