<svg width="29" height="28" viewBox="0 0 29 28" fill="none" xmlns="http://www.w3.org/2000/svg">
<path d="M14.5078 2.33887C13.5796 2.33887 12.6893 2.70762 12.0329 3.36399C11.3766 4.02037 11.0078 4.91061 11.0078 5.83887V14.0055C11.0078 14.9338 11.3766 15.824 12.0329 16.4804C12.6893 17.1368 13.5796 17.5055 14.5078 17.5055C15.4361 17.5055 16.3263 17.1368 16.9827 16.4804C17.6391 15.824 18.0078 14.9338 18.0078 14.0055V5.83887C18.0078 4.91061 17.6391 4.02037 16.9827 3.36399C16.3263 2.70762 15.4361 2.33887 14.5078 2.33887Z" stroke="#71717A" stroke-width="2.33333" stroke-linecap="round" stroke-linejoin="round"/>
<path d="M22.6615 11.6709V14.0042C22.6615 16.1702 21.801 18.2474 20.2695 19.7789C18.738 21.3105 16.6607 22.1709 14.4948 22.1709C12.3289 22.1709 10.2516 21.3105 8.72009 19.7789C7.18854 18.2474 6.32813 16.1702 6.32812 14.0042V11.6709" stroke="#71717A" stroke-width="2.33333" stroke-linecap="round" stroke-linejoin="round"/>
<path d="M14.5 22.1631V25.6631" stroke="#71717A" stroke-width="2.33333" stroke-linecap="round" stroke-linejoin="round"/>
</svg>
