<svg width="25" height="25" viewBox="0 0 25 25" fill="none" xmlns="http://www.w3.org/2000/svg">
<path d="M7.50276 3.87378H4.50362C3.95149 3.87378 3.50391 4.32137 3.50391 4.87349V7.87263C3.50391 8.42476 3.95149 8.87234 4.50362 8.87234H7.50276C8.05488 8.87234 8.50247 8.42476 8.50247 7.87263V4.87349C8.50247 4.32137 8.05488 3.87378 7.50276 3.87378Z" stroke="#0080FF" stroke-width="1.99943" stroke-linecap="round" stroke-linejoin="round"/>
<path d="M20.4949 3.87378H17.4958C16.9437 3.87378 16.4961 4.32137 16.4961 4.87349V7.87263C16.4961 8.42476 16.9437 8.87234 17.4958 8.87234H20.4949C21.0471 8.87234 21.4947 8.42476 21.4947 7.87263V4.87349C21.4947 4.32137 21.0471 3.87378 20.4949 3.87378Z" stroke="#0080FF" stroke-width="1.99943" stroke-linecap="round" stroke-linejoin="round"/>
<path d="M7.50276 16.8683H4.50362C3.95149 16.8683 3.50391 17.3159 3.50391 17.8681V20.8672C3.50391 21.4193 3.95149 21.8669 4.50362 21.8669H7.50276C8.05488 21.8669 8.50247 21.4193 8.50247 20.8672V17.8681C8.50247 17.3159 8.05488 16.8683 7.50276 16.8683Z" stroke="#0080FF" stroke-width="1.99943" stroke-linecap="round" stroke-linejoin="round"/>
<path d="M21.4947 16.8683H18.4955C17.9652 16.8683 17.4567 17.079 17.0817 17.454C16.7067 17.8289 16.4961 18.3375 16.4961 18.8678V21.8669" stroke="#0080FF" stroke-width="1.99943" stroke-linecap="round" stroke-linejoin="round"/>
<path d="M21.4961 21.8663V21.8763" stroke="#0080FF" stroke-width="1.99943" stroke-linecap="round" stroke-linejoin="round"/>
<path d="M12.4986 7.87207V10.8712C12.4986 11.4015 12.2879 11.91 11.9129 12.285C11.538 12.66 11.0294 12.8706 10.4991 12.8706H7.5" stroke="#0080FF" stroke-width="1.99943" stroke-linecap="round" stroke-linejoin="round"/>
<path d="M3.50391 12.87H3.51391" stroke="#0080FF" stroke-width="1.99943" stroke-linecap="round" stroke-linejoin="round"/>
<path d="M12.5 3.87378H12.51" stroke="#0080FF" stroke-width="1.99943" stroke-linecap="round" stroke-linejoin="round"/>
<path d="M12.5 16.8683V16.8783" stroke="#0080FF" stroke-width="1.99943" stroke-linecap="round" stroke-linejoin="round"/>
<path d="M16.4961 12.87H17.4961" stroke="#0080FF" stroke-width="1.99943" stroke-linecap="round" stroke-linejoin="round"/>
<path d="M21.4961 12.87V12.88" stroke="#0080FF" stroke-width="1.99943" stroke-linecap="round" stroke-linejoin="round"/>
<path d="M12.5 21.8666V20.8666" stroke="#0080FF" stroke-width="1.99943" stroke-linecap="round" stroke-linejoin="round"/>
</svg>
