<svg width="41" height="40" viewBox="0 0 41 40" fill="none" xmlns="http://www.w3.org/2000/svg">
<path d="M0.953125 20C0.953125 8.95431 9.90743 0 20.9531 0C31.9988 0 40.9531 8.95431 40.9531 20C40.9531 31.0457 31.9988 40 20.9531 40C9.90743 40 0.953125 31.0457 0.953125 20Z" fill="#0080FF" fill-opacity="0.1"/>
<path d="M20.7318 8.67607C20.7829 8.57278 20.8619 8.48583 20.9598 8.42504C21.0577 8.36424 21.1707 8.33203 21.286 8.33203C21.4012 8.33203 21.5142 8.36424 21.6121 8.42504C21.71 8.48583 21.789 8.57278 21.8401 8.67607L24.5351 14.1349C24.7127 14.4942 24.9747 14.8051 25.2988 15.0408C25.623 15.2765 25.9994 15.43 26.396 15.4882L32.423 16.3702C32.5372 16.3868 32.6444 16.435 32.7327 16.5093C32.8209 16.5837 32.8866 16.6812 32.9223 16.7909C32.958 16.9007 32.9623 17.0182 32.9346 17.1302C32.907 17.2423 32.8486 17.3444 32.766 17.4249L28.4073 21.6692C28.1198 21.9494 27.9048 22.2951 27.7806 22.6768C27.6564 23.0585 27.6269 23.4646 27.6945 23.8602L28.7235 29.8569C28.7436 29.9711 28.7313 30.0886 28.6879 30.196C28.6445 30.3035 28.5717 30.3966 28.4779 30.4647C28.3841 30.5329 28.2731 30.5732 28.1575 30.5813C28.0418 30.5893 27.9263 30.5647 27.824 30.5102L22.4363 27.6776C22.0813 27.4912 21.6863 27.3938 21.2854 27.3938C20.8844 27.3938 20.4894 27.4912 20.1345 27.6776L14.748 30.5102C14.6457 30.5644 14.5303 30.5887 14.4148 30.5805C14.2994 30.5723 14.1886 30.5319 14.095 30.4638C14.0014 30.3958 13.9288 30.3028 13.8854 30.1955C13.842 30.0882 13.8296 29.9709 13.8496 29.8569L14.8775 23.8614C14.9453 23.4656 14.9159 23.0592 14.7917 22.6773C14.6676 22.2954 14.4523 21.9494 14.1646 21.6692L9.80595 17.4261C9.72265 17.3456 9.66361 17.2434 9.63558 17.131C9.60754 17.0186 9.61163 16.9006 9.64738 16.7905C9.68313 16.6803 9.7491 16.5824 9.83778 16.5079C9.92645 16.4334 10.0343 16.3853 10.149 16.3691L16.1748 15.4882C16.5718 15.4305 16.9487 15.2771 17.2733 15.0414C17.5979 14.8056 17.8603 14.4946 18.038 14.1349L20.7318 8.67607Z" stroke="#0080FF" stroke-width="2.33333" stroke-linecap="round" stroke-linejoin="round"/>
</svg>
