<svg width="18" height="19" viewBox="0 0 18 19" fill="none" xmlns="http://www.w3.org/2000/svg">
<path d="M9 2C8.40326 2 7.83097 2.23705 7.40901 2.65901C6.98705 3.08097 6.75 3.65326 6.75 4.25V9.5C6.75 10.0967 6.98705 10.669 7.40901 11.091C7.83097 11.5129 8.40326 11.75 9 11.75C9.59674 11.75 10.169 11.5129 10.591 11.091C11.0129 10.669 11.25 10.0967 11.25 9.5V4.25C11.25 3.65326 11.0129 3.08097 10.591 2.65901C10.169 2.23705 9.59674 2 9 2Z" stroke="#0080FF" stroke-width="1.5" stroke-linecap="round" stroke-linejoin="round"/>
<path d="M14.25 8V9.5C14.25 10.8924 13.6969 12.2277 12.7123 13.2123C11.7277 14.1969 10.3924 14.75 9 14.75C7.60761 14.75 6.27226 14.1969 5.28769 13.2123C4.30312 12.2277 3.75 10.8924 3.75 9.5V8" stroke="#0080FF" stroke-width="1.5" stroke-linecap="round" stroke-linejoin="round"/>
<path d="M9 14.75V17" stroke="#0080FF" stroke-width="1.5" stroke-linecap="round" stroke-linejoin="round"/>
</svg>
