<svg width="18" height="18" viewBox="0 0 18 18" fill="none" xmlns="http://www.w3.org/2000/svg">
<path d="M13.1237 14.25H6.74866C5.77505 14.2498 4.8207 13.9788 3.99224 13.4674C3.16378 12.9559 2.49385 12.2242 2.05731 11.354C1.62077 10.4837 1.43483 9.50921 1.52025 8.53937C1.60567 7.56952 1.9591 6.64253 2.54104 5.86199C3.12298 5.08144 3.9105 4.4781 4.81561 4.11937C5.72071 3.76064 6.70774 3.66066 7.66639 3.8306C8.62505 4.00054 9.51756 4.43371 10.2442 5.0817C10.9708 5.7297 11.503 6.56698 11.7812 7.5H13.1237C14.0188 7.5 14.8772 7.85558 15.5101 8.48852C16.1431 9.12145 16.4987 9.9799 16.4987 10.875C16.4987 11.7701 16.1431 12.6286 15.5101 13.2615C14.8772 13.8944 14.0188 14.25 13.1237 14.25Z" stroke="#09090B" stroke-width="1.5" stroke-linecap="round" stroke-linejoin="round"/>
</svg>
