<svg width="12" height="12" viewBox="0 0 12 12" fill="none" xmlns="http://www.w3.org/2000/svg">
<path d="M3.37715 11H8.61715C9.99715 11 10.5472 10.155 10.6122 9.125L10.8722 4.995C10.9422 3.915 10.0822 3 8.99715 3C8.69215 3 8.41215 2.825 8.27215 2.555L7.91215 1.83C7.68215 1.375 7.08215 1 6.57215 1H5.42715C4.91215 1 4.31215 1.375 4.08215 1.83L3.72215 2.555C3.58215 2.825 3.30215 3 2.99715 3C1.91215 3 1.05215 3.915 1.12215 4.995L1.38215 9.125C1.44215 10.155 1.99715 11 3.37715 11Z" stroke="#09090B" stroke-width="0.75" stroke-linecap="round" stroke-linejoin="round"/>
<path d="M5.25 4H6.75" stroke="#09090B" stroke-width="0.75" stroke-linecap="round" stroke-linejoin="round"/>
<path d="M5.99609 9C6.89109 9 7.62109 8.27 7.62109 7.375C7.62109 6.48 6.89109 5.75 5.99609 5.75C5.10109 5.75 4.37109 6.48 4.37109 7.375C4.37109 8.27 5.10109 9 5.99609 9Z" stroke="#09090B" stroke-width="0.75" stroke-linecap="round" stroke-linejoin="round"/>
</svg>
