<svg width="20" height="20" viewBox="0 0 20 20" fill="none" xmlns="http://www.w3.org/2000/svg">
<path d="M8.27696 12.9166C8.20256 12.6283 8.05224 12.3651 7.84164 12.1545C7.63104 11.9439 7.36785 11.7935 7.07946 11.7191L1.96696 10.4008C1.87973 10.3761 1.80297 10.3235 1.7483 10.2512C1.69364 10.1788 1.66406 10.0907 1.66406 9.99998C1.66406 9.90931 1.69364 9.82112 1.7483 9.74878C1.80297 9.67644 1.87973 9.62391 1.96696 9.59915L7.07946 8.27998C7.36775 8.20565 7.63087 8.05546 7.84146 7.84502C8.05205 7.63457 8.20243 7.37156 8.27696 7.08332L9.59529 1.97082C9.6198 1.88325 9.67228 1.8061 9.74473 1.75115C9.81717 1.69619 9.90561 1.66644 9.99654 1.66644C10.0875 1.66644 10.1759 1.69619 10.2484 1.75115C10.3208 1.8061 10.3733 1.88325 10.3978 1.97082L11.7153 7.08332C11.7897 7.37171 11.94 7.6349 12.1506 7.8455C12.3612 8.0561 12.6244 8.20642 12.9128 8.28082L18.0253 9.59832C18.1132 9.62257 18.1907 9.67499 18.246 9.74755C18.3012 9.8201 18.3312 9.90878 18.3312 9.99998C18.3312 10.0912 18.3012 10.1799 18.246 10.2524C18.1907 10.325 18.1132 10.3774 18.0253 10.4016L12.9128 11.7191C12.6244 11.7935 12.3612 11.9439 12.1506 12.1545C11.94 12.3651 11.7897 12.6283 11.7153 12.9166L10.397 18.0291C10.3725 18.1167 10.32 18.1939 10.2475 18.2488C10.1751 18.3038 10.0866 18.3335 9.99571 18.3335C9.90478 18.3335 9.81634 18.3038 9.74389 18.2488C9.67145 18.1939 9.61896 18.1167 9.59446 18.0291L8.27696 12.9166Z" stroke="#0080FF" stroke-width="1.66667" stroke-linecap="round" stroke-linejoin="round"/>
<path d="M16.6641 2.5V5.83333" stroke="#3B82F6" stroke-width="1.66667" stroke-linecap="round" stroke-linejoin="round"/>
<path d="M18.3333 4.16669H15" stroke="#3B82F6" stroke-width="1.66667" stroke-linecap="round" stroke-linejoin="round"/>
<path d="M3.33594 14.1667V15.8334" stroke="#3B82F6" stroke-width="1.66667" stroke-linecap="round" stroke-linejoin="round"/>
<path d="M4.16667 15H2.5" stroke="#3B82F6" stroke-width="1.66667" stroke-linecap="round" stroke-linejoin="round"/>
</svg>
