<svg width="16" height="16" viewBox="0 0 16 16" fill="none" xmlns="http://www.w3.org/2000/svg">
<path d="M7.9987 8.66671C8.36689 8.66671 8.66536 8.36823 8.66536 8.00004C8.66536 7.63185 8.36689 7.33337 7.9987 7.33337C7.63051 7.33337 7.33203 7.63185 7.33203 8.00004C7.33203 8.36823 7.63051 8.66671 7.9987 8.66671Z" stroke="#020817" stroke-linecap="round" stroke-linejoin="round"/>
<path d="M12.6667 8.66671C13.0349 8.66671 13.3333 8.36823 13.3333 8.00004C13.3333 7.63185 13.0349 7.33337 12.6667 7.33337C12.2985 7.33337 12 7.63185 12 8.00004C12 8.36823 12.2985 8.66671 12.6667 8.66671Z" stroke="#020817" stroke-linecap="round" stroke-linejoin="round"/>
<path d="M3.33464 8.66671C3.70283 8.66671 4.0013 8.36823 4.0013 8.00004C4.0013 7.63185 3.70283 7.33337 3.33464 7.33337C2.96645 7.33337 2.66797 7.63185 2.66797 8.00004C2.66797 8.36823 2.96645 8.66671 3.33464 8.66671Z" stroke="#020817" stroke-linecap="round" stroke-linejoin="round"/>
</svg>
