<svg width="16" height="16" viewBox="0 0 16 16" fill="none" xmlns="http://www.w3.org/2000/svg">
<path d="M7.9987 14.6663C11.6806 14.6663 14.6654 11.6816 14.6654 7.99967C14.6654 4.31778 11.6806 1.33301 7.9987 1.33301C4.3168 1.33301 1.33203 4.31778 1.33203 7.99967C1.33203 11.6816 4.3168 14.6663 7.9987 14.6663Z" stroke="white" stroke-width="1.33333" stroke-linecap="round" stroke-linejoin="round"/>
<path d="M7.9987 10.6663C9.47146 10.6663 10.6654 9.47243 10.6654 7.99967C10.6654 6.52692 9.47146 5.33301 7.9987 5.33301C6.52594 5.33301 5.33203 6.52692 5.33203 7.99967C5.33203 9.47243 6.52594 10.6663 7.9987 10.6663Z" stroke="white" stroke-width="1.33333" stroke-linecap="round" stroke-linejoin="round"/>
<path d="M14.1133 5.33301H8" stroke="white" stroke-width="1.33333" stroke-linecap="round" stroke-linejoin="round"/>
<path d="M2.63281 4.04004L5.69281 9.33337" stroke="white" stroke-width="1.33333" stroke-linecap="round" stroke-linejoin="round"/>
<path d="M7.25391 14.6263L10.3072 9.33301" stroke="white" stroke-width="1.33333" stroke-linecap="round" stroke-linejoin="round"/>
</svg>
