<svg width="16" height="16" viewBox="0 0 16 16" fill="none" xmlns="http://www.w3.org/2000/svg">
<path d="M11.3359 1.33398H4.66927C2.82832 1.33398 1.33594 2.82637 1.33594 4.66732V11.334C1.33594 13.1749 2.82832 14.6673 4.66927 14.6673H11.3359C13.1769 14.6673 14.6693 13.1749 14.6693 11.334V4.66732C14.6693 2.82637 13.1769 1.33398 11.3359 1.33398Z" stroke="#020817" stroke-width="1.33333" stroke-linecap="round" stroke-linejoin="round"/>
<path d="M10.6639 7.5802C10.7461 8.13503 10.6514 8.70168 10.393 9.19954C10.1347 9.69741 9.72596 10.1011 9.22495 10.3533C8.72394 10.6055 8.15617 10.6933 7.60239 10.6042C7.04862 10.515 6.53704 10.2536 6.14043 9.85698C5.74381 9.46036 5.48236 8.94878 5.39325 8.39501C5.30414 7.84124 5.39191 7.27346 5.64408 6.77245C5.89626 6.27144 6.29999 5.86269 6.79786 5.60436C7.29572 5.34603 7.86237 5.25126 8.4172 5.33353C8.98315 5.41746 9.5071 5.68118 9.91166 6.08574C10.3162 6.4903 10.5799 7.01425 10.6639 7.5802Z" stroke="#020817" stroke-width="1.33333" stroke-linecap="round" stroke-linejoin="round"/>
<path d="M11.6641 4.33398H11.6707" stroke="#020817" stroke-width="1.33333" stroke-linecap="round" stroke-linejoin="round"/>
</svg>
