<svg width="18" height="19" viewBox="0 0 18 19" fill="none" xmlns="http://www.w3.org/2000/svg">
<path d="M8.66962 2.9495C8.70199 2.89071 8.74955 2.84168 8.80733 2.80753C8.86512 2.77338 8.931 2.75537 8.99812 2.75537C9.06524 2.75537 9.13113 2.77338 9.18891 2.80753C9.24669 2.84168 9.29425 2.89071 9.32662 2.9495L11.5406 7.1525C11.5934 7.24983 11.6671 7.33425 11.7564 7.39972C11.8457 7.46518 11.9484 7.51007 12.0571 7.53115C12.1658 7.55223 12.2778 7.54898 12.3851 7.52164C12.4924 7.49429 12.5923 7.44354 12.6776 7.373L15.8854 4.625C15.9469 4.57492 16.0228 4.54567 16.1021 4.54145C16.1814 4.53724 16.2599 4.55829 16.3264 4.60156C16.393 4.64484 16.4441 4.70811 16.4724 4.78227C16.5007 4.85643 16.5047 4.93766 16.4839 5.01425L14.3584 12.6988C14.315 12.856 14.2215 12.9948 14.0921 13.0942C13.9627 13.1935 13.8045 13.248 13.6414 13.2493H4.35562C4.19237 13.2481 4.03395 13.1937 3.90441 13.0944C3.77488 12.995 3.68129 12.8561 3.63787 12.6988L1.51312 5.015C1.49231 4.93841 1.49634 4.85718 1.52463 4.78302C1.55292 4.70886 1.60401 4.64559 1.67055 4.60231C1.73709 4.55904 1.81564 4.53799 1.8949 4.5422C1.97416 4.54642 2.05004 4.57567 2.11162 4.62575L5.31862 7.37375C5.40397 7.44429 5.50388 7.49504 5.61117 7.52239C5.71846 7.54973 5.83047 7.55298 5.93917 7.5319C6.04787 7.51082 6.15055 7.46593 6.23984 7.40047C6.32913 7.335 6.40282 7.25058 6.45562 7.15325L8.66962 2.9495Z" stroke="#D97706" stroke-width="1.5" stroke-linecap="round" stroke-linejoin="round"/>
<path d="M3.75 16.25H14.25" stroke="#D97706" stroke-width="1.5" stroke-linecap="round" stroke-linejoin="round"/>
</svg>
