<svg width="17" height="16" viewBox="0 0 17 16" fill="none" xmlns="http://www.w3.org/2000/svg">
<path d="M8.50065 14.6663C12.1825 14.6663 15.1673 11.6816 15.1673 7.99967C15.1673 4.31778 12.1825 1.33301 8.50065 1.33301C4.81875 1.33301 1.83398 4.31778 1.83398 7.99967C1.83398 11.6816 4.81875 14.6663 8.50065 14.6663Z" stroke="#71717A" stroke-width="1.33333" stroke-linecap="round" stroke-linejoin="round"/>
<path d="M11.1673 5.33301H7.16732C6.8137 5.33301 6.47456 5.47348 6.22451 5.72353C5.97446 5.97358 5.83398 6.31272 5.83398 6.66634C5.83398 7.01996 5.97446 7.3591 6.22451 7.60915C6.47456 7.8592 6.8137 7.99967 7.16732 7.99967H9.83398C10.1876 7.99967 10.5267 8.14015 10.7768 8.3902C11.0268 8.64025 11.1673 8.97939 11.1673 9.33301C11.1673 9.68663 11.0268 10.0258 10.7768 10.2758C10.5267 10.5259 10.1876 10.6663 9.83398 10.6663H5.83398" stroke="#71717A" stroke-width="1.33333" stroke-linecap="round" stroke-linejoin="round"/>
<path d="M8.5 12V4" stroke="#71717A" stroke-width="1.33333" stroke-linecap="round" stroke-linejoin="round"/>
</svg>
