<svg width="21" height="21" viewBox="0 0 21 21" fill="none" xmlns="http://www.w3.org/2000/svg">
<path d="M4.08227 12.1662C3.92457 12.1668 3.76996 12.1226 3.6364 12.0387C3.50283 11.9549 3.3958 11.8349 3.32773 11.6926C3.25966 11.5504 3.23335 11.3917 3.25185 11.2351C3.27036 11.0785 3.33292 10.9304 3.43227 10.8079L11.6823 2.3079C11.7442 2.23647 11.8285 2.1882 11.9214 2.17101C12.0144 2.15382 12.1104 2.16874 12.1937 2.21332C12.277 2.2579 12.3428 2.32948 12.38 2.41632C12.4173 2.50317 12.424 2.60011 12.3989 2.69123L10.7989 7.7079C10.7518 7.83417 10.7359 7.97 10.7528 8.10374C10.7696 8.23748 10.8187 8.36513 10.8957 8.47575C10.9727 8.58638 11.0754 8.67666 11.195 8.73887C11.3146 8.80107 11.4475 8.83334 11.5823 8.8329H17.4156C17.5733 8.83236 17.7279 8.87658 17.8615 8.96042C17.995 9.04425 18.1021 9.16427 18.1701 9.30652C18.2382 9.44877 18.2645 9.60741 18.246 9.76402C18.2275 9.92062 18.165 10.0688 18.0656 10.1912L9.8156 18.6912C9.75372 18.7627 9.66939 18.8109 9.57645 18.8281C9.48352 18.8453 9.3875 18.8304 9.30416 18.7858C9.22082 18.7412 9.15511 18.6697 9.11782 18.5828C9.08053 18.496 9.07387 18.399 9.09894 18.3079L10.6989 13.2912C10.7461 13.165 10.762 13.0291 10.7451 12.8954C10.7283 12.7617 10.6792 12.634 10.6022 12.5234C10.5252 12.4128 10.4225 12.3225 10.3029 12.2603C10.1833 12.1981 10.0504 12.1658 9.9156 12.1662H4.08227Z" stroke="#0080FF" stroke-width="1.33333" stroke-linecap="round" stroke-linejoin="round"/>
</svg>
