<svg width="33" height="32" viewBox="0 0 33 32" fill="none" xmlns="http://www.w3.org/2000/svg">
<rect x="0.664062" width="32" height="32" rx="16" fill="black"/>
<path d="M23.2464 14.7397C22.0426 14.7426 20.8683 14.3672 19.8895 13.6665V18.5534C19.8891 19.4585 19.6125 20.3419 19.0965 21.0855C18.5805 21.8292 17.8498 22.3975 17.0021 22.7147C16.1544 23.0318 15.2301 23.0826 14.3527 22.8602C13.4753 22.6378 12.6868 22.1529 12.0925 21.4703C11.4981 20.7876 11.1264 19.9398 11.0269 19.0402C10.9275 18.1406 11.105 17.232 11.5358 16.436C11.9667 15.64 12.6302 14.9946 13.4378 14.5859C14.2454 14.1772 15.1585 14.0248 16.055 14.1491V16.607C15.6448 16.478 15.2043 16.4819 14.7963 16.6181C14.3884 16.7544 14.034 17.0161 13.7837 17.3658C13.5334 17.7155 13.3999 18.1354 13.4025 18.5654C13.405 18.9955 13.5434 19.4138 13.7978 19.7605C14.0522 20.1072 14.4097 20.3647 14.8192 20.4962C15.2287 20.6276 15.6692 20.6263 16.0779 20.4924C16.4866 20.3586 16.8426 20.099 17.095 19.7507C17.3473 19.4025 17.4832 18.9834 17.4832 18.5534V9H19.8895C19.8878 9.2032 19.9048 9.40613 19.9403 9.60621C20.0239 10.0529 20.1978 10.4778 20.4512 10.8549C20.7047 11.2321 21.0324 11.5536 21.4144 11.7997C21.9578 12.159 22.595 12.3506 23.2464 12.3504V14.7397Z" fill="white"/>
</svg>
