<svg width="57" height="56" viewBox="0 0 57 56" fill="none" xmlns="http://www.w3.org/2000/svg">
<rect x="0.625" width="56" height="56" rx="28" fill="#DCFCE7"/>
<path d="M27.2891 34.6654L29.9557 37.332C30.2184 37.5947 30.5302 37.803 30.8733 37.9452C31.2165 38.0873 31.5843 38.1605 31.9557 38.1605C32.3272 38.1605 32.695 38.0873 33.0381 37.9452C33.3813 37.803 33.6931 37.5947 33.9557 37.332C34.2184 37.0694 34.4267 36.7576 34.5689 36.4144C34.711 36.0713 34.7842 35.7035 34.7842 35.332C34.7842 34.9606 34.711 34.5928 34.5689 34.2496C34.4267 33.9065 34.2184 33.5947 33.9557 33.332" stroke="#16A34A" stroke-width="2.66667" stroke-linecap="round" stroke-linejoin="round"/>
<path d="M31.292 30.6673L34.6253 34.0007C35.1557 34.5311 35.8752 34.8291 36.6253 34.8291C37.3754 34.8291 38.0949 34.5311 38.6253 34.0007C39.1557 33.4702 39.4537 32.7508 39.4537 32.0007C39.4537 31.2505 39.1557 30.5311 38.6253 30.0007L33.452 24.8273C32.702 24.0783 31.6853 23.6575 30.6253 23.6575C29.5653 23.6575 28.5486 24.0783 27.7986 24.8273L26.6253 26.0007C26.0949 26.5311 25.3754 26.8291 24.6253 26.8291C23.8752 26.8291 23.1557 26.5311 22.6253 26.0007C22.0949 25.4702 21.7969 24.7508 21.7969 24.0007C21.7969 23.2505 22.0949 22.5311 22.6253 22.0007L26.372 18.254C27.5883 17.0409 29.1745 16.2681 30.8795 16.058C32.5845 15.8479 34.3109 16.2124 35.7853 17.094L36.412 17.4673C36.9797 17.81 37.6547 17.9288 38.3053 17.8007L40.6253 17.334" stroke="#16A34A" stroke-width="2.66667" stroke-linecap="round" stroke-linejoin="round"/>
<path d="M40.6224 16L41.9557 30.6667H39.2891" stroke="#16A34A" stroke-width="2.66667" stroke-linecap="round" stroke-linejoin="round"/>
<path d="M16.6224 16L15.2891 30.6667L23.9557 39.3333C24.4862 39.8638 25.2056 40.1618 25.9557 40.1618C26.7059 40.1618 27.4253 39.8638 27.9557 39.3333C28.4862 38.8029 28.7842 38.0835 28.7842 37.3333C28.7842 36.5832 28.4862 35.8638 27.9557 35.3333" stroke="#16A34A" stroke-width="2.66667" stroke-linecap="round" stroke-linejoin="round"/>
<path d="M16.625 17.332H27.2917" stroke="#16A34A" stroke-width="2.66667" stroke-linecap="round" stroke-linejoin="round"/>
</svg>
