<svg width="17" height="17" viewBox="0 0 17 17" fill="none" xmlns="http://www.w3.org/2000/svg">
<path d="M2.5 9.83333H4.5C4.85362 9.83333 5.19276 9.97381 5.44281 10.2239C5.69286 10.4739 5.83333 10.813 5.83333 11.1667V13.1667C5.83333 13.5203 5.69286 13.8594 5.44281 14.1095C5.19276 14.3595 4.85362 14.5 4.5 14.5H3.83333C3.47971 14.5 3.14057 14.3595 2.89052 14.1095C2.64048 13.8594 2.5 13.5203 2.5 13.1667V8.5C2.5 6.9087 3.13214 5.38258 4.25736 4.25736C5.38258 3.13214 6.9087 2.5 8.5 2.5C10.0913 2.5 11.6174 3.13214 12.7426 4.25736C13.8679 5.38258 14.5 6.9087 14.5 8.5V13.1667C14.5 13.5203 14.3595 13.8594 14.1095 14.1095C13.8594 14.3595 13.5203 14.5 13.1667 14.5H12.5C12.1464 14.5 11.8072 14.3595 11.5572 14.1095C11.3071 13.8594 11.1667 13.5203 11.1667 13.1667V11.1667C11.1667 10.813 11.3071 10.4739 11.5572 10.2239C11.8072 9.97381 12.1464 9.83333 12.5 9.83333H14.5" stroke="#0080FF" stroke-width="1.33333" stroke-linecap="round" stroke-linejoin="round"/>
</svg>
