<svg width="17" height="17" viewBox="0 0 17 17" fill="none" xmlns="http://www.w3.org/2000/svg">
<path d="M1.95703 7.16783V9.8345C1.95703 11.1678 2.6237 11.8345 3.95703 11.8345H4.91036C5.15703 11.8345 5.4037 11.9078 5.61703 12.0345L7.5637 13.2545C9.2437 14.3078 10.6237 13.5412 10.6237 11.5612V5.44116C10.6237 3.45449 9.2437 2.69449 7.5637 3.74783L5.61703 4.96783C5.4037 5.09449 5.15703 5.16783 4.91036 5.16783H3.95703C2.6237 5.16783 1.95703 5.83449 1.95703 7.16783Z" stroke="#71717A"/>
<path d="M12.625 5.83301C13.8117 7.41301 13.8117 9.58634 12.625 11.1663" stroke="#71717A" stroke-linecap="round" stroke-linejoin="round"/>
<path d="M13.8438 4.16699C15.7704 6.73366 15.7704 10.267 13.8438 12.8337" stroke="#71717A" stroke-linecap="round" stroke-linejoin="round"/>
</svg>
