<svg width="57" height="56" viewBox="0 0 57 56" fill="none" xmlns="http://www.w3.org/2000/svg">
<rect x="0.625" width="56" height="56" rx="28" fill="#DBEAFE"/>
<path d="M33.9557 40V37.3333C33.9557 35.9188 33.3938 34.5623 32.3936 33.5621C31.3934 32.5619 30.0369 32 28.6224 32H20.6224C19.2079 32 17.8514 32.5619 16.8512 33.5621C15.851 34.5623 15.2891 35.9188 15.2891 37.3333V40" stroke="#2563EB" stroke-width="2.66667" stroke-linecap="round" stroke-linejoin="round"/>
<path d="M24.6224 26.6667C27.5679 26.6667 29.9557 24.2789 29.9557 21.3333C29.9557 18.3878 27.5679 16 24.6224 16C21.6769 16 19.2891 18.3878 19.2891 21.3333C19.2891 24.2789 21.6769 26.6667 24.6224 26.6667Z" stroke="#2563EB" stroke-width="2.66667" stroke-linecap="round" stroke-linejoin="round"/>
<path d="M41.9609 39.9985V37.3319C41.9601 36.1502 41.5667 35.0022 40.8428 34.0683C40.1188 33.1344 39.1051 32.4673 37.9609 32.1719" stroke="#2563EB" stroke-width="2.66667" stroke-linecap="round" stroke-linejoin="round"/>
<path d="M33.9609 16.1719C35.1082 16.4656 36.125 17.1328 36.8511 18.0683C37.5773 19.0038 37.9714 20.1543 37.9714 21.3385C37.9714 22.5228 37.5773 23.6733 36.8511 24.6088C36.125 25.5443 35.1082 26.2115 33.9609 26.5052" stroke="#2563EB" stroke-width="2.66667" stroke-linecap="round" stroke-linejoin="round"/>
</svg>
