<svg width="21" height="20" viewBox="0 0 21 20" fill="none" xmlns="http://www.w3.org/2000/svg">
<path d="M17.3333 10.8334C17.3333 15 14.4167 17.0834 10.95 18.2917C10.7685 18.3532 10.5713 18.3503 10.3917 18.2834C6.91667 17.0834 4 15 4 10.8334V5.00003C4 4.77902 4.0878 4.56705 4.24408 4.41077C4.40036 4.25449 4.61232 4.1667 4.83333 4.1667C6.5 4.1667 8.58333 3.1667 10.0333 1.90003C10.2099 1.74919 10.4345 1.66632 10.6667 1.66632C10.8989 1.66632 11.1235 1.74919 11.3 1.90003C12.7583 3.17503 14.8333 4.1667 16.5 4.1667C16.721 4.1667 16.933 4.25449 17.0893 4.41077C17.2455 4.56705 17.3333 4.77902 17.3333 5.00003V10.8334Z" stroke="#0080FF" stroke-width="1.66667" stroke-linecap="round" stroke-linejoin="round"/>
</svg>
