<svg width="16" height="16" viewBox="0 0 16 16" fill="none" xmlns="http://www.w3.org/2000/svg">
<path d="M4 6C5.10457 6 6 5.10457 6 4C6 2.89543 5.10457 2 4 2C2.89543 2 2 2.89543 2 4C2 5.10457 2.89543 6 4 6Z" stroke="#020817" stroke-linecap="round" stroke-linejoin="round"/>
<path d="M5.41406 5.41333L8.00073 8" stroke="#020817" stroke-linecap="round" stroke-linejoin="round"/>
<path d="M13.3341 2.66669L5.41406 10.5867" stroke="#020817" stroke-linecap="round" stroke-linejoin="round"/>
<path d="M4 14C5.10457 14 6 13.1046 6 12C6 10.8954 5.10457 10 4 10C2.89543 10 2 10.8954 2 12C2 13.1046 2.89543 14 4 14Z" stroke="#020817" stroke-linecap="round" stroke-linejoin="round"/>
<path d="M9.86719 9.86664L13.3339 13.3333" stroke="#020817" stroke-linecap="round" stroke-linejoin="round"/>
</svg>
