<svg width="16" height="17" viewBox="0 0 16 17" fill="none" xmlns="http://www.w3.org/2000/svg">
<path d="M9.9974 1.43201H3.9974C3.64377 1.43201 3.30464 1.57248 3.05459 1.82253C2.80454 2.07258 2.66406 2.41172 2.66406 2.76534V13.432C2.66406 13.7856 2.80454 14.1248 3.05459 14.3748C3.30464 14.6249 3.64377 14.7653 3.9974 14.7653H11.9974C12.351 14.7653 12.6902 14.6249 12.9402 14.3748C13.1903 14.1248 13.3307 13.7856 13.3307 13.432V4.76534L9.9974 1.43201Z" stroke="#0080FF" stroke-width="1.33333" stroke-linecap="round" stroke-linejoin="round"/>
<path d="M9.33203 1.43201V4.09867C9.33203 4.4523 9.47251 4.79143 9.72256 5.04148C9.9726 5.29153 10.3117 5.43201 10.6654 5.43201H13.332" stroke="#0080FF" stroke-width="1.33333" stroke-linecap="round" stroke-linejoin="round"/>
<path d="M6.6645 6.09998H5.33203" stroke="#0080FF" stroke-width="1.33333" stroke-linecap="round" stroke-linejoin="round"/>
<path d="M10.6654 8.76404H5.33203" stroke="#0080FF" stroke-width="1.33333" stroke-linecap="round" stroke-linejoin="round"/>
<path d="M10.6654 11.432H5.33203" stroke="#0080FF" stroke-width="1.33333" stroke-linecap="round" stroke-linejoin="round"/>
</svg>
