<svg width="33" height="33" viewBox="0 0 33 33" fill="none" xmlns="http://www.w3.org/2000/svg">
<rect x="0.5" y="0.5" width="32" height="32" rx="16" fill="#DCFCE7"/>
<path d="M21.1667 10.5H11.8333C11.097 10.5 10.5 11.097 10.5 11.8333V21.1667C10.5 21.903 11.097 22.5 11.8333 22.5H21.1667C21.903 22.5 22.5 21.903 22.5 21.1667V11.8333C22.5 11.097 21.903 10.5 21.1667 10.5Z" stroke="#22C55E" stroke-width="1.33333" stroke-linecap="round" stroke-linejoin="round"/>
<path d="M14.5013 15.8337C15.2377 15.8337 15.8346 15.2367 15.8346 14.5003C15.8346 13.7639 15.2377 13.167 14.5013 13.167C13.7649 13.167 13.168 13.7639 13.168 14.5003C13.168 15.2367 13.7649 15.8337 14.5013 15.8337Z" stroke="#22C55E" stroke-width="1.33333" stroke-linecap="round" stroke-linejoin="round"/>
<path d="M22.5 18.5004L20.4427 16.4431C20.1926 16.1932 19.8536 16.0527 19.5 16.0527C19.1464 16.0527 18.8074 16.1932 18.5573 16.4431L12.5 22.5004" stroke="#22C55E" stroke-width="1.33333" stroke-linecap="round" stroke-linejoin="round"/>
</svg>
