<svg width="17" height="17" viewBox="0 0 17 17" fill="none" xmlns="http://www.w3.org/2000/svg">
<path d="M10.7201 1.83301H4.72005C4.36643 1.83301 4.02729 1.97348 3.77724 2.22353C3.52719 2.47358 3.38672 2.81272 3.38672 3.16634V13.833C3.38672 14.1866 3.52719 14.5258 3.77724 14.7758C4.02729 15.0259 4.36643 15.1663 4.72005 15.1663H12.7201C13.0737 15.1663 13.4128 15.0259 13.6629 14.7758C13.9129 14.5258 14.0534 14.1866 14.0534 13.833V5.16634L10.7201 1.83301Z" stroke="#71717A" stroke-width="1.33333" stroke-linecap="round" stroke-linejoin="round"/>
<path d="M10.0508 1.83301V4.49967C10.0508 4.8533 10.1913 5.19244 10.4413 5.44248C10.6914 5.69253 11.0305 5.83301 11.3841 5.83301H14.0508" stroke="#71717A" stroke-width="1.33333" stroke-linecap="round" stroke-linejoin="round"/>
<path d="M7.38411 6.5H6.05078" stroke="#71717A" stroke-width="1.33333" stroke-linecap="round" stroke-linejoin="round"/>
<path d="M11.3841 9.16699H6.05078" stroke="#71717A" stroke-width="1.33333" stroke-linecap="round" stroke-linejoin="round"/>
<path d="M11.3841 11.833H6.05078" stroke="#71717A" stroke-width="1.33333" stroke-linecap="round" stroke-linejoin="round"/>
</svg>
