<svg width="25" height="25" viewBox="0 0 25 25" fill="none" xmlns="http://www.w3.org/2000/svg">
<path d="M19.8332 3.87378H5.83901C4.7349 3.87378 3.83984 4.76884 3.83984 5.87295V19.8671C3.83984 20.9712 4.7349 21.8663 5.83901 21.8663H19.8332C20.9373 21.8663 21.8323 20.9712 21.8323 19.8671V5.87295C21.8323 4.76884 20.9373 3.87378 19.8332 3.87378Z" stroke="#0080FF" stroke-width="1.99943" stroke-linecap="round" stroke-linejoin="round"/>
<path d="M9.83536 11.8709C10.9396 11.8709 11.8348 10.9757 11.8348 9.8715C11.8348 8.76724 10.9396 7.87207 9.83536 7.87207C8.73111 7.87207 7.83594 8.76724 7.83594 9.8715C7.83594 10.9757 8.73111 11.8709 9.83536 11.8709Z" stroke="#0080FF" stroke-width="1.99943" stroke-linecap="round" stroke-linejoin="round"/>
<path d="M21.8297 15.8688L18.745 12.7841C18.3701 12.4093 17.8617 12.1987 17.3316 12.1987C16.8015 12.1987 16.2931 12.4093 15.9182 12.7841L6.83594 21.8663" stroke="#0080FF" stroke-width="1.99943" stroke-linecap="round" stroke-linejoin="round"/>
</svg>
