<svg width="16" height="16" viewBox="0 0 16 16" fill="none" xmlns="http://www.w3.org/2000/svg">
<path d="M1.44294 3.47241H8.09756C8.29813 4.38532 9.11339 5.07069 10.0857 5.07069C11.0579 5.07069 11.8732 4.38535 12.0738 3.47241H14.5552C14.7966 3.47241 14.9923 3.2767 14.9923 3.03533C14.9923 2.79395 14.7966 2.59825 14.5552 2.59825H12.0735C11.8726 1.6858 11.0562 1 10.0857 1C9.11459 1 8.29859 1.68569 8.09773 2.59825H1.44294C1.20156 2.59825 1.00586 2.79395 1.00586 3.03533C1.00586 3.2767 1.20156 3.47241 1.44294 3.47241ZM8.92451 3.03648C8.92451 3.03492 8.92454 3.03333 8.92454 3.03178C8.92645 2.39345 9.44731 1.87418 10.0857 1.87418C10.7231 1.87418 11.244 2.39274 11.2468 3.03077L11.2468 3.03719C11.2458 3.6766 10.7253 4.19656 10.0857 4.19656C9.44627 4.19656 8.92593 3.67712 8.92449 3.03809L8.92451 3.03648ZM14.5552 12.5276H12.0735C11.8726 11.6151 11.0562 10.9293 10.0857 10.9293C9.11459 10.9293 8.29859 11.615 8.09773 12.5276H1.44294C1.20156 12.5276 1.00586 12.7232 1.00586 12.9646C1.00586 13.206 1.20156 13.4017 1.44294 13.4017H8.09756C8.29813 14.3146 9.11339 15 10.0857 15C11.0579 15 11.8732 14.3146 12.0738 13.4017H14.5552C14.7966 13.4017 14.9923 13.206 14.9923 12.9646C14.9923 12.7232 14.7966 12.5276 14.5552 12.5276ZM10.0857 14.1258C9.44627 14.1258 8.92593 13.6064 8.92449 12.9674L8.92451 12.9658C8.92451 12.9642 8.92454 12.9626 8.92454 12.9611C8.92645 12.3228 9.44731 11.8035 10.0857 11.8035C10.7231 11.8035 11.244 12.322 11.2468 12.96L11.2468 12.9664C11.2459 13.6059 10.7254 14.1258 10.0857 14.1258ZM14.5552 7.56292H7.90061C7.70004 6.65001 6.88479 5.96467 5.91251 5.96467C4.94023 5.96467 4.12497 6.65001 3.92441 7.56292H1.44294C1.20156 7.56292 1.00586 7.75862 1.00586 8C1.00586 8.2414 1.20156 8.43708 1.44294 8.43708H3.92463C4.1256 9.3495 4.94195 10.0353 5.91251 10.0353C6.88358 10.0353 7.69958 9.34961 7.90044 8.43708H14.5552C14.7966 8.43708 14.9923 8.2414 14.9923 8C14.9923 7.75862 14.7966 7.56292 14.5552 7.56292ZM7.07366 7.99885C7.07366 8.00044 7.07363 8.00199 7.07363 8.00355C7.07172 8.64187 6.55086 9.16115 5.91251 9.16115C5.27506 9.16115 4.75417 8.64258 4.75142 8.00459L4.75133 7.9982C4.75229 7.3587 5.27282 6.83882 5.91251 6.83882C6.5519 6.83882 7.07224 7.35823 7.07368 7.9973L7.07366 7.99885Z" fill="#09090B"/>
</svg>
