<svg width="17" height="16" viewBox="0 0 17 16" fill="none" xmlns="http://www.w3.org/2000/svg">
<path d="M8.50065 14.6663C12.1825 14.6663 15.1673 11.6816 15.1673 7.99967C15.1673 4.31778 12.1825 1.33301 8.50065 1.33301C4.81875 1.33301 1.83398 4.31778 1.83398 7.99967C1.83398 11.6816 4.81875 14.6663 8.50065 14.6663Z" stroke="#09090B" stroke-width="1.33333" stroke-linecap="round" stroke-linejoin="round"/>
<path d="M8.5 12C10.7091 12 12.5 10.2091 12.5 8C12.5 5.79086 10.7091 4 8.5 4C6.29086 4 4.5 5.79086 4.5 8C4.5 10.2091 6.29086 12 8.5 12Z" stroke="#09090B" stroke-width="1.33333" stroke-linecap="round" stroke-linejoin="round"/>
<path d="M8.49935 9.33366C9.23573 9.33366 9.83268 8.73671 9.83268 8.00033C9.83268 7.26395 9.23573 6.66699 8.49935 6.66699C7.76297 6.66699 7.16602 7.26395 7.16602 8.00033C7.16602 8.73671 7.76297 9.33366 8.49935 9.33366Z" stroke="#09090B" stroke-width="1.33333" stroke-linecap="round" stroke-linejoin="round"/>
</svg>
