<svg width="49" height="48" viewBox="0 0 49 48" fill="none" xmlns="http://www.w3.org/2000/svg">
<rect x="0.5" width="48" height="48" rx="12" fill="#0080FF" fill-opacity="0.1"/>
<path d="M31.5 19V16C31.5 15.7348 31.3946 15.4804 31.2071 15.2929C31.0196 15.1054 30.7652 15 30.5 15H17.5C16.9696 15 16.4609 15.2107 16.0858 15.5858C15.7107 15.9609 15.5 16.4696 15.5 17C15.5 17.5304 15.7107 18.0391 16.0858 18.4142C16.4609 18.7893 16.9696 19 17.5 19H32.5C32.7652 19 33.0196 19.1054 33.2071 19.2929C33.3946 19.4804 33.5 19.7348 33.5 20V24M33.5 24H30.5C29.9696 24 29.4609 24.2107 29.0858 24.5858C28.7107 24.9609 28.5 25.4696 28.5 26C28.5 26.5304 28.7107 27.0391 29.0858 27.4142C29.4609 27.7893 29.9696 28 30.5 28H33.5C33.7652 28 34.0196 27.8946 34.2071 27.7071C34.3946 27.5196 34.5 27.2652 34.5 27V25C34.5 24.7348 34.3946 24.4804 34.2071 24.2929C34.0196 24.1054 33.7652 24 33.5 24Z" stroke="#0080FF" stroke-width="2" stroke-linecap="round" stroke-linejoin="round"/>
<path d="M15.5 17V31C15.5 31.5304 15.7107 32.0391 16.0858 32.4142C16.4609 32.7893 16.9696 33 17.5 33H32.5C32.7652 33 33.0196 32.8946 33.2071 32.7071C33.3946 32.5196 33.5 32.2652 33.5 32V28" stroke="#0080FF" stroke-width="2" stroke-linecap="round" stroke-linejoin="round"/>
</svg>
