<svg width="16" height="16" viewBox="0 0 16 16" fill="none" xmlns="http://www.w3.org/2000/svg">
<path d="M6.00261 8.00065C5.47519 8.00065 4.95962 8.15705 4.52108 8.45007C4.08255 8.74308 3.74076 9.15956 3.53893 9.64683C3.33709 10.1341 3.28428 10.6703 3.38718 11.1876C3.49007 11.7048 3.74405 12.18 4.11699 12.5529C4.48993 12.9259 4.96508 13.1799 5.48236 13.2827C5.99965 13.3856 6.53583 13.3328 7.0231 13.131C7.51036 12.9292 7.92684 12.5874 8.21986 12.1488C8.51288 11.7103 8.66927 11.1947 8.66927 10.6673V2.66732C8.66927 1.93398 9.26927 1.33398 10.0026 1.33398H11.3359" stroke="#020817" stroke-width="1.33333" stroke-linecap="round" stroke-linejoin="round"/>
<path d="M10.6641 5.33398H13.9974" stroke="#020817" stroke-width="1.33333" stroke-linecap="round" stroke-linejoin="round"/>
<path d="M13.9974 5.33398C13.9974 6.21804 13.6462 7.06589 13.0211 7.69101C12.396 8.31613 11.5481 8.66732 10.6641 8.66732" stroke="#020817" stroke-width="1.33333" stroke-linecap="round" stroke-linejoin="round"/>
</svg>
