<svg width="28" height="29" viewBox="0 0 28 29" fill="none" xmlns="http://www.w3.org/2000/svg">
<g clip-path="url(#clip0_348_5630)">
<mask id="mask0_348_5630" style="mask-type:luminance" maskUnits="userSpaceOnUse" x="-1" y="0" width="29" height="29">
<path d="M-0.03125 0.515627H27.9687V28.5156H-0.03125V0.515627Z" fill="white"/>
</mask>
<g mask="url(#mask0_348_5630)">
<path d="M13.9687 1.60938C21.0967 1.60938 26.875 7.38771 26.875 14.5156C26.875 21.6435 21.0967 27.4219 13.9687 27.4219C6.84084 27.4219 1.0625 21.6435 1.0625 14.5156C1.0625 7.38771 6.84084 1.60938 13.9687 1.60938Z" stroke="#09090B" stroke-width="2.1875" stroke-miterlimit="10" stroke-linecap="round" stroke-linejoin="round"/>
<path d="M18.5078 20.4766C18.5078 20.4766 16.8373 17.8516 13.9141 17.8516C10.9908 17.8516 9.32031 20.4766 9.32031 20.4766" stroke="#09090B" stroke-width="2.1875" stroke-miterlimit="10" stroke-linecap="round" stroke-linejoin="round"/>
<path d="M19.2578 12.9805C19.2578 12.2254 18.6457 11.6133 17.8906 11.6133C17.1356 11.6133 16.5234 12.2254 16.5234 12.9805C16.5234 13.7355 17.1356 14.3477 17.8906 14.3477C18.6457 14.3477 19.2578 13.7355 19.2578 12.9805Z" fill="#09090B"/>
<path d="M17.6182 13.0938C17.1271 12.6026 17.1273 11.8062 17.6187 11.3153L17.6961 11.2381C18.3219 10.584 19.1688 10.2334 20.3175 10.0842" stroke="#09090B" stroke-width="2.1875" stroke-miterlimit="10" stroke-linecap="round" stroke-linejoin="round"/>
<path d="M8.69531 12.9805C8.69531 12.2254 9.30737 11.6133 10.0625 11.6133C10.8176 11.6133 11.4297 12.2254 11.4297 12.9805C11.4297 13.7355 10.8176 14.3477 10.0625 14.3477C9.30737 14.3477 8.69531 13.7355 8.69531 12.9805Z" fill="#09090B"/>
<path d="M10.3243 13.0938C10.8154 12.6026 10.8152 11.8062 10.3238 11.3153L10.2464 11.2381C9.6206 10.584 8.77371 10.2334 7.625 10.0842" stroke="#09090B" stroke-width="2.1875" stroke-miterlimit="10" stroke-linecap="round" stroke-linejoin="round"/>
</g>
</g>
<defs>
<clipPath id="clip0_348_5630">
<rect width="28" height="28" fill="white" transform="translate(0 0.5)"/>
</clipPath>
</defs>
</svg>
