<svg width="31" height="30" viewBox="0 0 31 30" fill="none" xmlns="http://www.w3.org/2000/svg">
<path d="M0.5 15C0.5 6.71573 7.21573 0 15.5 0C23.7843 0 30.5 6.71573 30.5 15C30.5 23.2843 23.7843 30 15.5 30C7.21573 30 0.5 23.2843 0.5 15Z" fill="#0080FF" fill-opacity="0.1"/>
<path d="M19.5833 9.75H11.4167C10.7723 9.75 10.25 10.2723 10.25 10.9167V19.0833C10.25 19.7277 10.7723 20.25 11.4167 20.25H19.5833C20.2277 20.25 20.75 19.7277 20.75 19.0833V10.9167C20.75 10.2723 20.2277 9.75 19.5833 9.75Z" stroke="#0080FF" stroke-width="1.16667" stroke-linecap="round" stroke-linejoin="round"/>
<path d="M13.7507 14.4163C14.395 14.4163 14.9173 13.894 14.9173 13.2497C14.9173 12.6053 14.395 12.083 13.7507 12.083C13.1063 12.083 12.584 12.6053 12.584 13.2497C12.584 13.894 13.1063 14.4163 13.7507 14.4163Z" stroke="#0080FF" stroke-width="1.16667" stroke-linecap="round" stroke-linejoin="round"/>
<path d="M20.75 16.7501L18.9498 14.95C18.7311 14.7313 18.4344 14.6084 18.125 14.6084C17.8156 14.6084 17.5189 14.7313 17.3002 14.95L12 20.2501" stroke="#0080FF" stroke-width="1.16667" stroke-linecap="round" stroke-linejoin="round"/>
</svg>
