<svg width="40" height="41" viewBox="0 0 40 41" fill="none" xmlns="http://www.w3.org/2000/svg">
<rect y="0.5" width="40" height="40" rx="4" fill="#F4F4F5"/>
<path d="M24.25 17.5C25.4926 17.5 26.5 16.4926 26.5 15.25C26.5 14.0074 25.4926 13 24.25 13C23.0074 13 22 14.0074 22 15.25C22 16.4926 23.0074 17.5 24.25 17.5Z" stroke="#71717A" stroke-width="1.5" stroke-linecap="round" stroke-linejoin="round"/>
<path d="M15.25 22.75C16.4926 22.75 17.5 21.7426 17.5 20.5C17.5 19.2574 16.4926 18.25 15.25 18.25C14.0074 18.25 13 19.2574 13 20.5C13 21.7426 14.0074 22.75 15.25 22.75Z" stroke="#71717A" stroke-width="1.5" stroke-linecap="round" stroke-linejoin="round"/>
<path d="M24.25 28C25.4926 28 26.5 26.9926 26.5 25.75C26.5 24.5074 25.4926 23.5 24.25 23.5C23.0074 23.5 22 24.5074 22 25.75C22 26.9926 23.0074 28 24.25 28Z" stroke="#71717A" stroke-width="1.5" stroke-linecap="round" stroke-linejoin="round"/>
<path d="M17.1875 21.6328L22.31 24.6178" stroke="#71717A" stroke-width="1.5" stroke-linecap="round" stroke-linejoin="round"/>
<path d="M22.3025 16.3828L17.1875 19.3678" stroke="#71717A" stroke-width="1.5" stroke-linecap="round" stroke-linejoin="round"/>
</svg>
