<svg width="57" height="56" viewBox="0 0 57 56" fill="none" xmlns="http://www.w3.org/2000/svg">
<rect x="0.503906" width="55.99" height="55.99" rx="27.995" fill="#0080FF" fill-opacity="0.1"/>
<path d="M28.5 29.3283V39.995" stroke="#0080FF" stroke-width="2.66637" stroke-linecap="round" stroke-linejoin="round"/>
<path d="M17.8351 31.8603C16.8445 30.8482 16.0972 29.6239 15.6498 28.2802C15.2024 26.9365 15.0667 25.5086 15.2529 24.1047C15.4391 22.7008 15.9424 21.3576 16.7245 20.177C17.5067 18.9964 18.5473 18.0093 19.7675 17.2904C20.9877 16.5715 22.3555 16.1397 23.7673 16.0278C25.1791 15.9158 26.5979 16.1266 27.9161 16.6441C29.2344 17.1617 30.4176 17.9725 31.3761 19.015C32.3346 20.0576 33.0432 21.3046 33.4484 22.6616H35.8351C37.1224 22.6615 38.3757 23.0754 39.4097 23.8422C40.4438 24.6091 41.2038 25.6881 41.5774 26.9201C41.9511 28.152 41.9187 29.4714 41.4849 30.6835C41.0511 31.8955 40.2389 32.9359 39.1684 33.651" stroke="#0080FF" stroke-width="2.66637" stroke-linecap="round" stroke-linejoin="round"/>
<path d="M23.168 34.6616L28.5013 29.3283L33.8346 34.6616" stroke="#0080FF" stroke-width="2.66637" stroke-linecap="round" stroke-linejoin="round"/>
</svg>
