<svg width="20" height="20" viewBox="0 0 20 20" fill="none" xmlns="http://www.w3.org/2000/svg">
<path d="M10 1.66699C9.33696 1.66699 8.70107 1.93038 8.23223 2.39923C7.76339 2.86807 7.5 3.50395 7.5 4.16699V10.0003C7.5 10.6634 7.76339 11.2993 8.23223 11.7681C8.70107 12.2369 9.33696 12.5003 10 12.5003C10.663 12.5003 11.2989 12.2369 11.7678 11.7681C12.2366 11.2993 12.5 10.6634 12.5 10.0003V4.16699C12.5 3.50395 12.2366 2.86807 11.7678 2.39923C11.2989 1.93038 10.663 1.66699 10 1.66699Z" stroke="white" stroke-width="1.66667" stroke-linecap="round" stroke-linejoin="round"/>
<path d="M15.8307 8.33301V9.99967C15.8307 11.5468 15.2161 13.0305 14.1222 14.1245C13.0282 15.2184 11.5445 15.833 9.9974 15.833C8.4503 15.833 6.96657 15.2184 5.87261 14.1245C4.77864 13.0305 4.16406 11.5468 4.16406 9.99967V8.33301" stroke="white" stroke-width="1.66667" stroke-linecap="round" stroke-linejoin="round"/>
<path d="M10 15.833V18.333" stroke="white" stroke-width="1.66667" stroke-linecap="round" stroke-linejoin="round"/>
</svg>
