<svg width="57" height="56" viewBox="0 0 57 56" fill="none" xmlns="http://www.w3.org/2000/svg">
<path d="M0.5 28C0.5 12.536 13.036 0 28.5 0C43.964 0 56.5 12.536 56.5 28C56.5 43.464 43.964 56 28.5 56C13.036 56 0.5 43.464 0.5 28Z" fill="#0080FF" fill-opacity="0.1"/>
<path d="M48.5 48H8.5V8H48.5V48Z" stroke="#E2E8F0"/>
<path d="M35.1654 41.333V14.6663C35.1654 13.7823 34.8142 12.9344 34.1891 12.3093C33.5639 11.6842 32.7161 11.333 31.832 11.333H25.1654C24.2813 11.333 23.4335 11.6842 22.8083 12.3093C22.1832 12.9344 21.832 13.7823 21.832 14.6663V41.333" stroke="#0080FF" stroke-width="3.33" stroke-linecap="round" stroke-linejoin="round"/>
<path d="M41.832 18H15.1654C13.3244 18 11.832 19.4924 11.832 21.3333V38C11.832 39.841 13.3244 41.3333 15.1654 41.3333H41.832C43.673 41.3333 45.1654 39.841 45.1654 38V21.3333C45.1654 19.4924 43.673 18 41.832 18Z" stroke="#0080FF" stroke-width="3.33" stroke-linecap="round" stroke-linejoin="round"/>
</svg>
