<svg width="48" height="48" viewBox="0 0 48 48" fill="none" xmlns="http://www.w3.org/2000/svg">
<path d="M12.3583 45.5018C12.1583 45.5018 11.9383 45.4818 11.7583 45.4618L7.41832 44.8618C5.33832 44.5818 3.45832 42.7218 3.13832 40.6018L2.53832 36.2218C2.33832 34.8218 2.93832 33.0018 3.93832 31.9818L12.7183 23.2018C11.2983 17.5218 12.9383 11.5218 17.1183 7.3818C23.5983 0.9218 34.1383 0.9018 40.6383 7.3818C43.7783 10.5218 45.4983 14.7018 45.4983 19.1418C45.4983 23.5818 43.7783 27.7618 40.6383 30.9018C36.4383 35.0618 30.4583 36.7018 24.8183 35.2618L16.0183 44.0418C15.1783 44.9218 13.6783 45.5018 12.3583 45.5018ZM28.8583 5.5218C25.3583 5.5218 21.8783 6.8418 19.2183 9.5018C15.6183 13.0818 14.3183 18.3218 15.8183 23.2018C15.9783 23.7418 15.8383 24.3018 15.4383 24.7018L6.03832 34.1018C5.69832 34.4418 5.41832 35.3218 5.47832 35.7818L6.07832 40.1618C6.19832 40.9218 7.01832 41.7818 7.77832 41.8818L12.1383 42.4818C12.6183 42.5618 13.4983 42.2818 13.8383 41.9418L23.2783 32.5218C23.6783 32.1218 24.2583 32.0018 24.7783 32.1618C29.5983 33.6818 34.8583 32.3818 38.4583 28.7818C41.0183 26.2218 42.4383 22.7818 42.4383 19.1418C42.4383 15.4818 41.0183 12.0618 38.4583 9.5018C35.8583 6.8618 32.3583 5.5218 28.8583 5.5218Z" fill="#0080FF"/>
<path d="M18.3762 41.0804C17.9962 41.0804 17.6162 40.9404 17.3162 40.6404L12.7163 36.0404C12.1363 35.4604 12.1363 34.5004 12.7163 33.9204C13.2962 33.3404 14.2562 33.3404 14.8362 33.9204L19.4363 38.5204C20.0163 39.1004 20.0163 40.0604 19.4363 40.6404C19.1363 40.9404 18.7562 41.0804 18.3762 41.0804Z" fill="#0080FF"/>
<path d="M29 23.5C26.52 23.5 24.5 21.48 24.5 19C24.5 16.52 26.52 14.5 29 14.5C31.48 14.5 33.5 16.52 33.5 19C33.5 21.48 31.48 23.5 29 23.5ZM29 17.5C28.18 17.5 27.5 18.18 27.5 19C27.5 19.82 28.18 20.5 29 20.5C29.82 20.5 30.5 19.82 30.5 19C30.5 18.18 29.82 17.5 29 17.5Z" fill="#0080FF"/>
</svg>
