<svg width="57" height="56" viewBox="0 0 57 56" fill="none" xmlns="http://www.w3.org/2000/svg">
<path d="M0.5 28C0.5 12.536 13.036 0 28.5 0C43.964 0 56.5 12.536 56.5 28C56.5 43.464 43.964 56 28.5 56C13.036 56 0.5 43.464 0.5 28Z" fill="#0080FF" fill-opacity="0.1"/>
<path d="M35.1654 43V39.6667C35.1654 37.8986 34.463 36.2029 33.2127 34.9526C31.9625 33.7024 30.2668 33 28.4987 33H18.4987C16.7306 33 15.0349 33.7024 13.7847 34.9526C12.5344 36.2029 11.832 37.8986 11.832 39.6667V43" stroke="#0080FF" stroke-width="3.33333" stroke-linecap="round" stroke-linejoin="round"/>
<path d="M23.4987 26.3333C27.1806 26.3333 30.1654 23.3486 30.1654 19.6667C30.1654 15.9848 27.1806 13 23.4987 13C19.8168 13 16.832 15.9848 16.832 19.6667C16.832 23.3486 19.8168 26.3333 23.4987 26.3333Z" stroke="#0080FF" stroke-width="3.33333" stroke-linecap="round" stroke-linejoin="round"/>
<path d="M45.168 43.0001V39.6668C45.1669 38.1897 44.6752 36.7548 43.7702 35.5873C42.8653 34.4199 41.5982 33.5861 40.168 33.2168" stroke="#0080FF" stroke-width="3.33333" stroke-linecap="round" stroke-linejoin="round"/>
<path d="M35.168 13.2168C36.602 13.584 37.873 14.418 38.7807 15.5873C39.6884 16.7567 40.181 18.1948 40.181 19.6751C40.181 21.1554 39.6884 22.5936 38.7807 23.7629C37.873 24.9323 36.602 25.7663 35.168 26.1335" stroke="#0080FF" stroke-width="3.33333" stroke-linecap="round" stroke-linejoin="round"/>
</svg>
