<svg width="18" height="18" viewBox="0 0 18 18" fill="none" xmlns="http://www.w3.org/2000/svg">
<path d="M7.45161 11.625C7.38465 11.3655 7.24936 11.1286 7.05982 10.939C6.87028 10.7495 6.63341 10.6142 6.37386 10.5473L1.77261 9.36075C1.6941 9.33847 1.62501 9.29119 1.57582 9.22609C1.52662 9.16098 1.5 9.08161 1.5 9C1.5 8.9184 1.52662 8.83902 1.57582 8.77392C1.62501 8.70882 1.6941 8.66154 1.77261 8.63925L6.37386 7.452C6.63332 7.38511 6.87012 7.24993 7.05966 7.06053C7.24919 6.87113 7.38453 6.63442 7.45161 6.375L8.63811 1.77375C8.66016 1.69494 8.70739 1.62551 8.7726 1.57605C8.8378 1.52659 8.91739 1.49982 8.99923 1.49982C9.08107 1.49982 9.16066 1.52659 9.22587 1.57605C9.29107 1.62551 9.3383 1.69494 9.36036 1.77375L10.5461 6.375C10.6131 6.63456 10.7484 6.87143 10.9379 7.06097C11.1274 7.25051 11.3643 7.3858 11.6239 7.45275L16.2251 8.6385C16.3042 8.66033 16.374 8.70751 16.4237 8.77281C16.4735 8.83811 16.5004 8.91792 16.5004 9C16.5004 9.08208 16.4735 9.1619 16.4237 9.2272C16.374 9.2925 16.3042 9.33968 16.2251 9.3615L11.6239 10.5473C11.3643 10.6142 11.1274 10.7495 10.9379 10.939C10.7484 11.1286 10.6131 11.3655 10.5461 11.625L9.35961 16.2263C9.33755 16.3051 9.29032 16.3745 9.22512 16.424C9.15991 16.4734 9.08032 16.5002 8.99848 16.5002C8.91664 16.5002 8.83705 16.4734 8.77185 16.424C8.70664 16.3745 8.65941 16.3051 8.63736 16.2263L7.45161 11.625Z" stroke="#09090B" stroke-width="1.5" stroke-linecap="round" stroke-linejoin="round"/>
<path d="M15 2.25V5.25" stroke="#09090B" stroke-width="1.5" stroke-linecap="round" stroke-linejoin="round"/>
<path d="M16.5 3.75H13.5" stroke="#09090B" stroke-width="1.5" stroke-linecap="round" stroke-linejoin="round"/>
<path d="M3 12.75V14.25" stroke="#09090B" stroke-width="1.5" stroke-linecap="round" stroke-linejoin="round"/>
<path d="M3.75 13.5H2.25" stroke="#09090B" stroke-width="1.5" stroke-linecap="round" stroke-linejoin="round"/>
</svg>
