<svg width="16" height="16" viewBox="0 0 16 16" fill="none" xmlns="http://www.w3.org/2000/svg">
<path d="M7.99436 3.99653C8.36231 3.99653 8.66059 3.69825 8.66059 3.3303C8.66059 2.96235 8.36231 2.66406 7.99436 2.66406C7.62641 2.66406 7.32812 2.96235 7.32812 3.3303C7.32812 3.69825 7.62641 3.99653 7.99436 3.99653Z" stroke="#71717A" stroke-width="1.33247" stroke-linecap="round" stroke-linejoin="round"/>
<path d="M12.6584 3.99653C13.0264 3.99653 13.3247 3.69825 13.3247 3.3303C13.3247 2.96235 13.0264 2.66406 12.6584 2.66406C12.2905 2.66406 11.9922 2.96235 11.9922 3.3303C11.9922 3.69825 12.2905 3.99653 12.6584 3.99653Z" stroke="#71717A" stroke-width="1.33247" stroke-linecap="round" stroke-linejoin="round"/>
<path d="M3.3303 3.99653C3.69825 3.99653 3.99653 3.69825 3.99653 3.3303C3.99653 2.96235 3.69825 2.66406 3.3303 2.66406C2.96235 2.66406 2.66406 2.96235 2.66406 3.3303C2.66406 3.69825 2.96235 3.99653 3.3303 3.99653Z" stroke="#71717A" stroke-width="1.33247" stroke-linecap="round" stroke-linejoin="round"/>
<path d="M7.99436 8.66059C8.36231 8.66059 8.66059 8.36231 8.66059 7.99436C8.66059 7.62641 8.36231 7.32812 7.99436 7.32812C7.62641 7.32812 7.32812 7.62641 7.32812 7.99436C7.32812 8.36231 7.62641 8.66059 7.99436 8.66059Z" stroke="#71717A" stroke-width="1.33247" stroke-linecap="round" stroke-linejoin="round"/>
<path d="M12.6584 8.66059C13.0264 8.66059 13.3247 8.36231 13.3247 7.99436C13.3247 7.62641 13.0264 7.32812 12.6584 7.32812C12.2905 7.32812 11.9922 7.62641 11.9922 7.99436C11.9922 8.36231 12.2905 8.66059 12.6584 8.66059Z" stroke="#71717A" stroke-width="1.33247" stroke-linecap="round" stroke-linejoin="round"/>
<path d="M3.3303 8.66059C3.69825 8.66059 3.99653 8.36231 3.99653 7.99436C3.99653 7.62641 3.69825 7.32812 3.3303 7.32812C2.96235 7.32812 2.66406 7.62641 2.66406 7.99436C2.66406 8.36231 2.96235 8.66059 3.3303 8.66059Z" stroke="#71717A" stroke-width="1.33247" stroke-linecap="round" stroke-linejoin="round"/>
<path d="M7.99436 13.3247C8.36231 13.3247 8.66059 13.0264 8.66059 12.6584C8.66059 12.2905 8.36231 11.9922 7.99436 11.9922C7.62641 11.9922 7.32812 12.2905 7.32812 12.6584C7.32812 13.0264 7.62641 13.3247 7.99436 13.3247Z" stroke="#71717A" stroke-width="1.33247" stroke-linecap="round" stroke-linejoin="round"/>
<path d="M12.6584 13.3247C13.0264 13.3247 13.3247 13.0264 13.3247 12.6584C13.3247 12.2905 13.0264 11.9922 12.6584 11.9922C12.2905 11.9922 11.9922 12.2905 11.9922 12.6584C11.9922 13.0264 12.2905 13.3247 12.6584 13.3247Z" stroke="#71717A" stroke-width="1.33247" stroke-linecap="round" stroke-linejoin="round"/>
<path d="M3.3303 13.3247C3.69825 13.3247 3.99653 13.0264 3.99653 12.6584C3.99653 12.2905 3.69825 11.9922 3.3303 11.9922C2.96235 11.9922 2.66406 12.2905 2.66406 12.6584C2.66406 13.0264 2.96235 13.3247 3.3303 13.3247Z" stroke="#71717A" stroke-width="1.33247" stroke-linecap="round" stroke-linejoin="round"/>
</svg>
