<svg width="40" height="41" viewBox="0 0 40 41" fill="none" xmlns="http://www.w3.org/2000/svg">
<rect y="0.5" width="40" height="40" rx="4" fill="#F4F4F5"/>
<path d="M19.75 13.75H14.5C14.1022 13.75 13.7206 13.908 13.4393 14.1893C13.158 14.4706 13 14.8522 13 15.25V25.75C13 26.1478 13.158 26.5294 13.4393 26.8107C13.7206 27.092 14.1022 27.25 14.5 27.25H25C25.3978 27.25 25.7794 27.092 26.0607 26.8107C26.342 26.5294 26.5 26.1478 26.5 25.75V20.5" stroke="#71717A" stroke-width="1.5" stroke-linecap="round" stroke-linejoin="round"/>
<path d="M24.5342 13.4699C24.8326 13.1715 25.2373 13.0039 25.6592 13.0039C26.0812 13.0039 26.4859 13.1715 26.7842 13.4699C27.0826 13.7683 27.2502 14.1729 27.2502 14.5949C27.2502 15.0169 27.0826 15.4215 26.7842 15.7199L20.0245 22.4804C19.8464 22.6583 19.6264 22.7886 19.3847 22.8591L17.23 23.4891C17.1655 23.508 17.0971 23.5091 17.0319 23.4924C16.9668 23.4757 16.9074 23.4418 16.8598 23.3943C16.8123 23.3468 16.7784 23.2873 16.7617 23.2222C16.745 23.1571 16.7462 23.0887 16.765 23.0241L17.395 20.8694C17.4659 20.6279 17.5964 20.4082 17.7745 20.2304L24.5342 13.4699Z" stroke="#71717A" stroke-width="1.5" stroke-linecap="round" stroke-linejoin="round"/>
</svg>
