<svg width="16" height="16" viewBox="0 0 16 16" fill="none" xmlns="http://www.w3.org/2000/svg">
<path d="M10.6602 8.66628L14.1399 10.9861C14.1901 11.0195 14.2483 11.0386 14.3085 11.0415C14.3687 11.0444 14.4285 11.0309 14.4817 11.0024C14.5348 10.974 14.5792 10.9317 14.6102 10.88C14.6412 10.8283 14.6575 10.7692 14.6576 10.7089V5.2485C14.6576 5.18989 14.6421 5.13231 14.6128 5.08157C14.5834 5.03084 14.5412 4.98875 14.4904 4.95955C14.4395 4.93036 14.3819 4.91509 14.3233 4.91529C14.2647 4.91548 14.2072 4.93114 14.1565 4.96069L10.6602 7.00069" stroke="#3B82F6" stroke-width="1.33247" stroke-linecap="round" stroke-linejoin="round"/>
<path d="M9.32683 4.00269H2.6645C1.9286 4.00269 1.33203 4.59925 1.33203 5.33515V10.665C1.33203 11.4009 1.9286 11.9975 2.6645 11.9975H9.32683C10.0627 11.9975 10.6593 11.4009 10.6593 10.665V5.33515C10.6593 4.59925 10.0627 4.00269 9.32683 4.00269Z" stroke="#3B82F6" stroke-width="1.33247" stroke-linecap="round" stroke-linejoin="round"/>
</svg>
