<svg width="20" height="21" viewBox="0 0 20 21" fill="none" xmlns="http://www.w3.org/2000/svg">
<path d="M12.5026 2.16663H5.0026C4.56058 2.16663 4.13665 2.34222 3.82409 2.65478C3.51153 2.96734 3.33594 3.39127 3.33594 3.83329V17.1666C3.33594 17.6087 3.51153 18.0326 3.82409 18.3451C4.13665 18.6577 4.56058 18.8333 5.0026 18.8333H15.0026C15.4446 18.8333 15.8686 18.6577 16.1811 18.3451C16.4937 18.0326 16.6693 17.6087 16.6693 17.1666V6.33329L12.5026 2.16663Z" stroke="#09090B" stroke-width="1.66667" stroke-linecap="round" stroke-linejoin="round"/>
<path d="M11.6641 2.16663V5.49996C11.6641 5.94199 11.8397 6.36591 12.1522 6.67847C12.4648 6.99103 12.8887 7.16663 13.3307 7.16663H16.6641" stroke="#09090B" stroke-width="1.66667" stroke-linecap="round" stroke-linejoin="round"/>
<path d="M8.33073 8H6.66406" stroke="#09090B" stroke-width="1.66667" stroke-linecap="round" stroke-linejoin="round"/>
<path d="M13.3307 11.3334H6.66406" stroke="#09090B" stroke-width="1.66667" stroke-linecap="round" stroke-linejoin="round"/>
<path d="M13.3307 14.6666H6.66406" stroke="#09090B" stroke-width="1.66667" stroke-linecap="round" stroke-linejoin="round"/>
</svg>
