<svg width="32" height="32" viewBox="0 0 32 32" fill="none" xmlns="http://www.w3.org/2000/svg">
<rect width="32" height="32" rx="16" fill="#E5F2FF"/>
<path d="M13.8738 15.1505C13.7988 15.143 13.7088 15.143 13.6263 15.1505C11.8413 15.0905 10.4238 13.628 10.4238 11.828C10.4238 9.99055 11.9088 8.49805 13.7538 8.49805C15.5913 8.49805 17.0838 9.99055 17.0838 11.828C17.0763 13.628 15.6588 15.0905 13.8738 15.1505Z" stroke="#0080FF" stroke-width="1.125" stroke-linecap="round" stroke-linejoin="round"/>
<path d="M19.3104 10.002C20.7654 10.002 21.9354 11.1795 21.9354 12.627C21.9354 14.0445 20.8104 15.1995 19.4079 15.252C19.3479 15.2445 19.2804 15.2445 19.2129 15.252" stroke="#0080FF" stroke-width="1.125" stroke-linecap="round" stroke-linejoin="round"/>
<path d="M10.1191 17.922C8.30406 19.137 8.30406 21.117 10.1191 22.3245C12.1816 23.7045 15.5641 23.7045 17.6266 22.3245C19.4416 21.1095 19.4416 19.1295 17.6266 17.922C15.5716 16.5495 12.1891 16.5495 10.1191 17.922Z" stroke="#0080FF" stroke-width="1.125" stroke-linecap="round" stroke-linejoin="round"/>
<path d="M20.7598 21.998C21.2998 21.8855 21.8098 21.668 22.2298 21.3455C23.3998 20.468 23.3998 19.0205 22.2298 18.143C21.8173 17.828 21.3148 17.618 20.7823 17.498" stroke="#0080FF" stroke-width="1.125" stroke-linecap="round" stroke-linejoin="round"/>
</svg>
