<svg width="34" height="34" viewBox="0 0 34 34" fill="none" xmlns="http://www.w3.org/2000/svg">
<rect width="34" height="34" rx="17" fill="#FCE7F3"/>
<path d="M21.25 14C22.4926 14 23.5 12.9926 23.5 11.75C23.5 10.5074 22.4926 9.5 21.25 9.5C20.0074 9.5 19 10.5074 19 11.75C19 12.9926 20.0074 14 21.25 14Z" stroke="#EC4899" stroke-width="1.5" stroke-linecap="round" stroke-linejoin="round"/>
<path d="M12.25 19.25C13.4926 19.25 14.5 18.2426 14.5 17C14.5 15.7574 13.4926 14.75 12.25 14.75C11.0074 14.75 10 15.7574 10 17C10 18.2426 11.0074 19.25 12.25 19.25Z" stroke="#EC4899" stroke-width="1.5" stroke-linecap="round" stroke-linejoin="round"/>
<path d="M21.25 24.5C22.4926 24.5 23.5 23.4926 23.5 22.25C23.5 21.0074 22.4926 20 21.25 20C20.0074 20 19 21.0074 19 22.25C19 23.4926 20.0074 24.5 21.25 24.5Z" stroke="#EC4899" stroke-width="1.5" stroke-linecap="round" stroke-linejoin="round"/>
<path d="M14.1875 18.1328L19.31 21.1178" stroke="#EC4899" stroke-width="1.5" stroke-linecap="round" stroke-linejoin="round"/>
<path d="M19.3025 12.8828L14.1875 15.8678" stroke="#EC4899" stroke-width="1.5" stroke-linecap="round" stroke-linejoin="round"/>
</svg>
