<svg width="13" height="12" viewBox="0 0 13 12" fill="none" xmlns="http://www.w3.org/2000/svg">
<path d="M8.23828 2H5.73828L4.48828 3.5H2.98828C2.72306 3.5 2.46871 3.60536 2.28117 3.79289C2.09364 3.98043 1.98828 4.23478 1.98828 4.5V9C1.98828 9.26522 2.09364 9.51957 2.28117 9.70711C2.46871 9.89464 2.72306 10 2.98828 10H10.9883C11.2535 10 11.5079 9.89464 11.6954 9.70711C11.8829 9.51957 11.9883 9.26522 11.9883 9V4.5C11.9883 4.23478 11.8829 3.98043 11.6954 3.79289C11.5079 3.60536 11.2535 3.5 10.9883 3.5H9.48828L8.23828 2Z" stroke="#0080FF" stroke-width="0.999708" stroke-linecap="round" stroke-linejoin="round"/>
<path d="M6.98784 7.99913C7.81603 7.99913 8.48741 7.32775 8.48741 6.49956C8.48741 5.67138 7.81603 5 6.98784 5C6.15966 5 5.48828 5.67138 5.48828 6.49956C5.48828 7.32775 6.15966 7.99913 6.98784 7.99913Z" stroke="#0080FF" stroke-width="0.999708" stroke-linecap="round" stroke-linejoin="round"/>
</svg>
