<svg width="14" height="14" viewBox="0 0 14 14" fill="none" xmlns="http://www.w3.org/2000/svg">
<path d="M9.16406 7.58503L12.2108 9.6162C12.2547 9.64543 12.3058 9.6622 12.3585 9.66472C12.4112 9.66724 12.4636 9.65542 12.5101 9.63052C12.5566 9.60561 12.5955 9.56856 12.6226 9.52331C12.6497 9.47806 12.664 9.42629 12.6641 9.37353V4.59253C12.6641 4.54121 12.6506 4.4908 12.6249 4.44638C12.5991 4.40196 12.5622 4.36511 12.5177 4.33954C12.4732 4.31398 12.4227 4.30061 12.3714 4.30078C12.3201 4.30096 12.2697 4.31467 12.2254 4.34053L9.16406 6.1267" stroke="#09090B" stroke-width="1.16667" stroke-linecap="round" stroke-linejoin="round"/>
<path d="M8 3.5H2.16667C1.52233 3.5 1 4.02233 1 4.66667V9.33333C1 9.97767 1.52233 10.5 2.16667 10.5H8C8.64433 10.5 9.16667 9.97767 9.16667 9.33333V4.66667C9.16667 4.02233 8.64433 3.5 8 3.5Z" stroke="#09090B" stroke-width="1.16667" stroke-linecap="round" stroke-linejoin="round"/>
</svg>
