<svg width="25" height="24" viewBox="0 0 25 24" fill="none" xmlns="http://www.w3.org/2000/svg">
<path d="M12.5199 20.5299C10.1899 20.5299 7.85987 20.1599 5.64987 19.4199C4.80987 19.1299 4.16987 18.5399 3.88987 17.7699C3.59987 16.9999 3.69987 16.1499 4.15987 15.3899L5.30987 13.4799C5.54987 13.0799 5.76987 12.2799 5.76987 11.8099V8.91992C5.76987 5.19992 8.79987 2.16992 12.5199 2.16992C16.2399 2.16992 19.2699 5.19992 19.2699 8.91992V11.8099C19.2699 12.2699 19.4899 13.0799 19.7299 13.4899L20.8699 15.3899C21.2999 16.1099 21.3799 16.9799 21.0899 17.7699C20.7999 18.5599 20.1699 19.1599 19.3799 19.4199C17.1799 20.1599 14.8499 20.5299 12.5199 20.5299ZM12.5199 3.66992C9.62987 3.66992 7.26987 6.01992 7.26987 8.91992V11.8099C7.26987 12.5399 6.96987 13.6199 6.59987 14.2499L5.44987 16.1599C5.22987 16.5299 5.16987 16.9199 5.29987 17.2499C5.41987 17.5899 5.71987 17.8499 6.12987 17.9899C10.3099 19.3899 14.7399 19.3899 18.9199 17.9899C19.2799 17.8699 19.5599 17.5999 19.6899 17.2399C19.8199 16.8799 19.7899 16.4899 19.5899 16.1599L18.4399 14.2499C18.0599 13.5999 17.7699 12.5299 17.7699 11.7999V8.91992C17.7699 6.01992 15.4199 3.66992 12.5199 3.66992Z" fill="#D97706"/>
<path d="M14.3767 3.93969C14.3067 3.93969 14.2367 3.92969 14.1667 3.90969C13.8767 3.82969 13.5967 3.76969 13.3267 3.72969C12.4767 3.61969 11.6567 3.67969 10.8867 3.90969C10.6067 3.99969 10.3067 3.90969 10.1167 3.69969C9.9267 3.48969 9.8667 3.18969 9.9767 2.91969C10.3867 1.86969 11.3867 1.17969 12.5267 1.17969C13.6667 1.17969 14.6667 1.85969 15.0767 2.91969C15.1767 3.18969 15.1267 3.48969 14.9367 3.69969C14.7867 3.85969 14.5767 3.93969 14.3767 3.93969Z" fill="#D97706"/>
<path d="M12.5234 22.8096C11.5334 22.8096 10.5734 22.4096 9.87344 21.7096C9.17344 21.0096 8.77344 20.0496 8.77344 19.0596H10.2734C10.2734 19.6496 10.5134 20.2296 10.9334 20.6496C11.3534 21.0696 11.9334 21.3096 12.5234 21.3096C13.7634 21.3096 14.7734 20.2996 14.7734 19.0596H16.2734C16.2734 21.1296 14.5934 22.8096 12.5234 22.8096Z" fill="#D97706"/>
</svg>
