<svg width="41" height="40" viewBox="0 0 41 40" fill="none" xmlns="http://www.w3.org/2000/svg">
<path d="M0.625 20C0.625 8.95431 9.57931 0 20.625 0C31.6707 0 40.625 8.95431 40.625 20C40.625 31.0457 31.6707 40 20.625 40C9.57931 40 0.625 31.0457 0.625 20Z" fill="#0080FF" fill-opacity="0.1"/>
<path d="M18.0159 24.0823C17.9117 23.6786 17.7013 23.3101 17.4064 23.0153C17.1116 22.7204 16.7431 22.51 16.3394 22.4058L9.18187 20.5602C9.05975 20.5255 8.95228 20.4519 8.87575 20.3507C8.79922 20.2494 8.75781 20.1259 8.75781 19.999C8.75781 19.872 8.79922 19.7486 8.87575 19.6473C8.95228 19.546 9.05975 19.4725 9.18187 19.4378L16.3394 17.591C16.743 17.4869 17.1113 17.2767 17.4062 16.982C17.701 16.6874 17.9115 16.3192 18.0159 15.9157L19.8615 8.75816C19.8958 8.63556 19.9693 8.52755 20.0707 8.45062C20.1722 8.37368 20.296 8.33203 20.4233 8.33203C20.5506 8.33203 20.6744 8.37368 20.7758 8.45062C20.8773 8.52755 20.9507 8.63556 20.985 8.75816L22.8295 15.9157C22.9337 16.3194 23.1441 16.6879 23.439 16.9827C23.7338 17.2775 24.1023 17.488 24.506 17.5922L31.6635 19.4367C31.7866 19.4706 31.8952 19.544 31.9725 19.6456C32.0499 19.7472 32.0918 19.8713 32.0918 19.999C32.0918 20.1267 32.0499 20.2508 31.9725 20.3524C31.8952 20.454 31.7866 20.5274 31.6635 20.5613L24.506 22.4058C24.1023 22.51 23.7338 22.7204 23.439 23.0153C23.1441 23.3101 22.9337 23.6786 22.8295 24.0823L20.9839 31.2398C20.9496 31.3624 20.8761 31.4704 20.7747 31.5474C20.6732 31.6243 20.5494 31.6659 20.4221 31.6659C20.2948 31.6659 20.171 31.6243 20.0696 31.5474C19.9681 31.4704 19.8947 31.3624 19.8604 31.2398L18.0159 24.0823Z" stroke="#0080FF" stroke-width="2.33333" stroke-linecap="round" stroke-linejoin="round"/>
<path d="M29.7578 9.5V14.1667" stroke="#0080FF" stroke-width="2.33333" stroke-linecap="round" stroke-linejoin="round"/>
<path d="M32.0885 11.832H27.4219" stroke="#0080FF" stroke-width="2.33333" stroke-linecap="round" stroke-linejoin="round"/>
<path d="M11.0859 25.832V28.1654" stroke="#0080FF" stroke-width="2.33333" stroke-linecap="round" stroke-linejoin="round"/>
<path d="M12.2552 27H9.92188" stroke="#0080FF" stroke-width="2.33333" stroke-linecap="round" stroke-linejoin="round"/>
</svg>
