<svg width="16" height="16" viewBox="0 0 16 16" fill="none" xmlns="http://www.w3.org/2000/svg">
<path d="M8 14.251C11.4518 14.251 14.25 11.4528 14.25 8.00098C14.25 4.5492 11.4518 1.75098 8 1.75098C4.54822 1.75098 1.75 4.5492 1.75 8.00098C1.75 11.4528 4.54822 14.251 8 14.251Z" stroke="#64748B" stroke-width="1.25" stroke-linecap="round" stroke-linejoin="round"/>
<path d="M6.17969 6.12389C6.32663 5.70618 6.61666 5.35396 6.99841 5.1296C7.38016 4.90524 7.829 4.82323 8.26542 4.89809C8.70185 4.97294 9.0977 5.19984 9.38286 5.5386C9.66802 5.87735 9.8241 6.30609 9.82344 6.74889C9.82344 7.99889 7.94844 8.62389 7.94844 8.62389" stroke="#64748B" stroke-width="1.25" stroke-linecap="round" stroke-linejoin="round"/>
<path d="M8 11.126H8.00625" stroke="#64748B" stroke-width="1.25" stroke-linecap="round" stroke-linejoin="round"/>
</svg>
