<svg width="16" height="16" viewBox="0 0 16 16" fill="none" xmlns="http://www.w3.org/2000/svg">
<path d="M1.33203 4.66668L4.27203 1.72668C4.39607 1.6019 4.54358 1.5029 4.70605 1.4354C4.86853 1.36789 5.04276 1.3332 5.2187 1.33334H10.7787C10.9546 1.3332 11.1289 1.36789 11.2913 1.4354C11.4538 1.5029 11.6013 1.6019 11.7254 1.72668L14.6654 4.66668" stroke="#020817" stroke-linecap="round" stroke-linejoin="round"/>
<path d="M2.66797 8V13.3333C2.66797 13.687 2.80844 14.0261 3.05849 14.2761C3.30854 14.5262 3.64768 14.6667 4.0013 14.6667H12.0013C12.3549 14.6667 12.6941 14.5262 12.9441 14.2761C13.1942 14.0261 13.3346 13.687 13.3346 13.3333V8" stroke="#020817" stroke-linecap="round" stroke-linejoin="round"/>
<path d="M10 14.6667V12C10 11.6464 9.85952 11.3072 9.60948 11.0572C9.35943 10.8071 9.02029 10.6667 8.66667 10.6667H7.33333C6.97971 10.6667 6.64057 10.8071 6.39052 11.0572C6.14048 11.3072 6 11.6464 6 12V14.6667" stroke="#020817" stroke-linecap="round" stroke-linejoin="round"/>
<path d="M1.33203 4.66666H14.6654" stroke="#020817" stroke-linecap="round" stroke-linejoin="round"/>
<path d="M14.6654 4.66666V6.66666C14.6654 7.02028 14.5249 7.35942 14.2748 7.60947C14.0248 7.85951 13.6857 7.99999 13.332 7.99999C12.9425 7.97855 12.5705 7.83115 12.272 7.57999C12.1925 7.52251 12.0968 7.49156 11.9987 7.49156C11.9006 7.49156 11.8049 7.52251 11.7254 7.57999C11.4269 7.83115 11.0549 7.97855 10.6654 7.99999C10.2759 7.97855 9.90385 7.83115 9.60536 7.57999C9.52582 7.52251 9.43017 7.49156 9.33203 7.49156C9.23389 7.49156 9.13824 7.52251 9.0587 7.57999C8.76021 7.83115 8.38821 7.97855 7.9987 7.99999C7.60919 7.97855 7.23718 7.83115 6.9387 7.57999C6.85915 7.52251 6.76351 7.49156 6.66536 7.49156C6.56722 7.49156 6.47158 7.52251 6.39203 7.57999C6.09354 7.83115 5.72154 7.97855 5.33203 7.99999C4.94252 7.97855 4.57052 7.83115 4.27203 7.57999C4.19248 7.52251 4.09684 7.49156 3.9987 7.49156C3.90056 7.49156 3.80491 7.52251 3.72536 7.57999C3.42688 7.83115 3.05487 7.97855 2.66536 7.99999C2.31174 7.99999 1.9726 7.85951 1.72256 7.60947C1.47251 7.35942 1.33203 7.02028 1.33203 6.66666V4.66666" stroke="#020817" stroke-linecap="round" stroke-linejoin="round"/>
</svg>
