<svg width="17" height="16" viewBox="0 0 17 16" fill="none" xmlns="http://www.w3.org/2000/svg">
<path d="M4.62204 15.1679C4.55538 15.1679 4.48204 15.1613 4.42204 15.1546L2.97538 14.9546C2.28204 14.8613 1.65538 14.2413 1.54871 13.5346L1.34871 12.0746C1.28204 11.6079 1.48204 11.0013 1.81538 10.6613L4.74204 7.73458C4.26871 5.84125 4.81538 3.84125 6.20871 2.46125C8.36871 0.307918 11.882 0.301251 14.0487 2.46125C15.0954 3.50792 15.6687 4.90125 15.6687 6.38125C15.6687 7.86125 15.0954 9.25458 14.0487 10.3013C12.6487 11.6879 10.6554 12.2346 8.77538 11.7546L5.84204 14.6813C5.56204 14.9746 5.06204 15.1679 4.62204 15.1679ZM10.122 1.84125C8.95538 1.84125 7.79538 2.28125 6.90871 3.16792C5.70871 4.36125 5.27538 6.10792 5.77538 7.73458C5.82871 7.91459 5.78204 8.10125 5.64871 8.23458L2.51538 11.3679C2.40204 11.4813 2.30871 11.7746 2.32871 11.9279L2.52871 13.3879C2.56871 13.6413 2.84204 13.9279 3.09538 13.9613L4.54871 14.1613C4.70871 14.1879 5.00204 14.0946 5.11538 13.9813L8.26204 10.8413C8.39538 10.7079 8.58871 10.6679 8.76204 10.7213C10.3687 11.2279 12.122 10.7946 13.322 9.59459C14.1754 8.74125 14.6487 7.59458 14.6487 6.38125C14.6487 5.16125 14.1754 4.02125 13.322 3.16792C12.4554 2.28792 11.2887 1.84125 10.122 1.84125Z" fill="white"/>
<path d="M6.62542 13.6928C6.49875 13.6928 6.37208 13.6461 6.27208 13.5461L4.73875 12.0128C4.54542 11.8195 4.54542 11.4995 4.73875 11.3061C4.93208 11.1128 5.25208 11.1128 5.44542 11.3061L6.97875 12.8395C7.17208 13.0328 7.17208 13.3528 6.97875 13.5461C6.87875 13.6461 6.75208 13.6928 6.62542 13.6928Z" fill="white"/>
<path d="M10.1641 7.83301C9.3374 7.83301 8.66406 7.15967 8.66406 6.33301C8.66406 5.50634 9.3374 4.83301 10.1641 4.83301C10.9907 4.83301 11.6641 5.50634 11.6641 6.33301C11.6641 7.15967 10.9907 7.83301 10.1641 7.83301ZM10.1641 5.83301C9.89073 5.83301 9.66406 6.05967 9.66406 6.33301C9.66406 6.60634 9.89073 6.83301 10.1641 6.83301C10.4374 6.83301 10.6641 6.60634 10.6641 6.33301C10.6641 6.05967 10.4374 5.83301 10.1641 5.83301Z" fill="white"/>
</svg>
