<svg width="19" height="18" viewBox="0 0 19 18" fill="none" xmlns="http://www.w3.org/2000/svg">
<path d="M8.20312 15.75C8.33478 15.978 8.52414 16.1674 8.75216 16.299C8.98018 16.4306 9.23883 16.4999 9.50213 16.4999C9.76542 16.4999 10.0241 16.4306 10.2521 16.299C10.4801 16.1674 10.6695 15.978 10.8011 15.75" stroke="#0080FF" stroke-width="1.5" stroke-linecap="round" stroke-linejoin="round"/>
<path d="M2.94595 11.4945C2.84798 11.6019 2.78332 11.7354 2.75984 11.8789C2.73637 12.0223 2.75509 12.1695 2.81373 12.3025C2.87237 12.4356 2.9684 12.5487 3.09014 12.6281C3.21188 12.7075 3.35409 12.7499 3.49945 12.75H15.4995C15.6448 12.7501 15.787 12.7079 15.9089 12.6286C16.0307 12.5493 16.1268 12.4363 16.1856 12.3034C16.2444 12.1705 16.2633 12.0233 16.24 11.8798C16.2167 11.7364 16.1523 11.6028 16.0545 11.4952C15.057 10.467 13.9995 9.37425 13.9995 6C13.9995 4.80653 13.5253 3.66193 12.6814 2.81802C11.8375 1.97411 10.6929 1.5 9.49945 1.5C8.30598 1.5 7.16139 1.97411 6.31747 2.81802C5.47356 3.66193 4.99945 4.80653 4.99945 6C4.99945 9.37425 3.9412 10.467 2.94595 11.4945Z" stroke="#0080FF" stroke-width="1.5" stroke-linecap="round" stroke-linejoin="round"/>
</svg>
