<svg width="16" height="16" viewBox="0 0 16 16" fill="none" xmlns="http://www.w3.org/2000/svg">
<path d="M7.9987 14.6666C11.6806 14.6666 14.6654 11.6819 14.6654 7.99998C14.6654 4.31808 11.6806 1.33331 7.9987 1.33331C4.3168 1.33331 1.33203 4.31808 1.33203 7.99998C1.33203 11.6819 4.3168 14.6666 7.9987 14.6666Z" stroke="#020817" stroke-linecap="round" stroke-linejoin="round"/>
<path d="M7.9987 10.6666C9.47146 10.6666 10.6654 9.47274 10.6654 7.99998C10.6654 6.52722 9.47146 5.33331 7.9987 5.33331C6.52594 5.33331 5.33203 6.52722 5.33203 7.99998C5.33203 9.47274 6.52594 10.6666 7.9987 10.6666Z" stroke="#020817" stroke-linecap="round" stroke-linejoin="round"/>
<path d="M14.1133 5.33331H8" stroke="#020817" stroke-linecap="round" stroke-linejoin="round"/>
<path d="M2.63281 4.03998L5.69281 9.33331" stroke="#020817" stroke-linecap="round" stroke-linejoin="round"/>
<path d="M7.25391 14.6266L10.3072 9.33331" stroke="#020817" stroke-linecap="round" stroke-linejoin="round"/>
</svg>
