<svg width="16" height="17" viewBox="0 0 16 17" fill="none" xmlns="http://www.w3.org/2000/svg">
<g clip-path="url(#clip0_644_16284)">
<path d="M15.3918 7.10969L8.86553 7.10938C8.57734 7.10938 8.34375 7.34294 8.34375 7.63112V9.71597C8.34375 10.0041 8.57734 10.2377 8.8655 10.2377H12.5407C12.1382 11.2821 11.3871 12.1568 10.4288 12.7125L11.9959 15.4253C14.5097 13.9715 15.9959 11.4206 15.9959 8.565C15.9959 8.15841 15.9659 7.86775 15.906 7.54047C15.8604 7.29181 15.6446 7.10969 15.3918 7.10969Z" fill="#167EE6"/>
<path d="M8.00278 13.3695C6.20422 13.3695 4.63409 12.3868 3.79081 10.9326L1.07812 12.4962C2.45859 14.8887 5.04466 16.4999 8.00278 16.4999C9.45394 16.4999 10.8232 16.1092 12.0028 15.4283V15.4246L10.4357 12.7117C9.71887 13.1275 8.88938 13.3695 8.00278 13.3695Z" fill="#12B347"/>
<path d="M12 15.4275V15.4237L10.4329 12.7109C9.71609 13.1267 8.88666 13.3687 8 13.3687V16.4991C9.45116 16.4991 10.8205 16.1084 12 15.4275Z" fill="#0F993E"/>
<path d="M3.13044 8.49921C3.13044 7.61268 3.37238 6.78327 3.78803 6.06649L1.07534 4.50293C0.390687 5.67877 0 7.04434 0 8.49921C0 9.95409 0.390687 11.3196 1.07534 12.4955L3.78803 10.9319C3.37238 10.2151 3.13044 9.38574 3.13044 8.49921Z" fill="#FFD500"/>
<path d="M8.00278 3.63044C9.17562 3.63044 10.2529 4.04719 11.0944 4.74041C11.302 4.91141 11.6037 4.89906 11.7939 4.70891L13.2711 3.23172C13.4868 3.01597 13.4714 2.66281 13.241 2.46288C11.8311 1.23978 9.99675 0.5 8.00278 0.5C5.04466 0.5 2.45859 2.11116 1.07812 4.50372L3.79081 6.06728C4.63409 4.61312 6.20422 3.63044 8.00278 3.63044Z" fill="#FF4B26"/>
<path d="M11.0916 4.74041C11.2992 4.91141 11.601 4.89906 11.7911 4.70891L13.2683 3.23172C13.484 3.01597 13.4686 2.66281 13.2382 2.46288C11.8283 1.23975 9.99397 0.5 8 0.5V3.63044C9.17281 3.63044 10.2502 4.04719 11.0916 4.74041Z" fill="#D93F21"/>
</g>
<defs>
<clipPath id="clip0_644_16284">
<rect width="16" height="16" fill="white" transform="translate(0 0.5)"/>
</clipPath>
</defs>
</svg>
