<svg width="65" height="65" viewBox="0 0 65 65" fill="none" xmlns="http://www.w3.org/2000/svg">
<g opacity="0.5">
<rect x="0.5" y="0.172485" width="64" height="64" rx="32" fill="#0080FF"/>
<path d="M32.5 18.8381C31.4391 18.8381 30.4217 19.2596 29.6716 20.0097C28.9214 20.7599 28.5 21.7773 28.5 22.8381V32.1715C28.5 33.2323 28.9214 34.2497 29.6716 34.9999C30.4217 35.75 31.4391 36.1715 32.5 36.1715C33.5609 36.1715 34.5783 35.75 35.3284 34.9999C36.0786 34.2497 36.5 33.2323 36.5 32.1715V22.8381C36.5 21.7773 36.0786 20.7599 35.3284 20.0097C34.5783 19.2596 33.5609 18.8381 32.5 18.8381Z" stroke="white" stroke-width="2.66667" stroke-linecap="round" stroke-linejoin="round"/>
<path d="M41.8307 29.5068V32.1735C41.8307 34.6489 40.8474 37.0228 39.0971 38.7732C37.3467 40.5235 34.9727 41.5068 32.4974 41.5068C30.022 41.5068 27.6481 40.5235 25.8977 38.7732C24.1474 37.0228 23.1641 34.6489 23.1641 32.1735V29.5068" stroke="white" stroke-width="2.66667" stroke-linecap="round" stroke-linejoin="round"/>
<path d="M32.5 41.5068V45.5068" stroke="white" stroke-width="2.66667" stroke-linecap="round" stroke-linejoin="round"/>
</g>
</svg>
