<svg width="21" height="21" viewBox="0 0 21 21" fill="none" xmlns="http://www.w3.org/2000/svg">
<path d="M10.2513 18.8337C14.8537 18.8337 18.5846 15.1027 18.5846 10.5003C18.5846 5.89795 14.8537 2.16699 10.2513 2.16699C5.64893 2.16699 1.91797 5.89795 1.91797 10.5003C1.91797 15.1027 5.64893 18.8337 10.2513 18.8337Z" stroke="#0080FF" stroke-width="1.33333" stroke-linecap="round" stroke-linejoin="round"/>
<path d="M13.5846 7.16699H8.58464C8.14261 7.16699 7.71869 7.34259 7.40612 7.65515C7.09356 7.96771 6.91797 8.39163 6.91797 8.83366C6.91797 9.27569 7.09356 9.69961 7.40612 10.0122C7.71869 10.3247 8.14261 10.5003 8.58464 10.5003H11.918C12.36 10.5003 12.7839 10.6759 13.0965 10.9885C13.409 11.301 13.5846 11.725 13.5846 12.167C13.5846 12.609 13.409 13.0329 13.0965 13.3455C12.7839 13.6581 12.36 13.8337 11.918 13.8337H6.91797" stroke="#0080FF" stroke-width="1.33333" stroke-linecap="round" stroke-linejoin="round"/>
<path d="M10.25 15.5V5.5" stroke="#0080FF" stroke-width="1.33333" stroke-linecap="round" stroke-linejoin="round"/>
</svg>
