<svg width="16" height="16" viewBox="0 0 16 16" fill="none" xmlns="http://www.w3.org/2000/svg">
<path d="M10.0013 1.33331H4.0013C3.64768 1.33331 3.30854 1.47379 3.05849 1.72384C2.80844 1.97389 2.66797 2.31302 2.66797 2.66665V13.3333C2.66797 13.6869 2.80844 14.0261 3.05849 14.2761C3.30854 14.5262 3.64768 14.6666 4.0013 14.6666H12.0013C12.3549 14.6666 12.6941 14.5262 12.9441 14.2761C13.1942 14.0261 13.3346 13.6869 13.3346 13.3333V4.66665L10.0013 1.33331Z" stroke="#020817" stroke-linecap="round" stroke-linejoin="round"/>
<path d="M9.33203 1.33331V3.99998C9.33203 4.3536 9.47251 4.69274 9.72256 4.94279C9.9726 5.19284 10.3117 5.33331 10.6654 5.33331H13.332" stroke="#020817" stroke-linecap="round" stroke-linejoin="round"/>
<path d="M6.66797 7.33331L10.0013 9.33331L6.66797 11.3333V7.33331Z" stroke="#020817" stroke-linecap="round" stroke-linejoin="round"/>
</svg>
