<svg width="48" height="49" viewBox="0 0 48 49" fill="none" xmlns="http://www.w3.org/2000/svg">
<rect x="0.5" y="1" width="47" height="47" rx="23.5" fill="white" fill-opacity="0.9"/>
<rect x="0.5" y="1" width="47" height="47" rx="23.5" stroke="#FF0000"/>
<path d="M14.5005 29.5C13.8019 26.2033 13.8019 22.7967 14.5005 19.5C14.5923 19.1652 14.7696 18.8601 15.0151 18.6146C15.2606 18.3691 15.5657 18.1918 15.9005 18.1C21.2639 17.2115 26.737 17.2115 32.1005 18.1C32.4353 18.1918 32.7404 18.3691 32.9859 18.6146C33.2314 18.8601 33.4087 19.1652 33.5005 19.5C34.1991 22.7967 34.1991 26.2033 33.5005 29.5C33.4087 29.8348 33.2314 30.1399 32.9859 30.3854C32.7404 30.6309 32.4353 30.8082 32.1005 30.9C26.7371 31.7887 21.2639 31.7887 15.9005 30.9C15.5657 30.8082 15.2606 30.6309 15.0151 30.3854C14.7696 30.1399 14.5923 29.8348 14.5005 29.5Z" stroke="#FF0000" stroke-width="2" stroke-linecap="round" stroke-linejoin="round"/>
<path d="M22 27.5L27 24.5L22 21.5V27.5Z" stroke="#FF0000" stroke-width="2" stroke-linecap="round" stroke-linejoin="round"/>
</svg>
