<svg width="18" height="18" viewBox="0 0 18 18" fill="none" xmlns="http://www.w3.org/2000/svg">
<path d="M15.0012 12V5.25C15.0012 4.85218 14.8431 4.47064 14.5618 4.18934C14.2805 3.90804 13.899 3.75 13.5012 3.75H4.50118C4.10335 3.75 3.72182 3.90804 3.44052 4.18934C3.15921 4.47064 3.00118 4.85218 3.00118 5.25V12M15.0012 12H3.00118M15.0012 12L15.9612 13.9125C16.019 14.0272 16.0464 14.1549 16.0407 14.2833C16.035 14.4116 15.9964 14.5364 15.9286 14.6455C15.8609 14.7547 15.7662 14.8446 15.6537 14.9067C15.5412 14.9688 15.4147 15.0009 15.2862 15H2.71618C2.58769 15.0009 2.46113 14.9688 2.34863 14.9067C2.23613 14.8446 2.14147 14.7547 2.07371 14.6455C2.00595 14.5364 1.96737 14.4116 1.96168 14.2833C1.95598 14.1549 1.98335 14.0272 2.04118 13.9125L3.00118 12" stroke="#09090B" stroke-width="1.5" stroke-linecap="round" stroke-linejoin="round"/>
</svg>
