<svg width="20" height="21" viewBox="0 0 20 21" fill="none" xmlns="http://www.w3.org/2000/svg">
<path d="M10 6.33331V18" stroke="#09090B" stroke-width="1.66667" stroke-linecap="round" stroke-linejoin="round"/>
<path d="M2.4974 15.5C2.27638 15.5 2.06442 15.4122 1.90814 15.2559C1.75186 15.0996 1.66406 14.8877 1.66406 14.6667V3.83333C1.66406 3.61232 1.75186 3.40036 1.90814 3.24408C2.06442 3.0878 2.27638 3 2.4974 3H6.66406C7.54812 3 8.39596 3.35119 9.02109 3.97631C9.64621 4.60143 9.9974 5.44928 9.9974 6.33333C9.9974 5.44928 10.3486 4.60143 10.9737 3.97631C11.5988 3.35119 12.4467 3 13.3307 3H17.4974C17.7184 3 17.9304 3.0878 18.0867 3.24408C18.2429 3.40036 18.3307 3.61232 18.3307 3.83333V14.6667C18.3307 14.8877 18.2429 15.0996 18.0867 15.2559C17.9304 15.4122 17.7184 15.5 17.4974 15.5H12.4974C11.8344 15.5 11.1985 15.7634 10.7296 16.2322C10.2608 16.7011 9.9974 17.337 9.9974 18C9.9974 17.337 9.734 16.7011 9.26516 16.2322C8.79632 15.7634 8.16044 15.5 7.4974 15.5H2.4974Z" stroke="#09090B" stroke-width="1.66667" stroke-linecap="round" stroke-linejoin="round"/>
</svg>
