<svg width="64" height="64" viewBox="0 0 64 64" fill="none" xmlns="http://www.w3.org/2000/svg">
<rect x="0.00390625" width="63.99" height="63.99" rx="31.995" fill="#DBEAFE"/>
<path d="M34.918 22.6641H29.0867L26.1711 26.1628H22.6723C22.0537 26.1628 21.4604 26.4086 21.023 26.846C20.5856 27.2834 20.3398 27.8767 20.3398 28.4953V38.9916C20.3398 39.6102 20.5856 40.2035 21.023 40.6409C21.4604 41.0783 22.0537 41.3241 22.6723 41.3241H41.3323C41.951 41.3241 42.5442 41.0783 42.9817 40.6409C43.4191 40.2035 43.6648 39.6102 43.6648 38.9916V28.4953C43.6648 27.8767 43.4191 27.2834 42.9817 26.846C42.5442 26.4086 41.951 26.1628 41.3323 26.1628H37.8336L34.918 22.6641Z" stroke="#0080FF" stroke-width="2.33218" stroke-linecap="round" stroke-linejoin="round"/>
<path d="M32.0022 36.6606C33.9342 36.6606 35.5004 35.0944 35.5004 33.1623C35.5004 31.2303 33.9342 29.6641 32.0022 29.6641C30.0701 29.6641 28.5039 31.2303 28.5039 33.1623C28.5039 35.0944 30.0701 36.6606 32.0022 36.6606Z" stroke="#0080FF" stroke-width="2.33218" stroke-linecap="round" stroke-linejoin="round"/>
</svg>
