<svg width="32" height="32" viewBox="0 0 32 32" fill="none" xmlns="http://www.w3.org/2000/svg">
<rect width="32.0021" height="32.0026" rx="16.0011" fill="#DCFCE7"/>
<path fill-rule="evenodd" clip-rule="evenodd" d="M14.7849 23.9293C10.4121 23.9293 6.85742 20.3746 6.85742 16.0018C6.85742 11.629 10.4121 8.07422 14.7849 8.07422C16.7901 8.07422 18.6718 8.80251 20.1379 10.1464C19.6502 10.4347 19.1797 10.7541 18.7271 11.0998C17.6162 10.2037 16.235 9.71027 14.7849 9.71027C11.3194 9.71027 8.49347 12.5362 8.49347 16.0018C8.49347 19.4673 11.3194 22.2933 14.7849 22.2933C19.6069 22.2933 22.4697 17.139 20.3957 13.1314C20.71 12.8391 21.0336 12.5558 21.3656 12.282C21.4637 12.2011 21.5626 12.121 21.6622 12.0417C22.356 13.2399 22.7126 14.5986 22.7126 16.0017C22.7125 20.3746 19.1578 23.9293 14.7849 23.9293Z" fill="#22C55E"/>
<path fill-rule="evenodd" clip-rule="evenodd" d="M14.9947 20.0788C14.9055 20.0788 14.8311 20.0194 14.8014 19.945C14.7865 19.9152 13.5074 16.6133 11.5292 15.3639C11.1425 15.126 10.8451 14.8731 10.964 14.3079C11.083 13.7576 11.4549 13.4453 12.1241 13.2965C13.314 13.0436 14.5931 14.888 15.0691 15.6465C16.7349 13.2222 20.0665 9.41453 24.9153 8.96834C25.1492 8.94092 25.2357 9.28764 25.0194 9.38479C24.945 9.41453 18.0139 12.5826 15.2029 19.9599C15.1583 20.0342 15.0839 20.0788 14.9947 20.0788Z" fill="#22C55E"/>
</svg>
