<svg width="44" height="45" viewBox="0 0 44 45" fill="none" xmlns="http://www.w3.org/2000/svg">
<rect y="0.5" width="44" height="44" rx="22" fill="#EAF3FE"/>
<path d="M25.6641 23.3324L30.0166 26.2341C30.0793 26.2758 30.1522 26.2998 30.2275 26.3034C30.3028 26.307 30.3776 26.2901 30.4441 26.2545C30.5105 26.219 30.5661 26.166 30.6048 26.1014C30.6435 26.0367 30.664 25.9628 30.6641 25.8874V19.0574C30.6641 18.9841 30.6448 18.9121 30.608 18.8486C30.5713 18.7852 30.5185 18.7325 30.4549 18.696C30.3914 18.6595 30.3193 18.6404 30.246 18.6406C30.1727 18.6409 30.1007 18.6605 30.0374 18.6974L25.6641 21.2491" stroke="#0080FF" stroke-width="1.66667" stroke-linecap="round" stroke-linejoin="round"/>
<path d="M24 17.5H15.6667C14.7462 17.5 14 18.2462 14 19.1667V25.8333C14 26.7538 14.7462 27.5 15.6667 27.5H24C24.9205 27.5 25.6667 26.7538 25.6667 25.8333V19.1667C25.6667 18.2462 24.9205 17.5 24 17.5Z" stroke="#0080FF" stroke-width="1.66667" stroke-linecap="round" stroke-linejoin="round"/>
</svg>
