<svg width="57" height="56" viewBox="0 0 57 56" fill="none" xmlns="http://www.w3.org/2000/svg">
<path d="M0.5 28C0.5 12.536 13.036 0 28.5 0C43.964 0 56.5 12.536 56.5 28C56.5 43.464 43.964 56 28.5 56C13.036 56 0.5 43.464 0.5 28Z" fill="#0080FF" fill-opacity="0.1"/>
<path d="M38.5013 11.333H18.5013C16.6604 11.333 15.168 12.8254 15.168 14.6663V41.333C15.168 43.174 16.6604 44.6663 18.5013 44.6663H38.5013C40.3423 44.6663 41.8346 43.174 41.8346 41.333V14.6663C41.8346 12.8254 40.3423 11.333 38.5013 11.333Z" stroke="#0080FF" stroke-width="3.33333" stroke-linecap="round" stroke-linejoin="round"/>
<path d="M23.5 44.6667V38H33.5V44.6667" stroke="#0080FF" stroke-width="3.33333" stroke-linecap="round" stroke-linejoin="round"/>
<path d="M21.832 18H21.8487" stroke="#0080FF" stroke-width="3.33333" stroke-linecap="round" stroke-linejoin="round"/>
<path d="M35.168 18H35.1846" stroke="#0080FF" stroke-width="3.33333" stroke-linecap="round" stroke-linejoin="round"/>
<path d="M28.5 18H28.5167" stroke="#0080FF" stroke-width="3.33333" stroke-linecap="round" stroke-linejoin="round"/>
<path d="M28.5 24.667H28.5167" stroke="#0080FF" stroke-width="3.33333" stroke-linecap="round" stroke-linejoin="round"/>
<path d="M28.5 31.333H28.5167" stroke="#0080FF" stroke-width="3.33333" stroke-linecap="round" stroke-linejoin="round"/>
<path d="M35.168 24.667H35.1846" stroke="#0080FF" stroke-width="3.33333" stroke-linecap="round" stroke-linejoin="round"/>
<path d="M35.168 31.333H35.1846" stroke="#0080FF" stroke-width="3.33333" stroke-linecap="round" stroke-linejoin="round"/>
<path d="M21.832 24.667H21.8487" stroke="#0080FF" stroke-width="3.33333" stroke-linecap="round" stroke-linejoin="round"/>
<path d="M21.832 31.333H21.8487" stroke="#0080FF" stroke-width="3.33333" stroke-linecap="round" stroke-linejoin="round"/>
</svg>
