<svg width="16" height="16" viewBox="0 0 16 16" fill="none" xmlns="http://www.w3.org/2000/svg">
<path d="M8.9974 4.66667C9.18149 4.66667 9.33073 4.51743 9.33073 4.33333C9.33073 4.14924 9.18149 4 8.9974 4C8.8133 4 8.66406 4.14924 8.66406 4.33333C8.66406 4.51743 8.8133 4.66667 8.9974 4.66667Z" fill="#09090B" stroke="#09090B" stroke-width="1.33333" stroke-linecap="round" stroke-linejoin="round"/>
<path d="M11.6693 7.33268C11.8534 7.33268 12.0026 7.18344 12.0026 6.99935C12.0026 6.81525 11.8534 6.66602 11.6693 6.66602C11.4852 6.66602 11.3359 6.81525 11.3359 6.99935C11.3359 7.18344 11.4852 7.33268 11.6693 7.33268Z" fill="#09090B" stroke="#09090B" stroke-width="1.33333" stroke-linecap="round" stroke-linejoin="round"/>
<path d="M5.66927 5.33268C5.85337 5.33268 6.0026 5.18344 6.0026 4.99935C6.0026 4.81525 5.85337 4.66602 5.66927 4.66602C5.48518 4.66602 5.33594 4.81525 5.33594 4.99935C5.33594 5.18344 5.48518 5.33268 5.66927 5.33268Z" fill="#09090B" stroke="#09090B" stroke-width="1.33333" stroke-linecap="round" stroke-linejoin="round"/>
<path d="M4.33333 8.66667C4.51743 8.66667 4.66667 8.51743 4.66667 8.33333C4.66667 8.14924 4.51743 8 4.33333 8C4.14924 8 4 8.14924 4 8.33333C4 8.51743 4.14924 8.66667 4.33333 8.66667Z" fill="#09090B" stroke="#09090B" stroke-width="1.33333" stroke-linecap="round" stroke-linejoin="round"/>
<path d="M8.0026 1.33398C4.33594 1.33398 1.33594 4.33398 1.33594 8.00065C1.33594 11.6673 4.33594 14.6673 8.0026 14.6673C8.61994 14.6673 9.10127 14.17 9.10127 13.542C9.10127 13.2507 8.98127 12.9853 8.80994 12.792C8.6166 12.5993 8.51794 12.3573 8.51794 12.042C8.51541 11.8953 8.54245 11.7495 8.59744 11.6135C8.65242 11.4774 8.73424 11.3538 8.83801 11.2501C8.94177 11.1463 9.06537 11.0645 9.20142 11.0095C9.33748 10.9545 9.48321 10.9275 9.62994 10.93H10.9606C12.9946 10.93 14.6639 9.26132 14.6639 7.22732C14.6459 4.00865 11.6433 1.33398 8.0026 1.33398Z" stroke="#09090B" stroke-width="1.33333" stroke-linecap="round" stroke-linejoin="round"/>
</svg>
