<svg width="20" height="20" viewBox="0 0 20 20" fill="none" xmlns="http://www.w3.org/2000/svg">
<path d="M6.6145 4.81284L6.61431 4.81267C6.22372 4.46802 5.71243 4.29228 5.19249 4.32397C4.67255 4.35566 4.18638 4.59219 3.84055 4.98173L3.72927 5.10659L3.72927 5.10659L3.7289 5.107C3.3847 5.49753 3.20947 6.00865 3.24165 6.52822C3.27384 7.04779 3.51082 7.53338 3.90059 7.87844C4.29036 8.2235 4.8011 8.39986 5.32074 8.36882C5.84038 8.33777 6.32648 8.10186 6.6724 7.71285L6.78395 7.58804L6.78395 7.58804L6.78438 7.58756C7.12915 7.19679 7.30488 6.68523 7.27304 6.16508C7.24119 5.64493 7.00437 5.15864 6.6145 4.81284ZM6.11271 7.21832L6.11263 7.21841C5.89839 7.46049 5.59676 7.60755 5.27409 7.62724C4.95143 7.64693 4.63415 7.53763 4.39207 7.32339C4.14999 7.10915 4.00293 6.80752 3.98324 6.48485C3.96355 6.16219 4.07285 5.84491 4.28709 5.60283L4.2871 5.60282L4.3985 5.47689C4.39851 5.47688 4.39851 5.47688 4.39851 5.47688C4.61275 5.23476 4.9144 5.08767 5.23709 5.06795C5.55979 5.04824 5.8771 5.15752 6.11922 5.37176C6.36134 5.586 6.50844 5.88765 6.52815 6.21035C6.54787 6.53304 6.43859 6.85036 6.22434 7.09248L6.11271 7.21832Z" fill="#09090B" stroke="#09090B" stroke-width="0.2"/>
<path d="M4.28908 14.3975L4.2891 14.3975L4.40041 14.5233L4.28908 14.3975ZM4.28908 14.3975C4.07484 14.1554 3.96553 13.8382 3.98519 13.5155C4.00485 13.1929 4.15187 12.8913 4.39391 12.6771C4.63596 12.4628 4.95319 12.3535 5.27583 12.3732C5.59846 12.3928 5.90006 12.5398 6.1143 12.7819C6.1143 12.7819 6.11431 12.7819 6.11432 12.7819L6.22565 12.9077C6.43954 13.15 6.54863 13.4671 6.52897 13.7897C6.50932 14.1122 6.36259 14.4137 6.12096 14.6282C5.87874 14.8421 5.56156 14.9511 5.23901 14.9315M4.28908 14.3975L5.23901 14.9315M5.23901 14.9315C4.91651 14.9118 4.61496 14.7651 4.4005 14.5234L5.23901 14.9315ZM3.72979 14.8924L3.73001 14.8926L3.84082 15.0169C4.01049 15.2143 4.21766 15.376 4.45032 15.4927C4.68326 15.6095 4.9371 15.6788 5.19708 15.6966C5.45705 15.7144 5.71797 15.6803 5.96465 15.5963C6.21134 15.5124 6.43887 15.3802 6.63401 15.2075C6.82915 15.0348 6.988 14.8251 7.10134 14.5904C7.21467 14.3558 7.28021 14.1009 7.29416 13.8407C7.3081 13.5805 7.27017 13.3201 7.18257 13.0747C7.09505 12.8295 6.95969 12.6042 6.78436 12.4117L6.67345 12.2865C6.67344 12.2865 6.67344 12.2865 6.67343 12.2865C6.32788 11.8962 5.84141 11.6591 5.32105 11.6274C4.80069 11.5957 4.28905 11.7721 3.8987 12.1176C3.50834 12.4632 3.27125 12.9496 3.23957 13.47C3.2079 13.9904 3.38423 14.502 3.72979 14.8924Z" fill="#09090B" stroke="#09090B" stroke-width="0.2"/>
<path d="M9.2943 9.22717C9.14145 9.22717 8.99203 9.2725 8.86495 9.35741C8.73786 9.44233 8.6388 9.56303 8.58031 9.70424C8.52182 9.84546 8.50651 10.0008 8.53633 10.1508C8.56615 10.3007 8.63976 10.4384 8.74784 10.5464C8.85592 10.6545 8.99362 10.7281 9.14353 10.7579C9.29344 10.7878 9.44883 10.7725 9.59004 10.714C9.73125 10.6555 9.85195 10.5564 9.93687 10.4293C10.0218 10.3022 10.0671 10.1528 10.0671 9.99999C10.0669 9.79509 9.98542 9.59864 9.84053 9.45375C9.69564 9.30887 9.4992 9.22738 9.2943 9.22717ZM9.2943 10.2259C9.24961 10.2259 9.20593 10.2127 9.16877 10.1878C9.13162 10.163 9.10266 10.1277 9.08556 10.0864C9.06846 10.0452 9.06398 9.99973 9.0727 9.95591C9.08142 9.91208 9.10294 9.87182 9.13454 9.84022C9.16613 9.80863 9.20639 9.78711 9.25022 9.77839C9.29405 9.76967 9.33947 9.77415 9.38076 9.79125C9.42204 9.80835 9.45733 9.83731 9.48216 9.87446C9.50698 9.91162 9.52024 9.9553 9.52024 9.99999C9.52015 10.0599 9.49632 10.1173 9.45397 10.1597C9.41161 10.202 9.35419 10.2258 9.2943 10.2259Z" fill="#09090B"/>
<mask id="path-4-outside-1_195_1682" maskUnits="userSpaceOnUse" x="0.992188" y="2.07779" width="18" height="15" fill="black">
<rect fill="white" x="0.992188" y="2.07779" width="18" height="15"/>
<path d="M11.1133 9.99999L17.9115 4.33968C17.9396 4.31627 17.9626 4.28748 17.9793 4.25501C17.9961 4.22254 18.0061 4.18705 18.0089 4.15063C18.0116 4.11422 18.0071 4.07762 17.9955 4.043C17.9838 4.00837 17.9654 3.97643 17.9412 3.94905C17.7074 3.68659 17.4227 3.47435 17.1044 3.32518C16.7861 3.17601 16.4408 3.09302 16.0895 3.08124C15.6912 3.06809 15.2943 3.13456 14.9221 3.27676C14.5498 3.41896 14.2096 3.63403 13.9215 3.90936L9.40327 8.23858C9.36733 8.2364 9.33155 8.23311 9.29514 8.23311C9.20284 8.23379 9.11073 8.24174 9.01967 8.25687L8.2353 7.60374C8.551 6.90442 8.60549 6.11508 8.38885 5.37902C8.17222 4.64295 7.69883 4.00897 7.05463 3.59217C6.41043 3.17536 5.63813 3.00337 4.87794 3.10741C4.11775 3.21146 3.42006 3.58464 2.91155 4.15921L2.79998 4.28421C2.29812 4.84996 2.01237 5.57488 1.99322 6.3309C1.97406 7.08693 2.22274 7.82539 2.69532 8.41582C3.16789 9.00626 3.83395 9.41066 4.5758 9.55758C5.31766 9.7045 6.08757 9.58449 6.74952 9.21874L7.52999 9.96671C7.52999 9.97796 7.52827 9.9889 7.52827 10.0003C7.52827 10.0117 7.52967 10.0226 7.52999 10.0339L6.74952 10.7812C6.08767 10.4161 5.31809 10.2964 4.57663 10.4435C3.83516 10.5905 3.16948 10.9948 2.6971 11.5849C2.22471 12.1751 1.97599 12.9131 1.99485 13.6688C2.0137 14.4244 2.29892 15.1492 2.80014 15.715L2.91139 15.8408C3.1898 16.1569 3.52814 16.4148 3.90684 16.5994C4.28553 16.7839 4.69707 16.8916 5.11764 16.9161C5.1842 16.92 5.25061 16.9222 5.31686 16.9222C5.85231 16.9214 6.37905 16.7866 6.84902 16.53C7.31899 16.2734 7.71723 15.9032 8.00741 15.4532C8.29758 15.0032 8.47046 14.4877 8.51027 13.9537C8.55007 13.4197 8.45554 12.8843 8.2353 12.3962L9.01967 11.7431C9.11073 11.7582 9.20284 11.7662 9.29514 11.7669C9.33155 11.7669 9.36733 11.7636 9.40327 11.7614L13.9225 16.0922C14.4738 16.6192 15.2055 16.916 15.9683 16.9219C16.0086 16.9219 16.049 16.921 16.0895 16.9192C16.4408 16.9074 16.7861 16.8244 17.1044 16.6753C17.4227 16.5261 17.7074 16.3139 17.9412 16.0514C17.9654 16.024 17.9838 15.9921 17.9955 15.9575C18.0071 15.9228 18.0116 15.8862 18.0089 15.8498C18.0061 15.8134 17.9961 15.7779 17.9793 15.7454C17.9626 15.713 17.9396 15.6842 17.9115 15.6608L11.1133 9.99999ZM9.29514 11.22C9.20279 11.2197 9.11079 11.2087 9.02092 11.1875C8.75242 11.1255 8.51286 10.9743 8.34132 10.7587C8.16978 10.543 8.07639 10.2756 8.07639 9.99999C8.07639 9.72442 8.16978 9.45699 8.34132 9.24132C8.51286 9.02566 8.75242 8.87449 9.02092 8.81249H9.02217C9.19621 8.7716 9.37713 8.76963 9.55201 8.80673C9.7269 8.84383 9.89143 8.91908 10.0339 9.0271C10.1763 9.13513 10.2932 9.27328 10.3761 9.43167C10.459 9.59007 10.5059 9.76481 10.5134 9.94343V9.94671C10.5142 9.96468 10.5161 9.98218 10.5161 10.0003C10.5161 10.0184 10.5142 10.0359 10.5134 10.0539V10.0572C10.4986 10.3704 10.3638 10.6659 10.1369 10.8823C9.91013 11.0988 9.60869 11.2197 9.29514 11.22ZM14.299 4.30452C14.5334 4.07939 14.8105 3.90347 15.1139 3.78711C15.4173 3.67075 15.741 3.61632 16.0658 3.62702C16.5295 3.64288 16.9745 3.81382 17.3295 4.11249L10.9606 9.41546C10.8816 9.19185 10.7585 8.98637 10.5987 8.81114C10.4389 8.63592 10.2456 8.49452 10.0301 8.3953L14.299 4.30452ZM6.97764 8.67952C6.93325 8.63696 6.8758 8.61061 6.81459 8.60474C6.75337 8.59888 6.69197 8.61383 6.6403 8.64718C6.10005 8.99497 5.45218 9.13545 4.8164 9.04266C4.18063 8.94987 3.59993 8.63008 3.18162 8.14239C2.76331 7.6547 2.53567 7.03208 2.54077 6.38959C2.54587 5.74709 2.78336 5.12817 3.20936 4.64718L3.32092 4.52218C3.75334 4.03373 4.35019 3.72125 4.99797 3.64416C5.64575 3.56707 6.29926 3.73076 6.83423 4.10408C7.3692 4.47741 7.74829 5.03433 7.89942 5.66893C8.05055 6.30354 7.96317 6.97155 7.65389 7.54593C7.62391 7.60147 7.61406 7.66567 7.62603 7.72764C7.63799 7.78961 7.67102 7.84554 7.71952 7.88593L8.41858 8.46874C8.07663 8.66497 7.8097 8.9694 7.65983 9.33405L6.97764 8.67952ZM7.71952 12.1141C7.67102 12.1544 7.63799 12.2104 7.62603 12.2723C7.61406 12.3343 7.62391 12.3985 7.65389 12.4541C7.9632 13.0285 8.05061 13.6965 7.89949 14.3311C7.74837 14.9658 7.36927 15.5228 6.83428 15.8961C6.2993 16.2695 5.64575 16.4332 4.99793 16.3561C4.35012 16.279 3.75322 15.9666 3.32077 15.4781L3.20952 15.3531C2.78331 14.8722 2.54563 14.2532 2.54043 13.6106C2.53522 12.9681 2.76284 12.3453 3.18119 11.8575C3.59955 11.3698 4.18036 11.05 4.81624 10.9572C5.45212 10.8645 6.10007 11.0051 6.6403 11.3531C6.69194 11.3865 6.75336 11.4015 6.8146 11.3957C6.87584 11.3898 6.93329 11.3634 6.97764 11.3208L7.65983 10.667C7.8097 11.0317 8.07663 11.3361 8.41858 11.5323L7.71952 12.1141ZM16.0658 16.373C15.7413 16.3832 15.418 16.3287 15.1148 16.2125C14.8116 16.0964 14.5347 15.9209 14.3001 15.6964L10.0301 11.6047C10.2456 11.5055 10.4389 11.3641 10.5987 11.1888C10.7585 11.0136 10.8816 10.8081 10.9606 10.5845L17.3295 15.8875C16.9745 16.1862 16.5295 16.3571 16.0658 16.373Z"/>
</mask>
<path d="M11.1133 9.99999L17.9115 4.33968C17.9396 4.31627 17.9626 4.28748 17.9793 4.25501C17.9961 4.22254 18.0061 4.18705 18.0089 4.15063C18.0116 4.11422 18.0071 4.07762 17.9955 4.043C17.9838 4.00837 17.9654 3.97643 17.9412 3.94905C17.7074 3.68659 17.4227 3.47435 17.1044 3.32518C16.7861 3.17601 16.4408 3.09302 16.0895 3.08124C15.6912 3.06809 15.2943 3.13456 14.9221 3.27676C14.5498 3.41896 14.2096 3.63403 13.9215 3.90936L9.40327 8.23858C9.36733 8.2364 9.33155 8.23311 9.29514 8.23311C9.20284 8.23379 9.11073 8.24174 9.01967 8.25687L8.2353 7.60374C8.551 6.90442 8.60549 6.11508 8.38885 5.37902C8.17222 4.64295 7.69883 4.00897 7.05463 3.59217C6.41043 3.17536 5.63813 3.00337 4.87794 3.10741C4.11775 3.21146 3.42006 3.58464 2.91155 4.15921L2.79998 4.28421C2.29812 4.84996 2.01237 5.57488 1.99322 6.3309C1.97406 7.08693 2.22274 7.82539 2.69532 8.41582C3.16789 9.00626 3.83395 9.41066 4.5758 9.55758C5.31766 9.7045 6.08757 9.58449 6.74952 9.21874L7.52999 9.96671C7.52999 9.97796 7.52827 9.9889 7.52827 10.0003C7.52827 10.0117 7.52967 10.0226 7.52999 10.0339L6.74952 10.7812C6.08767 10.4161 5.31809 10.2964 4.57663 10.4435C3.83516 10.5905 3.16948 10.9948 2.6971 11.5849C2.22471 12.1751 1.97599 12.9131 1.99485 13.6688C2.0137 14.4244 2.29892 15.1492 2.80014 15.715L2.91139 15.8408C3.1898 16.1569 3.52814 16.4148 3.90684 16.5994C4.28553 16.7839 4.69707 16.8916 5.11764 16.9161C5.1842 16.92 5.25061 16.9222 5.31686 16.9222C5.85231 16.9214 6.37905 16.7866 6.84902 16.53C7.31899 16.2734 7.71723 15.9032 8.00741 15.4532C8.29758 15.0032 8.47046 14.4877 8.51027 13.9537C8.55007 13.4197 8.45554 12.8843 8.2353 12.3962L9.01967 11.7431C9.11073 11.7582 9.20284 11.7662 9.29514 11.7669C9.33155 11.7669 9.36733 11.7636 9.40327 11.7614L13.9225 16.0922C14.4738 16.6192 15.2055 16.916 15.9683 16.9219C16.0086 16.9219 16.049 16.921 16.0895 16.9192C16.4408 16.9074 16.7861 16.8244 17.1044 16.6753C17.4227 16.5261 17.7074 16.3139 17.9412 16.0514C17.9654 16.024 17.9838 15.9921 17.9955 15.9575C18.0071 15.9228 18.0116 15.8862 18.0089 15.8498C18.0061 15.8134 17.9961 15.7779 17.9793 15.7454C17.9626 15.713 17.9396 15.6842 17.9115 15.6608L11.1133 9.99999ZM9.29514 11.22C9.20279 11.2197 9.11079 11.2087 9.02092 11.1875C8.75242 11.1255 8.51286 10.9743 8.34132 10.7587C8.16978 10.543 8.07639 10.2756 8.07639 9.99999C8.07639 9.72442 8.16978 9.45699 8.34132 9.24132C8.51286 9.02566 8.75242 8.87449 9.02092 8.81249H9.02217C9.19621 8.7716 9.37713 8.76963 9.55201 8.80673C9.7269 8.84383 9.89143 8.91908 10.0339 9.0271C10.1763 9.13513 10.2932 9.27328 10.3761 9.43167C10.459 9.59007 10.5059 9.76481 10.5134 9.94343V9.94671C10.5142 9.96468 10.5161 9.98218 10.5161 10.0003C10.5161 10.0184 10.5142 10.0359 10.5134 10.0539V10.0572C10.4986 10.3704 10.3638 10.6659 10.1369 10.8823C9.91013 11.0988 9.60869 11.2197 9.29514 11.22ZM14.299 4.30452C14.5334 4.07939 14.8105 3.90347 15.1139 3.78711C15.4173 3.67075 15.741 3.61632 16.0658 3.62702C16.5295 3.64288 16.9745 3.81382 17.3295 4.11249L10.9606 9.41546C10.8816 9.19185 10.7585 8.98637 10.5987 8.81114C10.4389 8.63592 10.2456 8.49452 10.0301 8.3953L14.299 4.30452ZM6.97764 8.67952C6.93325 8.63696 6.8758 8.61061 6.81459 8.60474C6.75337 8.59888 6.69197 8.61383 6.6403 8.64718C6.10005 8.99497 5.45218 9.13545 4.8164 9.04266C4.18063 8.94987 3.59993 8.63008 3.18162 8.14239C2.76331 7.6547 2.53567 7.03208 2.54077 6.38959C2.54587 5.74709 2.78336 5.12817 3.20936 4.64718L3.32092 4.52218C3.75334 4.03373 4.35019 3.72125 4.99797 3.64416C5.64575 3.56707 6.29926 3.73076 6.83423 4.10408C7.3692 4.47741 7.74829 5.03433 7.89942 5.66893C8.05055 6.30354 7.96317 6.97155 7.65389 7.54593C7.62391 7.60147 7.61406 7.66567 7.62603 7.72764C7.63799 7.78961 7.67102 7.84554 7.71952 7.88593L8.41858 8.46874C8.07663 8.66497 7.8097 8.9694 7.65983 9.33405L6.97764 8.67952ZM7.71952 12.1141C7.67102 12.1544 7.63799 12.2104 7.62603 12.2723C7.61406 12.3343 7.62391 12.3985 7.65389 12.4541C7.9632 13.0285 8.05061 13.6965 7.89949 14.3311C7.74837 14.9658 7.36927 15.5228 6.83428 15.8961C6.2993 16.2695 5.64575 16.4332 4.99793 16.3561C4.35012 16.279 3.75322 15.9666 3.32077 15.4781L3.20952 15.3531C2.78331 14.8722 2.54563 14.2532 2.54043 13.6106C2.53522 12.9681 2.76284 12.3453 3.18119 11.8575C3.59955 11.3698 4.18036 11.05 4.81624 10.9572C5.45212 10.8645 6.10007 11.0051 6.6403 11.3531C6.69194 11.3865 6.75336 11.4015 6.8146 11.3957C6.87584 11.3898 6.93329 11.3634 6.97764 11.3208L7.65983 10.667C7.8097 11.0317 8.07663 11.3361 8.41858 11.5323L7.71952 12.1141ZM16.0658 16.373C15.7413 16.3832 15.418 16.3287 15.1148 16.2125C14.8116 16.0964 14.5347 15.9209 14.3001 15.6964L10.0301 11.6047C10.2456 11.5055 10.4389 11.3641 10.5987 11.1888C10.7585 11.0136 10.8816 10.8081 10.9606 10.5845L17.3295 15.8875C16.9745 16.1862 16.5295 16.3571 16.0658 16.373Z" fill="#09090B"/>
<path d="M11.1133 9.99999L17.9115 4.33968C17.9396 4.31627 17.9626 4.28748 17.9793 4.25501C17.9961 4.22254 18.0061 4.18705 18.0089 4.15063C18.0116 4.11422 18.0071 4.07762 17.9955 4.043C17.9838 4.00837 17.9654 3.97643 17.9412 3.94905C17.7074 3.68659 17.4227 3.47435 17.1044 3.32518C16.7861 3.17601 16.4408 3.09302 16.0895 3.08124C15.6912 3.06809 15.2943 3.13456 14.9221 3.27676C14.5498 3.41896 14.2096 3.63403 13.9215 3.90936L9.40327 8.23858C9.36733 8.2364 9.33155 8.23311 9.29514 8.23311C9.20284 8.23379 9.11073 8.24174 9.01967 8.25687L8.2353 7.60374C8.551 6.90442 8.60549 6.11508 8.38885 5.37902C8.17222 4.64295 7.69883 4.00897 7.05463 3.59217C6.41043 3.17536 5.63813 3.00337 4.87794 3.10741C4.11775 3.21146 3.42006 3.58464 2.91155 4.15921L2.79998 4.28421C2.29812 4.84996 2.01237 5.57488 1.99322 6.3309C1.97406 7.08693 2.22274 7.82539 2.69532 8.41582C3.16789 9.00626 3.83395 9.41066 4.5758 9.55758C5.31766 9.7045 6.08757 9.58449 6.74952 9.21874L7.52999 9.96671C7.52999 9.97796 7.52827 9.9889 7.52827 10.0003C7.52827 10.0117 7.52967 10.0226 7.52999 10.0339L6.74952 10.7812C6.08767 10.4161 5.31809 10.2964 4.57663 10.4435C3.83516 10.5905 3.16948 10.9948 2.6971 11.5849C2.22471 12.1751 1.97599 12.9131 1.99485 13.6688C2.0137 14.4244 2.29892 15.1492 2.80014 15.715L2.91139 15.8408C3.1898 16.1569 3.52814 16.4148 3.90684 16.5994C4.28553 16.7839 4.69707 16.8916 5.11764 16.9161C5.1842 16.92 5.25061 16.9222 5.31686 16.9222C5.85231 16.9214 6.37905 16.7866 6.84902 16.53C7.31899 16.2734 7.71723 15.9032 8.00741 15.4532C8.29758 15.0032 8.47046 14.4877 8.51027 13.9537C8.55007 13.4197 8.45554 12.8843 8.2353 12.3962L9.01967 11.7431C9.11073 11.7582 9.20284 11.7662 9.29514 11.7669C9.33155 11.7669 9.36733 11.7636 9.40327 11.7614L13.9225 16.0922C14.4738 16.6192 15.2055 16.916 15.9683 16.9219C16.0086 16.9219 16.049 16.921 16.0895 16.9192C16.4408 16.9074 16.7861 16.8244 17.1044 16.6753C17.4227 16.5261 17.7074 16.3139 17.9412 16.0514C17.9654 16.024 17.9838 15.9921 17.9955 15.9575C18.0071 15.9228 18.0116 15.8862 18.0089 15.8498C18.0061 15.8134 17.9961 15.7779 17.9793 15.7454C17.9626 15.713 17.9396 15.6842 17.9115 15.6608L11.1133 9.99999ZM9.29514 11.22C9.20279 11.2197 9.11079 11.2087 9.02092 11.1875C8.75242 11.1255 8.51286 10.9743 8.34132 10.7587C8.16978 10.543 8.07639 10.2756 8.07639 9.99999C8.07639 9.72442 8.16978 9.45699 8.34132 9.24132C8.51286 9.02566 8.75242 8.87449 9.02092 8.81249H9.02217C9.19621 8.7716 9.37713 8.76963 9.55201 8.80673C9.7269 8.84383 9.89143 8.91908 10.0339 9.0271C10.1763 9.13513 10.2932 9.27328 10.3761 9.43167C10.459 9.59007 10.5059 9.76481 10.5134 9.94343V9.94671C10.5142 9.96468 10.5161 9.98218 10.5161 10.0003C10.5161 10.0184 10.5142 10.0359 10.5134 10.0539V10.0572C10.4986 10.3704 10.3638 10.6659 10.1369 10.8823C9.91013 11.0988 9.60869 11.2197 9.29514 11.22ZM14.299 4.30452C14.5334 4.07939 14.8105 3.90347 15.1139 3.78711C15.4173 3.67075 15.741 3.61632 16.0658 3.62702C16.5295 3.64288 16.9745 3.81382 17.3295 4.11249L10.9606 9.41546C10.8816 9.19185 10.7585 8.98637 10.5987 8.81114C10.4389 8.63592 10.2456 8.49452 10.0301 8.3953L14.299 4.30452ZM6.97764 8.67952C6.93325 8.63696 6.8758 8.61061 6.81459 8.60474C6.75337 8.59888 6.69197 8.61383 6.6403 8.64718C6.10005 8.99497 5.45218 9.13545 4.8164 9.04266C4.18063 8.94987 3.59993 8.63008 3.18162 8.14239C2.76331 7.6547 2.53567 7.03208 2.54077 6.38959C2.54587 5.74709 2.78336 5.12817 3.20936 4.64718L3.32092 4.52218C3.75334 4.03373 4.35019 3.72125 4.99797 3.64416C5.64575 3.56707 6.29926 3.73076 6.83423 4.10408C7.3692 4.47741 7.74829 5.03433 7.89942 5.66893C8.05055 6.30354 7.96317 6.97155 7.65389 7.54593C7.62391 7.60147 7.61406 7.66567 7.62603 7.72764C7.63799 7.78961 7.67102 7.84554 7.71952 7.88593L8.41858 8.46874C8.07663 8.66497 7.8097 8.9694 7.65983 9.33405L6.97764 8.67952ZM7.71952 12.1141C7.67102 12.1544 7.63799 12.2104 7.62603 12.2723C7.61406 12.3343 7.62391 12.3985 7.65389 12.4541C7.9632 13.0285 8.05061 13.6965 7.89949 14.3311C7.74837 14.9658 7.36927 15.5228 6.83428 15.8961C6.2993 16.2695 5.64575 16.4332 4.99793 16.3561C4.35012 16.279 3.75322 15.9666 3.32077 15.4781L3.20952 15.3531C2.78331 14.8722 2.54563 14.2532 2.54043 13.6106C2.53522 12.9681 2.76284 12.3453 3.18119 11.8575C3.59955 11.3698 4.18036 11.05 4.81624 10.9572C5.45212 10.8645 6.10007 11.0051 6.6403 11.3531C6.69194 11.3865 6.75336 11.4015 6.8146 11.3957C6.87584 11.3898 6.93329 11.3634 6.97764 11.3208L7.65983 10.667C7.8097 11.0317 8.07663 11.3361 8.41858 11.5323L7.71952 12.1141ZM16.0658 16.373C15.7413 16.3832 15.418 16.3287 15.1148 16.2125C14.8116 16.0964 14.5347 15.9209 14.3001 15.6964L10.0301 11.6047C10.2456 11.5055 10.4389 11.3641 10.5987 11.1888C10.7585 11.0136 10.8816 10.8081 10.9606 10.5845L17.3295 15.8875C16.9745 16.1862 16.5295 16.3571 16.0658 16.373Z" stroke="#09090B" stroke-width="0.2" mask="url(#path-4-outside-1_195_1682)"/>
</svg>
