<svg width="17" height="16" viewBox="0 0 17 16" fill="none" xmlns="http://www.w3.org/2000/svg">
<path d="M15.1667 7.26732V2.73398C15.1667 1.73398 14.74 1.33398 13.68 1.33398H10.9867C9.92667 1.33398 9.5 1.73398 9.5 2.73398V7.26732C9.5 8.26732 9.92667 8.66732 10.9867 8.66732H13.68C14.74 8.66732 15.1667 8.26732 15.1667 7.26732Z" stroke="#09090B" stroke-linecap="round" stroke-linejoin="round"/>
<path d="M15.1667 13.266V12.066C15.1667 11.066 14.74 10.666 13.68 10.666H10.9867C9.92667 10.666 9.5 11.066 9.5 12.066V13.266C9.5 14.266 9.92667 14.666 10.9867 14.666H13.68C14.74 14.666 15.1667 14.266 15.1667 13.266Z" stroke="#09090B" stroke-linecap="round" stroke-linejoin="round"/>
<path d="M7.5026 8.73398V13.2673C7.5026 14.2673 7.07594 14.6673 6.01594 14.6673H3.3226C2.2626 14.6673 1.83594 14.2673 1.83594 13.2673V8.73398C1.83594 7.73398 2.2626 7.33398 3.3226 7.33398H6.01594C7.07594 7.33398 7.5026 7.73398 7.5026 8.73398Z" stroke="#09090B" stroke-linecap="round" stroke-linejoin="round"/>
<path d="M7.5026 2.73398V3.93398C7.5026 4.93398 7.07594 5.33398 6.01594 5.33398H3.3226C2.2626 5.33398 1.83594 4.93398 1.83594 3.93398V2.73398C1.83594 1.73398 2.2626 1.33398 3.3226 1.33398H6.01594C7.07594 1.33398 7.5026 1.73398 7.5026 2.73398Z" stroke="#09090B" stroke-linecap="round" stroke-linejoin="round"/>
</svg>
