<svg width="25" height="25" viewBox="0 0 25 25" fill="none" xmlns="http://www.w3.org/2000/svg">
<path d="M10.375 12.5C10.375 13.7405 11.3845 14.75 12.625 14.75C13.8655 14.75 14.875 13.7405 14.875 12.5C14.875 11.2595 13.8655 10.25 12.625 10.25C11.3845 10.25 10.375 11.2595 10.375 12.5Z" fill="#71717A"/>
<path d="M10.375 20C10.375 21.2405 11.3845 22.25 12.625 22.25C13.8655 22.25 14.875 21.2405 14.875 20C14.875 18.7595 13.8655 17.75 12.625 17.75C11.3845 17.75 10.375 18.7595 10.375 20Z" fill="#71717A"/>
<path d="M10.375 5C10.375 6.2405 11.3845 7.25 12.625 7.25C13.8655 7.25 14.875 6.2405 14.875 5C14.875 3.7595 13.8655 2.75 12.625 2.75C11.3845 2.75 10.375 3.7595 10.375 5Z" fill="#71717A"/>
</svg>
