<svg width="18" height="19" viewBox="0 0 18 19" fill="none" xmlns="http://www.w3.org/2000/svg">
<path d="M14.25 8.75H3.75C2.92157 8.75 2.25 9.42157 2.25 10.25V15.5C2.25 16.3284 2.92157 17 3.75 17H14.25C15.0784 17 15.75 16.3284 15.75 15.5V10.25C15.75 9.42157 15.0784 8.75 14.25 8.75Z" stroke="#09090B" stroke-width="1.5" stroke-linecap="round" stroke-linejoin="round"/>
<path d="M5.25 8.75V5.75C5.25 4.75544 5.64509 3.80161 6.34835 3.09835C7.05161 2.39509 8.00544 2 9 2C9.99456 2 10.9484 2.39509 11.6517 3.09835C12.3549 3.80161 12.75 4.75544 12.75 5.75V8.75" stroke="#09090B" stroke-width="1.5" stroke-linecap="round" stroke-linejoin="round"/>
</svg>
