<svg width="20" height="20" viewBox="0 0 20 20" fill="none" xmlns="http://www.w3.org/2000/svg">
<path d="M8.55469 17.5C8.70097 17.7533 8.91137 17.9637 9.16472 18.11C9.41808 18.2563 9.70547 18.3333 9.99802 18.3333C10.2906 18.3333 10.578 18.2563 10.8313 18.11C11.0847 17.9637 11.2951 17.7533 11.4414 17.5" stroke="#09090B" stroke-width="1.66667" stroke-linecap="round" stroke-linejoin="round"/>
<path d="M2.71772 12.7717C2.60886 12.891 2.53702 13.0394 2.51094 13.1988C2.48486 13.3582 2.50566 13.5217 2.57081 13.6695C2.63597 13.8173 2.74267 13.943 2.87794 14.0312C3.0132 14.1195 3.17121 14.1666 3.33272 14.1667H16.6661C16.8276 14.1667 16.9856 14.1199 17.1209 14.0318C17.2563 13.9437 17.3631 13.8181 17.4285 13.6704C17.4938 13.5228 17.5148 13.3593 17.4889 13.1998C17.4631 13.0404 17.3914 12.892 17.2827 12.7725C16.1744 11.63 14.9994 10.4159 14.9994 6.66669C14.9994 5.3406 14.4726 4.06883 13.5349 3.13115C12.5972 2.19347 11.3255 1.66669 9.99939 1.66669C8.67331 1.66669 7.40154 2.19347 6.46386 3.13115C5.52618 4.06883 4.99939 5.3406 4.99939 6.66669C4.99939 10.4159 3.82356 11.63 2.71772 12.7717Z" stroke="#09090B" stroke-width="1.66667" stroke-linecap="round" stroke-linejoin="round"/>
</svg>
