<svg width="16" height="16" viewBox="0 0 16 16" fill="none" xmlns="http://www.w3.org/2000/svg">
<path d="M1.37761 8.23029C1.32205 8.08061 1.32205 7.91596 1.37761 7.76629C1.91874 6.45419 2.83728 5.33231 4.01679 4.54289C5.19629 3.75346 6.58364 3.33203 8.00294 3.33203C9.42225 3.33203 10.8096 3.75346 11.9891 4.54289C13.1686 5.33231 14.0871 6.45419 14.6283 7.76629C14.6838 7.91596 14.6838 8.08061 14.6283 8.23029C14.0871 9.54238 13.1686 10.6643 11.9891 11.4537C10.8096 12.2431 9.42225 12.6645 8.00294 12.6645C6.58364 12.6645 5.19629 12.2431 4.01679 11.4537C2.83728 10.6643 1.91874 9.54238 1.37761 8.23029Z" stroke="#71717A" stroke-width="1.33247" stroke-linecap="round" stroke-linejoin="round"/>
<path d="M8 10C9.10457 10 10 9.10457 10 8C10 6.89543 9.10457 6 8 6C6.89543 6 6 6.89543 6 8C6 9.10457 6.89543 10 8 10Z" stroke="#71717A" stroke-width="1.33247" stroke-linecap="round" stroke-linejoin="round"/>
</svg>
