<svg width="16" height="16" viewBox="0 0 16 16" fill="none" xmlns="http://www.w3.org/2000/svg">
<path d="M8.0026 8.66732C8.37079 8.66732 8.66927 8.36884 8.66927 8.00065C8.66927 7.63246 8.37079 7.33398 8.0026 7.33398C7.63441 7.33398 7.33594 7.63246 7.33594 8.00065C7.33594 8.36884 7.63441 8.66732 8.0026 8.66732Z" stroke="#71717A" stroke-width="1.33333" stroke-linecap="round" stroke-linejoin="round"/>
<path d="M12.6667 8.66732C13.0349 8.66732 13.3333 8.36884 13.3333 8.00065C13.3333 7.63246 13.0349 7.33398 12.6667 7.33398C12.2985 7.33398 12 7.63246 12 8.00065C12 8.36884 12.2985 8.66732 12.6667 8.66732Z" stroke="#71717A" stroke-width="1.33333" stroke-linecap="round" stroke-linejoin="round"/>
<path d="M3.33073 8.66732C3.69892 8.66732 3.9974 8.36884 3.9974 8.00065C3.9974 7.63246 3.69892 7.33398 3.33073 7.33398C2.96254 7.33398 2.66406 7.63246 2.66406 8.00065C2.66406 8.36884 2.96254 8.66732 3.33073 8.66732Z" stroke="#71717A" stroke-width="1.33333" stroke-linecap="round" stroke-linejoin="round"/>
</svg>
