<svg width="20" height="20" viewBox="0 0 20 20" fill="none" xmlns="http://www.w3.org/2000/svg">
<path d="M14.0023 2.3999H6.00234C5.04789 2.40096 4.13283 2.78059 3.45793 3.45549C2.78303 4.13039 2.4034 5.04545 2.40234 5.9999V13.9999C2.4034 14.9544 2.78303 15.8694 3.45793 16.5443C4.13283 17.2192 5.04789 17.5988 6.00234 17.5999H14.0023C14.9568 17.5988 15.8719 17.2192 16.5468 16.5443C17.2217 15.8694 17.6013 14.9544 17.6023 13.9999V5.9999C17.6013 5.04545 17.2217 4.13039 16.5468 3.45549C15.8719 2.78059 14.9568 2.40096 14.0023 2.3999ZM6.00234 3.1999H14.0023C14.7449 3.1999 15.4571 3.4949 15.9822 4.02C16.5073 4.54511 16.8023 5.2573 16.8023 5.9999V12.4103C16.177 12.3014 15.5995 12.0051 15.1463 11.5607C14.69 11.0757 14.0668 10.7816 13.4023 10.7375C12.8397 10.7741 12.2933 10.9412 11.8063 11.2255C11.2561 11.5438 10.6374 11.7251 10.0023 11.7543C9.64874 11.7543 9.53754 11.4855 9.36234 10.6231C9.18154 9.7327 8.91434 8.3871 7.23914 8.6591C5.67218 9.03705 4.26148 9.89281 3.20234 11.1079V5.9999C3.20234 5.2573 3.49734 4.54511 4.02244 4.02C4.54755 3.4949 5.25974 3.1999 6.00234 3.1999ZM14.0023 16.7999H6.00234C5.25974 16.7999 4.54755 16.5049 4.02244 15.9798C3.49734 15.4547 3.20234 14.7425 3.20234 13.9999V12.3247C3.57754 11.8511 5.31914 9.7847 7.36714 9.4495C8.18794 9.3135 8.35674 9.7063 8.57754 10.7831C8.72954 11.5311 8.93914 12.5543 10.0023 12.5543C10.759 12.5286 11.4981 12.3194 12.1559 11.9447C12.5357 11.7175 12.9617 11.5783 13.4023 11.5375C13.8762 11.5907 14.3137 11.8169 14.6311 12.1727C15.221 12.7517 15.983 13.1234 16.8023 13.2319V13.9999C16.8023 14.7425 16.5073 15.4547 15.9822 15.9798C15.4571 16.5049 14.7449 16.7999 14.0023 16.7999ZM12.5175 9.5007C12.8748 9.5007 13.2241 9.39476 13.5211 9.19627C13.8182 8.99778 14.0497 8.71566 14.1864 8.38558C14.3232 8.05551 14.3589 7.6923 14.2892 7.34189C14.2195 6.99148 14.0475 6.66961 13.7949 6.41698C13.5422 6.16436 13.2204 5.99231 12.87 5.92261C12.5195 5.85291 12.1563 5.88868 11.8263 6.02541C11.4962 6.16213 11.2141 6.39366 11.0156 6.69072C10.8171 6.98778 10.7111 7.33703 10.7111 7.6943C10.7116 8.17326 10.902 8.63248 11.2407 8.97115C11.5794 9.30983 12.0386 9.50028 12.5175 9.5007ZM12.5175 6.6879C12.7166 6.6879 12.9112 6.74693 13.0767 6.85751C13.2422 6.9681 13.3712 7.12527 13.4473 7.30917C13.5235 7.49307 13.5434 7.69542 13.5046 7.89064C13.4658 8.08586 13.3699 8.26519 13.2292 8.40593C13.0884 8.54668 12.9091 8.64253 12.7139 8.68136C12.5187 8.7202 12.3163 8.70027 12.1324 8.62409C11.9485 8.54792 11.7913 8.41893 11.6808 8.25343C11.5702 8.08793 11.5111 7.89335 11.5111 7.6943C11.5114 7.42745 11.6175 7.17159 11.8061 6.9829C11.9948 6.79421 12.2507 6.68811 12.5175 6.6879Z" fill="#09090B"/>
</svg>
