<svg width="16" height="16" viewBox="0 0 16 16" fill="none" xmlns="http://www.w3.org/2000/svg">
<path d="M14.1979 4.02229C10.8354 -0.580214 3.59795 0.927286 2.25045 6.36479L1.44295 4.81729C1.38095 4.69993 1.27488 4.612 1.14805 4.57286C1.02123 4.53371 0.884054 4.54654 0.766696 4.60854C0.649338 4.67053 0.561413 4.77661 0.522265 4.90343C0.483117 5.03025 0.495951 5.16743 0.557946 5.28479L2.11295 8.23229C2.16493 8.32874 2.24715 8.40544 2.34697 8.45061C2.44679 8.49578 2.55868 8.50691 2.66545 8.48229C2.70801 8.46991 2.74976 8.45489 2.79045 8.43729L5.75045 6.88729C5.86814 6.82363 5.95572 6.71584 5.99393 6.58761C6.03214 6.45938 6.01785 6.32123 5.9542 6.20354C5.89054 6.08585 5.78275 5.99826 5.65452 5.96005C5.52629 5.92184 5.38814 5.93613 5.27045 5.99979L3.12045 7.13479C3.87045 2.15229 10.3704 0.499786 13.3904 4.61229C16.1679 8.31729 13.4129 13.7598 8.77795 13.7198C7.5598 13.7222 6.37314 13.333 5.39295 12.6098C5.34026 12.5685 5.27983 12.5382 5.21522 12.5207C5.15061 12.5032 5.08315 12.4988 5.01683 12.5079C4.95051 12.517 4.88668 12.5392 4.82913 12.5734C4.77158 12.6076 4.72148 12.653 4.68181 12.7069C4.64213 12.7608 4.61368 12.8222 4.59814 12.8873C4.58261 12.9524 4.5803 13.0199 4.59137 13.086C4.60243 13.152 4.62664 13.2151 4.66255 13.2716C4.69847 13.3281 4.74536 13.3768 4.80045 13.4148C5.95139 14.2663 7.34625 14.724 8.77795 14.7198C14.2229 14.7673 17.4604 8.37479 14.1979 4.02229Z" fill="#09090B"/>
</svg>
