<svg width="20" height="20" viewBox="0 0 20 20" fill="none" xmlns="http://www.w3.org/2000/svg">
<path d="M16.8569 13C16.8569 13.2369 16.665 13.4286 16.4283 13.4286H4.60574L6.4456 15.2684C6.61306 15.4359 6.61306 15.7071 6.4456 15.8744C6.36192 15.9581 6.25221 16 6.1426 16C6.03299 16 5.92328 15.9581 5.8396 15.8744L3.26818 13.303C3.10071 13.1355 3.10071 12.8644 3.26818 12.697L5.8396 10.1256C6.00706 9.95812 6.27824 9.95812 6.4456 10.1256C6.61295 10.293 6.61306 10.5642 6.4456 10.7316L4.60574 12.5714H16.4283C16.665 12.5714 16.8569 12.7631 16.8569 13ZM16.7313 6.69702L14.1599 4.1256C13.9924 3.95813 13.7212 3.95813 13.5539 4.1256C13.3865 4.29306 13.3864 4.56424 13.5539 4.7316L15.3937 6.57145H3.57118C3.3345 6.57145 3.1426 6.76313 3.1426 7.00002C3.1426 7.23691 3.3345 7.42859 3.57118 7.42859H15.3937L13.5539 9.26844C13.3864 9.43591 13.3864 9.70709 13.5539 9.87444C13.6375 9.95812 13.7473 10 13.8569 10C13.9665 10 14.0762 9.95812 14.1599 9.87444L16.7313 7.30302C16.8988 7.13566 16.8988 6.86438 16.7313 6.69702Z" fill="#09090B"/>
</svg>
