<svg width="20" height="20" viewBox="0 0 20 20" fill="none" xmlns="http://www.w3.org/2000/svg">
<path d="M10.6116 13.5581L8.16364 16.0063C8.16364 16.0063 8.16364 16.0063 8.16358 16.0063C8.16358 16.0063 8.16358 16.0064 8.16352 16.0064C7.15122 17.0188 5.50396 17.0189 4.49154 16.0064C4.00108 15.5159 3.73104 14.8638 3.73104 14.1703C3.73104 13.4768 4.00108 12.8248 4.49136 12.3343C4.49142 12.3342 4.49148 12.3342 4.49154 12.3341L6.93951 9.88599C7.27747 9.54796 7.27747 8.99989 6.93945 8.66192C6.6015 8.32395 6.05345 8.32395 5.71544 8.66192L3.26746 11.1101C3.26729 11.1102 3.26712 11.1105 3.26694 11.1106C2.44995 11.9279 2 13.0146 2 14.1703C2 15.3262 2.45013 16.413 3.26752 17.2305C4.11123 18.0741 5.21938 18.496 6.32759 18.496C7.4358 18.496 8.54401 18.0741 9.3876 17.2305C9.38766 17.2305 9.38766 17.2303 9.38766 17.2303L11.8356 14.7822C12.1736 14.4442 12.1736 13.8962 11.8356 13.5581C11.4977 13.2202 10.9497 13.2202 10.6116 13.5581Z" fill="#09090B"/>
<path d="M17.9995 6.8257C17.9995 5.66972 17.5493 4.58293 16.7319 3.76551C15.0445 2.07814 12.2991 2.07819 10.6118 3.76551C10.6118 3.76562 10.6116 3.76568 10.6116 3.76579L8.16367 6.21375C7.82565 6.55172 7.82565 7.09985 8.16367 7.43782C8.33273 7.60689 8.55419 7.69137 8.7757 7.69137C8.99716 7.69137 9.21873 7.60684 9.38768 7.43782L11.8356 4.98986C11.8357 4.98975 11.8358 4.98969 11.8359 4.98957C12.8482 3.97722 14.4954 3.97716 15.5079 4.98957C15.9983 5.48005 16.2684 6.13216 16.2684 6.8257C16.2684 7.51918 15.9984 8.17118 15.508 8.66166L15.5079 8.66183L13.0599 11.11C12.7219 11.4479 12.7219 11.996 13.06 12.334C13.229 12.503 13.4505 12.5876 13.6719 12.5876C13.8935 12.5876 14.115 12.503 14.284 12.334L16.7319 9.8859C16.7321 9.88572 16.7323 9.88549 16.7325 9.88532C17.5495 9.06801 17.9995 7.98139 17.9995 6.8257Z" fill="#09090B"/>
<path d="M6.94101 13.5584C7.11002 13.7274 7.33153 13.8119 7.55299 13.8119C7.7745 13.8119 7.99602 13.7274 8.16502 13.5584L13.0611 8.66211C13.3991 8.32414 13.3991 7.77608 13.0611 7.43805C12.7231 7.10008 12.1751 7.10008 11.8371 7.43805L6.94101 12.3343C6.603 12.6723 6.603 13.2204 6.94101 13.5584Z" fill="#09090B"/>
</svg>
