<svg width="24" height="24" viewBox="0 0 24 24" fill="none" xmlns="http://www.w3.org/2000/svg">
<path d="M21.9998 10.9996H4.41379L9.70679 5.70659C9.8023 5.61435 9.87848 5.504 9.93089 5.382C9.9833 5.25999 10.0109 5.12877 10.012 4.99599C10.0132 4.86321 9.98789 4.73154 9.93761 4.60864C9.88733 4.48574 9.81308 4.37409 9.71918 4.2802C9.62529 4.18631 9.51364 4.11205 9.39074 4.06177C9.26785 4.01149 9.13617 3.98619 9.00339 3.98734C8.87061 3.9885 8.73939 4.01608 8.61738 4.06849C8.49538 4.1209 8.38503 4.19708 8.29279 4.29259L1.29279 11.2926C1.10532 11.4801 1 11.7344 1 11.9996C1 12.2648 1.10532 12.5191 1.29279 12.7066L8.29279 19.7066C8.48139 19.8888 8.73399 19.9895 8.99619 19.9873C9.25838 19.985 9.5092 19.8798 9.69461 19.6944C9.88001 19.509 9.98518 19.2582 9.98746 18.996C9.98974 18.7338 9.88895 18.4812 9.70679 18.2926L4.41379 12.9996H21.9998C22.265 12.9996 22.5194 12.8942 22.7069 12.7067C22.8944 12.5192 22.9998 12.2648 22.9998 11.9996C22.9998 11.7344 22.8944 11.48 22.7069 11.2925C22.5194 11.1049 22.265 10.9996 21.9998 10.9996Z" fill="#09090B"/>
</svg>
