<svg width="16" height="16" viewBox="0 0 16 16" fill="none" xmlns="http://www.w3.org/2000/svg">
<g clip-path="url(#clip0_195_288)">
<path d="M15.3069 15.1066L10.7204 10.3368C11.8559 9.24268 12.5644 7.70843 12.5644 6.01075C12.5644 2.69636 9.86796 0 6.55372 0C3.23933 0 0.542969 2.69636 0.542969 6.01075C0.542969 9.32507 3.23933 12.0215 6.55372 12.0215C7.7902 12.0215 8.94042 11.6458 9.89702 11.0032L14.5462 15.8381C14.6498 15.9458 14.7882 16.0001 14.9266 16.0001C15.0582 16.0001 15.19 15.9512 15.2923 15.8527C15.5024 15.6507 15.5089 15.3166 15.3069 15.1066ZM1.59835 6.01075C1.59835 3.27837 3.82133 1.05538 6.55372 1.05538C9.2861 1.05538 11.509 3.27837 11.509 6.01075C11.509 8.74313 9.2861 10.9661 6.55372 10.9661C3.82133 10.966 1.59835 8.74313 1.59835 6.01075Z" fill="#09090B"/>
<path d="M9.24572 5.4834H3.86363C3.57213 5.4834 3.33594 5.71959 3.33594 6.01109C3.33594 6.30259 3.57213 6.53878 3.86363 6.53878H9.24572C9.53722 6.53878 9.77341 6.30259 9.77341 6.01109C9.77341 5.71959 9.53722 5.4834 9.24572 5.4834Z" fill="#09090B"/>
</g>
<defs>
<clipPath id="clip0_195_288">
<rect width="16" height="16" fill="white"/>
</clipPath>
</defs>
</svg>
