<svg width="20" height="20" viewBox="0 0 20 20" fill="none" xmlns="http://www.w3.org/2000/svg">
<path d="M18.4078 3.25596L6.92275 0L6.92279 11.034C6.44115 10.7407 5.8474 10.5819 5.21323 10.5819C4.36436 10.5819 3.52515 10.8579 2.85012 11.3592C2.11895 11.9022 1.66309 12.6612 1.59934 13.4418C1.53743 14.2003 1.85938 14.9486 2.46059 15.4435C2.9839 15.8742 3.69929 16.1115 4.47495 16.1115C4.843 16.1115 5.21389 16.0581 5.5774 15.9529C6.21869 15.7672 6.81982 15.4115 7.26997 14.9516C7.81118 14.3985 8.09645 13.7393 8.09501 13.045H8.09505V13.0434L8.09501 4.31802L17.2356 6.90933V14.9224C16.7539 14.6291 16.1602 14.4703 15.526 14.4703C14.6772 14.4703 13.8381 14.7464 13.1629 15.2476C12.4317 15.7906 11.9758 16.5496 11.9121 17.3302C11.8502 18.0887 12.1721 18.837 12.7733 19.3319C13.2967 19.7627 14.012 19.9999 14.7877 19.9999C15.1558 19.9999 15.5267 19.9466 15.8902 19.8413C16.5314 19.6556 17.1326 19.3 17.5827 18.84C18.1239 18.287 18.4092 17.6278 18.4078 16.9335L18.4078 16.9318H18.4078L18.4078 3.25596ZM5.25135 14.8269C4.99389 14.9014 4.73264 14.9392 4.47491 14.9392C3.97034 14.9392 3.51957 14.7969 3.2055 14.5384C2.90066 14.2875 2.73695 13.9132 2.76766 13.5372C2.80391 13.0929 3.08871 12.6421 3.5489 12.3004C4.0164 11.9532 4.623 11.7541 5.21319 11.7541C5.71779 11.7541 6.16873 11.8965 6.48299 12.1552C6.76158 12.3843 6.92185 12.7093 6.92275 13.0466C6.92505 13.8968 6.08365 14.5858 5.25135 14.8269ZM8.09497 3.09951V1.55073L17.2355 4.14205V5.69083L8.09497 3.09951ZM15.5641 18.7153C15.3066 18.7899 15.0455 18.8277 14.7877 18.8277C14.2832 18.8277 13.8324 18.6853 13.5183 18.4268C13.2135 18.1759 13.0498 17.8016 13.0805 17.4256C13.1168 16.9813 13.4015 16.5305 13.8617 16.1888C14.3293 15.8416 14.9359 15.6426 15.5261 15.6426C16.0306 15.6426 16.4815 15.785 16.7958 16.0436C17.0744 16.2728 17.2347 16.5977 17.2356 16.935C17.2378 17.7853 16.3964 18.4742 15.5641 18.7153Z" fill="#09090B"/>
</svg>
