<svg width="16" height="16" viewBox="0 0 16 16" fill="none" xmlns="http://www.w3.org/2000/svg">
<g clip-path="url(#clip0_195_279)">
<path d="M15.8169 14.9329L11.3028 10.4187C13.3595 7.91638 13.2195 4.20173 10.8824 1.86466C8.39623 -0.621555 4.35088 -0.621555 1.86466 1.86466C-0.621555 4.35088 -0.621555 8.39623 1.86466 10.8824C4.2011 13.2189 7.91529 13.3604 10.4187 11.3028L14.9329 15.8169C15.177 16.061 15.5728 16.061 15.8169 15.8169C16.061 15.5728 16.061 15.177 15.8169 14.9329ZM9.99841 9.99838C7.99966 11.9971 4.74748 11.9971 2.74873 9.99838C0.749977 7.99963 0.749977 4.74745 2.74873 2.7487C4.74741 0.750039 7.9996 0.749883 9.99841 2.7487C11.9972 4.74745 11.9972 7.99963 9.99841 9.99838Z" fill="#09090B"/>
<path d="M9.43412 5.74843H6.9985V3.31281C6.9985 2.96756 6.71863 2.68768 6.37338 2.68768C6.02813 2.68768 5.74825 2.96756 5.74825 3.31281V5.74843H3.31263C2.96738 5.74843 2.6875 6.02831 2.6875 6.37356C2.6875 6.71881 2.96738 6.99868 3.31263 6.99868H5.74825V9.43431C5.74825 9.77956 6.02813 10.0594 6.37338 10.0594C6.71863 10.0594 6.9985 9.77956 6.9985 9.43431V6.99868H9.43412C9.77938 6.99868 10.0592 6.71881 10.0592 6.37356C10.0592 6.02831 9.77938 5.74843 9.43412 5.74843Z" fill="#09090B"/>
</g>
<defs>
<clipPath id="clip0_195_279">
<rect width="16" height="16" fill="white"/>
</clipPath>
</defs>
</svg>
