<svg width="16" height="16" viewBox="0 0 16 16" fill="none" xmlns="http://www.w3.org/2000/svg">
<path d="M0.2445 8.51594L7.57784 14.5159C8.01312 14.8721 8.66666 14.5624 8.66666 14V9.40682L14.9112 14.5159C15.3465 14.8721 16 14.5624 16 14V1.99998C16 1.43757 15.3465 1.12785 14.9112 1.48401L8.66669 6.59316L8.66669 1.99998C8.66669 1.43757 8.01316 1.12785 7.57788 1.48401L0.244532 7.48401C-0.0814991 7.75073 -0.0814991 8.24923 0.2445 8.51594ZM14.6667 3.40679L14.6667 12.5932L9.05278 7.99998L14.6667 3.40679ZM7.33334 3.40679L7.33334 12.5932L1.71947 7.99998L7.33334 3.40679Z" fill="#09090B"/>
</svg>
