<svg width="16" height="16" viewBox="0 0 16 16" fill="none" xmlns="http://www.w3.org/2000/svg">
<g clip-path="url(#clip0_195_54)">
<path d="M15.355 3.64501L12.355 0.645008C12.3083 0.598668 12.2529 0.562005 12.192 0.537123C12.131 0.51224 12.0658 0.499628 12 0.500008H2C1.60218 0.500008 1.22064 0.658044 0.93934 0.939348C0.658035 1.22065 0.5 1.60218 0.5 2.00001V14C0.5 14.3978 0.658035 14.7794 0.93934 15.0607C1.22064 15.342 1.60218 15.5 2 15.5H14C14.3978 15.5 14.7794 15.342 15.0607 15.0607C15.342 14.7794 15.5 14.3978 15.5 14V4.00001C15.5004 3.93421 15.4878 3.86897 15.4629 3.80806C15.438 3.74714 15.4013 3.69173 15.355 3.64501ZM10 1.50001V4.50001H6V1.50001H10ZM4 14.5V11C4 10.8674 4.05268 10.7402 4.14645 10.6465C4.24021 10.5527 4.36739 10.5 4.5 10.5H11.5C11.6326 10.5 11.7598 10.5527 11.8536 10.6465C11.9473 10.7402 12 10.8674 12 11V14.5H4ZM14.5 14C14.5 14.1326 14.4473 14.2598 14.3536 14.3536C14.2598 14.4473 14.1326 14.5 14 14.5H13V11C13 10.6022 12.842 10.2207 12.5607 9.93935C12.2794 9.65804 11.8978 9.50001 11.5 9.50001H4.5C4.10218 9.50001 3.72064 9.65804 3.43934 9.93935C3.15804 10.2207 3 10.6022 3 11V14.5H2C1.86739 14.5 1.74021 14.4473 1.64645 14.3536C1.55268 14.2598 1.5 14.1326 1.5 14V2.00001C1.5 1.8674 1.55268 1.74022 1.64645 1.64645C1.74021 1.55269 1.86739 1.50001 2 1.50001H5V4.50001C5 4.76522 5.10536 5.01958 5.29289 5.20712C5.48043 5.39465 5.73478 5.50001 6 5.50001H10C10.2652 5.50001 10.5196 5.39465 10.7071 5.20712C10.8946 5.01958 11 4.76522 11 4.50001V1.50001H11.795L14.5 4.20501V14Z" fill="#09090B"/>
</g>
<defs>
<clipPath id="clip0_195_54">
<rect width="16" height="16" fill="white"/>
</clipPath>
</defs>
</svg>
