<svg width="20" height="20" viewBox="0 0 20 20" fill="none" xmlns="http://www.w3.org/2000/svg">
<path d="M6.61645 4.81342L6.61626 4.81325C6.22568 4.4686 5.71438 4.29286 5.19444 4.32455C4.6745 4.35624 4.18834 4.59277 3.8425 4.98231L3.73122 5.10717L3.73122 5.10716L3.73086 5.10758C3.38665 5.49811 3.21142 6.00923 3.24361 6.5288C3.27579 7.04837 3.51277 7.53396 3.90254 7.87902C4.29231 8.22408 4.80305 8.40044 5.32269 8.3694C5.84233 8.33835 6.32844 8.10244 6.67436 7.71343L6.78591 7.58862L6.78591 7.58862L6.78633 7.58814C7.1311 7.19737 7.30684 6.68581 7.27499 6.16566C7.24314 5.64551 7.00632 5.15922 6.61645 4.81342ZM6.11466 7.2189L6.11458 7.21899C5.90035 7.46107 5.59871 7.60813 5.27605 7.62782C4.95338 7.64751 4.63611 7.53821 4.39402 7.32397C4.15194 7.10973 4.00488 6.8081 3.98519 6.48543C3.96551 6.16277 4.0748 5.84549 4.28904 5.60341L4.28906 5.60339L4.40046 5.47747C4.40046 5.47746 4.40046 5.47746 4.40046 5.47746C4.6147 5.23534 4.91635 5.08825 5.23904 5.06853C5.56174 5.04882 5.87905 5.1581 6.12117 5.37234C6.36329 5.58658 6.51039 5.88823 6.53011 6.21093C6.54982 6.53362 6.44054 6.85094 6.2263 7.09306L6.11466 7.2189Z" fill="#09090B" stroke="#09090B" stroke-width="0.2"/>
<path d="M4.28908 14.3973L4.2891 14.3974L4.40041 14.5232L4.28908 14.3973ZM4.28908 14.3973C4.07484 14.1553 3.96553 13.8381 3.98519 13.5154C4.00485 13.1928 4.15187 12.8912 4.39391 12.6769C4.63596 12.4627 4.95319 12.3534 5.27583 12.373C5.59846 12.3927 5.90006 12.5397 6.1143 12.7817C6.1143 12.7818 6.11431 12.7818 6.11432 12.7818L6.22565 12.9076C6.43954 13.1498 6.54863 13.467 6.52897 13.7896C6.50932 14.1121 6.36259 14.4136 6.12096 14.628C5.87874 14.8419 5.56156 14.951 5.23901 14.9314M4.28908 14.3973L5.23901 14.9314M5.23901 14.9314C4.91651 14.9117 4.61496 14.765 4.4005 14.5233L5.23901 14.9314ZM3.72979 14.8922L3.73001 14.8925L3.84082 15.0168C4.01049 15.2142 4.21766 15.3759 4.45032 15.4925C4.68326 15.6093 4.9371 15.6786 5.19708 15.6964C5.45705 15.7142 5.71797 15.6802 5.96465 15.5962C6.21134 15.5123 6.43887 15.3801 6.63401 15.2074C6.82915 15.0347 6.988 14.8249 7.10134 14.5903C7.21467 14.3557 7.28021 14.1008 7.29416 13.8406C7.3081 13.5804 7.27017 13.32 7.18257 13.0746C7.09505 12.8294 6.95969 12.6041 6.78436 12.4116L6.67345 12.2864C6.67344 12.2864 6.67344 12.2864 6.67343 12.2864C6.32788 11.896 5.84141 11.6589 5.32105 11.6273C4.80069 11.5956 4.28905 11.7719 3.8987 12.1175C3.50834 12.463 3.27125 12.9495 3.23957 13.4699C3.2079 13.9902 3.38423 14.5019 3.72979 14.8922Z" fill="#09090B" stroke="#09090B" stroke-width="0.2"/>
<path d="M9.29625 9.22754C9.1434 9.22754 8.99399 9.27286 8.8669 9.35778C8.73981 9.4427 8.64076 9.5634 8.58226 9.70461C8.52377 9.84582 8.50847 10.0012 8.53829 10.1511C8.56811 10.301 8.64171 10.4387 8.74979 10.5468C8.85787 10.6549 8.99557 10.7285 9.14548 10.7583C9.29539 10.7881 9.45078 10.7728 9.59199 10.7143C9.73321 10.6558 9.8539 10.5568 9.93882 10.4297C10.0237 10.3026 10.0691 10.1532 10.0691 10.0004C10.0689 9.79545 9.98737 9.599 9.84248 9.45412C9.6976 9.30923 9.50115 9.22775 9.29625 9.22754ZM9.29625 10.2263C9.25156 10.2263 9.20788 10.213 9.17073 10.1882C9.13357 10.1634 9.10461 10.1281 9.08751 10.0868C9.07041 10.0455 9.06594 10.0001 9.07465 9.95627C9.08337 9.91245 9.10489 9.87219 9.13649 9.84059C9.16809 9.80899 9.20834 9.78747 9.25217 9.77876C9.296 9.77004 9.34143 9.77451 9.38271 9.79161C9.424 9.80871 9.45928 9.83767 9.48411 9.87483C9.50894 9.91198 9.52219 9.95567 9.52219 10.0004C9.52211 10.0602 9.49827 10.1177 9.45592 10.16C9.41357 10.2024 9.35615 10.2262 9.29625 10.2263Z" fill="#09090B"/>
<mask id="path-4-outside-1_195_296" maskUnits="userSpaceOnUse" x="0.992188" y="2.07812" width="18" height="15" fill="black">
<rect fill="white" x="0.992188" y="2.07812" width="18" height="15"/>
<path d="M11.1133 10.0003L17.9115 4.34001C17.9396 4.3166 17.9626 4.28781 17.9793 4.25534C17.9961 4.22287 18.0061 4.18738 18.0089 4.15097C18.0116 4.11455 18.0071 4.07795 17.9955 4.04333C17.9838 4.00871 17.9654 3.97676 17.9412 3.94939C17.7074 3.68693 17.4227 3.47468 17.1044 3.32551C16.7861 3.17634 16.4408 3.09335 16.0895 3.08158C15.6912 3.06842 15.2943 3.13489 14.9221 3.27709C14.5498 3.41929 14.2096 3.63436 13.9215 3.9097L9.40327 8.23892C9.36733 8.23673 9.33155 8.23345 9.29514 8.23345C9.20284 8.23413 9.11073 8.24207 9.01967 8.2572L8.2353 7.60408C8.551 6.90476 8.60549 6.11541 8.38885 5.37935C8.17222 4.64329 7.69883 4.00931 7.05463 3.5925C6.41043 3.1757 5.63813 3.00371 4.87794 3.10775C4.11775 3.21179 3.42006 3.58497 2.91155 4.15954L2.79998 4.28454C2.29812 4.85029 2.01237 5.57522 1.99322 6.33124C1.97406 7.08726 2.22274 7.82573 2.69532 8.41616C3.16789 9.00659 3.83395 9.41099 4.5758 9.55792C5.31766 9.70484 6.08757 9.58482 6.74952 9.21908L7.52999 9.96704C7.52999 9.97829 7.52827 9.98923 7.52827 10.0006C7.52827 10.012 7.52967 10.023 7.52999 10.0342L6.74952 10.7816C6.08767 10.4164 5.31809 10.2968 4.57663 10.4438C3.83516 10.5909 3.16948 10.9951 2.6971 11.5853C2.22471 12.1754 1.97599 12.9134 1.99485 13.6691C2.0137 14.4248 2.29892 15.1495 2.80014 15.7153L2.91139 15.8411C3.1898 16.1573 3.52814 16.4151 3.90684 16.5997C4.28553 16.7843 4.69707 16.8919 5.11764 16.9164C5.1842 16.9203 5.25061 16.9225 5.31686 16.9225C5.85231 16.9217 6.37905 16.7869 6.84902 16.5303C7.31899 16.2737 7.71723 15.9035 8.00741 15.4535C8.29758 15.0035 8.47046 14.488 8.51027 13.954C8.55007 13.4201 8.45554 12.8846 8.2353 12.3966L9.01967 11.7435C9.11073 11.7586 9.20284 11.7665 9.29514 11.7672C9.33155 11.7672 9.36733 11.7639 9.40327 11.7617L13.9225 16.0925C14.4738 16.6196 15.2055 16.9163 15.9683 16.9222C16.0086 16.9222 16.049 16.9213 16.0895 16.9195C16.4408 16.9078 16.7861 16.8248 17.1044 16.6756C17.4227 16.5264 17.7074 16.3142 17.9412 16.0517C17.9654 16.0244 17.9838 15.9924 17.9955 15.9578C18.0071 15.9232 18.0116 15.8866 18.0089 15.8502C18.0061 15.8137 17.9961 15.7782 17.9793 15.7458C17.9626 15.7133 17.9396 15.6845 17.9115 15.6611L11.1133 10.0003ZM9.29514 11.2203C9.20279 11.22 9.11079 11.2091 9.02092 11.1878C8.75242 11.1258 8.51286 10.9747 8.34132 10.759C8.16978 10.5433 8.07639 10.2759 8.07639 10.0003C8.07639 9.72476 8.16978 9.45732 8.34132 9.24166C8.51286 9.02599 8.75242 8.87483 9.02092 8.81283H9.02217C9.19621 8.77193 9.37713 8.76997 9.55201 8.80706C9.7269 8.84416 9.89143 8.91941 10.0339 9.02744C10.1763 9.13547 10.2932 9.27361 10.3761 9.43201C10.459 9.5904 10.5059 9.76515 10.5134 9.94376V9.94704C10.5142 9.96501 10.5161 9.98251 10.5161 10.0006C10.5161 10.0188 10.5142 10.0363 10.5134 10.0542V10.0575C10.4986 10.3707 10.3638 10.6662 10.1369 10.8827C9.91013 11.0992 9.60869 11.2201 9.29514 11.2203ZM14.299 4.30486C14.5334 4.07973 14.8105 3.9038 15.1139 3.78744C15.4173 3.67109 15.741 3.61665 16.0658 3.62736C16.5295 3.64322 16.9745 3.81416 17.3295 4.11283L10.9606 9.41579C10.8816 9.19219 10.7585 8.9867 10.5987 8.81148C10.4389 8.63626 10.2456 8.49485 10.0301 8.39564L14.299 4.30486ZM6.97764 8.67986C6.93325 8.6373 6.8758 8.61095 6.81459 8.60508C6.75337 8.59921 6.69197 8.61416 6.6403 8.64751C6.10005 8.9953 5.45218 9.13578 4.8164 9.04299C4.18063 8.9502 3.59993 8.63041 3.18162 8.14272C2.76331 7.65504 2.53567 7.03241 2.54077 6.38992C2.54587 5.74743 2.78336 5.1285 3.20936 4.64751L3.32092 4.52251C3.75334 4.03407 4.35019 3.72158 4.99797 3.6445C5.64575 3.56741 6.29926 3.73109 6.83423 4.10442C7.3692 4.47774 7.74829 5.03467 7.89942 5.66927C8.05055 6.30387 7.96317 6.97189 7.65389 7.54626C7.62391 7.6018 7.61406 7.666 7.62603 7.72797C7.63799 7.78995 7.67102 7.84587 7.71952 7.88626L8.41858 8.46908C8.07663 8.66531 7.8097 8.96973 7.65983 9.33439L6.97764 8.67986ZM7.71952 12.1144C7.67102 12.1548 7.63799 12.2107 7.62603 12.2727C7.61406 12.3346 7.62391 12.3988 7.65389 12.4544C7.9632 13.0288 8.05061 13.6968 7.89949 14.3315C7.74837 14.9661 7.36927 15.5231 6.83428 15.8965C6.2993 16.2698 5.64575 16.4335 4.99793 16.3565C4.35012 16.2794 3.75322 15.9669 3.32077 15.4785L3.20952 15.3535C2.78331 14.8725 2.54563 14.2536 2.54043 13.611C2.53522 12.9684 2.76284 12.3456 3.18119 11.8579C3.59955 11.3701 4.18036 11.0503 4.81624 10.9576C5.45212 10.8648 6.10007 11.0055 6.6403 11.3535C6.69194 11.3869 6.75336 11.4019 6.8146 11.396C6.87584 11.3901 6.93329 11.3637 6.97764 11.3211L7.65983 10.6674C7.8097 11.032 8.07663 11.3364 8.41858 11.5327L7.71952 12.1144ZM16.0658 16.3733C15.7413 16.3836 15.418 16.329 15.1148 16.2129C14.8116 16.0967 14.5347 15.9212 14.3001 15.6967L10.0301 11.605C10.2456 11.5058 10.4389 11.3644 10.5987 11.1892C10.7585 11.0139 10.8816 10.8085 10.9606 10.5849L17.3295 15.8878C16.9745 16.1865 16.5295 16.3574 16.0658 16.3733Z"/>
</mask>
<path d="M11.1133 10.0003L17.9115 4.34001C17.9396 4.3166 17.9626 4.28781 17.9793 4.25534C17.9961 4.22287 18.0061 4.18738 18.0089 4.15097C18.0116 4.11455 18.0071 4.07795 17.9955 4.04333C17.9838 4.00871 17.9654 3.97676 17.9412 3.94939C17.7074 3.68693 17.4227 3.47468 17.1044 3.32551C16.7861 3.17634 16.4408 3.09335 16.0895 3.08158C15.6912 3.06842 15.2943 3.13489 14.9221 3.27709C14.5498 3.41929 14.2096 3.63436 13.9215 3.9097L9.40327 8.23892C9.36733 8.23673 9.33155 8.23345 9.29514 8.23345C9.20284 8.23413 9.11073 8.24207 9.01967 8.2572L8.2353 7.60408C8.551 6.90476 8.60549 6.11541 8.38885 5.37935C8.17222 4.64329 7.69883 4.00931 7.05463 3.5925C6.41043 3.1757 5.63813 3.00371 4.87794 3.10775C4.11775 3.21179 3.42006 3.58497 2.91155 4.15954L2.79998 4.28454C2.29812 4.85029 2.01237 5.57522 1.99322 6.33124C1.97406 7.08726 2.22274 7.82573 2.69532 8.41616C3.16789 9.00659 3.83395 9.41099 4.5758 9.55792C5.31766 9.70484 6.08757 9.58482 6.74952 9.21908L7.52999 9.96704C7.52999 9.97829 7.52827 9.98923 7.52827 10.0006C7.52827 10.012 7.52967 10.023 7.52999 10.0342L6.74952 10.7816C6.08767 10.4164 5.31809 10.2968 4.57663 10.4438C3.83516 10.5909 3.16948 10.9951 2.6971 11.5853C2.22471 12.1754 1.97599 12.9134 1.99485 13.6691C2.0137 14.4248 2.29892 15.1495 2.80014 15.7153L2.91139 15.8411C3.1898 16.1573 3.52814 16.4151 3.90684 16.5997C4.28553 16.7843 4.69707 16.8919 5.11764 16.9164C5.1842 16.9203 5.25061 16.9225 5.31686 16.9225C5.85231 16.9217 6.37905 16.7869 6.84902 16.5303C7.31899 16.2737 7.71723 15.9035 8.00741 15.4535C8.29758 15.0035 8.47046 14.488 8.51027 13.954C8.55007 13.4201 8.45554 12.8846 8.2353 12.3966L9.01967 11.7435C9.11073 11.7586 9.20284 11.7665 9.29514 11.7672C9.33155 11.7672 9.36733 11.7639 9.40327 11.7617L13.9225 16.0925C14.4738 16.6196 15.2055 16.9163 15.9683 16.9222C16.0086 16.9222 16.049 16.9213 16.0895 16.9195C16.4408 16.9078 16.7861 16.8248 17.1044 16.6756C17.4227 16.5264 17.7074 16.3142 17.9412 16.0517C17.9654 16.0244 17.9838 15.9924 17.9955 15.9578C18.0071 15.9232 18.0116 15.8866 18.0089 15.8502C18.0061 15.8137 17.9961 15.7782 17.9793 15.7458C17.9626 15.7133 17.9396 15.6845 17.9115 15.6611L11.1133 10.0003ZM9.29514 11.2203C9.20279 11.22 9.11079 11.2091 9.02092 11.1878C8.75242 11.1258 8.51286 10.9747 8.34132 10.759C8.16978 10.5433 8.07639 10.2759 8.07639 10.0003C8.07639 9.72476 8.16978 9.45732 8.34132 9.24166C8.51286 9.02599 8.75242 8.87483 9.02092 8.81283H9.02217C9.19621 8.77193 9.37713 8.76997 9.55201 8.80706C9.7269 8.84416 9.89143 8.91941 10.0339 9.02744C10.1763 9.13547 10.2932 9.27361 10.3761 9.43201C10.459 9.5904 10.5059 9.76515 10.5134 9.94376V9.94704C10.5142 9.96501 10.5161 9.98251 10.5161 10.0006C10.5161 10.0188 10.5142 10.0363 10.5134 10.0542V10.0575C10.4986 10.3707 10.3638 10.6662 10.1369 10.8827C9.91013 11.0992 9.60869 11.2201 9.29514 11.2203ZM14.299 4.30486C14.5334 4.07973 14.8105 3.9038 15.1139 3.78744C15.4173 3.67109 15.741 3.61665 16.0658 3.62736C16.5295 3.64322 16.9745 3.81416 17.3295 4.11283L10.9606 9.41579C10.8816 9.19219 10.7585 8.9867 10.5987 8.81148C10.4389 8.63626 10.2456 8.49485 10.0301 8.39564L14.299 4.30486ZM6.97764 8.67986C6.93325 8.6373 6.8758 8.61095 6.81459 8.60508C6.75337 8.59921 6.69197 8.61416 6.6403 8.64751C6.10005 8.9953 5.45218 9.13578 4.8164 9.04299C4.18063 8.9502 3.59993 8.63041 3.18162 8.14272C2.76331 7.65504 2.53567 7.03241 2.54077 6.38992C2.54587 5.74743 2.78336 5.1285 3.20936 4.64751L3.32092 4.52251C3.75334 4.03407 4.35019 3.72158 4.99797 3.6445C5.64575 3.56741 6.29926 3.73109 6.83423 4.10442C7.3692 4.47774 7.74829 5.03467 7.89942 5.66927C8.05055 6.30387 7.96317 6.97189 7.65389 7.54626C7.62391 7.6018 7.61406 7.666 7.62603 7.72797C7.63799 7.78995 7.67102 7.84587 7.71952 7.88626L8.41858 8.46908C8.07663 8.66531 7.8097 8.96973 7.65983 9.33439L6.97764 8.67986ZM7.71952 12.1144C7.67102 12.1548 7.63799 12.2107 7.62603 12.2727C7.61406 12.3346 7.62391 12.3988 7.65389 12.4544C7.9632 13.0288 8.05061 13.6968 7.89949 14.3315C7.74837 14.9661 7.36927 15.5231 6.83428 15.8965C6.2993 16.2698 5.64575 16.4335 4.99793 16.3565C4.35012 16.2794 3.75322 15.9669 3.32077 15.4785L3.20952 15.3535C2.78331 14.8725 2.54563 14.2536 2.54043 13.611C2.53522 12.9684 2.76284 12.3456 3.18119 11.8579C3.59955 11.3701 4.18036 11.0503 4.81624 10.9576C5.45212 10.8648 6.10007 11.0055 6.6403 11.3535C6.69194 11.3869 6.75336 11.4019 6.8146 11.396C6.87584 11.3901 6.93329 11.3637 6.97764 11.3211L7.65983 10.6674C7.8097 11.032 8.07663 11.3364 8.41858 11.5327L7.71952 12.1144ZM16.0658 16.3733C15.7413 16.3836 15.418 16.329 15.1148 16.2129C14.8116 16.0967 14.5347 15.9212 14.3001 15.6967L10.0301 11.605C10.2456 11.5058 10.4389 11.3644 10.5987 11.1892C10.7585 11.0139 10.8816 10.8085 10.9606 10.5849L17.3295 15.8878C16.9745 16.1865 16.5295 16.3574 16.0658 16.3733Z" fill="#09090B"/>
<path d="M11.1133 10.0003L17.9115 4.34001C17.9396 4.3166 17.9626 4.28781 17.9793 4.25534C17.9961 4.22287 18.0061 4.18738 18.0089 4.15097C18.0116 4.11455 18.0071 4.07795 17.9955 4.04333C17.9838 4.00871 17.9654 3.97676 17.9412 3.94939C17.7074 3.68693 17.4227 3.47468 17.1044 3.32551C16.7861 3.17634 16.4408 3.09335 16.0895 3.08158C15.6912 3.06842 15.2943 3.13489 14.9221 3.27709C14.5498 3.41929 14.2096 3.63436 13.9215 3.9097L9.40327 8.23892C9.36733 8.23673 9.33155 8.23345 9.29514 8.23345C9.20284 8.23413 9.11073 8.24207 9.01967 8.2572L8.2353 7.60408C8.551 6.90476 8.60549 6.11541 8.38885 5.37935C8.17222 4.64329 7.69883 4.00931 7.05463 3.5925C6.41043 3.1757 5.63813 3.00371 4.87794 3.10775C4.11775 3.21179 3.42006 3.58497 2.91155 4.15954L2.79998 4.28454C2.29812 4.85029 2.01237 5.57522 1.99322 6.33124C1.97406 7.08726 2.22274 7.82573 2.69532 8.41616C3.16789 9.00659 3.83395 9.41099 4.5758 9.55792C5.31766 9.70484 6.08757 9.58482 6.74952 9.21908L7.52999 9.96704C7.52999 9.97829 7.52827 9.98923 7.52827 10.0006C7.52827 10.012 7.52967 10.023 7.52999 10.0342L6.74952 10.7816C6.08767 10.4164 5.31809 10.2968 4.57663 10.4438C3.83516 10.5909 3.16948 10.9951 2.6971 11.5853C2.22471 12.1754 1.97599 12.9134 1.99485 13.6691C2.0137 14.4248 2.29892 15.1495 2.80014 15.7153L2.91139 15.8411C3.1898 16.1573 3.52814 16.4151 3.90684 16.5997C4.28553 16.7843 4.69707 16.8919 5.11764 16.9164C5.1842 16.9203 5.25061 16.9225 5.31686 16.9225C5.85231 16.9217 6.37905 16.7869 6.84902 16.5303C7.31899 16.2737 7.71723 15.9035 8.00741 15.4535C8.29758 15.0035 8.47046 14.488 8.51027 13.954C8.55007 13.4201 8.45554 12.8846 8.2353 12.3966L9.01967 11.7435C9.11073 11.7586 9.20284 11.7665 9.29514 11.7672C9.33155 11.7672 9.36733 11.7639 9.40327 11.7617L13.9225 16.0925C14.4738 16.6196 15.2055 16.9163 15.9683 16.9222C16.0086 16.9222 16.049 16.9213 16.0895 16.9195C16.4408 16.9078 16.7861 16.8248 17.1044 16.6756C17.4227 16.5264 17.7074 16.3142 17.9412 16.0517C17.9654 16.0244 17.9838 15.9924 17.9955 15.9578C18.0071 15.9232 18.0116 15.8866 18.0089 15.8502C18.0061 15.8137 17.9961 15.7782 17.9793 15.7458C17.9626 15.7133 17.9396 15.6845 17.9115 15.6611L11.1133 10.0003ZM9.29514 11.2203C9.20279 11.22 9.11079 11.2091 9.02092 11.1878C8.75242 11.1258 8.51286 10.9747 8.34132 10.759C8.16978 10.5433 8.07639 10.2759 8.07639 10.0003C8.07639 9.72476 8.16978 9.45732 8.34132 9.24166C8.51286 9.02599 8.75242 8.87483 9.02092 8.81283H9.02217C9.19621 8.77193 9.37713 8.76997 9.55201 8.80706C9.7269 8.84416 9.89143 8.91941 10.0339 9.02744C10.1763 9.13547 10.2932 9.27361 10.3761 9.43201C10.459 9.5904 10.5059 9.76515 10.5134 9.94376V9.94704C10.5142 9.96501 10.5161 9.98251 10.5161 10.0006C10.5161 10.0188 10.5142 10.0363 10.5134 10.0542V10.0575C10.4986 10.3707 10.3638 10.6662 10.1369 10.8827C9.91013 11.0992 9.60869 11.2201 9.29514 11.2203ZM14.299 4.30486C14.5334 4.07973 14.8105 3.9038 15.1139 3.78744C15.4173 3.67109 15.741 3.61665 16.0658 3.62736C16.5295 3.64322 16.9745 3.81416 17.3295 4.11283L10.9606 9.41579C10.8816 9.19219 10.7585 8.9867 10.5987 8.81148C10.4389 8.63626 10.2456 8.49485 10.0301 8.39564L14.299 4.30486ZM6.97764 8.67986C6.93325 8.6373 6.8758 8.61095 6.81459 8.60508C6.75337 8.59921 6.69197 8.61416 6.6403 8.64751C6.10005 8.9953 5.45218 9.13578 4.8164 9.04299C4.18063 8.9502 3.59993 8.63041 3.18162 8.14272C2.76331 7.65504 2.53567 7.03241 2.54077 6.38992C2.54587 5.74743 2.78336 5.1285 3.20936 4.64751L3.32092 4.52251C3.75334 4.03407 4.35019 3.72158 4.99797 3.6445C5.64575 3.56741 6.29926 3.73109 6.83423 4.10442C7.3692 4.47774 7.74829 5.03467 7.89942 5.66927C8.05055 6.30387 7.96317 6.97189 7.65389 7.54626C7.62391 7.6018 7.61406 7.666 7.62603 7.72797C7.63799 7.78995 7.67102 7.84587 7.71952 7.88626L8.41858 8.46908C8.07663 8.66531 7.8097 8.96973 7.65983 9.33439L6.97764 8.67986ZM7.71952 12.1144C7.67102 12.1548 7.63799 12.2107 7.62603 12.2727C7.61406 12.3346 7.62391 12.3988 7.65389 12.4544C7.9632 13.0288 8.05061 13.6968 7.89949 14.3315C7.74837 14.9661 7.36927 15.5231 6.83428 15.8965C6.2993 16.2698 5.64575 16.4335 4.99793 16.3565C4.35012 16.2794 3.75322 15.9669 3.32077 15.4785L3.20952 15.3535C2.78331 14.8725 2.54563 14.2536 2.54043 13.611C2.53522 12.9684 2.76284 12.3456 3.18119 11.8579C3.59955 11.3701 4.18036 11.0503 4.81624 10.9576C5.45212 10.8648 6.10007 11.0055 6.6403 11.3535C6.69194 11.3869 6.75336 11.4019 6.8146 11.396C6.87584 11.3901 6.93329 11.3637 6.97764 11.3211L7.65983 10.6674C7.8097 11.032 8.07663 11.3364 8.41858 11.5327L7.71952 12.1144ZM16.0658 16.3733C15.7413 16.3836 15.418 16.329 15.1148 16.2129C14.8116 16.0967 14.5347 15.9212 14.3001 15.6967L10.0301 11.605C10.2456 11.5058 10.4389 11.3644 10.5987 11.1892C10.7585 11.0139 10.8816 10.8085 10.9606 10.5849L17.3295 15.8878C16.9745 16.1865 16.5295 16.3574 16.0658 16.3733Z" stroke="#09090B" stroke-width="0.2" mask="url(#path-4-outside-1_195_296)"/>
</svg>
