<svg width="17" height="16" viewBox="0 0 17 16" fill="none" xmlns="http://www.w3.org/2000/svg">
<g clip-path="url(#clip0_195_232)">
<path d="M16.332 7.26899C16.1676 6.92953 15.8935 6.65544 15.5541 6.49106L2.907 0.371217C2.07387 -0.0324159 1.07132 0.315791 0.667686 1.14892C0.462055 1.57341 0.444769 2.06491 0.620117 2.50279L2.81929 7.99965L0.620117 13.4971C0.277574 14.3594 0.698984 15.3362 1.56135 15.6787C1.75634 15.7562 1.96413 15.7964 2.17395 15.7974C2.42781 15.7974 2.67839 15.7401 2.907 15.6298L15.554 9.50824C16.3872 9.10471 16.7355 8.10216 16.332 7.26899ZM2.42034 14.6224C2.14259 14.7568 1.80843 14.6407 1.67397 14.3629C1.60545 14.2214 1.59975 14.0576 1.65822 13.9116L3.79929 8.55837H14.9523L2.42034 14.6224ZM3.79932 7.4409L1.65826 2.08763C1.56914 1.87424 1.62447 1.62782 1.79625 1.47303C1.96253 1.31101 2.2136 1.273 2.42034 1.37861L14.9523 7.4409H3.79932Z" fill="white"/>
</g>
<defs>
<clipPath id="clip0_195_232">
<rect width="16" height="16" fill="white" transform="translate(0.5)"/>
</clipPath>
</defs>
</svg>
