<svg width="16" height="16" viewBox="0 0 16 16" fill="none" xmlns="http://www.w3.org/2000/svg">
<g clip-path="url(#clip0_195_79)">
<mask id="mask0_195_79" style="mask-type:luminance" maskUnits="userSpaceOnUse" x="0" y="0" width="16" height="16">
<path d="M0 9.53674e-07H16V16H0V9.53674e-07Z" fill="white"/>
</mask>
<g mask="url(#mask0_195_79)">
<path d="M7.99895 5.54166C6.64126 5.54166 5.54061 6.64228 5.54061 8C5.54061 9.35769 6.64126 10.4583 7.99895 10.4583C9.35664 10.4583 10.4573 9.35769 10.4573 8C10.4573 6.64228 9.35664 5.54166 7.99895 5.54166ZM14.899 6.24572L14.2334 6.79366C13.4742 7.41869 13.4742 8.58128 14.2334 9.20631L14.899 9.75425C15.1349 9.94844 15.1958 10.2847 15.043 10.5493L13.7288 12.8257C13.576 13.0903 13.2543 13.2057 12.9682 13.0985L12.1609 12.796C11.24 12.451 10.2331 13.0323 10.0715 14.0023L9.92973 14.8527C9.87951 15.1541 9.61876 15.375 9.31326 15.375H6.68464C6.37914 15.375 6.11839 15.1541 6.06817 14.8527L5.92642 14.0023C5.76476 13.0323 4.75792 12.451 3.83701 12.796L3.0297 13.0985C2.74358 13.2057 2.42192 13.0903 2.26914 12.8257L0.954857 10.5493C0.802107 10.2847 0.863013 9.94844 1.09889 9.75425L1.76451 9.20631C2.52373 8.58128 2.52373 7.41869 1.76451 6.79366L1.09889 6.24572C0.863013 6.05153 0.802107 5.71528 0.954857 5.45069L2.26914 3.17428C2.42192 2.90969 2.74358 2.79431 3.0297 2.9015L3.83701 3.20394C4.75792 3.54894 5.76476 2.96766 5.92642 1.99763L6.06817 1.14722C6.11839 0.845876 6.37914 0.625001 6.68464 0.625001H9.31326C9.61876 0.625001 9.87951 0.845876 9.92973 1.14722L10.0715 1.99763C10.2331 2.96766 11.24 3.54894 12.1609 3.20394L12.9682 2.9015C13.2543 2.79431 13.576 2.90969 13.7288 3.17428L15.043 5.45069C15.1958 5.71528 15.1349 6.05153 14.899 6.24572Z" stroke="#09090B" stroke-miterlimit="10" stroke-linecap="round" stroke-linejoin="round"/>
</g>
</g>
<defs>
<clipPath id="clip0_195_79">
<rect width="16" height="16" fill="white"/>
</clipPath>
</defs>
</svg>
