<svg width="20" height="20" viewBox="0 0 20 20" fill="none" xmlns="http://www.w3.org/2000/svg">
<path fill-rule="evenodd" clip-rule="evenodd" d="M10.8333 15.8333H12.5C12.96 15.8333 13.3333 16.2067 13.3333 16.6667C13.3333 17.1267 12.96 17.5 12.5 17.5H7.5C7.04 17.5 6.66667 17.1267 6.66667 16.6667C6.66667 16.2067 7.04 15.8333 7.5 15.8333H9.16667V4.16667H4.16667V5.83333C4.16667 6.29333 3.79333 6.66667 3.33333 6.66667C2.87333 6.66667 2.5 6.29333 2.5 5.83333V3.33333C2.5 2.87333 2.87333 2.5 3.33333 2.5H16.6667C17.1267 2.5 17.5 2.87333 17.5 3.33333V5.83333C17.5 6.29333 17.1267 6.66667 16.6667 6.66667C16.2067 6.66667 15.8333 6.29333 15.8333 5.83333V4.16667H10.8333V15.8333Z" fill="#09090B"/>
</svg>
