<svg width="16" height="16" viewBox="0 0 16 16" fill="none" xmlns="http://www.w3.org/2000/svg">
<g clip-path="url(#clip0_195_67)">
<path fill-rule="evenodd" clip-rule="evenodd" d="M10.6052 9.55116C10.5245 9.68716 10.432 9.81816 10.328 9.94266C10.2837 9.99541 10.2907 10.0744 10.3437 10.1187C10.3967 10.1629 10.4755 10.1557 10.5197 10.1029C10.6325 9.96791 10.7325 9.82641 10.8202 9.67916C10.8555 9.61991 10.836 9.54316 10.7767 9.50791C10.7175 9.47241 10.6407 9.49191 10.6052 9.55116ZM10.958 8.66241C10.9232 8.81791 10.8762 8.97141 10.817 9.12091C10.7915 9.18516 10.823 9.25791 10.8872 9.28316C10.9512 9.30866 11.024 9.27716 11.0495 9.21316C11.1137 9.05116 11.1645 8.88516 11.202 8.71666C11.217 8.64941 11.1745 8.58266 11.107 8.56766C11.0397 8.55266 10.9727 8.59516 10.958 8.66241ZM11.0165 7.70766C11.0317 7.86716 11.0345 8.02741 11.0247 8.18741C11.0205 8.25616 11.073 8.31566 11.142 8.31966C11.2107 8.32391 11.27 8.27141 11.2742 8.20266C11.285 8.02966 11.282 7.85616 11.2652 7.68366C11.2587 7.61491 11.1975 7.56466 11.129 7.57116C11.0602 7.57766 11.0097 7.63891 11.0165 7.70766ZM10.7762 6.78191C10.8407 6.92941 10.893 7.08091 10.933 7.23516C10.9502 7.30191 11.0185 7.34191 11.0855 7.32466C11.1522 7.30741 11.1922 7.23916 11.175 7.17241C11.1317 7.00541 11.075 6.84116 11.0052 6.68166C10.9775 6.61841 10.9037 6.58941 10.8405 6.61716C10.7772 6.64491 10.7485 6.71866 10.7762 6.78191ZM10.2585 5.97791C10.3667 6.09891 10.4637 6.22641 10.5495 6.35941C10.5867 6.41741 10.6642 6.43416 10.7222 6.39666C10.7802 6.35941 10.797 6.28191 10.7595 6.22391C10.667 6.08016 10.562 5.94191 10.4445 5.81116C10.3985 5.75966 10.3195 5.75541 10.268 5.80141C10.2167 5.84741 10.2125 5.92666 10.2585 5.97791Z" fill="#09090B"/>
<path fill-rule="evenodd" clip-rule="evenodd" d="M8 3.75C5.65425 3.75 3.75 5.65425 3.75 8C3.75 10.3457 5.65425 12.25 8 12.25C10.3457 12.25 12.25 10.3457 12.25 8C12.25 5.65425 10.3457 3.75 8 3.75ZM8.25 4.25825C10.2032 4.387 11.75 6.01425 11.75 8C11.75 9.98575 10.2032 11.613 8.25 11.7417V4.25825Z" fill="#09090B"/>
<path fill-rule="evenodd" clip-rule="evenodd" d="M7.28906 1.45975V2.60925C7.28906 3.001 7.60706 3.319 7.99881 3.319C8.39056 3.319 8.70856 3.001 8.70856 2.60925V1.45975C8.70856 1.068 8.39056 0.75 7.99881 0.75C7.60706 0.75 7.28906 1.068 7.28906 1.45975Z" fill="#09090B"/>
<path fill-rule="evenodd" clip-rule="evenodd" d="M12.1221 2.87377L11.3093 3.68652C11.0323 3.96352 11.0323 4.41327 11.3093 4.69027C11.5863 4.96727 12.0361 4.96727 12.3131 4.69027L13.1258 3.87752C13.4028 3.60052 13.4028 3.15077 13.1258 2.87377C12.8488 2.59677 12.3991 2.59677 12.1221 2.87377Z" fill="#09090B"/>
<path fill-rule="evenodd" clip-rule="evenodd" d="M14.5389 7.29004H13.3894C12.9977 7.29004 12.6797 7.60804 12.6797 7.99979C12.6797 8.39154 12.9977 8.70954 13.3894 8.70954H14.5389C14.9307 8.70954 15.2487 8.39154 15.2487 7.99979C15.2487 7.60804 14.9307 7.29004 14.5389 7.29004Z" fill="#09090B"/>
<path fill-rule="evenodd" clip-rule="evenodd" d="M13.1258 12.123L12.3131 11.3103C12.0361 11.0333 11.5863 11.0333 11.3093 11.3103C11.0323 11.5873 11.0323 12.037 11.3093 12.314L12.1221 13.1268C12.3991 13.4038 12.8488 13.4038 13.1258 13.1268C13.4028 12.8498 13.4028 12.4 13.1258 12.123Z" fill="#09090B"/>
<path fill-rule="evenodd" clip-rule="evenodd" d="M8.70856 14.5399V13.3904C8.70856 12.9987 8.39056 12.6807 7.99881 12.6807C7.60706 12.6807 7.28906 12.9987 7.28906 13.3904V14.5399C7.28906 14.9317 7.60706 15.2497 7.99881 15.2497C8.39056 15.2497 8.70856 14.9317 8.70856 14.5399Z" fill="#09090B"/>
<path fill-rule="evenodd" clip-rule="evenodd" d="M3.87556 13.1268L4.68831 12.314C4.96531 12.037 4.96531 11.5873 4.68831 11.3103C4.41131 11.0333 3.96156 11.0333 3.68456 11.3103L2.87181 12.123C2.59481 12.4 2.59481 12.8498 2.87181 13.1268C3.14881 13.4038 3.59856 13.4038 3.87556 13.1268Z" fill="#09090B"/>
<path fill-rule="evenodd" clip-rule="evenodd" d="M1.45975 8.70975H2.60925C3.001 8.70975 3.319 8.39175 3.319 8C3.319 7.60825 3.001 7.29025 2.60925 7.29025H1.45975C1.068 7.29025 0.75 7.60825 0.75 8C0.75 8.39175 1.068 8.70975 1.45975 8.70975Z" fill="#09090B"/>
<path fill-rule="evenodd" clip-rule="evenodd" d="M2.87181 3.87752L3.68456 4.69027C3.96156 4.96727 4.41131 4.96727 4.68831 4.69027C4.96531 4.41327 4.96531 3.96352 4.68831 3.68652L3.87556 2.87377C3.59856 2.59677 3.14881 2.59677 2.87181 2.87377C2.59481 3.15077 2.59481 3.60052 2.87181 3.87752Z" fill="#09090B"/>
</g>
<defs>
<clipPath id="clip0_195_67">
<rect width="16" height="16" fill="white"/>
</clipPath>
</defs>
</svg>
