<svg width="16" height="16" viewBox="0 0 16 16" fill="none" xmlns="http://www.w3.org/2000/svg">
<path d="M13.5 13.5H2.5C2.10218 13.5 1.72064 13.342 1.43934 13.0607C1.15804 12.7794 1 12.3978 1 12V4C1 3.60218 1.15804 3.22064 1.43934 2.93934C1.72064 2.65804 2.10218 2.5 2.5 2.5H13.5C13.8978 2.5 14.2794 2.65804 14.5607 2.93934C14.842 3.22064 15 3.60218 15 4V12C15 12.3978 14.842 12.7794 14.5607 13.0607C14.2794 13.342 13.8978 13.5 13.5 13.5ZM2.5 3.5C2.36739 3.5 2.24021 3.55268 2.14645 3.64645C2.05268 3.74021 2 3.86739 2 4V12C2 12.1326 2.05268 12.2598 2.14645 12.3536C2.24021 12.4473 2.36739 12.5 2.5 12.5H13.5C13.6326 12.5 13.7598 12.4473 13.8536 12.3536C13.9473 12.2598 14 12.1326 14 12V4C14 3.86739 13.9473 3.74021 13.8536 3.64645C13.7598 3.55268 13.6326 3.5 13.5 3.5H2.5ZM6 8C6 7.86739 5.94732 7.74021 5.85355 7.64645C5.75979 7.55268 5.63261 7.5 5.5 7.5H4C3.86739 7.5 3.74021 7.55268 3.64645 7.64645C3.55268 7.74021 3.5 7.86739 3.5 8C3.5 8.13261 3.55268 8.25979 3.64645 8.35355C3.74021 8.44732 3.86739 8.5 4 8.5H5.5C5.63261 8.5 5.75979 8.44732 5.85355 8.35355C5.94732 8.25979 6 8.13261 6 8ZM12.5 8C12.5 7.86739 12.4473 7.74021 12.3536 7.64645C12.2598 7.55268 12.1326 7.5 12 7.5H8C7.86739 7.5 7.74021 7.55268 7.64645 7.64645C7.55268 7.74021 7.5 7.86739 7.5 8C7.5 8.13261 7.55268 8.25979 7.64645 8.35355C7.74021 8.44732 7.86739 8.5 8 8.5H12C12.1326 8.5 12.2598 8.44732 12.3536 8.35355C12.4473 8.25979 12.5 8.13261 12.5 8ZM12.5 10.5C12.5 10.3674 12.4473 10.2402 12.3536 10.1464C12.2598 10.0527 12.1326 10 12 10H10.5C10.3674 10 10.2402 10.0527 10.1464 10.1464C10.0527 10.2402 10 10.3674 10 10.5C10 10.6326 10.0527 10.7598 10.1464 10.8536C10.2402 10.9473 10.3674 11 10.5 11H12C12.1326 11 12.2598 10.9473 12.3536 10.8536C12.4473 10.7598 12.5 10.6326 12.5 10.5ZM8.5 10.5C8.5 10.3674 8.44732 10.2402 8.35355 10.1464C8.25979 10.0527 8.13261 10 8 10H4C3.86739 10 3.74021 10.0527 3.64645 10.1464C3.55268 10.2402 3.5 10.3674 3.5 10.5C3.5 10.6326 3.55268 10.7598 3.64645 10.8536C3.74021 10.9473 3.86739 11 4 11H8C8.13261 11 8.25979 10.9473 8.35355 10.8536C8.44732 10.7598 8.5 10.6326 8.5 10.5Z" fill="#09090B"/>
</svg>
