<svg width="16" height="16" viewBox="0 0 16 16" fill="none" xmlns="http://www.w3.org/2000/svg">
<g clip-path="url(#clip0_195_49)">
<path d="M14.668 8.66699C14.4912 8.66699 14.3216 8.73723 14.1966 8.86225C14.0715 8.98728 14.0013 9.15685 14.0013 9.33366V12.1423C14.0008 12.6349 13.8048 13.1072 13.4565 13.4555C13.1082 13.8039 12.6359 13.9998 12.1433 14.0003H3.8593C3.36669 13.9998 2.89441 13.8039 2.54608 13.4555C2.19775 13.1072 2.00183 12.6349 2.0013 12.1423V9.33366C2.0013 9.15685 1.93106 8.98728 1.80604 8.86225C1.68102 8.73723 1.51145 8.66699 1.33464 8.66699C1.15782 8.66699 0.988255 8.73723 0.863231 8.86225C0.738207 8.98728 0.667969 9.15685 0.667969 9.33366V12.1423C0.668851 12.9884 1.00536 13.7997 1.60366 14.398C2.20196 14.9963 3.01318 15.3328 3.8593 15.3337H12.1433C12.9894 15.3328 13.8006 14.9963 14.3989 14.398C14.9972 13.7997 15.3338 12.9884 15.3346 12.1423V9.33366C15.3346 9.15685 15.2644 8.98728 15.1394 8.86225C15.0143 8.73723 14.8448 8.66699 14.668 8.66699Z" fill="white"/>
<path d="M4.46965 5.80485L7.33165 2.94285V11.3335C7.33165 11.5103 7.40189 11.6799 7.52691 11.8049C7.65194 11.9299 7.82151 12.0002 7.99832 12.0002C8.17513 12.0002 8.3447 11.9299 8.46972 11.8049C8.59475 11.6799 8.66499 11.5103 8.66499 11.3335V2.94285L11.527 5.80485C11.6527 5.92629 11.8211 5.99348 11.9959 5.99197C12.1707 5.99045 12.3379 5.92033 12.4615 5.79673C12.5851 5.67312 12.6552 5.50592 12.6568 5.33112C12.6583 5.15632 12.5911 4.98792 12.4697 4.86218L8.46965 0.862183C8.34463 0.737202 8.17509 0.666992 7.99832 0.666992C7.82154 0.666992 7.652 0.737202 7.52699 0.862183L3.52699 4.86218C3.40555 4.98792 3.33835 5.15632 3.33987 5.33112C3.34139 5.50592 3.4115 5.67312 3.53511 5.79673C3.65871 5.92033 3.82592 5.99045 4.00072 5.99197C4.17552 5.99348 4.34392 5.92629 4.46965 5.80485Z" fill="white"/>
</g>
<defs>
<clipPath id="clip0_195_49">
<rect width="16" height="16" fill="white"/>
</clipPath>
</defs>
</svg>
