<svg width="20" height="20" viewBox="0 0 20 20" fill="none" xmlns="http://www.w3.org/2000/svg">
<g clip-path="url(#clip0_195_111)">
<path d="M19.5413 3.27263C19.5261 3.19081 19.4686 3.12415 19.3898 3.0999C18.2201 2.75142 17.1686 1.8393 16.6413 0.718086C16.611 0.65445 16.5534 0.608995 16.4837 0.596874C16.414 0.584753 16.3443 0.602935 16.2928 0.65445C15.1837 1.71203 14.7473 3.16354 14.5776 4.19384C14.3655 5.49081 14.4352 6.81506 14.5019 8.09384C14.5231 8.47869 14.5443 8.88475 14.5655 9.29384C13.4837 6.77263 11.1867 5.11506 8.40795 4.95142C8.2231 4.9393 8.04128 4.93627 7.85946 4.94233C4.6928 4.85445 1.96552 6.72415 0.871584 9.75445C-0.222355 12.7938 0.901887 16.0241 3.73522 17.9848C4.96855 18.8393 6.55037 19.406 8.16552 19.406C8.20492 19.406 8.24128 19.4029 8.28067 19.4029H8.29886H8.30492H8.45643C9.88977 19.4029 11.3534 18.9575 12.6261 17.8726C13.4019 17.212 14.0231 16.3787 14.4564 15.4544C14.4595 15.4484 14.4655 15.4423 14.4686 15.4363C15.1928 14.3544 15.7564 12.9272 16.1443 11.1969C16.2261 10.8241 16.3049 10.4514 16.3837 10.0787C16.5989 9.04233 16.8201 7.97263 17.1716 6.96657C17.7534 5.30597 18.4776 4.1999 19.4534 3.48475C19.5231 3.43627 19.5564 3.35445 19.5413 3.27263ZM14.5867 10.7514C14.6837 11.1757 14.7383 11.609 14.7504 12.0423V12.0454L14.4261 14.3484C14.0413 15.5787 13.3261 16.709 12.3443 17.5454C9.80795 19.706 6.46249 19.1454 4.27158 17.6272C2.25037 16.2272 0.32916 13.3635 1.57461 9.90294C2.58068 7.11506 5.0534 5.37263 7.95037 5.37263C8.0928 5.37263 8.23825 5.37566 8.38068 5.38475C10.814 5.53021 13.7201 7.01506 14.5867 10.7514ZM16.3231 7.99384C15.7958 7.96051 15.2807 7.73324 14.8776 7.39081C14.7958 6.69687 14.9383 5.97869 15.2776 5.3696C15.7473 5.83021 16.3655 6.11203 17.011 6.23021C16.5504 6.69081 16.2746 7.34233 16.3231 7.99384ZM16.9079 5.6696C16.2383 5.51203 15.6261 5.09991 15.1867 4.57263C15.2352 3.66657 15.5776 2.77869 16.1534 2.07263C16.6534 2.7696 17.3837 3.26657 18.1867 3.56354C17.4898 4.04839 16.9898 4.82415 16.9079 5.6696Z" fill="#09090B"/>
<path d="M4.54673 10.7848C4.89824 11.0757 5.38309 11.2818 5.88006 11.2818C6.26188 11.2818 6.65582 11.1605 7.00733 10.8636C7.54976 10.403 7.80733 9.62418 7.6437 8.93024C7.62854 8.85752 7.60733 8.78782 7.58309 8.71812C7.55279 8.63024 7.51642 8.54539 7.47703 8.46358C7.47703 8.46055 7.474 8.45752 7.47097 8.45145C7.12854 7.76055 6.43158 7.36055 5.64673 7.40297C4.85885 7.44539 4.20127 7.93933 3.93158 8.69085C3.66491 9.44539 3.89824 10.2484 4.54673 10.7848ZM4.34673 8.8363C4.55885 8.24539 5.05582 7.87267 5.674 7.83933C5.7043 7.83933 5.73158 7.8363 5.76188 7.8363C6.24067 7.8363 6.66794 8.05146 6.94067 8.41812C5.94976 8.69691 5.12854 9.34539 4.62854 10.2515C4.33158 9.90903 4.14067 9.406 4.34673 8.8363Z" fill="#09090B"/>
<path d="M6.70507 13.2211C6.5778 12.6666 6.26871 12.2302 5.81113 11.9605C5.35659 11.6908 4.80204 11.6181 4.28386 11.7666C3.68386 11.9363 3.21416 12.3787 2.99598 12.9848C2.7081 13.7848 2.99598 14.6393 3.72022 15.1666C4.09295 15.4363 4.51719 15.5726 4.92931 15.5726C5.31719 15.5726 5.69295 15.4514 6.00507 15.209C6.02325 15.1969 6.04143 15.1817 6.06265 15.1636L6.06568 15.1605C6.49901 14.7908 6.75053 14.2181 6.75053 13.6514C6.75356 13.5029 6.7384 13.3605 6.70507 13.2211ZM3.9778 14.812C3.52628 14.4848 3.14143 13.8726 3.4081 13.1332C3.54446 12.7545 3.79295 12.4666 4.12628 12.2969C4.17477 13.309 4.67174 14.2878 5.50204 15.006C4.98083 15.2545 4.38386 15.106 3.9778 14.812Z" fill="#09090B"/>
<path d="M10.353 15.2153C10.353 15.2123 10.353 15.2092 10.35 15.2062C10.35 15.2062 10.35 15.2062 10.35 15.2032C10.0833 14.4092 9.3742 13.891 8.5439 13.882C7.70451 13.8729 6.98329 14.3789 6.69845 15.1729C6.66208 15.2729 6.63481 15.3698 6.61966 15.4638C6.6136 15.488 6.61057 15.5123 6.60754 15.5395V15.5607V15.5668C6.50451 16.3304 6.9136 17.088 7.64996 17.4941C7.97117 17.6729 8.30754 17.7607 8.63481 17.7607C9.04996 17.7607 9.44693 17.6214 9.77117 17.3426C10.3136 16.882 10.5712 16.1032 10.4106 15.4123C10.3924 15.3426 10.3742 15.2789 10.353 15.2153ZM9.48632 17.0092C8.95905 17.4577 8.30148 17.3547 7.85905 17.1123C7.36208 16.8395 7.05602 16.3729 7.02572 15.8759C7.44087 16.0153 7.85602 16.082 8.26208 16.082C8.87723 16.082 9.47117 15.9274 9.99845 15.6213C10.0803 16.1274 9.87723 16.6729 9.48632 17.0092Z" fill="#09090B"/>
<path d="M11.5218 10.9541C11.5128 10.9541 11.5067 10.9572 11.4976 10.9572C10.8431 11.0996 10.3309 11.5541 10.0946 12.2026C9.737 13.1935 10.2734 14.0602 10.9612 14.4784C11.3006 14.6875 11.6703 14.7905 12.0279 14.7905C12.4431 14.7905 12.8431 14.6511 13.1703 14.3723C13.7097 13.9117 13.9673 13.136 13.8097 12.442C13.5218 11.2269 12.4218 10.7723 11.5218 10.9541ZM13.3794 12.542C13.5006 13.0814 13.3037 13.6844 12.8825 14.042C12.4006 14.4511 11.8128 14.3996 11.3825 14.2087C11.8794 13.336 12.037 12.3087 11.8188 11.3541C11.8521 11.3541 11.8825 11.3511 11.9128 11.3511C12.534 11.3511 13.1885 11.7299 13.3794 12.542Z" fill="#09090B"/>
<path d="M9.15772 10.4516C9.5062 10.6789 9.89408 10.794 10.2729 10.794C10.4123 10.794 10.5486 10.7789 10.682 10.7486C10.7244 10.7395 10.7698 10.7274 10.8123 10.7122C10.985 10.6577 11.1486 10.5759 11.3001 10.4698H11.3032C11.3395 10.4425 11.3789 10.4122 11.4153 10.3819C11.8486 10.0122 12.1001 9.4395 12.1001 8.8698C12.1001 8.73041 12.085 8.58798 12.0547 8.44859C11.8517 7.57283 11.1577 6.97586 10.285 6.92132C9.4062 6.8698 8.64257 7.37586 8.3456 8.2092C8.31226 8.29708 8.28802 8.38798 8.26984 8.47586C8.11226 9.22132 8.46075 10.0001 9.15772 10.4516ZM10.1607 7.35162C10.191 7.35162 10.2244 7.35162 10.2547 7.35465C10.7911 7.38798 11.4335 7.71526 11.6244 8.54253C11.7395 9.0395 11.5789 9.59404 11.2183 9.95768C10.6517 9.10617 9.7759 8.53041 8.75772 8.3395C8.98196 7.73041 9.52741 7.35162 10.1607 7.35162Z" fill="#09090B"/>
<path d="M2.64317 9.82054C2.55226 9.77811 2.44317 9.81751 2.40074 9.90841C2.01589 10.7417 1.89468 11.6993 2.05832 12.6054C2.07347 12.6933 2.15226 12.7539 2.23711 12.7539C2.24923 12.7539 2.25832 12.7539 2.27044 12.7508C2.37044 12.7327 2.43408 12.6387 2.41589 12.5387C2.26438 11.7084 2.3765 10.8266 2.73105 10.0599C2.7765 9.97205 2.73408 9.86296 2.64317 9.82054Z" fill="#09090B"/>
<path d="M3.07828 9.31867L3.15404 9.19443C3.20858 9.10958 3.18131 8.99746 3.09646 8.94292C3.01161 8.8914 2.89949 8.91564 2.84495 9.00049L2.76616 9.12473C2.71464 9.20958 2.73889 9.3217 2.82373 9.37625C2.85404 9.39443 2.88737 9.40352 2.9207 9.40352C2.98434 9.40352 3.04495 9.37322 3.07828 9.31867Z" fill="#09090B"/>
</g>
<defs>
<clipPath id="clip0_195_111">
<rect width="20" height="20" fill="white"/>
</clipPath>
</defs>
</svg>
