<svg width="33" height="32" viewBox="0 0 33 32" fill="none" xmlns="http://www.w3.org/2000/svg">
<path d="M29.7773 17.333C29.4237 17.333 29.0846 17.4735 28.8345 17.7235C28.5845 17.9736 28.444 18.3127 28.444 18.6663V24.2837C28.443 25.2689 28.0511 26.2135 27.3545 26.9101C26.6578 27.6068 25.7132 27.9986 24.728 27.9997H8.16001C7.17479 27.9986 6.23023 27.6068 5.53357 26.9101C4.83692 26.2135 4.44507 25.2689 4.44401 24.2837V18.6663C4.44401 18.3127 4.30353 17.9736 4.05349 17.7235C3.80344 17.4735 3.4643 17.333 3.11068 17.333C2.75706 17.333 2.41792 17.4735 2.16787 17.7235C1.91782 17.9736 1.77734 18.3127 1.77734 18.6663V24.2837C1.77911 25.9759 2.45213 27.5984 3.64873 28.795C4.84533 29.9916 6.46776 30.6646 8.16001 30.6663H24.728C26.4203 30.6646 28.0427 29.9916 29.2393 28.795C30.4359 27.5984 31.1089 25.9759 31.1107 24.2837V18.6663C31.1107 18.3127 30.9702 17.9736 30.7202 17.7235C30.4701 17.4735 30.131 17.333 29.7773 17.333Z" fill="#9CA3AF"/>
<path d="M9.38852 11.6097L15.1125 5.8857V22.667C15.1125 23.0207 15.253 23.3598 15.503 23.6098C15.7531 23.8599 16.0922 24.0004 16.4459 24.0004C16.7995 24.0004 17.1386 23.8599 17.3887 23.6098C17.6387 23.3598 17.7792 23.0207 17.7792 22.667V5.8857L23.5032 11.6097C23.7547 11.8526 24.0915 11.987 24.4411 11.9839C24.7907 11.9809 25.1251 11.8407 25.3723 11.5935C25.6195 11.3462 25.7597 11.0118 25.7628 10.6622C25.7658 10.3126 25.6314 9.97584 25.3885 9.72437L17.3885 1.72437C17.1385 1.4744 16.7994 1.33398 16.4459 1.33398C16.0923 1.33398 15.7532 1.4744 15.5032 1.72437L7.50319 9.72437C7.26031 9.97584 7.12592 10.3126 7.12896 10.6622C7.13199 11.0118 7.27222 11.3462 7.51943 11.5935C7.76664 11.8407 8.10106 11.9809 8.45065 11.9839C8.80025 11.987 9.13705 11.8526 9.38852 11.6097Z" fill="#9CA3AF"/>
</svg>
