<svg width="20" height="20" viewBox="0 0 20 20" fill="none" xmlns="http://www.w3.org/2000/svg">
<g clip-path="url(#clip0_195_179)">
<path d="M16.0464 3.38989C15.5367 3.38989 15.1221 3.80548 15.1221 4.31634V15.6884C15.1687 16.9179 16.9279 16.9134 16.9743 15.6884V4.31634C16.9743 3.80552 16.558 3.38989 16.0464 3.38989Z" fill="#09090B"/>
<path d="M10.0001 3.38995C9.48848 3.38995 9.07227 3.80554 9.07227 4.3164V15.6885C9.11902 16.9162 10.8817 16.9152 10.928 15.6885V4.3164C10.928 3.80558 10.5118 3.38995 10.0001 3.38995Z" fill="#09090B"/>
<path d="M13.0239 6.77744C12.5142 6.77744 12.0996 7.19302 12.0996 7.70388V12.301C12.1462 13.5305 13.9054 13.526 13.9518 12.301V7.70388C13.9518 7.19302 13.5355 6.77744 13.0239 6.77744Z" fill="#09090B"/>
<path d="M19.0737 8.47168C18.5641 8.47168 18.1494 8.88727 18.1494 9.39812V10.6077C18.1961 11.8372 19.9552 11.8327 20.0016 10.6077V9.39812C20.0016 8.88727 19.5854 8.47168 19.0737 8.47168Z" fill="#09090B"/>
<path d="M0.927891 8.47168C0.41625 8.47168 0 8.88727 0 9.39809V10.6077C0.0467969 11.8336 1.80598 11.8362 1.85215 10.6077V9.39809C1.85215 8.88727 1.43754 8.47168 0.927891 8.47168Z" fill="#09090B"/>
<path d="M3.95035 5.08423C3.43871 5.08423 3.02246 5.49981 3.02246 6.01067V13.9953C3.06926 15.2212 4.82848 15.2238 4.87469 13.9953V6.01067C4.87469 5.49981 4.46004 5.08423 3.95035 5.08423Z" fill="#09090B"/>
<path d="M6.97766 0.00244141C6.46602 0.00244141 6.0498 0.418027 6.0498 0.928887V19.076C6.09656 20.3019 7.85574 20.3045 7.90195 19.076V0.928887C7.90195 0.418027 7.4873 0.00244141 6.97766 0.00244141Z" fill="#09090B"/>
</g>
<defs>
<clipPath id="clip0_195_179">
<rect width="20" height="20" fill="white"/>
</clipPath>
</defs>
</svg>
