<svg width="136" height="41" viewBox="0 0 136 41" fill="none" xmlns="http://www.w3.org/2000/svg">
<rect x="0.820312" y="0.5" width="40" height="40" rx="20" fill="#0080FF"/>
<path d="M15.8203 11.7441V29.2441L29.5703 20.4941L15.8203 11.7441Z" fill="white"/>
<path d="M52.255 27.5V12.9545H61.5732V15.1634H54.8899V19.1122H60.9339V21.321H54.8899V27.5H52.255ZM66.9016 27.7202C66.2103 27.7202 65.5877 27.5971 65.0337 27.3509C64.4845 27.0999 64.0489 26.7306 63.7269 26.2429C63.4097 25.7552 63.2511 25.1539 63.2511 24.4389C63.2511 23.8234 63.3647 23.3144 63.592 22.9119C63.8192 22.5095 64.1294 22.1875 64.5224 21.946C64.9154 21.7045 65.3581 21.5223 65.8505 21.3991C66.3477 21.2713 66.8614 21.179 67.3917 21.1222C68.0309 21.0559 68.5494 20.9967 68.9471 20.9446C69.3448 20.8878 69.6336 20.8026 69.8136 20.6889C69.9982 20.5705 70.0906 20.3883 70.0906 20.142V20.0994C70.0906 19.5644 69.9319 19.1501 69.6147 18.8565C69.2975 18.563 68.8406 18.4162 68.244 18.4162C67.6142 18.4162 67.1147 18.5535 66.7454 18.8281C66.3808 19.1027 66.1346 19.4271 66.0067 19.8011L63.6062 19.4602C63.7956 18.7973 64.1081 18.2434 64.5437 17.7983C64.9793 17.3485 65.512 17.0123 66.1417 16.7898C66.7714 16.5625 67.4674 16.4489 68.2298 16.4489C68.7553 16.4489 69.2785 16.5104 69.7994 16.6335C70.3202 16.7566 70.796 16.9602 71.2269 17.2443C71.6578 17.5237 72.0034 17.9048 72.2638 18.3878C72.529 18.8707 72.6616 19.4744 72.6616 20.1989V27.5H70.19V26.0014H70.1048C69.9485 26.3045 69.7283 26.5885 69.4442 26.8537C69.1649 27.1141 68.8121 27.3248 68.386 27.4858C67.9646 27.642 67.4698 27.7202 66.9016 27.7202ZM67.5692 25.831C68.0853 25.831 68.5328 25.7292 68.9116 25.5256C69.2904 25.3172 69.5816 25.0426 69.7852 24.7017C69.9935 24.3608 70.0977 23.9891 70.0977 23.5866V22.3011C70.0172 22.3674 69.8799 22.429 69.6857 22.4858C69.4963 22.5426 69.2833 22.5923 69.0465 22.6349C68.8098 22.6776 68.5754 22.7154 68.3434 22.7486C68.1114 22.7817 67.9102 22.8101 67.7397 22.8338C67.3562 22.8859 67.0129 22.9711 66.7099 23.0895C66.4068 23.2079 66.1677 23.3736 65.9925 23.5866C65.8174 23.795 65.7298 24.0649 65.7298 24.3963C65.7298 24.8698 65.9026 25.2273 66.2482 25.4688C66.5939 25.7102 67.0342 25.831 67.5692 25.831ZM80.0053 27.7131C78.9163 27.7131 77.9812 27.474 77.1999 26.9957C76.4234 26.5175 75.8245 25.857 75.4031 25.0142C74.9864 24.1667 74.7781 23.1913 74.7781 22.0881C74.7781 20.9801 74.9911 20.0024 75.4173 19.1548C75.8434 18.3026 76.4447 17.6397 77.2212 17.1662C78.0025 16.688 78.9258 16.4489 79.9911 16.4489C80.8765 16.4489 81.6602 16.6122 82.342 16.9389C83.0285 17.2609 83.5754 17.7178 83.9826 18.3097C84.3898 18.8968 84.6218 19.5833 84.6786 20.3693H82.2212C82.1218 19.8437 81.8851 19.4058 81.511 19.0554C81.1417 18.7003 80.6469 18.5227 80.0266 18.5227C79.5011 18.5227 79.0394 18.6648 78.6417 18.9489C78.244 19.2282 77.9338 19.6307 77.7113 20.1562C77.4935 20.6818 77.3846 21.3116 77.3846 22.0455C77.3846 22.7888 77.4935 23.428 77.7113 23.9631C77.9291 24.4934 78.2345 24.9029 78.6275 25.1918C79.0252 25.4759 79.4916 25.6179 80.0266 25.6179C80.4054 25.6179 80.744 25.5469 81.0423 25.4048C81.3453 25.258 81.5986 25.0473 81.8022 24.7727C82.0058 24.4981 82.1455 24.1643 82.2212 23.7713H84.6786C84.6171 24.5431 84.3898 25.2273 83.9968 25.8239C83.6038 26.4157 83.0688 26.8797 82.3917 27.2159C81.7146 27.5473 80.9192 27.7131 80.0053 27.7131ZM91.6193 27.7131C90.5256 27.7131 89.581 27.4858 88.7855 27.0312C87.9948 26.572 87.3864 25.9233 86.9602 25.0852C86.5341 24.2424 86.321 23.2505 86.321 22.1094C86.321 20.9872 86.5341 20.0024 86.9602 19.1548C87.3911 18.3026 87.9924 17.6397 88.7642 17.1662C89.536 16.688 90.4427 16.4489 91.4844 16.4489C92.1567 16.4489 92.7912 16.5578 93.3878 16.7756C93.9891 16.9886 94.5194 17.3201 94.9787 17.7699C95.4427 18.2197 95.8073 18.7926 96.0724 19.4886C96.3376 20.1799 96.4702 21.0038 96.4702 21.9602V22.7486H87.5284V21.0156H94.0057C94.0009 20.5232 93.8944 20.0852 93.6861 19.7017C93.4777 19.3134 93.1866 19.008 92.8125 18.7855C92.4432 18.563 92.0123 18.4517 91.5199 18.4517C90.9943 18.4517 90.5327 18.5795 90.1349 18.8352C89.7372 19.0862 89.4271 19.4176 89.2045 19.8295C88.9867 20.2367 88.8755 20.6842 88.8707 21.1719V22.6847C88.8707 23.3191 88.9867 23.8636 89.2188 24.3182C89.4508 24.768 89.7751 25.1136 90.1918 25.3551C90.6084 25.5919 91.0961 25.7102 91.6548 25.7102C92.0289 25.7102 92.3674 25.6581 92.6705 25.554C92.9735 25.4451 93.2363 25.2865 93.4588 25.0781C93.6813 24.8698 93.8494 24.6117 93.9631 24.304L96.3636 24.5739C96.2121 25.2083 95.9233 25.7623 95.4972 26.2358C95.0758 26.7045 94.536 27.0691 93.8778 27.3295C93.2197 27.5852 92.4669 27.7131 91.6193 27.7131ZM111.209 17.8622H108.553C108.477 17.4266 108.337 17.0407 108.134 16.7045C107.93 16.3636 107.677 16.0748 107.374 15.8381C107.071 15.6013 106.725 15.4238 106.337 15.3054C105.953 15.1823 105.539 15.1207 105.094 15.1207C104.303 15.1207 103.603 15.3196 102.992 15.7173C102.381 16.1103 101.903 16.688 101.557 17.4503C101.212 18.2079 101.039 19.1335 101.039 20.2273C101.039 21.34 101.212 22.2775 101.557 23.0398C101.908 23.7973 102.386 24.3703 102.992 24.7585C103.603 25.142 104.301 25.3338 105.087 25.3338C105.523 25.3338 105.93 25.277 106.309 25.1634C106.692 25.045 107.035 24.8722 107.338 24.6449C107.646 24.4176 107.904 24.1383 108.113 23.8068C108.326 23.4754 108.472 23.0966 108.553 22.6705L111.209 22.6847C111.11 23.3759 110.894 24.0246 110.563 24.6307C110.236 25.2367 109.808 25.7718 109.277 26.2358C108.747 26.6951 108.127 27.0549 107.417 27.3153C106.706 27.571 105.918 27.6989 105.051 27.6989C103.773 27.6989 102.632 27.4029 101.628 26.8111C100.624 26.2192 99.8337 25.3646 99.256 24.2472C98.6784 23.1297 98.3896 21.7898 98.3896 20.2273C98.3896 18.66 98.6808 17.3201 99.2631 16.2074C99.8455 15.09 100.639 14.2353 101.642 13.6435C102.646 13.0516 103.783 12.7557 105.051 12.7557C105.861 12.7557 106.614 12.8693 107.31 13.0966C108.006 13.3239 108.626 13.6577 109.171 14.098C109.715 14.5336 110.163 15.0687 110.513 15.7031C110.868 16.3329 111.1 17.0526 111.209 17.8622ZM116.08 12.9545V27.5H113.509V12.9545H116.08ZM118.723 27.5V16.5909H121.294V27.5H118.723ZM120.016 15.0426C119.609 15.0426 119.258 14.9077 118.965 14.6378C118.671 14.3632 118.525 14.0341 118.525 13.6506C118.525 13.2623 118.671 12.9332 118.965 12.6634C119.258 12.3887 119.609 12.2514 120.016 12.2514C120.428 12.2514 120.778 12.3887 121.067 12.6634C121.361 12.9332 121.507 13.2623 121.507 13.6506C121.507 14.0341 121.361 14.3632 121.067 14.6378C120.778 14.9077 120.428 15.0426 120.016 15.0426ZM123.938 31.5909V16.5909H126.467V18.3949H126.616C126.748 18.1297 126.935 17.848 127.177 17.5497C127.418 17.2467 127.745 16.9886 128.157 16.7756C128.569 16.5578 129.094 16.4489 129.734 16.4489C130.576 16.4489 131.336 16.6643 132.013 17.0952C132.695 17.5213 133.235 18.1534 133.633 18.9915C134.035 19.8248 134.237 20.8475 134.237 22.0597C134.237 23.2576 134.04 24.2756 133.647 25.1136C133.254 25.9517 132.719 26.5909 132.042 27.0312C131.365 27.4716 130.598 27.6918 129.741 27.6918C129.116 27.6918 128.597 27.5876 128.185 27.3793C127.773 27.1709 127.442 26.92 127.191 26.6264C126.945 26.3281 126.753 26.0464 126.616 25.7812H126.509V31.5909H123.938ZM126.46 22.0455C126.46 22.7509 126.559 23.3688 126.758 23.8991C126.961 24.4295 127.253 24.8437 127.631 25.142C128.015 25.4356 128.479 25.5824 129.023 25.5824C129.592 25.5824 130.067 25.4309 130.451 25.1278C130.835 24.8201 131.123 24.401 131.317 23.8707C131.516 23.3357 131.616 22.7273 131.616 22.0455C131.616 21.3684 131.519 20.767 131.325 20.2415C131.13 19.7159 130.842 19.304 130.458 19.0057C130.075 18.7074 129.596 18.5582 129.023 18.5582C128.474 18.5582 128.008 18.7027 127.624 18.9915C127.241 19.2803 126.95 19.6851 126.751 20.206C126.557 20.7268 126.46 21.34 126.46 22.0455Z" fill="#0080FF"/>
</svg>
